<?xml version="1.0" standalone="no"?>
<!DOCTYPE svg PUBLIC "-//W3C//DTD SVG 20010904//EN"
 "http://www.w3.org/TR/2001/REC-SVG-20010904/DTD/svg10.dtd">
<svg version="1.0" xmlns="http://www.w3.org/2000/svg"
 width="54.000000pt" height="85.000000pt" viewBox="0 0 54.000000 85.000000"
 preserveAspectRatio="xMidYMid meet">

<g transform="translate(0.000000,85.000000) scale(0.100000,-0.100000)"
fill="#000000" stroke="none">
<path d="M340 765 c0 -2 25 -12 56 -21 30 -9 54 -17 52 -19 -2 -1 -39 -12 -83
-24 -211 -58 -318 -178 -302 -339 15 -143 156 -294 297 -318 29 -4 25 -1 -21
19 -80 34 -122 62 -164 109 -77 85 -106 200 -77 305 15 52 86 131 149 165 48
26 200 74 209 65 2 -2 -5 -15 -16 -30 -23 -29 -25 -37 -7 -37 15 0 69 67 71
88 1 12 -14 20 -49 28 -52 13 -115 17 -115 9z"/>
</g>
</svg>
