<?xml version="1.0" encoding="UTF-8"?>
<svg id="Layer_1" data-name="Layer 1" xmlns="http://www.w3.org/2000/svg" viewBox="0 0 1198.07 1346.85">
  <defs>
    <style>
      .cls-1 {
        fill: #090311;
      }

      .cls-2 {
        fill: #ede9f4;
      }

      .cls-3 {
        fill: #f7f4f9;
      }

      .cls-4 {
        fill: #fff;
      }

      .cls-5 {
        fill: #9579b7;
      }

      .cls-6 {
        fill: #967ab7;
      }

      .cls-7 {
        fill: #e6ddee;
      }

      .cls-8 {
        fill: #2d2164;
      }

      .cls-9 {
        fill: #f2eef6;
      }

      .cls-10 {
        fill: #9b7fba;
      }

      .cls-11 {
        fill: #322469;
      }

      .cls-12 {
        fill: #f9f7fb;
      }

      .cls-13 {
        fill: #c7b7da;
      }

      .cls-14 {
        fill: #9074b4;
      }

      .cls-15 {
        fill: #462f89;
      }

      .cls-16 {
        fill: #624099;
      }

      .cls-17 {
        fill: #d0c2df;
      }

      .cls-18 {
        fill: #2e2165;
      }

      .cls-19 {
        fill: #512e90;
      }

      .cls-20 {
        fill: #2d2165;
      }

      .cls-21 {
        fill: #b19ac9;
      }

      .cls-22 {
        fill: #8060a9;
      }

      .cls-23 {
        fill: #f5f2f8;
      }

      .cls-24 {
        fill: #f2eff6;
      }

      .cls-25 {
        fill: #442f88;
      }

      .cls-26 {
        fill: #402d87;
      }

      .cls-27 {
        fill: #6b4a9e;
      }
    </style>
  </defs>
  <path class="cls-6" d="m0,975.1v-195.02c.67-1.49,1.91-2.99,1.92-4.48.1-56.35.1-112.7,0-169.06,0-1.49-1.25-2.99-1.92-4.48,0-46,0-92.01,0-138.01.33-1.57.95-3.14.96-4.71.06-22.86.06-45.73,0-68.59,0-1.57-.63-3.14-.96-4.71,0-4.67,0-9.33,0-14,.59-.18,1.63-.27,1.7-.56,1.92-9.11,3.54-18.2,9.04-26.2,3.26-4.75,4.84-10.63,7.97-15.5,8.44-13.16,19.49-24,32.91-31.86,50.81-29.76,101.79-59.23,152.81-88.64,45.55-26.26,91.25-52.25,136.85-78.42,30.26-17.37,60.46-34.84,90.66-52.3,30.92-17.87,61.85-35.72,92.7-53.72,17.31-10.1,34.77-19.74,54.95-22.98.57-.09.97-1.22,1.44-1.86,2,0,4,0,6,0,.03.21.06.43.08.64.31-.21.61-.43.92-.64,7,0,14,0,21,0h2C612.02,0,613.02,0,614.02,0c-.19.25-.38.5-.57.74.87.29,1.73.59,2.6.86,10.96,3.39,22.28,5.94,32.78,10.4,10.12,4.3,19.39,10.59,29.03,16,.67.18,1.33.36,2,.55,8,4.82,16,9.64,24,14.46.67.18,1.33.36,2,.55,10.33,6.15,20.67,12.3,31,18.46.67.18,1.33.36,2,.55,8.01,4.82,16.01,9.64,24.02,14.46.66.18,1.32.36,1.99.55,10.33,6.15,20.67,12.3,31,18.46.67.18,1.33.36,2,.55,8.01,4.82,16.01,9.64,24.02,14.46.66.18,1.32.36,1.99.55,10.33,6.15,20.66,12.3,31,18.45.72.29,1.43.59,2.15.88,7.96,4.71,15.91,9.41,23.87,14.12.66.18,1.32.36,1.99.55,10.33,6.15,20.67,12.3,31,18.45l2.14.88c10.28,6.04,20.57,12.08,30.85,18.12.72.29,1.43.59,2.15.88,10.28,6.04,20.57,12.08,30.85,18.12.67.18,1.33.36,2,.55,8.01,4.82,16.01,9.64,24.02,14.46.66.18,1.32.36,1.98.55,10.34,6.15,20.68,12.3,31.02,18.45.66.18,1.32.36,1.99.55,10.33,6.15,20.67,12.3,31,18.46.67.18,1.33.36,2,.55,10.33,6.15,20.67,12.3,31,18.45.71.29,1.43.59,2.14.88,10.44,6.05,21.08,11.79,31.27,18.24,7.86,4.98,15.46,10.48,22.6,16.44,5.5,4.6,10.12,10.26,15.12,15.45.34.65.69,1.29,1.03,1.94,1.99,2.96,3.99,5.91,5.98,8.87-2.81,1.75-5.57,3.59-8.43,5.24-62.59,36.06-125.19,72.09-187.79,108.13-.28-.05-.5-.18-.66-.42-5.21-8.62-10.15-17.42-15.7-25.82-15.88-24.08-34.8-45.68-55.04-66.14-6.05-6.11-12.41-11.91-18.64-17.85-.26-.3-.51-.59-.77-.89-.1-.37-.2-.75-.31-1.12-.22-.24-.43-.48-.65-.73-2.1-1.41-4.2-2.82-6.31-4.22-.57-.38-1.14-.76-1.7-1.14-2.98-2.39-5.89-4.87-8.94-7.16-9.26-6.94-18.35-14.13-27.92-20.62-9.44-6.41-19.36-12.09-29.08-18.09l-2.08-1.34c-11.85-5.87-23.69-11.75-35.54-17.62-1.03-1.67-1.76-4.03-4.44-1.98-9.01-3.69-18.01-7.39-27.02-11.08-.67,0-1.34,0-2.01,0-6.42-2.3-12.85-4.59-19.27-6.89-.08,0-.17.02-.25.02-2.18-.67-4.35-1.33-6.53-2-.97-.34-1.95-.67-2.92-1.01-10.62-2.25-21.22-4.63-31.87-6.72-8.04-1.58-16.15-2.82-24.23-4.21-.64-.34-1.28-.69-1.93-1.03-8.09,1.46-15.78-2.01-24.01-1.52-11.33.69-22.81-.92-34.21-1.7-2.2-.15-4.39-1.57-6.51-1.41-7.65.59-15.25,1.67-22.89,2.39-1.56.15-3.23-.82-4.78-.64-6.42.76-12.8,2-19.23,2.64-26.39,2.63-52.16,8.24-77.62,15.52-6.51,1.86-13.31,2.78-19.68,4.98-6.27,2.16-12.11,5.53-18.25,8.12-2.38,1-5.29.85-7.58,1.99-9.13,4.56-18.03,9.56-27.16,14.13-5.27,2.63-11.11,4.21-16.14,7.2-8.22,4.89-16.03,10.48-23.93,15.89-8.93,6.12-18.21,11.84-26.53,18.72-8.1,6.69-18.28,10.97-24.23,20.25-.26.4-.77.63-1.13.97-1.83,1.78-3.65,3.57-5.47,5.36-.27.16-.49.38-.65.65-4.64,3.88-9.47,7.55-13.86,11.69-4.91,4.64-9.33,9.8-14.15,14.54-2.07,2.03-4.61,3.57-6.94,5.34-.43,1.28-.85,2.57-1.28,3.85l-2.85,2.8c-1.23,1.37-2.45,2.75-3.68,4.12-6.11,7.96-12.21,15.91-18.32,23.87-.9,1.04-1.8,2.08-2.7,3.12-3.68,5.7-7.32,11.42-11.05,17.09-4.83,7.33-10.03,14.44-14.49,21.98-3.12,5.28-5.29,11.12-7.88,16.72-5.27,11.43-10.54,22.86-15.81,34.3-.73.98-1.45,1.96-2.18,2.93-.2,1.13-.26,2.31-.63,3.38-4.36,12.56-8.93,25.06-13.08,37.69-1.83,5.56-2.96,11.37-4.18,17.11-1.44,6.77-2.6,13.6-3.95,20.4-1.66,8.38-3.51,16.73-5.02,25.14-.53,2.95-.02,6.07-.46,9.04-.6,4.01-2.06,7.91-2.44,11.92-.61,6.42-.82,12.89-.88,19.34-.16,16.31-.24,32.63-.13,48.94.02,2.65,1.48,5.27,1.74,7.95.32,3.35-.27,6.8.15,10.13.72,5.68,1.96,11.29,2.9,16.94.44,2.62.61,5.27,1.04,7.89,1.51,9.14,3.07,18.26,4.62,27.39-.41.59-.81,1.18-1.22,1.76.54.75,1.36,1.42,1.59,2.25,3.13,11.56,6.18,23.13,9.25,34.71.61,1.02,1.22,2.03,1.83,3.05.04.33.08.67.12,1-.28.66-.57,1.33-.85,1.99-.17.31-.17.62-.01.93.34.69.67,1.37,1.01,2.06,1.33,2.99,2.66,5.97,3.98,8.96,0,.68,0,1.36,0,2.04,2.02,4.32,4.05,8.64,6.07,12.96.59.96,1.17,1.92,1.76,2.89,5.86,12.7,11.71,25.4,17.57,38.11.21.64.43,1.29.64,1.93l4.8,7.96c-5.55,3.12-11.2,6.07-16.62,9.4-4.79,2.95-9.12,6.69-14.01,9.44-5.74,3.22-12.07,5.4-17.77,8.68-5.44,3.12-10.21,7.42-15.64,10.55-5.84,3.36-12.31,5.63-18.15,8.99-5.73,3.3-10.84,7.66-16.56,11-4.82,2.82-10.18,4.69-15.16,7.25-3.25,1.67-6.22,3.87-9.37,5.75-7.36,4.4-14.72,8.8-22.15,13.09-3.42,1.98-7.05,3.6-10.5,5.53-8.01,4.48-15.99,9-23.93,13.6-3.31,1.92-6.5,4.04-9.71,6.12-2.88,1.87-5.72,3.82-8.58,5.73-1.01-.31-2.02-.63-3.03-.94-1.29-2.72-2.58-5.44-3.86-8.16-.22-.61-.43-1.21-.65-1.82-1.12-3.36-2.24-6.72-3.36-10.09-.38-.98-.75-1.96-1.13-2.94-.19-.36-.39-.71-.58-1.07-.04-.99-.08-1.97-.12-2.96-.3-.68-.6-1.36-.9-2.04-.13-.98-.27-1.96-.4-2.94-.63-.01-1.26-.02-1.88-.03Z"/>
  <path class="cls-5" d="m0,602.06c.67,1.49,1.91,2.99,1.92,4.48.1,56.35.1,112.7,0,169.06,0,1.49-1.25,2.99-1.92,4.48C0,720.74,0,661.4,0,602.06Z"/>
  <path class="cls-5" d="m0,386.04c.33,1.57.96,3.14.96,4.71.06,22.86.06,45.73,0,68.59,0,1.57-.62,3.14-.96,4.71,0-26,0-52.01,0-78.01Z"/>
  <path d="m588.02,0c-.31.21-.61.43-.92.64-.03-.21-.06-.43-.08-.64.33,0,.67,0,1,0Z"/>
  <path class="cls-4" d="m241.97,410.94c6.11-7.96,12.21-15.91,18.32-23.87,1.23-1.37,2.45-2.75,3.68-4.12.95-.93,1.9-1.87,2.85-2.8.43-1.28.85-2.57,1.28-3.85,2.33-1.76,4.88-3.3,6.94-5.34,4.82-4.74,9.24-9.9,14.15-14.54,4.39-4.14,9.22-7.81,13.86-11.69.22-.22.43-.43.65-.65,1.82-1.79,3.64-3.58,5.47-5.36.36-.35.87-.57,1.13-.97,5.94-9.27,16.12-13.55,24.23-20.25,8.32-6.87,17.6-12.6,26.53-18.72,7.9-5.41,15.71-11,23.93-15.89,5.03-2.99,10.87-4.57,16.14-7.2,9.12-4.56,18.03-9.56,27.16-14.13,2.28-1.14,5.19-.98,7.58-1.99,6.14-2.58,11.98-5.95,18.25-8.12,6.37-2.2,13.18-3.12,19.68-4.98,25.46-7.29,51.23-12.89,77.62-15.52,6.43-.64,12.8-1.88,19.23-2.64,1.55-.18,3.22.78,4.78.64,7.64-.72,15.24-1.81,22.89-2.39,2.12-.16,4.31,1.26,6.51,1.41,11.4.78,22.88,2.39,34.21,1.7,8.23-.5,15.92,2.97,24.01,1.52.64.34,1.28.69,1.93,1.03,8.08,1.39,16.19,2.62,24.23,4.21,10.65,2.1,21.25,4.47,31.87,6.72.97.34,1.95.67,2.92,1.01,2.18.67,4.35,1.33,6.52,2,0,0,.25-.02.25-.02,6.42,2.3,12.85,4.59,19.27,6.89.67,0,1.34,0,2.01,0,9.01,3.69,18.01,7.39,27.02,11.08,1.48.66,2.96,1.32,4.44,1.98,11.85,5.87,23.69,11.75,35.54,17.62.69.44,1.39.89,2.08,1.34,9.71,6,19.64,11.68,29.08,18.09,9.56,6.49,18.66,13.68,27.92,20.62,3.05,2.29,5.97,4.77,8.94,7.16.57.38,1.14.76,1.7,1.15,2.1,1.41,4.2,2.82,6.31,4.22.15.3.37.54.65.73.1.37.2.75.31,1.12.26.3.51.59.77.89,6.22,5.94,12.59,11.73,18.64,17.85,20.24,20.46,39.16,42.06,55.04,66.14,5.54,8.4,10.48,17.2,15.69,25.83-.09.29-.14.58-.13.88-15.83,9.15-31.67,18.28-47.48,27.46-18.86,10.94-37.69,21.93-56.54,32.89-1.32.59-2.63,1.17-3.95,1.76-9.68,5.75-19.37,11.5-29.05,17.25l-3.94,1.75c-16.96,9.81-33.92,19.62-50.89,29.44-1.04-.98-2.25-1.84-3.1-2.97-8.05-10.58-15.46-21.72-24.16-31.73-27.1-31.2-61.09-51.9-100.3-64.57-12.72-4.11-26.37-4.23-38.68-9.77-.28-.12-.66-.05-.99-.02-3.28.29-6.55.74-9.83.85-14.44.49-28.88.9-43.32,1.3-3.77.11-7.66-.47-11.28.29-5.26,1.1-10.31,3.13-15.46,4.74-5.79,1.81-11.6,3.55-17.37,5.4-29.4,9.42-55.01,25.59-77.55,46.16-12.99,11.85-24.18,25.78-35.32,39.47-4.77,5.87-7.93,13.28-10.83,20.4-7.79,19.15-15.05,38.51-22.5,57.79-.15.4.04.93,0,1.38-.55,5.26-.97,10.54-1.71,15.78-.69,4.91-3.09,10-2.31,14.6,1.97,11.73-.95,23.5,1.49,35.29,1.03,4.98.76,10.49,2.19,15.64,3.65,13.16,6.53,26.6,11.13,39.42,3.96,11.03,9.86,21.35,14.91,31.99.27.89.37,1.88.83,2.66,11.99,20.11,25.66,38.79,43.86,53.92,13.96,11.6,28.22,22.71,44.25,31.34,6.01,3.24,12.03,6.61,18.37,9.08,8.68,3.38,17.52,6.56,26.56,8.72,12.92,3.09,26.01,6.69,39.16,7.37,22.74,1.18,45.65,1.28,68.03-4.61.58-.2,1.15-.4,1.73-.6.78-.12,1.57-.25,2.35-.37l1.63-.58c.78-.14,1.56-.28,2.34-.42.56-.21,1.13-.43,1.69-.64,2.79-.83,5.59-1.6,8.35-2.49,31.63-10.23,60-26.11,84.18-49.06,6.41-6.09,12.95-12.1,18.37-19.17,3.96-5.16,8.38-9.99,12.05-15.34,3.79-5.52,6.92-11.49,10.33-17.26,1.39.36,2.94.44,4.15,1.13,8.74,4.97,17.41,10.05,26.1,15.1.43.25.85.52,1.28.78,8.95,5.27,17.94,10.47,26.83,15.83,5.28,3.19,10.32,6.76,15.62,9.92,5.34,3.19,10.9,5.99,16.27,9.12,7.23,4.22,14.3,8.72,21.57,12.88,8.41,4.82,16.98,9.36,25.43,14.12,9.5,5.36,18.96,10.8,28.41,16.27,7.22,4.18,14.41,8.41,21.55,12.71,2.44,1.47,4.71,3.23,7.06,4.85-2.85,4.43-5.69,8.85-8.54,13.28-.22.6-.44,1.2-.66,1.8-4.45,6.35-8.89,12.71-13.34,19.06-.86,1.02-1.72,2.03-2.58,3.05-.14.34-.29.67-.43,1.01-.33.65-.66,1.29-.99,1.94-.33.31-.66.62-1,.92-.3.34-.6.69-.9,1.03l-.11.17c-.32.63-.65,1.25-.97,1.88l-1.02.92c-.3.34-.6.69-.91,1.03l-.11.16c-.33.63-.65,1.26-.98,1.89-3.32,4.05-6.64,8.11-9.96,12.16-.33.27-.66.53-.99.8,0,0-.08.1-.08.1-.88,1-1.77,2-2.65,3-.78.98-1.56,1.96-2.34,2.94-1.54,1.69-3.07,3.38-4.61,5.06-1.13,1.3-2.25,2.61-3.38,3.91-.37.67-.73,1.34-1.1,2.02-8.64,8.63-17.27,17.27-25.91,25.9-.68.37-1.36.74-2.04,1.11l-4.88,4.32c-1.38,1.23-2.75,2.45-4.13,3.68-.96.78-1.92,1.56-2.87,2.34-1.3,1.24-2.59,2.48-3.89,3.72-4.05,3.39-8.09,6.77-12.14,10.16-.73.58-1.46,1.17-2.19,1.75-1.36.92-2.75,1.82-4.09,2.77-18.27,13.05-36.55,26.09-57.16,35.35-2.48,1.12-5.35,1.46-7.7,2.76-5.8,3.2-11.11,7.45-17.16,10.03-14.33,6.11-28.81,11.97-43.54,17.03-11.86,4.07-24.17,6.82-36.28,10.15-.24-.03-.46.04-.64.2-6.06,1.27-12.12,2.54-18.18,3.81-.69.25-1.37.49-2.06.73-.76.06-1.52.13-2.28.19-.9.24-1.79.47-2.69.71-1.1.1-2.21.2-3.31.3-.89.23-1.79.46-2.68.68-6.57,1.08-13.12,2.45-19.73,3.18-8.41.92-16.89,1.31-25.33,1.93-.65,0-1.31-.01-1.96-.02-16.68,0-33.36-.01-50.04-.02-.99.01-1.98.03-2.96.04-8.38-.73-16.79-1.2-25.12-2.3-4.06-.53-7.9-2.64-11.96-3.3-3.91-.63-7.96-.3-11.96-.39-.94-.26-1.88-.51-2.82-.77-1.07-.12-2.14-.25-3.22-.37-.61-.2-1.23-.4-1.84-.61-11.85-2.63-23.75-5.08-35.53-8.02-3.58-.89-7.11-4.92-10.16-4.43-6.18,1-10.56-3.11-16-3.64-1.23-.12-3.29-.78-3.42-1.48-.58-3.2-2.15-2.6-4.29-1.78-.69.26-1.76-.37-2.63-.68-24.23-8.88-47.35-20.15-69.44-33.39-12.86-7.71-25.19-16.35-37.54-24.88-6.28-4.34-12.21-9.23-18.06-14.15-2.14-1.8-3.6-4.41-5.9-7.33-.68-.16-2.9-.1-4.32-1.15-3.38-2.49-6.46-5.42-9.52-8.33-4.71-4.47-9.4-8.97-13.92-13.64-7.12-7.37-14.23-14.76-21.06-22.4-2.83-3.16-4.75-7.11-7.44-10.41-3.47-4.26-7.69-7.96-10.91-12.39-7.19-9.91-14.05-20.07-20.88-30.24-4.16-6.19-8.04-12.57-12.05-18.86-1.6-2.65-3.2-5.31-4.8-7.96-.21-.64-.43-1.29-.64-1.93-5.86-12.7-11.71-25.4-17.57-38.11-.59-.96-1.17-1.92-1.76-2.89-2.02-4.32-4.05-8.64-6.07-12.96.43-.34.86-.68,1.3-1.02-.43-.34-.86-.68-1.3-1.02-1.33-2.99-2.66-5.97-3.98-8.96.42-.35.84-.7,1.26-1.05-.76-.34-1.51-.67-2.27-1.01-.16-.31-.15-.62.01-.93.28-.66.57-1.33.85-1.99-.04-.33-.08-.67-.12-1-.61-1.02-1.22-2.03-1.83-3.05-3.07-11.57-6.12-23.15-9.25-34.71-.23-.83-1.04-1.51-1.59-2.25.41-.59.81-1.18,1.22-1.76-1.54-9.13-3.11-18.26-4.62-27.39-.43-2.62-.61-5.27-1.04-7.89-.94-5.65-2.18-11.26-2.9-16.94-.42-3.33.17-6.77-.15-10.13-.25-2.68-1.72-5.3-1.74-7.95-.11-16.31-.04-32.63.13-48.94.06-6.45.27-12.93.88-19.34.38-4.01,1.84-7.91,2.44-11.92.45-2.97-.07-6.1.46-9.04,1.51-8.41,3.36-16.75,5.02-25.14,1.35-6.79,2.51-13.63,3.95-20.4,1.22-5.74,2.35-11.55,4.18-17.11,4.15-12.63,8.72-25.12,13.08-37.69.37-1.07.43-2.25.63-3.38.73-.98,1.45-1.96,2.18-2.93,5.27-11.43,10.54-22.87,15.81-34.3,2.58-5.6,4.75-11.44,7.88-16.72,4.46-7.54,9.66-14.65,14.49-21.98,3.73-5.67,7.37-11.39,11.05-17.09.9-1.04,1.8-2.08,2.7-3.12Z"/>
  <path class="cls-8" d="m214.06,892.95c4.01,6.29,7.89,12.67,12.05,18.86,6.84,10.16,13.69,20.33,20.88,30.24,3.22,4.43,7.43,8.13,10.91,12.39,2.69,3.3,4.61,7.26,7.44,10.41,6.84,7.63,13.94,15.03,21.06,22.4,4.51,4.67,9.21,9.17,13.92,13.64,3.06,2.9,6.14,5.83,9.52,8.33,1.41,1.04,3.64.98,4.32,1.15,2.3,2.92,3.76,5.53,5.9,7.33,5.85,4.92,11.78,9.81,18.06,14.15,12.35,8.53,24.68,17.17,37.54,24.88,22.09,13.24,45.22,24.5,69.44,33.39.86.32,1.94.95,2.63.68,2.13-.81,3.7-1.42,4.29,1.78.13.69,2.19,1.36,3.42,1.48,5.44.53,9.82,4.64,16,3.64,3.06-.49,6.58,3.54,10.16,4.43,11.77,2.94,23.67,5.38,35.52,8.02.61.2,1.23.4,1.84.61,1.07.12,2.14.25,3.22.37.94.26,1.88.51,2.82.77,3.99.09,8.05-.24,11.96.39,4.06.65,7.9,2.76,11.96,3.3,8.33,1.1,16.74,1.57,25.12,2.3.99-.01,1.98-.03,2.96-.04,16.68,0,33.36.01,50.04.02l1.96.02c8.45-.62,16.92-1.02,25.33-1.93,6.61-.72,13.16-2.09,19.73-3.18.89-.23,1.79-.46,2.68-.68,1.1-.1,2.21-.2,3.31-.3.9-.24,1.79-.47,2.69-.71.76-.06,1.52-.13,2.28-.19.69-.24,1.37-.49,2.06-.73,6.06-1.27,12.12-2.54,18.18-3.81,0,0,.37.11.37.11l.27-.32c12.11-3.33,24.42-6.08,36.28-10.15,14.73-5.06,29.21-10.92,43.54-17.03,6.04-2.58,11.36-6.82,17.16-10.03,2.36-1.3,5.22-1.65,7.7-2.76,20.61-9.26,38.89-22.31,57.16-35.35,1.34-.96,2.73-1.85,4.09-2.77.73-.58,1.46-1.17,2.19-1.75,4.05-3.39,8.09-6.77,12.14-10.16,1.3-1.24,2.59-2.48,3.89-3.72.96-.78,1.92-1.56,2.87-2.34,1.38-1.23,2.75-2.45,4.13-3.68,1.63-1.44,3.25-2.88,4.88-4.32.68-.37,1.36-.74,2.04-1.11,8.64-8.63,17.27-17.27,25.91-25.9.37-.67.73-1.34,1.1-2.02,1.13-1.3,2.25-2.61,3.38-3.91,1.54-1.69,3.07-3.38,4.61-5.06.78-.98,1.56-1.96,2.34-2.94.88-1,1.77-2,2.65-3,0,0,.08-.1.08-.1.33-.27.66-.53.99-.8,3.32-4.05,6.64-8.11,9.96-12.16.33-.63.65-1.26.98-1.89,0,0,.11-.16.11-.16.3-.34.6-.69.91-1.03.34-.31.68-.61,1.02-.92.32-.63.65-1.26.97-1.88,0,0,.11-.17.11-.17.3-.34.6-.69.9-1.04.33-.31.66-.62,1-.92.33-.65.66-1.29.99-1.94.14-.34.29-.67.43-1.01.86-1.02,1.72-2.03,2.58-3.05,4.45-6.35,8.89-12.71,13.34-19.06.22-.6.44-1.2.66-1.8,2.85-4.43,5.69-8.85,8.54-13.28,2.85,1.31,5.83,2.39,8.54,3.95,17.73,10.21,35.4,20.55,53.11,30.81,37.28,21.61,74.56,43.24,111.88,64.79,7.61,4.4,15.39,8.5,23.09,12.73-4.5,6.29-8.67,12.84-13.56,18.82-14.7,18-35.46,27.6-54.93,38.95-18.09,10.54-36.23,21.01-54.42,31.4-8.28,4.73-16.71,9.2-25.07,13.79-.7.39-1.4.77-2.1,1.16-7.44,4.53-14.81,9.18-22.34,13.56-16.4,9.54-32.87,18.94-49.32,28.38-17.03,9.77-34.1,19.48-51.12,29.28-16.01,9.22-31.95,18.57-47.95,27.79-14.72,8.49-29.52,16.85-44.25,25.33-13.58,7.82-27.09,15.76-40.66,23.58-14.72,8.49-29.51,16.87-44.23,25.36-16,9.23-31.81,18.81-47.98,27.74-16.01,8.85-31.89,18.22-48.71,25.24-14.73,6.15-30.63,8.21-47.08,6.88-23.59-1.9-43.94-11.62-63.82-23.17-25.95-15.08-51.89-30.18-77.87-45.21-31.87-18.43-63.78-36.79-95.69-55.15-27.89-16.05-55.81-32.03-83.7-48.08-30.18-17.36-60.34-34.76-90.52-52.13-29.47-16.96-59.05-33.71-88.37-50.92-18-10.56-36.99-19.56-53.03-33.29-9.7-8.3-17.65-17.93-23.55-29.25.67-.4,1.34-.8,2.01-1.2,2.86-1.91,5.69-3.86,8.58-5.73,3.21-2.08,6.4-4.21,9.71-6.12,7.94-4.6,15.93-9.12,23.93-13.6,3.45-1.93,7.08-3.56,10.5-5.53,7.43-4.29,14.79-8.69,22.15-13.09,3.15-1.88,6.12-4.08,9.37-5.75,4.98-2.56,10.34-4.43,15.16-7.25,5.71-3.34,10.83-7.7,16.56-11,5.84-3.36,12.31-5.63,18.15-8.99,5.44-3.13,10.2-7.43,15.64-10.55,5.71-3.27,12.03-5.45,17.77-8.68,4.89-2.75,9.22-6.49,14.01-9.44,5.41-3.34,11.07-6.29,16.62-9.4Z"/>
  <path class="cls-26" d="m1184.15,1009.21c-7.7-4.24-15.48-8.34-23.09-12.73-37.32-21.55-74.59-43.18-111.88-64.79-17.71-10.26-35.37-20.6-53.11-30.81-2.71-1.56-5.69-2.65-8.54-3.95-2.35-1.62-4.62-3.38-7.06-4.85-7.15-4.3-14.33-8.53-21.55-12.71-9.44-5.47-18.9-10.91-28.41-16.27-8.44-4.76-17.02-9.3-25.43-14.12-7.26-4.17-14.34-8.66-21.57-12.88-5.37-3.13-10.93-5.94-16.27-9.12-5.29-3.16-10.34-6.74-15.62-9.92-8.89-5.36-17.88-10.56-26.83-15.83-.43-.25-.85-.53-1.28-.78-8.69-5.05-17.36-10.14-26.1-15.1-1.21-.69-2.76-.77-4.15-1.13-1.3-.99-2.5-2.14-3.9-2.96-17.35-10.13-34.73-20.23-52.12-30.31-28.31-16.4-56.65-32.76-84.94-49.18-15.79-9.17-31.52-18.44-47.27-27.66-.69-.32-1.38-.65-2.07-.97v.02c.04-1.24.06-2.49.09-3.73.98-.46,1.96-.92,2.94-1.37,1.35-.88,2.7-1.76,4.04-2.64.98-.46,1.96-.92,2.94-1.38l1.06-1.74c.69.05,1.37.1,2.06.15.31-.12.62-.23.92-.35.66-.67,1.31-1.34,1.97-2.01.68-.6,1.37-1.2,2.05-1.79.68.04,1.36.09,2.05.13.31-.11.62-.23.93-.34.65-.67,1.31-1.33,1.96-2,1.02-.54,2.04-1.09,3.06-1.63.98-.46,1.97-.92,2.95-1.38,1.35-.88,2.7-1.76,4.04-2.63.98-.46,1.96-.92,2.95-1.39,1.35-.88,2.7-1.76,4.05-2.63.98-.46,1.96-.92,2.94-1.38l1.06-1.74c.69.05,1.37.1,2.06.15.31-.12.62-.23.92-.35.66-.67,1.31-1.34,1.97-2.01l3.05-1.63c1.31-.79,2.63-1.58,3.94-2.37,1.02-.54,2.04-1.09,3.06-1.63.98-.46,1.97-.92,2.95-1.38l4.04-2.63c.98-.46,1.96-.92,2.95-1.39,1.35-.88,2.7-1.76,4.05-2.63.98-.46,1.96-.92,2.94-1.38l1.06-1.74c.69.05,1.37.1,2.06.15.31-.12.62-.23.92-.35.66-.67,1.31-1.34,1.97-2.01,1.02-.54,2.04-1.09,3.05-1.63,1.31-.79,2.63-1.58,3.94-2.37,1.02-.54,2.04-1.09,3.06-1.63.98-.46,1.97-.92,2.95-1.38l4.04-2.63c.98-.46,1.96-.92,2.95-1.39,1.35-.88,2.7-1.76,4.05-2.63.98-.46,1.96-.92,2.94-1.38l1.06-1.74c.69.05,1.37.1,2.06.15.31-.12.62-.23.92-.35.66-.67,1.31-1.34,1.97-2.01,1.02-.54,2.04-1.09,3.05-1.63,1.31-.79,2.63-1.58,3.94-2.37,1.02-.54,2.04-1.09,3.06-1.63.98-.46,1.97-.92,2.95-1.39,1.35-.88,2.7-1.75,4.05-2.63.98-.46,1.96-.92,2.95-1.39,1.35-.88,2.7-1.76,4.05-2.63.98-.46,1.96-.92,2.94-1.38l1.06-1.74c.69.05,1.37.1,2.06.15.31-.12.62-.23.92-.35.66-.67,1.31-1.34,1.97-2.01,1.02-.54,2.04-1.09,3.05-1.63,1.31-.79,2.63-1.58,3.94-2.37,1.02-.54,2.04-1.09,3.06-1.63.98-.46,1.97-.92,2.95-1.39,1.35-.88,2.7-1.75,4.05-2.63l2.95-1.39c1.35-.88,2.7-1.76,4.05-2.63.98-.46,1.96-.92,2.95-1.38l1.06-1.74c.68.05,1.37.1,2.05.15l.93-.34c.66-.67,1.31-1.34,1.97-2.01,1.02-.54,2.04-1.09,3.05-1.63,2.37-1.06,4.74-2.11,7.12-3.17,16.96-9.81,33.92-19.62,50.89-29.44,1.31-.58,2.63-1.17,3.94-1.75,9.68-5.75,19.37-11.5,29.05-17.25,1.32-.59,2.63-1.17,3.95-1.76,18.85-10.97,37.68-21.95,56.54-32.89,15.81-9.18,31.65-18.31,47.48-27.46.26-.15.53-.31.79-.46,62.6-36.04,125.2-72.08,187.79-108.13,2.87-1.65,5.62-3.49,8.43-5.24,2,3.39,4.01,6.79,6.01,10.18.38,1.35.77,2.71,1.15,4.07,5.41,14.5,7.88,29.5,7.88,44.98-.02,187.07.06,374.13-.1,561.2-.02,18.66-4.41,36.54-13.82,52.93Zm-332-369.26l.45.08.43-.16c2.16.05,4.33.13,6.49.14,18.16.07,36.32.13,54.48.19,0,20.91,0,41.81,0,62.72-20.62.09-41.23.17-61.85.26-.37.84-1.05,1.68-1.05,2.53-.08,8.71-.09,17.42,0,26.13,0,1.03.72,2.04,1.1,3.07,20.32-.06,40.63-.12,60.95-.17.32.03.62.14.87.34,0,19.1-.02,38.21.07,57.31,0,1.88.71,3.75,1.08,5.63l.47.03.43-.2c9.91.02,19.81.05,29.72.07.42-1.83,1.19-3.66,1.19-5.5.09-19.11.06-38.23.07-57.34.26-.19.55-.3.87-.34h60.22c.32.05.6.18.85.39.01,19.1,0,38.19.09,57.29,0,1.82.77,3.63,1.18,5.45,9.91,0,19.82-.01,29.73-.02.3-.26.6-.52.9-.78.06-19.19.07-38.38.25-57.57.01-1.59,1.16-3.18,1.78-4.76,20.31.08,40.63.16,60.94.25.39-1.19,1.11-2.38,1.12-3.57.1-8.22.1-16.45,0-24.67-.01-1.2-.7-2.38-1.07-3.57-20.62-.08-41.25-.16-61.87-.24,0-20.9,0-41.81,0-62.71,1.98-.06,3.96-.17,5.94-.18,18.35-.06,36.7-.11,55.04-.16l.43.17.46-.05c.37-1.19,1.06-2.38,1.07-3.58.1-8.22.1-16.43,0-24.65-.01-1.2-.71-2.39-1.09-3.58-.34-.12-.64-.06-.91.17-2.16-.04-4.33-.1-6.49-.11-18.15-.08-36.3-.15-54.44-.23,0-19.09.02-38.18-.07-57.27,0-1.87-.72-3.74-1.11-5.61-10.22.04-20.45.07-30.67.11-.39,1.66-1.11,3.31-1.11,4.97-.1,19.28-.09,38.55-.1,57.83-20.63,0-41.27-.01-61.9-.02-.01-19.1,0-38.2-.1-57.29,0-1.84-.73-3.69-1.13-5.53-10.22-.02-20.43-.03-30.65-.05-.39,1.86-1.11,3.72-1.12,5.59-.09,19.09-.07,38.18-.08,57.27-20.56.09-41.13.18-61.69.26-.42,1.15-1.2,2.29-1.21,3.45-.1,8.39-.09,16.78,0,25.17.01,1.02.69,2.04,1.06,3.06Z"/>
  <path class="cls-3" d="m783.5,266.07c-1.48-.66-2.96-1.32-4.44-1.98,2.69-2.05,3.41.31,4.44,1.98Z"/>
  <path class="cls-9" d="m263.97,382.94c-1.23,1.37-2.46,2.75-3.68,4.12,1.23-1.37,2.46-2.75,3.68-4.12Z"/>
  <path class="cls-23" d="m723.97,244.15c-.97-.34-1.95-.67-2.92-1.01.97.34,1.95.67,2.92,1.01Z"/>
  <path class="cls-9" d="m268.1,376.29c-.43,1.28-.86,2.57-1.28,3.85.43-1.28.86-2.57,1.28-3.85Z"/>
  <path class="cls-23" d="m241.97,410.94c-.9,1.04-1.8,2.08-2.7,3.12.9-1.04,1.8-2.08,2.7-3.12Z"/>
  <path class="cls-2" d="m190.05,504.15c-.73.98-1.45,1.96-2.18,2.93.73-.98,1.45-1.96,2.18-2.93Z"/>
  <path class="cls-2" d="m177.16,809.06c.61,1.02,1.22,2.03,1.83,3.05-.61-1.02-1.22-2.03-1.83-3.05Z"/>
  <path class="cls-2" d="m178.24,816.05c.76.34,1.51.67,2.27,1.01-.42.35-.84.7-1.26,1.05-.34-.69-.67-1.37-1.01-2.06Z"/>
  <path class="cls-9" d="m189.3,842.06c.59.96,1.17,1.92,1.76,2.89-.59-.96-1.17-1.92-1.76-2.89Z"/>
  <path class="cls-3" d="m664.94,232.21c-.64-.34-1.28-.69-1.93-1.03.64.34,1.28.69,1.93,1.03Z"/>
  <path class="cls-14" d="m15.91,1008.08c-.67.4-1.34.8-2.01,1.2-.34-.71-.68-1.43-1.01-2.14,1.01.31,2.02.63,3.03.94Z"/>
  <path class="cls-9" d="m208.63,883.06c.21.64.43,1.29.64,1.93-.21-.64-.43-1.29-.64-1.93Z"/>
  <path class="cls-12" d="m888.75,332.04c-.57-.38-1.14-.77-1.7-1.15.57.38,1.14.76,1.7,1.15Z"/>
  <path class="cls-9" d="m183.23,827.07c.43.34.86.68,1.3,1.02-.43.34-.86.68-1.3,1.02,0-.68,0-1.36,0-2.04Z"/>
  <path class="cls-12" d="m821.11,285.03c-.69-.45-1.39-.89-2.08-1.34.69.45,1.39.89,2.08,1.34Z"/>
  <path class="cls-2" d="m179.11,813.12c-.28.66-.57,1.33-.85,1.99.28-.66.57-1.33.85-1.99Z"/>
  <path class="cls-9" d="m167.54,770.34c-.41.59-.81,1.18-1.22,1.76.41-.59.81-1.18,1.22-1.76Z"/>
  <path class="cls-3" d="m752.03,253.01c-.67,0-1.34,0-2.01,0,.67,0,1.34,0,2.01,0Z"/>
  <path class="cls-14" d="m5.01,987.07c-.38-.98-.75-1.96-1.13-2.94.38.98.75,1.96,1.13,2.94Z"/>
  <path class="cls-14" d="m3.3,983.07c-.04-.99-.08-1.97-.12-2.96.04.99.08,1.97.12,2.96Z"/>
  <path class="cls-14" d="m2.28,978.07c-.13-.98-.27-1.96-.4-2.94.13.98.27,1.96.4,2.94Z"/>
  <path class="cls-1" d="m736.87,62.01c.67.18,1.34.36,2,.55-.67-.18-1.34-.36-2-.55Z"/>
  <path class="cls-1" d="m1038.9,236.03c.66.18,1.33.37,1.99.55-.66-.18-1.33-.37-1.99-.55Z"/>
  <path class="cls-1" d="m1005.9,217.03c.66.18,1.32.37,1.99.55-.66-.18-1.32-.37-1.99-.55Z"/>
  <path class="cls-1" d="m979.88,202.03c.67.18,1.34.36,2,.55-.67-.18-1.34-.36-2-.55Z"/>
  <path class="cls-1" d="m946.87,183.02c.72.29,1.43.59,2.15.88-.72-.29-1.43-.59-2.15-.88Z"/>
  <path class="cls-1" d="m913.88,164.02c.72.29,1.43.59,2.14.88-.72-.29-1.43-.59-2.14-.88Z"/>
  <path class="cls-1" d="m880.89,145.02c.66.18,1.33.37,1.99.55-.66-.18-1.33-.37-1.99-.55Z"/>
  <path class="cls-1" d="m854.87,130.02c.72.29,1.43.59,2.15.88-.72-.29-1.43-.59-2.15-.88Z"/>
  <path class="cls-1" d="m1071.88,255.03c.67.18,1.33.37,2,.55-.67-.18-1.33-.36-2-.55Z"/>
  <path class="cls-1" d="m821.89,111.02c.66.18,1.33.37,1.99.55-.66-.18-1.33-.37-1.99-.55Z"/>
  <path class="cls-1" d="m1104.88,274.03c.71.29,1.43.59,2.14.88-.72-.29-1.43-.59-2.14-.88Z"/>
  <path class="cls-1" d="m1176.02,325.05c.34.65.69,1.29,1.03,1.94-.34-.65-.69-1.29-1.03-1.94Z"/>
  <path class="cls-14" d="m9.02,998.98c-.22-.61-.43-1.21-.65-1.82.22.61.43,1.21.65,1.82Z"/>
  <path class="cls-1" d="m795.87,96.01c.67.18,1.34.36,2,.55-.67-.18-1.34-.36-2-.55Z"/>
  <path class="cls-1" d="m762.89,77.01c.66.18,1.33.37,1.99.55-.66-.18-1.33-.37-1.99-.55Z"/>
  <path class="cls-1" d="m677.87,28.01c.67.18,1.34.36,2,.55-.67-.18-1.34-.36-2-.55Z"/>
  <path class="cls-1" d="m703.87,43.01c.67.18,1.33.37,2,.55-.67-.18-1.33-.36-2-.55Z"/>
  <path class="cls-23" d="m730.75,246.12s-.26.02-.25.02c.09,0,.17-.01.25-.02Z"/>
  <path class="cls-3" d="m896.78,339c-.26-.3-.51-.59-.77-.89.26.3.51.59.77.89Z"/>
  <path class="cls-10" d="m303.7,344.07c-.22.22-.43.43-.65.65.16-.27.38-.49.65-.65Z"/>
  <path class="cls-23" d="m986.81,449.23c-.26.15-.53.31-.79.46,0-.3.04-.59.13-.88.16.23.38.37.66.41Z"/>
  <path class="cls-3" d="m895.71,336.99c-.28-.18-.5-.43-.65-.73.22.24.43.48.65.73Z"/>
  <path class="cls-25" d="m1190.19,350.1c-.38-1.36-.76-2.71-1.15-4.07.38,1.36.76,2.71,1.15,4.07Z"/>
  <path class="cls-18" d="m1034.08,1113.33c.7-.39,1.4-.77,2.1-1.16-.7.39-1.4.77-2.1,1.16Z"/>
  <path class="cls-6" d="m658.98,637.04c-1.31.79-2.63,1.58-3.94,2.37-1.02.54-2.03,1.09-3.05,1.63-.66.67-1.31,1.34-1.97,2.01-.3.13-.61.25-.92.35-.69-.05-1.37-.1-2.06-.15-.35.58-.71,1.16-1.06,1.74-.98.46-1.96.92-2.95,1.38-1.35.88-2.7,1.76-4.05,2.63-.98.46-1.96.92-2.95,1.39-1.35.88-2.7,1.76-4.04,2.63-.98.46-1.97.92-2.95,1.38-1.02.54-2.04,1.09-3.06,1.63-.65.67-1.31,1.33-1.96,2-.3.13-.61.24-.93.34-.68-.04-1.36-.09-2.05-.13-.68.6-1.37,1.2-2.05,1.79-.66.67-1.31,1.34-1.97,2.01-.3.13-.61.25-.92.35-.69-.05-1.37-.1-2.06-.15-.35.58-.71,1.16-1.06,1.74-.98.46-1.96.92-2.94,1.38-1.35.88-2.7,1.76-4.04,2.64-.98.46-1.96.92-2.94,1.37-1.03.86-2.05,1.72-3.08,2.58-2.28,1.34-4.55,2.71-6.85,4.03-41.24,23.75-82.47,47.52-123.72,71.23-20.05,11.52-40.15,22.95-60.23,34.42-5.04-10.64-10.95-20.96-14.91-31.99-4.6-12.82-7.48-26.26-11.13-39.42-1.43-5.15-1.16-10.66-2.19-15.64-2.44-11.79.48-23.56-1.49-35.29-.77-4.6,1.63-9.69,2.31-14.6.74-5.24,1.16-10.51,1.71-15.78.05-.46-.15-.98,0-1.38,7.45-19.29,14.71-38.65,22.5-57.79,2.9-7.12,6.05-14.53,10.83-20.4,11.14-13.69,22.34-27.62,35.32-39.47,22.54-20.56,48.16-36.74,77.55-46.16,5.77-1.85,11.58-3.59,17.37-5.4,5.15-1.61,10.21-3.64,15.46-4.74,3.62-.76,7.51-.18,11.28-.29,14.44-.41,28.88-.81,43.32-1.3,3.28-.11,6.55-.56,9.83-.85.33-.03.71-.11.99.02,12.31,5.54,25.96,5.65,38.68,9.77,39.21,12.68,73.2,33.37,100.3,64.57,8.7,10.01,16.11,21.15,24.16,31.73.86,1.13,2.06,1.99,3.1,2.97-2.37,1.06-4.74,2.11-7.12,3.17-1.02.54-2.04,1.09-3.05,1.63-.66.67-1.31,1.34-1.97,2.01-.3.13-.61.25-.93.34-.68-.05-1.37-.1-2.05-.15-.35.58-.71,1.16-1.06,1.74-.98.46-1.96.92-2.95,1.38-1.35.88-2.7,1.76-4.05,2.63-.98.46-1.96.92-2.95,1.39-1.35.88-2.7,1.75-4.05,2.63-.98.46-1.97.92-2.95,1.39-1.02.54-2.04,1.09-3.06,1.63-1.31.79-2.63,1.58-3.94,2.37-1.02.54-2.04,1.09-3.05,1.63-.66.67-1.31,1.34-1.97,2.01-.3.13-.61.25-.92.35-.69-.05-1.37-.1-2.06-.15-.35.58-.71,1.16-1.06,1.74-.98.46-1.96.92-2.94,1.38-1.35.88-2.7,1.76-4.05,2.63-.98.46-1.96.92-2.95,1.39-1.35.88-2.7,1.75-4.05,2.63-.98.46-1.97.92-2.95,1.39-1.02.54-2.04,1.09-3.06,1.63-1.31.79-2.63,1.58-3.94,2.37-1.02.54-2.04,1.09-3.05,1.63-.66.67-1.31,1.34-1.97,2.01-.3.13-.61.25-.92.35-.69-.05-1.37-.1-2.06-.15-.35.58-.71,1.16-1.06,1.74-.98.46-1.96.92-2.94,1.38-1.35.88-2.7,1.76-4.05,2.63-.98.46-1.96.92-2.95,1.39-1.35.88-2.7,1.76-4.04,2.63-.98.46-1.97.92-2.95,1.38-1.02.54-2.04,1.09-3.06,1.63-1.31.79-2.63,1.58-3.94,2.37-1.02.54-2.04,1.09-3.05,1.63-.66.67-1.31,1.34-1.97,2.01-.3.13-.61.25-.92.35-.69-.05-1.37-.1-2.06-.15-.35.58-.71,1.16-1.06,1.74-.98.46-1.96.92-2.94,1.38-1.35.88-2.7,1.76-4.05,2.63-.98.46-1.96.92-2.95,1.39-1.35.88-2.7,1.76-4.04,2.63-.98.46-1.97.92-2.95,1.38-1.02.54-2.04,1.09-3.06,1.63Z"/>
  <path class="cls-20" d="m409.17,781.67c20.08-11.47,40.18-22.9,60.23-34.42,41.26-23.72,82.49-47.48,123.72-71.23,2.29-1.32,4.56-2.69,6.85-4.03,1,.38,2,.77,3.01,1.15,0,0-.01-.02-.01-.02.69.32,1.38.65,2.07.97,15.76,9.22,31.48,18.5,47.27,27.66,28.29,16.43,56.63,32.78,84.94,49.18,17.39,10.08,34.76,20.18,52.12,30.31,1.4.82,2.61,1.97,3.9,2.96-3.42,5.77-6.55,11.74-10.33,17.26-3.67,5.35-8.09,10.18-12.05,15.34-5.43,7.07-11.96,13.08-18.37,19.17-24.18,22.96-52.56,38.83-84.18,49.06-2.76.89-5.57,1.66-8.35,2.49-.56.21-1.13.43-1.69.64-.78.14-1.56.28-2.34.42-.54.19-1.08.39-1.63.58-.78.12-1.57.25-2.35.37-.58.2-1.15.4-1.73.6-22.37,5.9-45.29,5.79-68.03,4.61-13.16-.68-26.24-4.28-39.16-7.37-9.04-2.16-17.88-5.34-26.56-8.72-6.34-2.47-12.35-5.84-18.37-9.08-16.02-8.63-30.28-19.74-44.25-31.34-18.2-15.13-31.87-33.81-43.86-53.92-.46-.77-.56-1.77-.83-2.66Z"/>
  <path class="cls-11" d="m938.97,964.06c-1.54,1.69-3.07,3.38-4.61,5.06,1.54-1.69,3.07-3.38,4.61-5.06Z"/>
  <path class="cls-11" d="m897.05,1006.39c-1.38,1.23-2.75,2.45-4.13,3.68,1.38-1.23,2.75-2.45,4.13-3.68Z"/>
  <path class="cls-11" d="m890.05,1012.4c-1.3,1.24-2.59,2.48-3.89,3.72,1.3-1.24,2.59-2.48,3.89-3.72Z"/>
  <path class="cls-11" d="m964.99,931.06c-.86,1.02-1.72,2.03-2.58,3.05.86-1.02,1.72-2.03,2.58-3.05Z"/>
  <path class="cls-11" d="m943.97,958.12c-.88,1-1.77,2-2.65,3,.88-1,1.77-2,2.65-3Z"/>
  <path class="cls-9" d="m882,510.04c-1.32.59-2.63,1.17-3.95,1.76,1.32-.59,2.63-1.17,3.95-1.76Z"/>
  <path class="cls-24" d="m848.99,529.05c-1.31.58-2.63,1.17-3.94,1.75,1.31-.58,2.63-1.17,3.94-1.75Z"/>
  <path class="cls-3" d="m525,1111.89c-.94-.26-1.88-.51-2.82-.77.94.26,1.88.51,2.82.77Z"/>
  <path class="cls-11" d="m874.03,1026.28c-.73.58-1.46,1.17-2.19,1.75.73-.58,1.46-1.17,2.19-1.75Z"/>
  <path class="cls-24" d="m682.75,1111.06c-.9.24-1.79.47-2.69.71.9-.24,1.79-.47,2.69-.71Z"/>
  <path class="cls-24" d="m676.75,1112.07c-.89.23-1.79.46-2.68.68.89-.23,1.79-.46,2.68-.68Z"/>
  <path class="cls-23" d="m577,1117.83c-.99.01-1.98.03-2.96.04.99-.01,1.98-.03,2.96-.04Z"/>
  <path class="cls-3" d="m629,1117.87c-.65,0-1.31-.01-1.96-.02.65,0,1.31.01,1.96.02Z"/>
  <path class="cls-24" d="m687.1,1110.14c-.69.25-1.37.49-2.06.73.69-.25,1.37-.49,2.06-.73Z"/>
  <path class="cls-3" d="m518.96,1110.75c-.61-.2-1.23-.4-1.84-.61.62.2,1.23.4,1.84.61Z"/>
  <path class="cls-11" d="m903.98,1000.95c-.68.37-1.36.74-2.04,1.11.68-.37,1.36-.74,2.04-1.11Z"/>
  <path class="cls-2" d="m658.28,888.16c.56-.21,1.13-.43,1.69-.64-.56.21-1.13.43-1.69.64Z"/>
  <path class="cls-2" d="m654.31,889.17c.54-.19,1.09-.39,1.63-.58-.54.19-1.08.39-1.63.58Z"/>
  <path class="cls-2" d="m650.23,890.14c.58-.2,1.15-.4,1.73-.6-.58.2-1.15.4-1.73.6Z"/>
  <path class="cls-18" d="m978.99,910.2c-.22.6-.44,1.2-.66,1.8.22-.6.44-1.2.66-1.8Z"/>
  <path class="cls-11" d="m961.98,935.13c-.33.65-.66,1.29-.99,1.94.33-.65.66-1.29.99-1.94Z"/>
  <path class="cls-11" d="m930.99,973.03c-.37.67-.73,1.34-1.1,2.02.37-.67.73-1.34,1.1-2.02Z"/>
  <path class="cls-11" d="m958.98,939.19c-.32.63-.65,1.26-.97,1.88.32-.63.65-1.26.97-1.88Z"/>
  <path class="cls-11" d="m955.98,943.18c-.33.63-.65,1.26-.98,1.89.33-.63.65-1.26.98-1.89Z"/>
  <path class="cls-11" d="m945.04,957.23c-.33.27-.66.53-.99.8.33-.27.66-.53.99-.8Z"/>
  <path class="cls-11" d="m956.99,941.99c-.3.34-.6.69-.91,1.03.3-.34.6-.69.91-1.03Z"/>
  <path class="cls-11" d="m959.99,937.99c-.3.35-.6.69-.9,1.04.3-.35.6-.69.9-1.04Z"/>
  <path class="cls-23" d="m705.91,1106.13l-.27.32s-.37-.11-.37-.11c.18-.16.4-.23.64-.2Z"/>
  <path class="cls-4" d="m1039.99,797.83c-9.91,0-19.82.01-29.73.02-.08-19.24-.13-38.48-.28-57.72-.01-1.68-.65-3.35-1-5.02-.25-.21-.53-.34-.85-.39-1.29-.21-2.58-.61-3.86-.62-17.5-.04-35-.04-52.49,0-1.29,0-2.58.4-3.86.62-.32.04-.61.15-.87.34-.34,1.67-.96,3.34-.97,5.01-.15,19.28-.21,38.55-.29,57.83-9.91-.02-19.81-.05-29.72-.07-.29-.26-.58-.52-.86-.78-.06-19.02-.09-38.05-.21-57.07-.01-1.64-.64-3.28-.98-4.92-.26-.2-.55-.31-.87-.34-1.94-.21-3.88-.61-5.82-.62-18.38-.09-36.75-.11-55.13-.15,0-10.26-.02-20.52-.03-30.78,20.62-.09,41.23-.17,61.85-.26.34-.96.98-1.92.99-2.88.06-18.98.06-37.97,0-56.95,0-.97-.64-1.93-.99-2.89-18.16-.06-36.32-.12-54.48-.19-2.16,0-4.33-.09-6.49-.14-.27-.27-.55-.54-.82-.81.03-10.26.06-20.53.1-30.79,20.56-.09,41.13-.18,61.69-.26.34-1.64.97-3.28.98-4.92.13-19.31.16-38.63.22-57.94,10.22.02,20.43.03,30.65.05.06,19.29.09,38.57.22,57.86.01,1.66.65,3.31,1,4.97,20.63,0,41.27.01,61.9.02.35-1.67,1-3.34,1.01-5.02.13-19.26.15-38.52.21-57.78,10.22-.04,20.45-.07,30.67-.11.05,19.32.08,38.65.21,57.97.01,1.64.64,3.27.97,4.91,18.15.07,36.3.15,54.44.23,2.16,0,4.33.07,6.49.11.29.26.59.52.88.78,0,9.98,0,19.96,0,29.94-.28.27-.56.54-.84.81-18.35.05-36.7.09-55.04.16-1.98,0-3.96.12-5.94.18-.34.96-.97,1.92-.97,2.88-.06,18.99-.06,37.97,0,56.96,0,.96.63,1.91.97,2.87,20.62.08,41.25.16,61.87.24-.01,10.27-.02,20.55-.03,30.82-18.38.03-36.76.05-55.14.13-1.94,0-3.88.4-5.83.62-.62,1.59-1.77,3.17-1.78,4.76-.18,19.19-.19,38.38-.25,57.57-.3.26-.6.52-.9.78Zm-92.89-94.91c20.61,0,41.22.01,61.83.02.37-.99,1.05-1.97,1.05-2.96.06-18.95.06-37.9,0-56.85,0-.99-.68-1.99-1.04-2.98-20.62,0-41.23.01-61.85.02-.35.98-1.01,1.95-1.02,2.93-.06,18.97-.06,37.94,0,56.9,0,.97.67,1.94,1.02,2.91Z"/>
  <path class="cls-19" d="m1042.05,608c-.34-1.64-.96-3.27-.97-4.91-.12-19.32-.15-38.65-.21-57.97.39,1.87,1.1,3.74,1.11,5.61.09,19.09.06,38.18.07,57.27Z"/>
  <path class="cls-16" d="m914,640.19c.34.96.98,1.93.99,2.89.06,18.98.06,37.97,0,56.95,0,.96-.64,1.92-.99,2.88,0-20.91,0-41.81,0-62.72Z"/>
  <path class="cls-5" d="m1008.99,735.11c.35,1.67.98,3.35,1,5.02.15,19.24.2,38.48.28,57.72-.41-1.82-1.17-3.63-1.18-5.45-.1-19.1-.08-38.19-.09-57.29Z"/>
  <path class="cls-22" d="m945.79,797.9c.08-19.28.14-38.55.29-57.83.01-1.67.63-3.34.97-5.01,0,19.11.03,38.23-.07,57.34,0,1.83-.78,3.67-1.19,5.5Z"/>
  <path class="cls-16" d="m914.01,735.06c.34,1.64.97,3.28.98,4.92.13,19.02.16,38.04.21,57.07-.12.31-.13.63-.04.95-.38-1.88-1.07-3.75-1.08-5.63-.09-19.1-.06-38.21-.07-57.31Z"/>
  <path class="cls-6" d="m1010.2,545.23c-.05,19.26-.08,38.52-.21,57.78-.01,1.67-.66,3.34-1.01,5.02.02-19.28,0-38.55.1-57.83,0-1.66.73-3.32,1.11-4.97Z"/>
  <path class="cls-19" d="m1042.04,702.91c-.34-.96-.96-1.91-.97-2.87-.06-18.99-.06-37.97,0-56.96,0-.96.63-1.92.97-2.88,0,20.9,0,41.81,0,62.71Z"/>
  <path class="cls-22" d="m947.08,608.01c-.35-1.65-.99-3.31-1-4.97-.13-19.29-.16-38.57-.22-57.86.39,1.84,1.12,3.68,1.13,5.53.1,19.1.08,38.2.1,57.29Z"/>
  <path class="cls-16" d="m915.21,545.14c-.06,19.31-.09,38.63-.22,57.94-.01,1.64-.64,3.28-.98,4.92,0-19.09-.01-38.18.08-57.27,0-1.86.73-3.73,1.12-5.59Z"/>
  <path class="cls-21" d="m1042.92,734.72c1.94-.21,3.88-.61,5.83-.62,18.38-.08,36.76-.09,55.14-.13.06.33.06.66-.02.99-20.31-.08-40.63-.16-60.94-.25Z"/>
  <path class="cls-21" d="m852.18,733.95c18.38.04,36.75.07,55.13.15,1.94,0,3.88.4,5.82.62-20.32.06-40.63.12-60.95.17-.04-.31-.04-.63,0-.94Z"/>
  <path class="cls-21" d="m947.92,734.72c1.29-.21,2.58-.61,3.86-.62,17.5-.04,35-.04,52.49,0,1.29,0,2.58.4,3.86.62h-60.22Z"/>
  <path class="cls-22" d="m852.18,733.95c-.03.31-.03.63,0,.94-.38-1.02-1.09-2.04-1.1-3.07-.08-8.71-.07-17.42,0-26.13,0-.85.69-1.69,1.05-2.53,0,10.26.02,20.52.03,30.78Z"/>
  <path class="cls-27" d="m1103.86,734.96c.08-.33.09-.66.02-.99.01-10.28.02-20.55.03-30.82.37,1.19,1.06,2.38,1.07,3.57.09,8.22.1,16.45,0,24.67-.01,1.19-.73,2.38-1.12,3.57Z"/>
  <path class="cls-27" d="m1103.87,639.06c0-9.98,0-19.96,0-29.94.11-.31.12-.63.03-.95.38,1.19,1.07,2.38,1.09,3.58.1,8.22.1,16.43,0,24.65-.01,1.2-.7,2.39-1.07,3.58.1-.31.08-.62-.05-.92Z"/>
  <path class="cls-22" d="m852.31,608.27c-.03,10.26-.06,20.53-.1,30.79-.1.29-.12.59-.06.89-.37-1.02-1.05-2.03-1.06-3.06-.09-8.39-.1-16.78,0-25.17.01-1.15.79-2.3,1.21-3.45Z"/>
  <path class="cls-15" d="m731,596.02c1.35-.88,2.7-1.75,4.05-2.63-1.35.88-2.7,1.75-4.05,2.63Z"/>
  <path class="cls-15" d="m632,653.04c1.35-.88,2.7-1.76,4.04-2.63-1.35.88-2.7,1.76-4.04,2.63Z"/>
  <path class="cls-15" d="m665,634.03c1.35-.88,2.7-1.76,4.04-2.63-1.35.88-2.7,1.76-4.04,2.63Z"/>
  <path class="cls-15" d="m602.97,673.13c-1-.38-2-.77-3.01-1.15,1.03-.86,2.05-1.72,3.08-2.58-.02,1.24-.05,2.49-.07,3.73Z"/>
  <path class="cls-15" d="m698,615.03c1.35-.88,2.7-1.76,4.04-2.63-1.35.88-2.7,1.76-4.04,2.63Z"/>
  <path class="cls-15" d="m764,577.02c1.35-.88,2.7-1.75,4.05-2.63-1.35.88-2.7,1.75-4.05,2.63Z"/>
  <path class="cls-15" d="m638.99,649.02c1.35-.88,2.7-1.76,4.05-2.63-1.35.88-2.7,1.76-4.05,2.63Z"/>
  <path class="cls-15" d="m605.99,668.03c1.35-.88,2.7-1.76,4.04-2.64-1.35.88-2.7,1.76-4.04,2.64Z"/>
  <path class="cls-15" d="m671.99,630.01c1.35-.88,2.7-1.76,4.05-2.63-1.35.88-2.7,1.76-4.05,2.63Z"/>
  <path class="cls-15" d="m770.99,573.01c1.35-.88,2.7-1.76,4.05-2.63-1.35.88-2.7,1.76-4.05,2.63Z"/>
  <path class="cls-15" d="m704.99,611.01c1.35-.88,2.7-1.76,4.05-2.63-1.35.88-2.7,1.76-4.05,2.63Z"/>
  <path class="cls-15" d="m737.99,592.01c1.35-.88,2.7-1.76,4.05-2.63-1.35.88-2.7,1.76-4.05,2.63Z"/>
  <path class="cls-15" d="m658.98,637.04c1.02-.54,2.04-1.09,3.06-1.63-1.02.54-2.04,1.09-3.06,1.63Z"/>
  <path class="cls-15" d="m784,565.04c1.02-.54,2.04-1.09,3.05-1.63-1.02.55-2.04,1.09-3.05,1.63Z"/>
  <path class="cls-15" d="m724.98,599.04c1.02-.54,2.04-1.09,3.06-1.63-1.02.54-2.04,1.09-3.06,1.63Z"/>
  <path class="cls-15" d="m717.99,603.04c1.02-.54,2.04-1.09,3.05-1.63-1.02.54-2.04,1.09-3.05,1.63Z"/>
  <path class="cls-15" d="m625.98,656.05c1.02-.54,2.04-1.09,3.06-1.63-1.02.54-2.04,1.09-3.06,1.63Z"/>
  <path class="cls-15" d="m750.99,584.04c1.02-.54,2.04-1.09,3.05-1.63-1.02.54-2.04,1.09-3.05,1.63Z"/>
  <path class="cls-15" d="m757.98,580.04c1.02-.54,2.04-1.09,3.06-1.63-1.02.54-2.04,1.09-3.06,1.63Z"/>
  <path class="cls-15" d="m651.99,641.05c1.02-.54,2.03-1.09,3.05-1.63-1.02.54-2.03,1.09-3.05,1.63Z"/>
  <path class="cls-15" d="m691.98,618.04c1.02-.54,2.04-1.09,3.06-1.63-1.02.54-2.04,1.09-3.06,1.63Z"/>
  <path class="cls-15" d="m684.99,622.05c1.02-.54,2.04-1.09,3.05-1.63-1.02.54-2.04,1.09-3.05,1.63Z"/>
  <path class="cls-15" d="m618.99,660.05c.68-.6,1.37-1.2,2.05-1.79-.68.6-1.37,1.2-2.05,1.79Z"/>
  <path class="cls-15" d="m678.98,626c.35-.58.71-1.16,1.06-1.74-.35.58-.71,1.16-1.06,1.74Z"/>
  <path class="cls-15" d="m777.98,568.99c.35-.58.71-1.16,1.06-1.74-.35.58-.71,1.16-1.06,1.74Z"/>
  <path class="cls-15" d="m645.98,645c.35-.58.71-1.16,1.06-1.74-.35.58-.71,1.16-1.06,1.74Z"/>
  <path class="cls-15" d="m711.98,607c.35-.58.71-1.16,1.06-1.74-.35.58-.71,1.16-1.06,1.74Z"/>
  <path class="cls-15" d="m612.98,664c.35-.58.71-1.16,1.06-1.74-.35.58-.71,1.16-1.06,1.74Z"/>
  <path class="cls-15" d="m744.98,587.99c.35-.58.71-1.16,1.06-1.74-.35.58-.71,1.16-1.06,1.74Z"/>
  <path class="cls-15" d="m605.03,674.08c-.69-.32-1.38-.65-2.07-.97.69.32,1.38.65,2.07.97Z"/>
  <path class="cls-15" d="m649.1,643.41c.31-.1.62-.21.92-.35-.31.12-.62.23-.92.35Z"/>
  <path class="cls-15" d="m623.09,658.39c.31-.1.62-.21.93-.34-.31.11-.62.23-.93.34Z"/>
  <path class="cls-7" d="m1103.87,639.06c.13.3.15.61.05.92,0,0-.46.05-.46.05,0,0-.43-.17-.43-.17.28-.27.56-.54.84-.81Z"/>
  <path class="cls-7" d="m852.15,639.94c-.06-.3-.04-.6.06-.89.27.27.55.54.82.81l-.43.16-.45-.08Z"/>
  <path class="cls-15" d="m616.1,662.41c.31-.1.62-.21.92-.35-.31.12-.62.23-.92.35Z"/>
  <path class="cls-17" d="m1039.99,797.83c.3-.26.6-.52.9-.78-.3.26-.6.52-.9.78Z"/>
  <path class="cls-17" d="m915.16,798c-.1-.32-.08-.64.04-.95.29.26.58.52.86.78,0,0-.43.2-.43.2l-.47-.03Z"/>
  <path class="cls-15" d="m682.1,624.41c.31-.1.62-.21.92-.35-.31.12-.62.23-.92.35Z"/>
  <path class="cls-15" d="m781.1,567.4c.31-.1.62-.21.93-.34-.31.11-.62.23-.93.34Z"/>
  <path class="cls-13" d="m1103.9,608.17c.09.32.08.64-.03.95-.29-.26-.59-.52-.88-.78.27-.23.57-.29.91-.17Z"/>
  <path class="cls-15" d="m715.1,605.4c.31-.1.62-.21.92-.35-.31.12-.62.23-.92.35Z"/>
  <path class="cls-15" d="m748.1,586.4c.31-.1.62-.21.92-.35-.31.12-.62.23-.92.35Z"/>
  <path class="cls-26" d="m1008.94,702.95c-20.61,0-41.22-.01-61.83-.02,0-20.92,0-41.83,0-62.75,20.62,0,41.23-.01,61.85-.02,0,20.93,0,41.86-.01,62.79Z"/>
  <path class="cls-22" d="m947.1,640.18c0,20.92,0,41.83,0,62.75-.36-.97-1.02-1.94-1.02-2.91-.06-18.97-.06-37.94,0-56.9,0-.98.66-1.95,1.02-2.93Z"/>
  <path class="cls-6" d="m1008.94,702.95c0-20.93,0-41.86.01-62.79.36.99,1.04,1.99,1.04,2.98.06,18.95.06,37.9,0,56.85,0,.99-.69,1.97-1.05,2.96Z"/>
</svg>