<?xml version="1.0" encoding="UTF-8"?>
<svg id="Layer_1" data-name="Layer 1" xmlns="http://www.w3.org/2000/svg" viewBox="0 0 512 512">
  <defs>
    <style>
      .cls-1 {
        fill: #4c92ce;
      }

      .cls-2 {
        fill: #fbfdff;
      }
    </style>
  </defs>
  <path class="cls-1" d="m255.91,16.33c67.79,0,135.57.02,203.36-.06,3.74,0,5.58-.04,4.86,4.92-.91,6.22.35,12.76-3.06,18.61-.79,1.36.8,2.41.82,3.71.11,6.24.21,12.5-2.39,18.37-.58,1.31-.92,2.59-.28,3.77.6,1.11,1,2.28.64,3.33-2.7,7.84.33,16.19-2.05,23.94-2.14,6.97-.35,14.06-1.71,21.12-2.48,12.85-1.88,26.08-3.22,39.09-1.56,15.19-2.87,30.4-4.1,45.63-1.2,14.88-2.86,29.72-3.96,44.63-1.11,15.05-2.85,30.06-4.02,45.12-1.18,15.21-2.67,30.41-4,45.62-1.29,14.89-2.63,29.77-3.97,44.65-1.4,15.54-3.04,31.05-3.98,46.63-.38,6.38-1.43,12.72-1.83,19.1-.2,3.16-2.44,3-4.37,3.54-22.06,6.24-44.12,12.5-66.2,18.67-29.14,8.14-58.5,15.58-87.35,24.61-10.29,3.22-19.23,2.05-28.83-.67-30.67-8.67-61.4-17.15-92.08-25.77-19.86-5.58-39.68-11.33-59.55-16.91-2.3-.65-3.45-1.37-3.66-4.17-1.03-14.1-2.09-28.2-3.81-42.25-1.12-9.13-1.28-18.38-2.11-27.55-1.21-13.41-2.91-26.78-3.86-40.2-.61-8.55-1.58-17.06-2.04-25.61-.55-10.17-1.97-20.23-2.76-30.34-.44-5.56-2.48-11.31-.41-17.04.38-1.07.02-2.22-.71-3.28-.62-.9-1.24-2.15-1.13-3.17.93-7.97-1.71-15.6-2.03-23.42-.61-14.94-2.97-29.73-3.86-44.63-.56-9.38-1.73-18.7-2.3-28.08-.8-13.1-2.89-26.12-3.71-39.22-.56-8.89-1.6-17.73-2.14-26.62-.61-10.11-1.97-20.15-2.8-30.22-.69-8.36-1.63-16.7-2.25-25.07-.44-6.06-.85-12.13-1.7-18.14-.32-2.27.39-2.62,2.18-2.62,1.33,0,2.66,0,4,0,67.45,0,134.91,0,202.36,0Zm.32,88.03c-42.15,0-84.29,0-126.44,0-5.92,0-6.29.74-5.71,6.66,1.17,12,2.18,24.03,2.95,36.06.46,7.16.2,7.19,7.25,7.18,63.64-.11,127.27-.16,190.91-.47,5.25-.03,6.43,1.4,5.95,6.43-1.33,14-2.33,28.04-3.05,42.08-.21,4.15-1.52,5.26-5.56,5.31-61.29.82-122.58.83-183.86,2.37-5.94.15-6.33.3-5.57,6.18,1.65,12.77,3.01,25.57,4.04,38.4.26,3.28,1.21,5.48,5.69,5.44,48.47-.4,96.95-.52,145.42-.71,10.33-.04,20.66-.07,30.98-.06,1.72,0,3.96-.5,3.62,2.58-.67,6.05-1.27,12.11-1.94,18.17-1.63,14.73-3.07,29.48-5.08,44.16-.47,3.48.88,8.36-4.98,9.78-10.88,2.65-21.53,6.24-32.46,8.6-10.68,2.31-20.72,7.82-32.68,3.65-14.53-5.07-29.71-8.25-44.59-12.3-2.17-.59-3.99-1.08-4.18-4.36-.7-12.36-2-24.69-2.92-37.05-.2-2.73-1.23-3.77-3.98-3.76-15.16.08-30.32.09-45.48,0-2.85-.02-3.69.99-3.6,3.81.24,7.45,1.31,14.8,1.97,22.2,1.55,17.27,2.68,34.58,4.2,51.85.3,3.4.24,7.29,5.12,8.38,7.05,1.57,14.04,3.46,21,5.42,25.13,7.07,50.22,14.28,75.37,21.3,3.44.96,6.94,2.1,10.72,1.05,33.63-9.36,67.27-18.66,100.92-27.97,2.39-.66,3.57-1.88,4.19-4.57,1.17-5.05.65-10.17,1.37-15.26,1.96-13.87,3.24-27.88,3.99-41.87.95-17.75,2.95-35.41,4.48-53.09,1.09-12.54,2-25.15,3.56-37.69,1.87-15.06,2.81-30.24,4.14-45.37,1.41-16.09,2.13-32.23,4.07-48.27.71-5.88,1.18-11.79,1.87-17.68.7-6.04.28-6.61-5.75-6.61-41.98,0-83.96,0-125.94,0Z"/>
  <path class="cls-2" d="m256.23,104.36c41.98,0,83.96,0,125.94,0,6.02,0,6.45.57,5.75,6.61-.68,5.89-1.16,11.8-1.87,17.68-1.94,16.04-2.66,32.19-4.07,48.27-1.33,15.13-2.27,30.31-4.14,45.37-1.56,12.54-2.47,25.14-3.56,37.69-1.53,17.68-3.53,35.34-4.48,53.09-.75,14-2.02,28-3.99,41.87-.72,5.09-.2,10.21-1.37,15.26-.62,2.69-1.8,3.91-4.19,4.57-33.64,9.31-67.29,18.6-100.92,27.97-3.77,1.05-7.28-.09-10.72-1.05-25.15-7.02-50.24-14.22-75.37-21.3-6.96-1.96-13.94-3.85-21-5.42-4.89-1.09-4.83-4.98-5.12-8.38-1.51-17.27-2.64-34.58-4.2-51.85-.66-7.4-1.73-14.75-1.97-22.2-.09-2.82.75-3.83,3.6-3.81,15.16.09,30.32.09,45.48,0,2.76-.01,3.78,1.02,3.98,3.76.92,12.35,2.22,24.68,2.92,37.05.19,3.29,2.01,3.77,4.18,4.36,14.88,4.05,30.07,7.23,44.59,12.3,11.96,4.17,22-1.34,32.68-3.65,10.93-2.36,21.59-5.95,32.46-8.6,5.85-1.43,4.5-6.3,4.98-9.78,2-14.68,3.45-29.43,5.08-44.16.67-6.05,1.27-12.11,1.94-18.17.34-3.08-1.89-2.58-3.62-2.58-10.33-.01-20.66.02-30.98.06-48.47.19-96.95.31-145.42.71-4.48.04-5.43-2.16-5.69-5.44-1.03-12.84-2.39-25.63-4.04-38.4-.76-5.87-.37-6.03,5.57-6.18,61.28-1.54,122.57-1.55,183.86-2.37,4.04-.05,5.35-1.16,5.56-5.31.71-14.04,1.72-28.08,3.05-42.08.48-5.04-.7-6.46-5.95-6.43-63.63.31-127.27.35-190.91.47-7.06.01-6.8-.02-7.25-7.18-.77-12.03-1.78-24.06-2.95-36.06-.58-5.91-.21-6.66,5.71-6.66,42.15,0,84.29,0,126.44,0Z"/>
</svg>