<?xml version="1.0" encoding="UTF-8"?>
<svg id="Layer_1" data-name="Layer 1" xmlns="http://www.w3.org/2000/svg" viewBox="0 0 512 512">
  <defs>
    <style>
      .cls-1 {
        fill: #f89c44;
      }

      .cls-2 {
        fill: #f9a03c;
      }
    </style>
  </defs>
  <path class="cls-1" d="m324.15,274.99c1.2-11.7.9-23.34.07-35.09-.8-11.34-2.01-22.55-4.14-33.69-.55-2.88,1.79-2.17,3.25-2.17,12.49-.04,25-.42,37.47.07,17.3.68,37.15-12.86,40.44-33.78,3.33-21.19-11.8-42.48-32.23-45.38-11.28-1.6-22.54-.63-33.8-.85-13.15-.25-26.32-.2-39.47.04-3.44.06-5.45-1.04-7.08-3.92-7.62-13.46-16.76-25.9-26.83-37.56-12.68-14.68-26.21-28.55-41.31-40.87-8.29-6.77-16.59-13.46-25.51-19.35-.6-.4-.93-1.19-1.8-2.35,2.18,0,3.78,0,5.39,0,52.97,0,105.94-.21,158.9.09,25.01.14,49.16,4.88,71.45,16.89,24.33,13.11,43.77,31.25,57.77,55.29,9.74,16.73,15.71,34.77,17.95,53.71,3.2,27.03-.42,53.35-12.33,78.25-5.18,10.84-11.36,20.97-19.04,30.16-1.07,1.28-1.56,1.7-.33,3.05,6.44,7.02,11.33,15.1,15.8,23.46-10.62-.15-21.22-.08-31.86-.84-13.89-.99-27.9-.36-41.8-1.35-8.8-.63-17.58-.51-26.37-.89-21.54-.92-43.07-1.94-64.61-2.92Z"/>
  <path class="cls-2" d="m324.15,274.99c21.54.98,43.07,2,64.61,2.92,8.78.38,17.56.26,26.37.89,13.89.99,27.9.36,41.8,1.35,10.63.76,21.24.69,31.86.84,8.28,14.72,12.8,30.56,15.27,47.26,4.38,29.52.12,57.73-12.56,84.43-13.42,28.26-34.02,50.12-61.63,65.34-15.22,8.39-31.43,13.61-48.35,16.73-6.45,1.19-13.14,1.22-19.78,1.21-54.47-.1-108.95-.05-163.42-.05h-4.66c6.94-4.87,13.02-8.82,18.76-13.21,20.98-16.02,40.05-33.93,55.89-55.25,7.63-10.28,14.55-20.93,20.83-32.04,1.49-2.63,3.48-3.6,6.73-3.57,21.49.2,42.98.06,64.47.12,14.45.04,25.71-6.07,33.92-17.72,16.37-23.24,5.2-56.78-21.88-64.45-3.65-1.03-7.3-1.83-11.12-1.82-13.64.03-27.28.01-41.08.01,1.82-11.19,3.97-21.97,3.98-32.99Z"/>
  <path class="cls-2" d="m283.83,250c1.5,25.04-2.09,49.44-8.99,73.46-6.49,22.6-16.99,43.3-29.27,63.22-10.89,17.67-24.32,33.06-39.66,47.02-17.76,16.16-37.39,29.37-58.99,39.66-17.95,8.55-36.75,14.52-56.24,18.56-25.06,5.2-50.42,3.78-75.72,3.95-10.86.08-10.86.01-10.86-10.75,0-29.48.09-58.96-.1-88.44-.03-4.04,1.17-4.91,4.98-4.85,12.99.23,25.98-.08,38.97.13,19.78.32,38.33-4.52,56-13.04,27.98-13.49,49.24-34.08,62.55-62.12,8.54-17.99,14.42-36.94,13.58-57.34-.18-4.48.07-8.99.13-13.48,6.65.1,13.3.6,19.92.77,27.92.72,55.81,2.21,83.71,3.23Z"/>
  <path class="cls-1" d="m283.83,250c-27.91-1.02-55.79-2.52-83.71-3.23-6.62-.17-13.27-.67-19.92-.77-2.19-26.56-11.32-50.48-27.94-71.31-11.32-14.19-24.85-25.99-40.98-34.57-16.25-8.64-33.44-13.67-51.89-15.22-16.95-1.42-33.87-.5-50.8-.74-3.85-.05-4.59-1.14-4.58-4.76.14-31.65.14-63.29,0-94.94-.01-3.41.73-4.53,4.33-4.47,13.99.22,27.99-.3,41.97.17,37.75,1.28,73.97,9.04,107.42,27.27,14.37,7.83,27.86,17,40.67,27.31,20.88,16.81,38.16,36.71,51.89,59.53,13.55,22.51,23.44,46.67,28.69,72.55,2.35,11.58,4.52,23.2,5.28,35.02.17,2.69-.29,5.42-.46,8.14Z"/>
</svg>