<?xml version="1.0" encoding="UTF-8"?>
<svg id="Layer_1" data-name="Layer 1" xmlns="http://www.w3.org/2000/svg" viewBox="0 0 1080 1080">
  <defs>
    <style>
      .cls-1 {
        fill: #20649a;
      }

      .cls-2 {
        fill: #4792ce;
      }
    </style>
  </defs>
  <path class="cls-2" d="m751.87,346.11c-2.59-9.1-2.06-18.53-3.03-27.81.5-.65,1.43-1.27,1.45-1.93.38-9.25,2.68-18.26,3.45-27.45.23-6.05,3.56-11.11,5.31-16.67,4.55-4.58,6.99-10.29,8.77-16.35.4-.61.8-1.22,1.2-1.82,3.13-1.87,4.88-4.72,5.81-8.16,0,0-.03.07-.03.07,1.06-.38,2.13-.77,3.19-1.15.94.54,2.41-.37,3,1.11.35.51.59,1.22,1.08,1.49,9.58,5.36,17.71,12.53,25.28,20.37,1.04,1.08,2.11,2.1,3.74,2.14,0,0-.04-.04-.04-.04-.05,2.11.64,3.69,2.93,4.14,0,0-.03-.03-.03-.03.05.63.35,1.01,1.02,1.02,0,0-.01-.01-.01-.01-.14,1.55.34,2.68,2,3.04,0,0-.03-.04-.03-.04.14.69.55,1.07,1.26,1.1.21.23.42.45.63.68-.2,1.05.07,1.86,1.15,2.25,0,0-.03-.03-.03-.03-.05,1.3.69,1.93,1.87,2.19,2.44,4.89,4.88,9.77,7.32,14.66-.23.93-.08,1.71.84,2.2,0,0-.04-.06-.04-.06-.25,1.22-.07,2.3,1.06,3.05,0,0-.04-.06-.04-.06-.27,1.23-.04,2.29,1.03,3.07,0,0-.04-.07-.04-.07-.29,1.24-.09,2.31,1.04,3.07,0,0-.04-.07-.04-.07-.41,3.22.82,6.23,1.22,9.34.6,4.61,2.81,5.89,7.54,5.25,15.89-2.14,31.86-2.83,47.76.1,5.2.96,10.34,2.25,15.51,3.39,8.98,1.81,16.59,6.16,23,12.63.83.84,2.25,1.36,1.57,3.19-3.78,10.16-8.14,19.98-15.42,28.22-4.49,3.54-8.36,7.64-11.44,12.47,0,0-.23.23-.23.23-3.43.66-5.51,3.13-7.55,5.65-.25.21-.49.41-.74.62-.91.03-1.72.22-2.12,1.17-.3.28-.6.57-.9.85-.41.33-.83.65-1.24.98h.03c-.81.09-1.72-.03-2.41.32-8.17,4.15-16.43,8.07-25.39,10.26-1.23.3-2.07,1.02-2.3,2.33-4.85,1.27-9.79,1.83-14.79,1.95-.38.2-.76.4-1.14.6-.65.11-1.3.22-1.95.33-6.68-1.48-13.35-1.98-19.96.38,0,0,.12-.06.12-.06-.72.17-1.12.62-1.16,1.37,0,0,0,0,0,0-1.8,1.09-2.26,2.77-2.07,4.73,0,0-.11.4-.11.41-1.66,1.03-2.01,2.6-1.83,4.4,0,0,.04-.05.04-.05-2.45,2.03-3.63,4.54-2.96,7.75-2.38,5.45-4.77,10.89-7.15,16.34-.29.35-.57.71-.86,1.07,0,0,.1-.07.1-.07-1.33.6-1.39,1.71-1.18,2.93,0,0,.03-.03.03-.03-1.09.29-1.08,1.15-1.04,2.02,0,0,.03-.03.03-.03-1.08.32-1.03,1.19-1.01,2.05,0,0,.04-.04.04-.04-1.88.73-2.19,2.26-2.06,4.02,0,0,.04-.06.04-.06-.92.39-1.14,1.15-1.04,2.06,0,0,.04-.06.04-.06-.9.37-1.18,1.08-1.08,2h.01c-1.07.42-1.15,1.28-.95,2.25-2.21,4.27-4.42,8.54-6.63,12.81-.17.22-.34.45-.52.68,0,0-.07.13-.07.13-1.86.16-2.2,1.82-2.96,3.04-4.29,6.92-8.66,13.79-12.8,20.79-2.79,4.7-6.81,8.59-8.89,13.74-.08.47-.17.94-.25,1.4-3.96,1.61-5.59,5.53-7.93,8.56-4.24,5.48-9.91,9.9-12.66,16.52-.95,1.03-1.9,2.06-2.84,3.09-4.63,3.22-8.76,6.92-11.61,11.89-2.62.95-3.48,3.9-5.84,5.14-3.67,2.18-7.18,4.55-9.21,8.51,0,0-.22.22-.22.22-2.96.27-4.37,2.76-6.34,4.44-3.1,3.7-7.08,6.31-11,8.99-4.92,2.64-10.02,5.03-13.5,9.68-2.81,1.71-5.63,3.41-8.44,5.12-1.52-.04-2.92.1-3.28,1.98h0c-2.27-.03-4.19.54-5.01,2.97,0,0-.02.02-.02.02-2.59-.15-4.86.31-5.94,3.08l.02-.02c-7.88,2.51-15.28,5.99-21.97,10.9-1.16.67-2.31,1.34-3.47,2.02-1.32-.22-2.58-.2-3.88.33-19.66,7.98-39.91,14.07-60.6,18.72-.73.17-1.36.82-2.03,1.25-11.96,3.79-24.42,4.97-36.75,6.7-9.04,1.27-18.16,1.95-27.25,2.9-5.53-1.69-11.04-1.48-16.53.18,0,0-.02,0-.02,0-1-.44-1.91-.36-2.69.47-1.27.52-2.57.58-3.89.21-1.61-1.36-3.23-1.38-4.84,0-1.39,0-2.77,0-4.16,0-1.61-1.37-3.23-1.38-4.84,0-1.39,0-2.77,0-4.16,0-2.51-1.72-5.24-.86-7.91-.69,0,0,0,0,0,0-4.3-1.71-8.61-1.91-12.94-.13-1.72.41-3.4.23-5.04-.39-.4-.19-.81-.38-1.21-.57-6.28.8-12.4-1.23-18.65-1.01-.64-2.07-2.42-1.88-4.05-2.12-6.87-1.03-13.73-2.14-20.6-3.16-2.87-.43-5.64-2.05-8.66-.75-1.62-.32-3.23-.64-4.85-.97-.44-.49-.79-1.29-1.32-1.43-9.91-2.58-19.59-6.04-29.78-7.51-2.26.22-3.65-2.03-5.82-2.06-4.55-4.35-10.27-6.29-16.19-7.8-4.7-1.63-8.4-5.05-12.82-7.19-2.7-4.02-6.35-6.71-11.06-7.91,0,0,.02.02.02.02-2.26-4.48-5.39-7.98-10.49-9.23-.19-.13-.31-.3-.35-.52-.06-.91-.53-1.38-1.47-1.32-.32-.13-.54-.36-.66-.68,0,0,.07-.24.07-.24h-.25c-.21-.26-.42-.53-.64-.8.05-1.04-.48-1.51-1.49-1.48-.25-.07-.44-.23-.55-.47-.52-1.33-.17-3.31-2.49-3.26-8.77-8.89-14.92-19.7-21.65-30.06-4.6-7.09-8.45-14.64-11.04-22.75-.13-5.23-3.28-9.49-4.59-14.35-.53-1.97-.77-4.3-3.26-5.1-.4-1.58-.79-3.15-1.19-4.73,1.24-1.62.25-3.21-.15-4.76-.96-3.7-2.1-7.35-3.06-11.05-4.44-17.07-7.24-34.45-8.84-51.99-1.08-11.9-2.29-23.83-1.98-35.81.22-8.32,3.11-15.27,11.06-19.23.88-.44,1.82-.87,2.13-1.95.96-.1,1.93-.2,2.89-.3,4.81,0,9.62,0,14.43,0,150.36,0,300.73.04,451.09-.12,6.86,0,13.98-.01,20.57-2.84.58-.12,1.16-.25,1.74-.37,1.3.42,2.42.21,3.26-.96,0,0,.26-.19.26-.19,1.5.81,2.71.38,3.74-.85,0,0,.19-.15.2-.15,4.81,1.01,8.87-.69,12.61-3.52,0,0-.04.02-.04.02,3.04.03,5.87-.33,7.11-3.73,1.53-1.18,1.81-2.57.74-4.21.22-.93,0-1.64-1.01-1.94,0,0,.06.07.06.07-.05-.73-.02-1.52-1.14-1.31-.29-.21-.44-.5-.44-.86.64-.83.32-1.43-.47-1.91,0,0,.01.03.01.03.23-.96-.06-1.67-1.01-2.04,0,0,.05.09.05.09-.79-4.99-2.15-9.77-5.23-13.91,0,0,.07.04.07.04-.26-.4-.52-.8-.78-1.2Z"/>
  <path class="cls-2" d="m199.07,921.34c-.67.33-1.33.67-2,1-.83-.41-.77.29-.91.74,0,0,.06-.03.06-.03-.64-.01-1.03.28-1.13.93,0,0,.02-.02.02-.02-.93-.09-1.67.14-1.99,1.12,0,0,.05-.05.05-.05-.91-.09-1.69.07-2.05,1.06l.05-.05c-2.61-.39-4.85.9-7.19,1.63-10.36,3.26-20.86,5.32-31.79,3.98-1.2-.15-2.3-.06-3.38.48-1.45-.04-2.9-.07-4.35-.11-7.66-3.49-16.19-4.66-23.59-8.83-.05-.03-.39.46-.6.7-3.65-.73-5.31-4.3-8.38-5.87-.93-3.11-3.24-4.55-6.25-5.12-2.51-2.51-5.03-5.02-7.54-7.53,0-.76-.37-1.23-1.1-1.4,0,0,.03.05.03.05,0-1.27-.78-1.83-1.88-2.11-.76-.96-1.51-1.92-2.27-2.88,1.27-1.71-.27-2.81-.96-3.99-17.16-29.18-13.81-72.7,16.76-97.79,17.58-14.43,37.33-19.3,59.51-17.19,5.05.48,9.76,3.63,15.06,1.9,7.11,1.84,13.17,5.87,19.44,9.42,1.44.82,2.55,2.08,4.34,1.06,1.73-2.19,1.08-4.78,1.14-7.22.61-22.71-1.14-45.45,1-68.14,0,0,.04-.06.04-.06.76-.07,1.02-.53.97-1.23,4.19-5.43,11.84-6.37,17.65-2.92,3.7,2.2,6.34,4.71,7.15,8.96-.35,5.1-.32,10.18.38,15.25-.01,26.13-.08,52.25,0,78.38.02,7.92.44,15.83.02,23.75-.11,2.09.4,4.21.62,6.31-1.95,4.12-1.65,8.25-.05,12.39.32,1.42.34,2.83-.27,4.19-3.1,2.08-1.81,5.45-2.11,8.19-.66,6.05-4.82,11.12-4.55,17.36-.2.44-.41.89-.61,1.33,0,0-.4.23-.4.23v.46c-.19.43-.38.86-.57,1.29,0,0-.38.19-.38.19l-.02.43c-.23.49-.47.99-.7,1.48-1.86.89-2.57,2.64-3.3,4.39.26,2.52-2.99,3.03-3.07,5.36-6.97,6.18-13.94,12.35-20.91,18.53Zm.88-91.35l.02.06c-.04-.66-.36-1.03-1.05-1-.24-.11-.36-.3-.35-.57.18-.66-.05-1.15-.64-1.47l.03.05c-.05-.7-.44-1.12-1.11-1.3-.22-.03-.35-.15-.4-.37.12-.73-.17-1.2-.88-1.41-1.51-1.51-3.02-3.01-4.54-4.52-.22-.77-.75-1.07-1.52-1.04-6.26-6.06-14.24-8.45-22.37-10.52-2.27-3.42-5.13-2.4-8.04-1.06-1.03,0-2.06,0-3.09,0-2.71-1.56-5.31-1.8-7.7.61-1.66-.62-3.1.53-4.67.6-2.42.47-5.22.09-6.54,2.98l.04-.04c-.89-.04-1.67.11-2.05,1.06l.06-.05c-.88,0-1.68.15-2.02,1.12l.08-.08c-.96.23-2.14.17-2.84.72-10.33,8.08-18.84,17.37-20.46,31.18-1.18,6.58-1.34,13.17-.13,19.77-1.06,1.21-.82,2.28.37,3.23l-.04-.07c-.29,1.24-.09,2.31,1.03,3.08l-.04-.07c1.45,9.8,7.85,16.47,14.57,22.92.36.35,1.27.13,1.92.17.26.08.43.25.49.52.42.42.83.83,1.25,1.25,3.12,2.02,6.24,4.04,9.36,6.05,15.59,7.29,36.51,6.06,52.01-8.76,5.25-5.02,10.55-10.1,12.32-17.59-.46-2.56,2.53-4,2.11-6.54,4.43-5.59,4.25-22.37-.31-28.83l-.02.02c.26-.97-.05-1.66-1-2.03l.06.05c.11-1-.1-1.85-1.13-2.29-.21.03-.38-.04-.51-.21.25-.72.03-1.1-.78-1.06-.18-.28-.3-.58-.38-.9.38-.7.22-1.09-.62-1.1-.04-.4-.08-.8-.12-1.19.32-.58.16-1.03-.38-1.37Z"/>
  <path class="cls-2" d="m841.93,912.29c-.51.54-1.03,1.09-1.54,1.63-2.1-.2-3.26,1.43-4.6,2.55-8.2,6.86-17.76,11.53-27.95,13.62-18.91,3.88-37.7,3.15-55.24-6.42-1.19-.65-2.46-1.01-3.84-.7-1.54-1.41-4.26-1.14-5.06-3.57-.43-1.19-1.32-1.69-2.56-1.62,0,0-.1-.16-.1-.16-1.7-1.8-3.3-3.71-5.1-5.39-7.5-6.99-12.51-15.84-18.17-24.21,0,0,.07.07.07.07-.59-2.97-.47-6.3-3.92-7.85.01-.48.03-.96.04-1.44.18-.61.64-1.3.51-1.83-3.04-12.07-3.15-24.25-1.56-36.51-.87-4.12,1.66-7.63,2.12-11.51,3.54-4.13,5.95-8.81,6.88-14.21,7.69-10.99,16.64-20.67,28.32-27.58,1.17-.69,2.32-1.16,3.6-1.43,2.9,1.4,5.07-.69,7.43-1.63,8.05-3.19,16.63-3.79,25.03-5.29,1.42,0,2.85,0,4.27,0,10.03,1.22,19.91,3.14,29.49,6.47,6.32,1.35,10.79,5.85,15.89,9.28.61,1.63,2.02,2.51,3.27,3.59,6.42,5.57,12.48,11.77,16.24,19.25,7.16,14.23,11.32,29.36,8.61,45.61,0,0,0,0,0,0-.61.31-.88.79-.75,1.48-.24.37-.47.74-.71,1.1-1.86-.68-2.33.2-2.1,1.86,0,0-.21.11-.21.11-.95-.45-1.85-.77-2.12.73,0,0-.03-.12-.03-.11-.46.35-.93.69-1.39,1.04,0,0-.29.25-.29.25-1.7-.94-3.57-.64-5.38-.65-34.25-.02-68.49-.02-102.74,0-1.49,0-3.01,0-4.46.3-2.11.44-3.39,2.12-2.61,4.05,3.24,8.05,7.32,15.54,15.35,19.94,0,0,.14.14.14.14,3.66,5.21,8.67,8.11,15,8.74,3.63.77,6.8,3.35,10.79,2.73,8.63,2.44,16.82,1.57,24.51-3.19,0,0,.28-.29.28-.29.66.24,1.17.06,1.51-.56,0,0-.07.04-.07.04,1.77.22,3.42.2,4.03-1.97,0,0-.01.03-.01.03.64-.02,1-.32.99-.99.13-.24.34-.36.61-.36.67.2,1.16-.02,1.5-.61,0,0-.06,0-.06,0,.66-.05,1.02-.37.98-1.06.08-.24.25-.36.5-.37.79.08,1.33-.23,1.59-1,.03-.32.2-.49.53-.49.86-.15,1.35-.66,1.46-1.52.28-.21.56-.41.85-.62,5.27-1.93,10.67-2.69,16.25-1.88,0,0-.04-.03-.04-.03.96,2.23,2.79,3.39,5,4.09,0,0-.04-.04-.04-.04,1.74,6.24,2.01,12.39-.98,18.38Zm-99.25-71.39c1.92,1.85,3.89,1.53,5.88.13,26.58,0,53.17,0,79.75,0,1.09,1.36,2.21,1.36,3.35.07,2.91-.6,3.27-2.3,1.91-4.61-1.86-3.14-3.8-6.23-5.71-9.34-1.4-7.1-15.49-17.44-23.56-17.29-2.36-2.32-6.2.66-8.38-2.33-5.05-3.08-10.24-2.1-15.45-.5-7.21,2.63-14.92,4.09-21.16,9.01-9.1,4.25-13.81,12.22-17.6,20.92-.46,1.05-1.37,2.48.45,3.36.18.19.35.38.52.59Z"/>
  <path class="cls-2" d="m688.18,778.17c2.57-.04,5.13-.08,7.7-.11.41.28.81.56,1.21.84,0,0-.07-.11-.07-.11.3.99,1.01,1.28,1.97,1.15,0,0-.04-.02-.04-.02.43.86,1.22.98,2.05,1.01,0,0-.02-.03-.02-.03,3.65,5.88,6.1,11.95,2.86,18.88-.05.11.09.31.14.47-6.45,5.98-13.58,10.97-21.49,14.8-5.42,2.19-9.94,5.93-14.77,9.07-3.38,2.19-7.53,3.52-9.78,7.28-3.3,2.06-6.52,4.25-9.91,6.16-5.01,2.83-5.42,4.51-1.63,8.94,1.6,1.87,3.41,3.55,5.12,5.31,1.18,3.53,3.72,5.78,6.94,7.4.22,0,.36.11.41.33.34,2.9,2.09,4.6,4.7,5.58,0,0,.17.2.17.2-.04,1.21.6,1.76,1.75,1.84.28.04.47.2.56.47,0,0-.05.26-.05.26l.26-.04c.26.25.52.5.77.75.66,3.79,3.16,6.01,6.45,7.56.29.03.49.18.6.46,0,0-.05.26-.05.26l.26-.05c.22.25.45.5.67.74.31,2.84,1.79,4.73,4.55,5.58,0,0,.24.24.24.24,2.33,4.43,5.17,8.39,9.71,10.83.22,0,.36.11.41.33,2.95,5.95,7.39,10.62,12.66,14.57,0,0,.19.23.19.23-.25,1.84.61,2.98,2.29,3.6,0,0-.04-.06-.04-.06.36,5.35.26,10.64-2.22,15.58,0,0-.25.25-.25.25-12.06,5.33-15.78,4.58-23.93-4.73-6.68-7.63-13.24-15.37-20.16-22.79-6.56-7.03-12.04-15.09-19.84-20.95-2.66-2.3-4.84-5.02-6.87-7.88,0,0-.11-.37-.11-.37l-.43.03c-.43-.43-.85-.86-1.28-1.29-.18-.22-.36-.44-.55-.67,0,0-.32-.29-.32-.29-1.36-4.75-4.93-7.54-8.87-10.01-.2-.19-.29-.42-.26-.7-2.01-2.71-4.17-1.07-6.06,0-3.18,1.79-6.09,4.07-9.3,5.81-3.72,2.01-4.83,4.94-4.78,9.01.16,14.13.05,28.26.08,42.39,0,1.61-.46,3.37.99,4.69-.63,3.21-1.51,6.29-4.61,8.1-.65.12-1.33.14-1.95.36-13.74,4.83-21.11-.34-21.11-14.87,0-60.38,0-120.76-.01-181.15,0-4.48-.09-8.96-.14-13.43,0,0,0,0,0,0,1.58-.5,1.94-1.7,1.83-3.17,1.07-1.87,3.08-2.61,4.66-3.86,7.7-1.65,14.22.55,19.73,6.04,1.02.74.51,1.93.83,2.87-.07.49-.2.98-.2,1.48-.02,34.87-.03,69.74-.02,104.62,0,1.45-.28,3.06,1.3,4.02.32.07.61.2.87.39.03.39-.03,1.06.13,1.11.99.35,1.32-.35,1.53-1.15.99-.43,1.98-.86,2.97-1.3.7-.12,1.17-.48,1.28-1.21,0,0-.04.06-.04.06,2.2-.17,4.23-.56,4.25-3.43.08-.25.25-.36.51-.33,2.29.83,3.64-.07,4.25-2.32,0,0-.03.07-.03.07,1.45-.02,2.75-.26,3.07-2.01l-.03.04c.95-.2,2.06-.14,2.83-.63,6.15-3.86,12.25-7.8,18.32-11.78.45-.29.54-1.12.8-1.7,0,0-.04.08-.04.08.37-.29.75-.57,1.12-.85,3.93-1.86,7.05-4.88,10.57-7.33,0,0,.16.17.16.17l.09-.22c.32-.15.64-.3.96-.45,6.42-2.22,12.09-5.58,16.45-10.93,1.64-1.1,3.27-2.2,4.91-3.3,5.08-.4,8.45-3.85,12.11-6.79Z"/>
  <path class="cls-2" d="m253.19,837.51c-.04-.32.04-.6.26-.84,2.8-1.6,2.45-4.29,2.38-6.89.08-.33.17-.67.25-1,2.9-3.83,5.74-7.7,5.64-12.85,4.78-8.98,12.24-15.55,19.85-21.97.76-.25,1.62-.35,2.27-.77,7.51-4.8,15.23-9.14,23.98-11.32,1.05-.26,1.72-.92,2.04-1.95,3.38-.61,6.77-1.21,10.15-1.82,6.18,1.76,12.37,1.27,18.57.12,2.05.89,4.05,1.99,6.43,1.53,7.47,2.72,14.95,5.45,22.42,8.17.48.4.96.8,1.44,1.2,9.35,7.11,18.19,14.73,25.04,24.4.15.21.6.21.92.31,1.11,1.97,2.22,3.94,3.33,5.91-.06.89.06,1.71.96,2.17,0,0-.04-.06-.04-.06.23,2.97.45,5.95,3.15,7.94,0,0-.04-.03-.04-.03,1.06,6.08,2.12,12.17,3.2,18.25.15.85.58,1.51,1.58,1.53,0,.81-.02,1.61-.03,2.42-1.62,2.64-1.62,5.28,0,7.91,0,.8.02,1.61.03,2.41-2.97,2.22-2.29,5.01-1.22,7.86-.39,1.6-.77,3.2-1.16,4.8-3.67,3.44-3.72,8.19-4.56,12.65-.67,1.49-1.35,2.97-2.02,4.45-1.31.53-2.22,1.32-1.91,2.91,0,0,.03-.05.03-.05-.86.44-.92,1.28-1.01,2.09,0,0,.06-.03.06-.03-4.22,1.86-5.61,6.29-8.32,9.48-4.73,5.56-11.21,9.14-15.84,14.72-.24.21-.48.41-.72.62-1.05-.2-1.86.03-2.23,1.15h0c-1.59-.26-2.92.51-4.24,1.19-13.1,6.69-27.1,8.98-41.57,7.57-11.01-1.07-21.9-2.84-31.42-9.51-7.9-5.54-15.88-10.86-21.82-18.65-.34-.44-1.16-.52-1.76-.76,0,0-.05-.09-.05-.09.13-2.56-2.07-3.4-3.54-4.78-2.76-3.17-4.78-6.73-5.76-10.85.08-1.87-.56-3.56-1.1-5.32-3.73-12.07-5.25-24.34-3.3-36.94.37-2.4,1.05-4.93-.3-7.32Zm38.94-14.53l-1.03,1.07.06-.06c-1.68.27-2.04,1.48-2.05,2.92-2.86,3.22-3.96,7.41-6.11,11.02-1,.82-1.2,1.87-.9,3.07l.04-.07c-1.12.77-1.32,1.84-1.03,3.08l.04-.07c-1.52,1.45-1.32,3.26-1.03,5.08l.03-.06c-.98.61-.97,1.31-.2,2.09l.06,10.02c-.63,8.52,2.03,15.82,8.15,21.83l-.04-.04c0,2.09.79,3.6,2.99,4.07l-.02-.03c2.33,4.86,5.95,8.27,11.13,9.93l-.06-.08c.39,1.01,1.29,1.05,2.16,1.14.17.02.34.08.5.15.31.53.37,1.51,1.39.78,1.98,1.81,3.98,3.57,6.96,3.18.67,1.82,2.18,2.29,3.9,2.62,6.25,1.2,12.53,1.6,18.87,1.01,1.7-.16,3.34-.32,4.28-2.03l.27-.19c1.36.79,2.49.42,3.48-.69h-.04c1.07.25,1.79-.2,2.26-1.14.05-.22.18-.32.4-.32.98.63,1.73.29,2.37-.55h-.03c1.37.27,2.45-.06,3.02-1.45,2.24-.52,2.87-3.66,5.57-3.43.41-.38.82-.76,1.23-1.14.39-.35.78-.7,1.17-1.05,5.27-1.82,8-6,10.04-10.81l-.04.09c1.33-.59,2.4-1.34,1.95-3.06v-.02c2.16-.62,2.22-2.25,1.98-4.04l-.05.07c.98-.39,1.14-1.18,1.03-2.1l-.06.09c1.3-.69,1.43-1.78,1.07-3.05l-.04.07c1.31-.71,1.39-1.83,1-3.09l-.04.07c1.81-1.14,1.88-3.05,2.06-4.85,2.08-20.83-5.15-37.48-22.45-49.5-1.17-.81-2.38-2.72-4.31-1.14l-5.12-2.47c-.55-.58-1-1.43-1.68-1.7-9.24-3.8-18.73-3.53-28.3-1.54-.87.18-1.33.92-1.44,1.82l-.17.03c-1.1-.59-1.87-.15-2.5.78l-.23.2c-.65-.28-1.2-.15-1.61.44-.22.07-.45.09-.68.06-5.36,1.11-10.15,3.17-13.26,8l.03-.03c-.34.34-.69.68-1.03,1.02,0,0,.02-.02.02-.02-.34.34-.68.68-1.02,1.02l.02-.02c-.34.34-.68.68-1.02,1.03l.03-.03c-.34.35-.68.7-1.01,1.05l.03-.04c-.34.35-.68.71-1.02,1.06l.05-.05Z"/>
  <path class="cls-2" d="m440.57,905.93c-.5-.52-1.01-1.04-1.51-1.56.23-1.68-.64-2.63-2.12-3.17-3.25-3.14-5.5-6.92-7.09-11.13-.7-4.36-1.42-8.71-4.76-12.02-.94-3.26-1.87-6.51-2.81-9.77,1.24-.77,1.24-1.63.21-2.57-.08-.56-.17-1.12-.25-1.67,1.51-5.72,1.57-11.43-.04-17.14.11-.65.22-1.3.33-1.95,2.2-7.43,4.39-14.85,6.59-22.28-.02-.19-.01-.37.04-.55.3-.48.59-.95.89-1.42.01-.19.05-.39.1-.58,2.09-.74,2.69-2.43,2.82-4.42,1.03-3.61,3.69-6.15,5.93-8.96,2.78-.53,4.4-2.22,4.96-4.96.67-.67,1.33-1.33,2-2,3.51-1.34,6.76-2.99,7.97-6.97,0,0,.05-.05.05-.05,4.37-1.45,8.84-2.75,11.63-6.88.12-.18.27-.33.45-.44,4.85-.92,9.9-1.3,13.68-5.09.28-.19.59-.26.92-.19,1.28,1.1,2.41.8,3.45-.38,0,0-.07.04-.07.04,1.32.03,2.67.26,3.95.06,11.7-1.86,23.16-.71,34.57,2.21,2.28.58,4,3.23,6.77,1.9,7.73,2.56,14.48,7.03,20.76,11.94,4.95,3.87,5.79,9.98,4.96,16.13-.18.16-.21.34-.08.54,0,0-.21.21-.21.21-2.98,2.85-5.96,5.71-8.95,8.56-5.38,1.13-10.48,1.43-14.48-3.51-.84-1.03-2.52-1.38-3.81-2.05-2.25-3.83-5.33-6.19-10.03-5.72-16.37-5.35-31.96-4.2-46.49,5.62-5.13,1.85-8.44,5.58-10.72,10.38-.39.69-.78,1.39-1.17,2.08-.26.31-.53.63-.79.95,0,0-.02.02-.02.02-1.69.31-2.16,1.42-1.93,2.98,0,0,0-.04,0-.04-.89.38-1.28,1.03-1.06,1.99,0,0,0-.03,0-.03-.84.43-1.24,1.08-.97,2.04,0,0,0-.05,0-.05-1.14.89-1.53,2.03-1.17,3.43,0,0,0,.04,0,.05-.57.48-.84,1.04-.51,1.77,0,0-.01.11-.01.11-1.68.25-1.96,1.56-2.21,2.9-2.55,13.66-.46,26.44,7.19,38.17.77,1.18,1.19,2.89,3.18,2.68.27.57.54,1.14.81,1.71-.03,1.1.58,1.6,1.6,1.73.7.73,1.39,1.46,2.09,2.19.32.36.65.73.97,1.09,0,0-.08-.08-.08-.08.36.36.71.71,1.07,1.07,0,0-.07-.07-.07-.07.36.35.73.69,1.09,1.04,0,0-.06-.06-.06-.06,1.2,2.83,3.46,4.01,6.41,4.12,0,0,.02,0,.03,0,.52.31,1.03.62,1.54.93,0,0-.03-.03-.03-.03.44.89,1.2,1.07,2.1.95,0,0-.02-.03-.02-.03.7,2.27,2.48,2.35,4.4,2.15,0,0,0,0,0,0,.8,1.45,2.23,1.82,3.68,2.22,7.09,1.95,14.31,2.03,21.54,1.3,1.89-.19,4.02-.32,5.16-2.36,6.68-1.87,11.96-6.22,17.6-9.93,8.18-5.38,15.9-4.38,21.53,2.65-.02.66.28,1.08.93,1.23,0,0-.04-.05-.04-.05-.13,1.48-.21,2.94,1.58,3.58,0,0,0,.2,0,.2-.89,1.29-.7,2.49.27,3.64,0,.4,0,.81-.01,1.21-.57.49-.67,1.04-.26,1.68,0,0,0,.11,0,.11-1.38.44-1.6,1.47-1.35,2.72-.03.32-.18.59-.42.8-1.44.68-2.23,1.75-2.04,3.41-.1.28-.28.48-.56.58,0,0-.26,0-.26,0v.26c-.1.28-.3.46-.6.53-4.23,1.36-7.32,4.45-10.7,7.1-4.65,3.56-9.85,5.92-15.54,7.24-.86-.78-1.86-.55-2.81-.32-10.36,2.52-20.79,3.28-31.37,1.6-1.46-.23-2.97-.31-4.26.71-13.36-1.94-24.71-8-34.7-16.87-.38-.34-.75-.69-1.13-1.03,0,0,.04.08.04.08-.13-.74-.57-1.14-1.32-1.19-.85-.83-1.71-1.66-2.56-2.49-.12-.75-.59-1.13-1.32-1.23,0,0,.06.06.06.06-.08-.73-.44-1.2-1.18-1.34-.29-.08-.46-.26-.52-.56-.14-.83-.62-1.32-1.45-1.46Z"/>
  <path class="cls-2" d="m910.33,923.51c-1.37,3.33-3.2,6.23-6.86,7.45-.71.19-1.03.71-1.1,1.4,0,0-.18.03-.18.03-4.2-.27-8.4-.53-12.61-.8,0,0-.22-.15-.22-.15-.05-1.1-.72-1.55-1.73-1.64-5.11-3.13-5.75-8.43-5.76-13.51-.07-41.68.08-83.36.16-125.04,1.4-.87,1.6-2.42,2.17-3.76,2.46-5.76,7.4-8.72,13.74-8.14,1.96.18,3.92.49,5.87.75,1.55,1.08,3.26,1.97,4.24,3.71.59,2.92,1.13,5.85,1.81,8.75.35,1.48,1.32,3.57,2.88,2.43,4.41-3.25,10.33-4.49,13.21-9.77.18-.1.36-.09.53.03.71.32,1.23.07,1.61-.56.05-.21.18-.31.4-.3,3.23.61,6.1.22,7.94-2.94,0,0,.18-.02.18-.02,2.31.85,4.6.24,6.87-.18,12.72-2.36,25.39-2.48,38.07.41,11.83,2.69,16.28,7.51,17.47,19.38,0,0,.04-.03.04-.03-1.5.93-2.06,2.34-2.05,4.04,0,0,0-.03,0-.03-.57.27-.8.7-.61,1.32,0,0-.07.1-.07.1-.64,0-.96.31-.94.95,0,0-.11.08-.11.08-.63-.18-1.06.05-1.32.64,0,0,.03-.01.03-.01-1.65-.15-2.76.61-3.44,2.07,0,0-.08-.01-.08-.01-3.32.13-6.65.27-9.97.4-3.72-1.22-7.45-2.45-11.17-3.67-2.8-1.44-5.59-1.75-8.39-.02-1.03,0-2.06,0-3.09,0-1.8-1.74-3.6-1.23-5.39.03-6.86,2.59-14.24,3.88-20.4,8.21-2.13-.11-3.66.65-4.15,2.9,0,0,.02-.03.02-.03-.34.34-.68.68-1.02,1.03,0,0,.02-.02.02-.02-.34.34-.68.68-1.02,1.03,0,0,.03-.03.03-.03-.34.35-.68.69-1.02,1.04,0,0,.03-.04.03-.04-.34.35-.68.7-1.02,1.06,0,0,.04-.05.04-.05-.34.36-.67.73-1.01,1.09,0,0,.06-.07.06-.07-2.17.45-3.09,1.86-3.1,3.99,0,0,.02-.03.02-.03-1.38.34-1.9,1.29-1.82,2.64,0,0-.05-.04-.05-.04-.54.5-.78,1.07-.51,1.79-.09.26-.27.43-.53.52-.59.36-.77.85-.48,1.49-.09.26-.27.43-.53.52-.59.36-.76.84-.47,1.48-2.61,5.42-3.59,11.28-4.66,17.12-1.59,2.23-1.09,4.81-1.09,7.26-.05,18.29-.05,36.58,0,54.87,0,2.97-.41,5.99.53,8.91Z"/>
  <path class="cls-2" d="m634.74,369.98c-.55-.58-1.09-1.16-1.64-1.74.06-20.51.13-41.02.19-61.52,0,0,.05-.29.05-.29,0,0,.29-.07.29-.07,22.53-.07,45.06-.15,67.59-.22,3.06,1.8,3.96,4.52,3.93,7.97-.11,15.61-.09,31.22,0,46.83.02,2.89-.87,5.45-1.87,8.04-3.57.87-7.21.89-10.86.89-19.22,0-38.45.07-57.67.11Z"/>
  <path class="cls-2" d="m373.1,360.37c.01-.78.03-1.57.04-2.35,1.08-.54,1.11-1.05-.05-1.52,0-1.32,0-2.64,0-3.95.32-.53.94-1.08.91-1.59-.49-8.55,1.28-17.17-.89-25.66-.01-.91-.02-1.82-.03-2.72,1.38-.68,1.37-1.37,0-2.05,0-1.31,0-2.62,0-3.93,1.37-.69,1.38-1.38,0-2.07.03-1.58.07-3.16.1-4.73.79-.31.94-.87.61-1.61.48-1.56,1.65-2.34,3.14-2.74,1.13.93,2.49.79,3.8.79,19.19.01,38.39.01,57.58,0,1.31,0,2.67.14,3.8-.79,1.78,1.09,3.46,2.26,3.75,4.58-1.33,1.16-1.01,2.74-1.01,4.2-.02,16.14-.02,32.28,0,48.42,0,1.47-.22,3.03.91,4.27-.76,1.83-2.05,3.12-3.87,3.88-1.73-1.4-3.8-.89-5.73-.9-17.37-.04-34.75-.09-52.12.03-3.92.03-7.54-.27-10.44-3.22-.11-.85-.22-1.71-.33-2.56.82-.43.79-.8-.07-1.13-.03-.75-.05-1.5-.08-2.25.11,0,.22-.01.34-.02-.11-.12-.23-.23-.34-.35Z"/>
  <path class="cls-2" d="m532.64,358.23c.58,4.71,1.19,9.43-4.04,12.23-1.14-.2-2.28-.56-3.42-.56-19.31-.04-38.63-.03-57.94-.02-1.16,0-2.35-.04-3.32.78-.27-.17-.54-.35-.81-.52-1.61-2.63-2.01-5.47-1.99-8.54.1-15.8.04-31.6.05-47.4,0-7.41.55-7.94,7.94-7.96,20.12-.06,40.24-.13,60.36-.2,4.39,2.65,3.66,6.77,3.12,10.84-.78.48-.74.94.04,1.37.66,2.21.71,4.42-.05,6.63-.95,8.44-1.1,16.88.12,25.31.04,1.36.09,2.72.13,4.07-.13.03-.25.07-.38.1.12.17.24.34.35.52-.08.67-.15,1.33-.23,2-.77.48-.74.94.05,1.37Z"/>
  <path class="cls-2" d="m292.01,370.79c-1.77-.42-2.98-1.44-3.48-3.22,1.02-2.05.63-4.25.64-6.39.03-15.99,0-31.98.03-47.96.01-6.09.89-6.97,6.94-6.97,18.49-.03,36.97.09,55.46-.09,3.87-.04,6.76.98,8.89,4.15.05.5.11,1,.16,1.5-.77.5-.76,1,0,1.5-.06.53-.12,1.06-.18,1.59-1.01,1.15-.99,2.27.07,3.38.01.52.03,1.03.04,1.55-.76.48-.76.96-.02,1.46-.02.54-.04,1.07-.07,1.61-1.07,9.12-1.1,18.24.18,27.35,0,.52-.02,1.04-.02,1.56-.77.47-.78.96-.06,1.49-.03.52-.06,1.04-.08,1.56-1.03,1.15-1.03,2.28.03,3.41.01.52.03,1.03.04,1.55-.76.48-.77.96-.02,1.46-.02.53-.04,1.07-.06,1.6-1,1.07-.99,2.28-.52,3.56-1.36.82-.12,3.6-2.66,3.54-20.53-.03-41.05-.07-61.57-.09-1.3,0-2.68-.15-3.74.92Z"/>
  <path class="cls-2" d="m373.09,282.52c0-1.31,0-2.62,0-3.93,1.37-.69,1.38-1.38,0-2.07,0-1.31,0-2.62,0-3.93,1.37-.69,1.38-1.38,0-2.07,0-1.31,0-2.62,0-3.93,1.37-.69,1.38-1.38,0-2.07,0-1.31,0-2.62,0-3.93,1.37-.69,1.38-1.38,0-2.07,0-1.31,0-2.62,0-3.93,1.37-.69,1.38-1.38,0-2.07,0-1.31,0-2.62,0-3.93,1.37-.69,1.38-1.38,0-2.07,0-1.31,0-2.62,0-3.93,1.37-.69,1.38-1.38,0-2.07,0-1.31,0-2.61,0-3.92,1.16-.47,1.12-.99.05-1.54.02-.75.03-1.5.05-2.25.12-.03.25-.06.37-.09-.11-.17-.23-.34-.34-.51.13-.98.25-1.96.38-2.94,1.3-.2,1.77-.94,1.47-2.2,0,0,0,0,0,0,22.99-.01,45.98-.03,68.97-.04h0c-.22.97.18,1.61,1.07,1.99,0,0-.04-.05-.04-.05.02,19.72.03,39.44.05,59.16-.53.64-1.06,1.29-1.58,1.93-22.84,0-45.69,0-68.54.02h0c.17-1.2-.24-2.01-1.5-2.25,0,0-.18-.24-.18-.24,0,0-.03-.15-.03-.15-.06-.95-.12-1.91-.18-2.85,1.34-.69,1.39-1.39,0-2.08Z"/>
  <path class="cls-2" d="m532.81,274.84c-.07.68-.15,1.36-.22,2.04-.77.48-.74.94.05,1.37.65,2.22.76,4.42-.1,6.62-.23.46-.46.91-.69,1.37-.37.91-.74,1.82-1.11,2.73-2.68,1.02-5.45,1.13-8.29,1.12-20.12-.08-40.24-.07-60.37-.09-.56-.61-1.12-1.22-1.67-1.83.25-.94.7-1.88.7-2.82-.01-18.84-.08-37.67-.13-56.51.03-.73-.06-1.51.84-1.83,22.75,0,45.49.02,68.24.03,0,0-.04-.03-.04-.03.35.34.7.68,1.05,1.03,0,0-.02-.04-.02-.04-.14.95.25,1.62,1.07,2.06,1.6,2.16,1.07,4.49.52,6.81-.8.46-.8.92,0,1.38.68,2.21.68,4.41,0,6.62-.79.43-.82.89-.04,1.37.08.63.16,1.25.25,1.88-1.43,8.91-1.43,17.82-.03,26.73Z"/>
  <path class="cls-2" d="m546.87,307.86c.43-.64.86-1.28,1.28-1.92,19.93.1,39.87.21,59.81.28,2.99.01,5.97.03,8.84.98,0,0,0,0,0,0,.03,20.36.07,40.73.1,61.09,0,0-.11.29-.11.29-2.64,1.21-5.44,1.28-8.28,1.28-20.11.01-40.22.08-60.33.14-.71-.92-1.43-1.84-2.14-2.77.98-1.48.85-3.16.85-4.81,0-18.19-.01-36.38-.02-54.57Z"/>
  <path class="cls-2" d="m548.44,147.29s.3-.12.3-.12c19.75.03,39.49.08,59.24.08,2.99,0,5.95.03,8.83.98,0,0,0,0,0,0,.08,20.35.15,40.7.23,61.04-.61.61-1.23,1.22-1.84,1.83-20.25-.24-40.5-.48-60.75-.71-6.57-.08-7.54-.98-7.55-7.49-.03-15.12.04-30.23-.04-45.35-.02-3.54.32-6.95,1.58-10.26Z"/>
  <path class="cls-2" d="m615.21,226.96c1.26-.02,1.93.55,1.85,1.86.03,19.79.06,39.58.1,59.37-.03.33-.18.59-.46.78-1.98,1.08-4.11,1.09-6.29,1.09-18.8-.03-37.61-.03-56.41,0-5.98.01-7.06-.85-7.07-6.86-.01-18.47.08-36.94.13-55.42.22-.23.45-.46.67-.7,22.5-.04,44.99-.09,67.48-.13Z"/>
  <path class="cls-1" d="m732.13,383.01c-6.59,2.83-13.7,2.83-20.57,2.84-150.36.16-300.73.12-451.09.12-4.81,0-9.62,0-14.43,0,4-2.28,8.45-1.67,12.7-1.68,125.88-.07,251.76-.06,377.63-.05,24.98,0,49.95,0,74.93.07,6.98.02,13.8-2.24,20.82-1.29Z"/>
  <path class="cls-1" d="m183.24,781.96c-5.3,1.73-10-1.42-15.06-1.9-22.18-2.11-41.93,2.76-59.51,17.19-30.57,25.09-33.92,68.61-16.76,97.79.69,1.18,2.23,2.28.96,3.99-6.36-5.2-7.75-13.01-9.93-20.16-5.55-18.24-4.52-36.59,2.45-54.14,5.14-12.94,14.82-22.89,25.38-31.86,5.73-4.87,12.31-8.73,19.28-10.67,12.26-3.42,24.77-6.74,37.87-3.7,5.09,1.18,10.62.42,15.31,3.46Z"/>
  <path class="cls-1" d="m243.16,386.27c-.32,1.08-1.25,1.51-2.13,1.95-7.95,3.96-10.85,10.91-11.06,19.23-.31,11.98.9,23.91,1.98,35.81,1.6,17.54,4.4,34.91,8.84,51.99.96,3.7,2.11,7.35,3.06,11.05.4,1.54,1.39,3.14.15,4.76-4.2-6.25-5.26-13.61-6.87-20.67-2.33-10.23-3.93-20.63-5.86-30.96-1.01-5.4-.35-10.92-1.43-16.35-2.34-11.72-1.3-23.65-1.64-35.48-.32-11.14,5.46-18.88,14.96-21.33Z"/>
  <path class="cls-1" d="m547.05,227.79c-.05,18.47-.14,36.94-.13,55.42,0,6.01,1.09,6.87,7.07,6.86,18.8-.04,37.61-.04,56.41,0,2.19,0,4.32,0,6.29-1.09-.66,2.75-2.76,2.85-5.05,2.88-19.95.26-39.91-.89-59.86.21-4.53.25-6.41-2.14-6.48-6.27-.13-7.32-.11-14.65-.16-21.98-.08-10.32-.13-20.64-.28-30.97-.03-2.1,0-4.01,2.19-5.07Z"/>
  <path class="cls-1" d="m573.01,719.99c.05,4.48.14,8.96.14,13.43.01,60.38,0,120.76.01,181.15,0,14.53,7.37,19.7,21.11,14.87.62-.22,1.3-.24,1.95-.36-4.22,5.99-13.92,6.62-19.56,1.31-3.74-3.51-5.08-7.74-5.07-12.87.09-62.5.02-125,.13-187.49,0-3.31-2.59-7.16,1.29-10.04Z"/>
  <path class="cls-1" d="m548.44,147.29c-1.25,3.31-1.6,6.72-1.58,10.26.08,15.12,0,30.23.04,45.35.01,6.52.99,7.42,7.55,7.49,20.25.23,40.5.47,60.75.71-.58.98-1.55,1.16-2.57,1.2-20.57.76-41.14.15-61.71,0-5.03-.04-5.73-3.62-5.73-7.59,0-13.29,0-26.58-.02-39.87,0-3.82-.38-7.66-.11-11.45.17-2.34-.58-5.66,3.37-6.1Z"/>
  <path class="cls-1" d="m955.91,922.86c-.03,5.86-3.21,9.24-8.73,9.29-6.77.05-12.34-4.37-12.22-9.71.13-5.27,5.27-9.59,11.43-9.6,6.5,0,9.55,3.21,9.52,10.02Zm-16.69.63c-.66,3.87,2.46,5.44,5.39,7.06,1.54.85,2.88-.02,4.14-.88.78-.53,1.3-1.37.38-1.99-1.19-.81-1.54-3.41-3.85-2.06-.97.57-2,.94-2.3-.47-.44-2.11-.63-4.43.62-6.27,1.07-1.58,3.03-1.1,4.63-.75,2.72.6,1.73,2.59,1.57,4.37-.11,1.29.24,3,1.85,2.96,1.82-.04,1.94-1.33,1.79-3.17-.29-3.75-3.29-7.06-7.16-7.07-4.13,0-7.1,3.3-7.07,8.26Z"/>
  <path class="cls-1" d="m267.24,902.8c.6.24,1.42.32,1.76.76,5.94,7.79,13.92,13.11,21.82,18.65,9.52,6.67,20.41,8.44,31.42,9.51,14.48,1.41,28.47-.88,41.57-7.57,1.32-.67,2.64-1.45,4.24-1.2-4.81,4.64-11.19,6.03-17.21,7.82-12.08,3.6-24.39,3.39-36.85,1.62-18.99-2.71-33.2-13.07-45.43-26.94-.63-.72-.89-1.76-1.32-2.65Z"/>
  <path class="cls-1" d="m748.76,922.98c1.38-.31,2.64.04,3.84.7,17.55,9.58,36.33,10.3,55.24,6.42,10.2-2.09,19.75-6.76,27.95-13.62,1.33-1.12,2.49-2.75,4.6-2.55-4.31,5.48-10.29,8.85-16.29,11.84-16.86,8.41-34.86,10.76-53.21,6.95-7.8-1.62-16.12-3.41-22.13-9.72Z"/>
  <path class="cls-1" d="m638.57,880.25c7.8,5.86,13.28,13.92,19.84,20.95,6.92,7.41,13.48,15.16,20.16,22.79,8.15,9.31,11.87,10.06,23.93,4.73-5.08,6.41-14.89,7.23-20.48,1.22-9.83-10.58-19.33-21.47-28.96-32.23-4.1-4.59-8.18-9.19-12.26-13.8-.95-1.08-2.45-1.85-2.23-3.65Z"/>
  <path class="cls-1" d="m756.62,893.11c-8.03-4.4-12.12-11.89-15.35-19.94-.78-1.93.49-3.61,2.61-4.05,1.44-.3,2.97-.3,4.46-.3,34.25-.01,68.49-.02,102.74,0,1.81,0,3.67-.29,5.38.65-1.98,1.31-4.21.73-6.31.73-33.6.04-67.21.03-100.81.03-7.41,0-8.07,1.09-4.37,7.6,3.19,5.61,7.02,10.77,11.66,15.28Z"/>
  <path class="cls-1" d="m905,328.07c-5.17-1.14-10.31-2.43-15.51-3.39-15.9-2.94-31.87-2.24-47.76-.1-4.73.64-6.94-.64-7.54-5.25-.4-3.11-1.63-6.12-1.22-9.34,1.79,2.46,2.48,5.43,2.85,8.27.56,4.32,2.82,4.7,6.51,4.41,12.89-1.01,25.81-1.48,38.73-.98,6.98.27,13.74,2.09,20.48,3.82,1.58.41,2.62,1.29,3.46,2.57Z"/>
  <path class="cls-1" d="m864.06,863.01c2.7-16.25-1.45-31.38-8.61-45.61-3.76-7.48-9.82-13.68-16.24-19.25-1.25-1.08-2.66-1.96-3.27-3.59,5.88,2.27,9.66,7.13,13.27,11.76,6.4,8.22,11.93,17.09,14.56,27.38,2.1,8.23,2.92,16.62,2.37,25.11-.1,1.61-.22,3.38-2.08,4.2Z"/>
  <path class="cls-1" d="m999.01,801.02c-1.2-11.87-5.64-16.69-17.47-19.38-12.68-2.88-25.35-2.77-38.07-.41-2.27.42-4.55,1.03-6.87.18,4.52-2.62,9.85-3.07,14.65-3.42,13.62-.99,27.39-1.31,40.09,5.45,7.31,3.89,10.08,9.96,7.67,17.57Z"/>
  <path class="cls-1" d="m360.48,310.3c-2.13-3.17-5.02-4.19-8.89-4.15-18.48.18-36.97.07-55.46.09-6.05,0-6.93.89-6.94,6.97-.03,15.99,0,31.98-.03,47.96,0,2.14.38,4.34-.64,6.39-1.14-1.46-.74-3.19-.75-4.82-.03-16.64-.04-33.28,0-49.92.02-7.14,1.01-8.16,8.09-8.17,18.97-.04,37.94-.02,56.91,0,3.9,0,7.32.79,7.71,5.64Z"/>
  <path class="cls-1" d="m462.08,289.99c20.12.02,40.24,0,60.37.09,2.84.01,5.61-.1,8.29-1.12-.52,2.57-2.49,2.81-4.58,2.8-20.26-.13-40.51-.25-60.77-.42-1.19-.01-2.78.49-3.31-1.35Z"/>
  <path class="cls-1" d="m374.99,290.09c22.85,0,45.69-.01,68.54-.02-.95,1.89-2.71,1.64-4.36,1.65-19.8.05-39.6.12-59.4.09-1.66,0-3.76.42-4.78-1.72Z"/>
  <path class="cls-1" d="m529.47,306.03c-20.12.07-40.24.13-60.36.2-7.39.02-7.94.55-7.94,7.96-.01,15.8.05,31.6-.05,47.4-.02,3.07.38,5.91,1.99,8.54-3.09-.08-3.32-2.4-3.33-4.57-.06-18.3-.04-36.61-.03-54.91,0-4.15,2.22-6,6.26-5.99,19.81.01,39.61,0,59.42,0,1.48,0,3.05-.11,4.05,1.37Z"/>
  <path class="cls-1" d="m444.03,227.05c-22.99.01-45.98.03-68.97.04.62-2.23,2.48-1.81,4.05-1.81,19.86-.02,39.71-.03,59.57,0,1.92,0,3.94.06,5.35,1.76Z"/>
  <path class="cls-1" d="m530.05,227.03c-22.75-.01-45.49-.02-68.24-.03,1.53-2.1,3.84-1.71,5.92-1.71,18.99-.02,37.97,0,56.96.06,1.91,0,4.09-.54,5.35,1.68Z"/>
  <path class="cls-1" d="m615.21,226.96c-22.49.04-44.99.09-67.48.13,2.39-2.37,5.65-1.73,8.37-1.77,18.08-.23,36.17-.11,54.26-.02,1.72,0,3.75-.38,4.86,1.66Z"/>
  <path class="cls-1" d="m570.06,639.23c.67-.43,1.3-1.08,2.03-1.25,20.69-4.65,40.94-10.74,60.6-18.72,1.3-.53,2.56-.55,3.88-.33-21.49,9.01-43.33,16.83-66.51,20.3Z"/>
  <path class="cls-1" d="m617.04,209.28c-.08-20.35-.15-40.7-.23-61.04,1.89.94,1.63,2.74,1.64,4.35.07,17.26.13,34.51.11,51.77,0,1.71.49,3.75-1.52,4.92Z"/>
  <path class="cls-1" d="m616.91,368.3c-.03-20.36-.07-40.73-.1-61.09,1.69.8,1.64,2.39,1.65,3.86.06,17.6.11,35.19.09,52.79,0,1.6.06,3.4-1.64,4.45Z"/>
  <path class="cls-1" d="m546.87,307.86c0,18.19.01,36.38.02,54.57,0,1.65.14,3.33-.85,4.81-1.11-1.45-.84-3.16-.85-4.79-.09-16.43-.17-32.86-.2-49.28,0-1.94-.24-4.07,1.88-5.3Z"/>
  <path class="cls-1" d="m617.15,288.19c-.03-19.79-.06-39.58-.1-59.37,1.91.98,1.5,2.85,1.5,4.41.06,16.64.07,33.28.04,49.91,0,1.77.13,3.68-1.44,5.04Z"/>
  <path class="cls-1" d="m601.14,831.98c-1.58-.97-1.3-2.57-1.3-4.02,0-34.87,0-69.74.02-104.62,0-.49.13-.98.2-1.48,1.4.83,1.28,2.24,1.28,3.54-.06,35.53-.13,71.05-.2,106.58Z"/>
  <path class="cls-1" d="m460.71,885.14c-1.99.22-2.41-1.49-3.18-2.68-7.65-11.73-9.74-24.51-7.19-38.17.25-1.35.52-2.66,2.21-2.9-1.43,9.91-2.11,19.76,1.06,29.54,1.66,5.12,4.34,9.68,7.11,14.21Z"/>
  <path class="cls-1" d="m600.83,920.98c-1.45-1.32-.99-3.08-.99-4.69-.03-14.13.08-28.26-.08-42.39-.05-4.07,1.06-7,4.78-9.01,3.21-1.73,6.12-4.01,9.3-5.81,1.89-1.07,4.06-2.71,6.06,0-7.35.78-12.29,5.93-17.75,10.02-1.47,1.1-.81,3.45-.81,5.25-.03,13.92-.02,27.83-.03,41.75,0,1.64.35,3.32-.48,4.88Z"/>
  <path class="cls-1" d="m253.19,837.51c1.35,2.38.67,4.91.3,7.32-1.95,12.6-.43,24.87,3.3,36.94.54,1.76,1.18,3.45,1.1,5.32-5.69-7.6-5.87-16.77-6.92-25.56-.96-8.05-.48-16.19,2.22-24.01Z"/>
  <path class="cls-1" d="m766.09,514.44c2.08-5.15,6.11-9.04,8.89-13.74,4.15-7,8.52-13.87,12.8-20.79.76-1.23,1.1-2.88,2.96-3.04-7.01,13.31-14.26,26.47-24.66,37.57Z"/>
  <path class="cls-1" d="m394.81,813.86c-.31-.1-.76-.1-.92-.31-6.85-9.67-15.69-17.3-25.04-24.4,4.15.32,6.88,3.32,9.67,5.72,6.37,5.46,12.84,10.97,16.28,18.99Z"/>
  <path class="cls-1" d="m548.19,370.01c20.11-.05,40.22-.12,60.33-.14,2.85,0,5.64-.08,8.28-1.28-.94,3.74-4.09,2.77-6.49,2.78-15.1.08-30.21.01-45.32-.07-4.12-.02-8.13,1.3-12.28.78-1.77-.22-3.77.26-4.53-2.08Z"/>
  <path class="cls-1" d="m717.78,888.02c5.65,8.37,10.66,17.22,18.17,24.21,1.81,1.68,3.41,3.59,5.1,5.39-8.03-4.86-13.71-12.06-19.05-19.52-2.12-2.96-4.98-5.82-4.22-10.08Z"/>
  <path class="cls-1" d="m209.18,717.09c-2.14,22.69-.39,45.43-1,68.14-.07,2.44.58,5.03-1.14,7.22-.08-21.89-.17-43.78-.23-65.67,0-3.4-1.07-7.11,2.37-9.69Z"/>
  <path class="cls-1" d="m370.99,921.2c4.63-5.59,11.11-9.16,15.84-14.72,2.71-3.19,4.1-7.61,8.32-9.48-4.1,8.23-10.49,14.51-17.63,20.02-2,1.55-3.68,3.86-6.53,4.17Z"/>
  <path class="cls-1" d="m811.1,269.94c-1.64-.03-2.7-1.05-3.74-2.14-7.57-7.85-15.7-15.01-25.28-20.37-.48-.27-.72-.98-1.08-1.49,8.02,2.41,13.86,8.17,19.95,13.41,3.69,3.17,6.79,7.04,10.15,10.59Z"/>
  <path class="cls-1" d="m373.59,366.68c2.9,2.95,6.52,3.25,10.44,3.22,17.37-.12,34.75-.07,52.12-.03,1.93,0,4-.5,5.73.9-2,1.25-4.22.63-6.32.64-18.27.05-36.54.03-54.82.01-3.4,0-6.89.04-7.16-4.73Z"/>
  <path class="cls-1" d="m786.3,778.82c-8.4,1.5-16.98,2.1-25.03,5.29-2.36.93-4.54,3.03-7.43,1.63,10.16-5.43,20.83-8.43,32.46-6.92Z"/>
  <path class="cls-1" d="m309.86,779.93c-.32,1.02-.99,1.68-2.04,1.95-8.74,2.18-16.47,6.52-23.98,11.32-.65.42-1.51.52-2.27.77,8.24-7.08,16.95-13.2,28.29-14.03Z"/>
  <path class="cls-1" d="m199.07,921.34c6.97-6.18,13.94-12.35,20.91-18.53-5.7,7.61-11.82,14.74-20.91,18.53Z"/>
  <path class="cls-1" d="m616.81,307.2c-2.88-.95-5.85-.97-8.84-.98-19.94-.07-39.87-.18-59.81-.28,1.53-1.81,3.66-1.25,5.55-1.25,18.72-.05,37.44-.06,56.16,0,2.54,0,5.44-.55,6.93,2.52Z"/>
  <path class="cls-1" d="m385.86,640.87c3.02-1.3,5.79.32,8.66.75,6.87,1.03,13.73,2.14,20.6,3.16,1.63.24,3.41.06,4.05,2.12-10.34.04-20.3-2.73-30.44-4.22-1.02-.15-1.92-1.19-2.87-1.82Z"/>
  <path class="cls-1" d="m910.33,923.51c-.93-2.92-.52-5.94-.53-8.91-.05-18.29-.04-36.58,0-54.87,0-2.45-.5-5.02,1.09-7.26.1,10.29.24,20.58.29,30.87.05,11.64.04,23.28,0,34.92,0,1.77.55,3.69-.85,5.25Z"/>
  <path class="cls-1" d="m634.74,369.98c19.22-.04,38.45-.11,57.67-.11,3.65,0,7.28-.02,10.86-.89-1.37,2.48-3.79,2.44-6.11,2.44-19.14.02-38.28.04-57.43-.02-1.72,0-3.73.47-4.99-1.41Z"/>
  <path class="cls-1" d="m616.81,148.22c-2.87-.95-5.84-.98-8.83-.98-19.74,0-39.49-.05-59.24-.08,1.18-2.01,3.2-1.45,4.92-1.46,18.9-.04,37.8-.04,56.71,0,2.42,0,5.07-.3,6.44,2.52Z"/>
  <path class="cls-1" d="m349.91,630.97c10.19,1.47,19.87,4.93,29.78,7.51.53.14.89.94,1.32,1.43-10.8-1.48-21.01-5.01-31.1-8.94Z"/>
  <path class="cls-1" d="m701.21,306.13c-22.53.07-45.06.15-67.59.22,1.19-2.36,3.46-1.64,5.29-1.65,19.1-.08,38.21-.06,57.31-.03,1.77,0,3.73-.4,4.99,1.47Z"/>
  <path class="cls-1" d="m148.82,932.14c1.07-.54,2.17-.62,3.38-.48,10.93,1.34,21.43-.72,31.79-3.98,2.35-.74,4.58-2.03,7.19-1.63-6.99,4.77-15.16,6.04-23.21,7.09-5.46.71-11.11,1.64-16.69.18-.92-.24-2.02.02-2.46-1.18Z"/>
  <path class="cls-1" d="m292.01,370.79c1.06-1.07,2.44-.92,3.74-.92,20.52.02,41.05.05,61.57.09-.89,1.65-2.51,1.44-3.97,1.44-19.66.02-39.32.02-58.98-.01-.79,0-1.58-.39-2.36-.6Z"/>
  <path class="cls-1" d="m442.11,305.43c-1.13.92-2.49.79-3.8.79-19.19.01-38.39.01-57.58,0-1.31,0-2.67.14-3.8-.79,1.1-1.03,2.49-.76,3.78-.77,19.21-.02,38.42-.02,57.63,0,1.29,0,2.68-.27,3.78.77Z"/>
  <path class="cls-1" d="m463.92,370.66c.98-.82,2.17-.78,3.32-.78,19.31,0,38.63-.01,57.94.02,1.14,0,2.28.37,3.42.56-1.21,1.19-2.77.96-4.23.96-18.89.02-37.78.02-56.67,0-1.29,0-2.68.27-3.78-.77Z"/>
  <path class="cls-1" d="m745.25,540.92c2.75-6.62,8.41-11.04,12.66-16.52,2.34-3.03,3.97-6.96,7.93-8.56-6.14,8.95-12.75,17.52-20.59,25.08Z"/>
  <path class="cls-1" d="m529.22,784c-2.78,1.33-4.5-1.32-6.77-1.9-11.41-2.92-22.87-4.07-34.57-2.21-1.28.2-2.63-.03-3.95-.06,8.75-3.34,17.65-2.7,26.67-1.26,4.41.7,8.87,1.14,13.16,2.42,2,.6,4.33.78,5.47,3.02Z"/>
  <path class="cls-1" d="m753.75,288.91c-.78,9.2-3.08,18.2-3.45,27.45-.03.66-.95,1.29-1.45,1.93-1.14-9.14.79-17.93,2.95-26.71.31-1.26.95-2.04,1.95-2.67Z"/>
  <path class="cls-1" d="m120.28,923.9c.21-.25.55-.73.6-.7,7.41,4.17,15.93,5.34,23.59,8.83-8.92-.15-17.12-2.46-24.19-8.13Z"/>
  <path class="cls-1" d="m633.29,306.71c-.06,20.51-.13,41.01-.19,61.52-1.71-1.31-1.44-3.25-1.44-5.01-.05-17.05-.08-34.09-.01-51.14,0-1.87-.51-4.09,1.65-5.37Z"/>
  <path class="cls-1" d="m229.03,887.65c-.27-6.24,3.89-11.31,4.55-17.36.3-2.74-1-6.1,2.11-8.19-.3,9.02-1.53,17.79-6.66,25.55Z"/>
  <path class="cls-1" d="m484.66,931.96c1.29-1.03,2.8-.94,4.26-.71,10.57,1.68,21.01.92,31.37-1.6.95-.23,1.95-.46,2.81.32-12.61,4.55-25.4,5.57-38.43,2Z"/>
  <path class="cls-1" d="m445.11,288.14c-.02-19.72-.03-39.44-.05-59.16,1.84,1.06,1.33,2.89,1.33,4.46.04,16.72.03,33.44,0,50.17,0,1.59.4,3.38-1.28,4.53Z"/>
  <path class="cls-1" d="m460.98,228.83c.06,18.84.12,37.67.13,56.51,0,.94-.46,1.88-.7,2.82-1.52-4.7-.66-9.55-.72-14.31-.16-13.48-.04-26.97.01-40.46,0-1.59-.45-3.4,1.27-4.56Z"/>
  <path class="cls-1" d="m859.85,406.98c.23-1.31,1.07-2.03,2.3-2.33,8.96-2.19,17.22-6.11,25.39-10.26.68-.35,1.6-.23,2.41-.33-5.74,4.72-12.65,7.25-19.43,9.85-3.4,1.3-6.77,3.3-10.67,3.07Z"/>
  <path class="cls-1" d="m925.95,785.22c-2.88,5.29-8.8,6.53-13.21,9.77-1.55,1.14-2.53-.95-2.88-2.43-.68-2.9-1.21-5.83-1.81-8.75,2.09,1.35,2.83,3.34,2.93,5.75.15,3.44,1.32,3.78,4.23,1.78,3.38-2.32,6.5-5.25,10.73-6.12Z"/>
  <path class="cls-1" d="m445.76,366.89c-1.13-1.25-.91-2.8-.91-4.27-.02-16.14-.02-32.28,0-48.42,0-1.45-.31-3.04,1.01-4.2,1.19,4.57.47,9.22.51,13.82.11,12.59.07,25.17.02,37.76,0,1.77.53,3.65-.64,5.3Z"/>
  <path class="cls-1" d="m367.42,787.94c-7.47-2.72-14.95-5.45-22.42-8.17,8.46.02,15.85,2.96,22.42,8.17Z"/>
  <path class="cls-1" d="m512.94,903.01c-1.14,2.04-3.27,2.18-5.16,2.36-7.24.72-14.45.64-21.54-1.3-1.45-.4-2.88-.77-3.68-2.22,10.05,2.3,20.2,2.23,30.38,1.16Z"/>
  <path class="cls-1" d="m657.95,831.41c2.25-3.76,6.4-5.09,9.78-7.28,4.84-3.14,9.35-6.88,14.77-9.07-7.19,6.96-15.93,11.57-24.55,16.36Z"/>
  <path class="cls-1" d="m641.86,807.79c-.26.58-.36,1.4-.8,1.7-6.07,3.98-12.17,7.93-18.32,11.78-.77.48-1.88.43-2.83.63,6.77-5.56,14.04-10.34,21.95-14.11Z"/>
  <path class="cls-1" d="m903.81,780.1c-1.96-.25-3.91-.57-5.87-.75-6.34-.58-11.28,2.37-13.74,8.14-.57,1.34-.77,2.89-2.17,3.76-.19-4.27,1.98-7.51,4.89-10.22,4.22-3.93,12.66-4.27,16.89-.93Z"/>
  <path class="cls-1" d="m712.92,840.46c-1.59,12.26-1.48,24.44,1.56,36.51.13.53-.33,1.22-.51,1.83-2.59-2.97-2.31-6.79-2.83-10.29-1.13-7.7-1.51-15.46-.31-23.19.26-1.7.38-3.68,2.09-4.86Z"/>
  <path class="cls-1" d="m704,800.26c-.05-.16-.19-.36-.14-.47,3.23-6.93.78-13-2.86-18.88,6.73,4.06,8.19,13.4,3.01,19.35Z"/>
  <path class="cls-1" d="m820.05,785.29c-9.57-3.33-19.46-5.25-29.49-6.47,10.29-1.58,19.78,1.25,29.07,5.19.27.11.28.84.41,1.28Z"/>
  <path class="cls-1" d="m640.04,616.92c6.69-4.9,14.09-8.39,21.97-10.9-6.67,4.96-14.14,8.29-21.97,10.9Z"/>
  <path class="cls-1" d="m599.23,719c-5.51-5.5-12.03-7.7-19.73-6.04,5.62-5.2,17.04-2.1,19.73,6.04Z"/>
  <path class="cls-1" d="m245.18,515.78c2.49.8,2.73,3.14,3.26,5.1,1.31,4.86,4.46,9.12,4.59,14.35-4.53-5.71-6.37-12.51-7.85-19.45Z"/>
  <path class="cls-1" d="m807.06,901.54c-7.69,4.76-15.88,5.63-24.51,3.19,8.36.42,16.26-2.72,24.51-3.19Z"/>
  <path class="cls-1" d="m771.76,902c-6.33-.64-11.34-3.53-15-8.74,5,2.91,10,5.83,15,8.74Z"/>
  <path class="cls-1" d="m671.16,788.26c-4.35,5.35-10.02,8.71-16.45,10.93,5-4.36,10.79-7.54,16.45-10.93Z"/>
  <path class="cls-1" d="m429.11,822.67c-2.2,7.43-4.39,14.85-6.59,22.28-2.02-5.22,1.88-9.33,2.84-13.97.58-2.8,1.24-6.12,3.75-8.31Z"/>
  <path class="cls-1" d="m702.53,909.12c-5.26-3.95-9.7-8.62-12.66-14.57,4.82,4.34,9.34,8.93,12.66,14.57Z"/>
  <path class="cls-1" d="m841.93,912.29c2.99-5.98,2.72-12.14.98-18.38,4.61,5.06,4.3,10.8-.98,18.38Z"/>
  <path class="cls-1" d="m767.83,255.89c-1.78,6.06-4.22,11.77-8.77,16.35,1.62-6.15,4.34-11.71,8.77-16.35Z"/>
  <path class="cls-1" d="m406.95,849.57c-1-.02-1.43-.67-1.58-1.53-1.08-6.08-2.14-12.17-3.2-18.25,2.55,3.45,2.95,7.71,3.65,11.66.47,2.63,1.34,5.35,1.13,8.12Z"/>
  <path class="cls-1" d="m327.89,621.11c5.92,1.51,11.64,3.45,16.19,7.8-5.93-1.5-11.74-3.23-16.19-7.8Z"/>
  <path class="cls-1" d="m400,887.63c.83-4.46.89-9.21,4.56-12.65-.34,4.64-1.73,8.91-4.56,12.65Z"/>
  <path class="cls-1" d="m684.68,592.88c3.48-4.65,8.58-7.05,13.5-9.68-3.68,4.38-8.51,7.14-13.5,9.68Z"/>
  <path class="cls-1" d="m721.92,814.75c-.94,5.39-3.34,10.08-6.88,14.21.26-5.72,3.51-9.99,6.88-14.21Z"/>
  <path class="cls-1" d="m460.18,826.09c2.27-4.8,5.59-8.52,10.72-10.38-3.07,3.97-6.53,7.55-10.72,10.38Z"/>
  <path class="cls-1" d="m730.8,555.9c2.85-4.96,6.98-8.67,11.61-11.89-2.9,4.91-6.77,8.88-11.61,11.89Z"/>
  <path class="cls-1" d="m261.72,815.94c.1,5.15-2.74,9.01-5.64,12.85.38-4.94,2.6-9.08,5.64-12.85Z"/>
  <path class="cls-1" d="m373.12,325.29c2.17,8.48.39,17.11.89,25.66.03.51-.59,1.07-.91,1.59-.63-9.09-.61-18.17.03-27.25Z"/>
  <path class="cls-1" d="m702.75,928.47c2.49-4.95,2.59-10.23,2.22-15.58,3.07,7.27,2.45,11.66-2.22,15.58Z"/>
  <path class="cls-1" d="m752.58,347.27c3.08,4.13,4.44,8.91,5.23,13.91-5.11-3.37-3.99-9.08-5.23-13.91Z"/>
  <path class="cls-1" d="m532.81,274.84c-1.41-8.91-1.41-17.82.03-26.73.87,8.91.74,17.82-.03,26.73Z"/>
  <path class="cls-1" d="m360.69,350.23c-1.29-9.11-1.25-18.22-.18-27.35,1.31,9.11,1.05,18.23.18,27.35Z"/>
  <path class="cls-1" d="m838,889.89c-5.58-.81-10.99-.05-16.25,1.88,4.93-5.04,12.13-5.87,16.25-1.88Z"/>
  <path class="cls-1" d="m620.16,859.77c3.94,2.46,7.51,5.26,8.87,10.01-3.16-3.16-7.15-5.57-8.87-10.01Z"/>
  <path class="cls-1" d="m425.08,878.06c3.34,3.31,4.06,7.66,4.76,12.02-3.15-3.39-5.23-7.2-4.76-12.02Z"/>
  <path class="cls-1" d="m293.54,596.8c5.1,1.25,8.23,4.75,10.49,9.23-4.52-1.91-7.3-5.8-10.49-9.23Z"/>
  <path class="cls-1" d="m465.49,785.88c-2.79,4.13-7.25,5.43-11.63,6.88,2.83-4.07,7.33-5.3,11.63-6.88Z"/>
  <path class="cls-1" d="m532.71,350.17c-1.22-8.43-1.07-16.87-.12-25.31,1.32,8.43,1.16,16.87.12,25.31Z"/>
  <path class="cls-1" d="m479.62,780.35c-3.78,3.79-8.83,4.17-13.68,5.09,3.7-4.02,8.91-3.95,13.68-5.09Z"/>
  <path class="cls-1" d="m304.01,606.02c4.72,1.19,8.36,3.89,11.06,7.91-4.6-1.36-7.99-4.41-11.06-7.91Z"/>
  <path class="cls-1" d="m545.7,821.37c2.98-2.85,5.96-5.71,8.95-8.56-1.42,4.49-3.88,7.88-8.95,8.56Z"/>
  <path class="cls-1" d="m902.71,384.57c3.09-4.82,6.95-8.93,11.44-12.47-2.45,5.4-7.04,8.85-11.44,12.47Z"/>
  <path class="cls-1" d="m688.18,778.17c-3.65,2.95-7.03,6.39-12.11,6.79,3.96-2.41,7.27-5.96,12.11-6.79Z"/>
  <path class="cls-1" d="m538.63,922.72c3.38-2.65,6.46-5.74,10.7-7.1-2.93,3.32-6.03,6.4-10.7,7.1Z"/>
  <path class="cls-1" d="m715.75,569.55c2.03-3.96,5.54-6.33,9.21-8.51-1.87,4.13-5.56,6.31-9.21,8.51Z"/>
  <path class="cls-1" d="m689.47,894.22c-4.55-2.44-7.39-6.4-9.71-10.83,4.31,2.64,6.56,7.14,9.71,10.83Z"/>
  <path class="cls-1" d="m517.38,810.1c4.7-.47,7.78,1.89,10.03,5.72-3.34-1.91-6.68-3.82-10.03-5.72Z"/>
  <path class="cls-1" d="m453.81,792.81c-1.21,3.97-4.46,5.62-7.97,6.97,1.81-3.29,4.87-5.15,7.97-6.97Z"/>
  <path class="cls-1" d="m822.01,410.25c6.61-2.35,13.27-1.85,19.96-.38-6.63,1.02-13.3.24-19.96.38Z"/>
  <path class="cls-1" d="m753.94,376.97c-3.74,2.83-7.79,4.53-12.61,3.52,4.14-1.39,7.97-3.89,12.61-3.52Z"/>
  <path class="cls-1" d="m894.93,390.45c2.04-2.52,4.12-4.99,7.55-5.65-1.74,2.92-4.38,4.64-7.55,5.65Z"/>
  <path class="cls-1" d="m338.57,778.24c-6.2,1.15-12.39,1.64-18.57-.12,6.19-.74,12.39-1,18.57.12Z"/>
  <path class="cls-1" d="m774.84,245.91c-.93,3.44-2.68,6.29-5.81,8.16.86-3.48,2.13-6.68,5.81-8.16Z"/>
  <path class="cls-1" d="m422.18,846.9c1.61,5.71,1.55,11.42.04,17.14-.88-5.71-.83-11.42-.04-17.14Z"/>
  <path class="cls-1" d="m235.38,737.09c-.7-5.07-.74-10.15-.38-15.25,1.66,5.04,2.5,10.11.38,15.25Z"/>
  <path class="cls-1" d="m889.58,931.6c4.2.27,8.4.53,12.61.8-4.4,2.82-8.55,1.72-12.61-.8Z"/>
  <path class="cls-1" d="m489.53,649c5.49-1.67,11-1.87,16.53-.18-5.5.95-11.01.58-16.53.18Z"/>
  <path class="cls-1" d="m673.49,876.17c-3.29-1.55-5.8-3.77-6.45-7.56,2.76,2.01,4.41,4.95,6.45,7.56Z"/>
  <path class="cls-1" d="m658.47,859.22c-3.22-1.62-5.76-3.87-6.94-7.4,3.07,1.76,4.98,4.61,6.94,7.4Z"/>
  <path class="cls-1" d="m105.65,912.91c3.01.58,5.32,2.01,6.25,5.12-2.74-.9-5.11-2.27-6.25-5.12Z"/>
  <path class="cls-1" d="m709.19,574.21c1.97-1.68,3.38-4.17,6.34-4.44-1.27,2.68-3.11,4.56-6.34,4.44Z"/>
  <path class="cls-1" d="m663.58,865.13c-2.61-.98-4.37-2.69-4.7-5.58,2.39,1.17,3.72,3.23,4.7,5.58Z"/>
  <path class="cls-1" d="m443.84,801.77c-.56,2.75-2.18,4.44-4.96,4.96,1.08-2.23,2.71-3.91,4.96-4.96Z"/>
  <path class="cls-1" d="m444.06,648.88c4.33-1.77,8.65-1.58,12.94.13-4.32.34-8.64.63-12.94-.13Z"/>
  <path class="cls-1" d="m761.01,373.27c-1.24,3.4-4.07,3.76-7.11,3.73,2.01-1.92,4.32-3.29,7.11-3.73Z"/>
  <path class="cls-1" d="m814.05,428.79c-.67-3.22.51-5.73,2.96-7.75.06,2.98-1.49,5.35-2.96,7.75Z"/>
  <path class="cls-1" d="m936.42,781.44c-1.84,3.16-4.71,3.55-7.94,2.94,2.38-1.71,4.83-3.2,7.94-2.94Z"/>
  <path class="cls-1" d="m235.96,857.92c-1.6-4.14-1.89-8.28.05-12.39.73,4.14.76,8.27-.05,12.39Z"/>
  <path class="cls-1" d="m679.51,883.15c-2.76-.84-4.24-2.73-4.55-5.58,2.46,1.09,3.14,3.63,4.55,5.58Z"/>
  <path class="cls-1" d="m402.21,829.83c-2.7-2-2.92-4.97-3.15-7.94,2.18,2.2,2.54,5.12,3.15,7.94Z"/>
  <path class="cls-1" d="m474.54,897.88c-2.95-.1-5.21-1.29-6.41-4.12,2.51.79,5.01,1.59,6.41,4.12Z"/>
  <path class="cls-1" d="m713.92,880.24c3.45,1.55,3.33,4.88,3.92,7.85-2.06-2.24-3.25-4.91-3.92-7.85Z"/>
  <path class="cls-1" d="m980.5,810.54c3.32-.13,6.65-.27,9.97-.4-3.21,2.87-6.55,2.65-9.97.4Z"/>
  <path class="cls-1" d="m223.05,897.45c.73-1.75,1.44-3.5,3.3-4.39-1.1,1.47-2.2,2.93-3.3,4.39Z"/>
  <path class="cls-1" d="m842.95,893.95c-2.2-.71-4.04-1.87-5-4.09,2.45.41,4.78.96,5,4.09Z"/>
  <path class="cls-1" d="m255.83,829.78c.08,2.6.42,5.28-2.38,6.89.14-2.52-.38-5.27,2.38-6.89Z"/>
  <path class="cls-1" d="m405.72,870.17c-1.07-2.85-1.74-5.64,1.22-7.86-.41,2.62-.82,5.24-1.22,7.86Z"/>
  <path class="cls-1" d="m263.65,897.93c1.46,1.38,3.67,2.21,3.54,4.78-1.65-1.25-3.09-2.65-3.54-4.78Z"/>
  <path class="cls-1" d="m661.99,606.04c1.08-2.77,3.35-3.23,5.94-3.08-1.66,1.64-3.62,2.71-5.94,3.08Z"/>
  <path class="cls-1" d="m612.13,826.46c-.02,2.87-2.05,3.26-4.25,3.43.76-1.95,2.3-2.94,4.25-3.43Z"/>
  <path class="cls-1" d="m667.95,602.95c.81-2.43,2.73-3,5.01-2.96-1.07,2-2.88,2.74-5.01,2.96Z"/>
  <path class="cls-1" d="m960.94,806.85c2.8-1.73,5.59-1.42,8.39.02-2.79.48-5.59.91-8.39-.02Z"/>
  <path class="cls-1" d="m432.95,815.7c-.12,1.99-.72,3.68-2.82,4.42.18-1.96,1.02-3.49,2.82-4.42Z"/>
  <path class="cls-1" d="m927.92,817.99c.48-2.25,2.01-3.01,4.15-2.9-1.07,1.41-1.98,3.06-4.15,2.9Z"/>
  <path class="cls-1" d="m813.99,274.03c-2.3-.44-2.98-2.03-2.93-4.14,1.57.96,3.04,1.99,2.93,4.14Z"/>
  <path class="cls-1" d="m285.72,588.04c2.32-.05,1.97,1.94,2.49,3.26-1.99-.21-1.57-2.25-2.49-3.26Z"/>
  <path class="cls-1" d="m919.93,826.99c0-2.13.94-3.54,3.1-3.99.11,2.22-1.41,3.17-3.1,3.99Z"/>
  <path class="cls-1" d="m406.92,859.9c-1.62-2.64-1.62-5.28,0-7.91.78,2.64.78,5.28,0,7.91Z"/>
  <path class="cls-1" d="m616.89,823.8c-.61,2.25-1.96,3.15-4.25,2.32,1.05-1.44,2.41-2.32,4.25-2.32Z"/>
  <path class="cls-1" d="m457.01,649.01c2.67-.17,5.41-1.03,7.91.69-2.72.67-5.41,1.1-7.91-.69Z"/>
  <path class="cls-1" d="m816.97,421.09c-.18-1.79.16-3.37,1.83-4.4.21,1.8-.47,3.24-1.83,4.4Z"/>
  <path class="cls-1" d="m818.91,416.29c-.19-1.96.27-3.64,2.07-4.73.27,2-.84,3.39-2.07,4.73Z"/>
  <path class="cls-1" d="m436.93,901.2c1.49.53,2.35,1.48,2.12,3.17-2-.19-2.34-1.49-2.12-3.17Z"/>
  <path class="cls-1" d="m482.55,901.85c-1.91.2-3.69.12-4.4-2.15,1.87-.11,3.35.57,4.4,2.15Z"/>
  <path class="cls-1" d="m550.74,914.26c-.18-1.65.6-2.73,2.04-3.41-.31,1.36-.11,3.02-2.04,3.41Z"/>
  <path class="cls-1" d="m705.01,912.94c-1.68-.62-2.53-1.75-2.29-3.6,1.75.57,2.29,1.91,2.29,3.6Z"/>
  <path class="cls-1" d="m812.8,898.76c-.61,2.17-2.26,2.19-4.03,1.97.86-1.64,2.24-2.22,4.03-1.97Z"/>
  <path class="cls-1" d="m741.15,917.78c1.24-.07,2.13.44,2.56,1.62-1.31.17-1.98-.65-2.56-1.62Z"/>
  <path class="cls-1" d="m672.96,599.98c.36-1.88,1.76-2.02,3.28-1.98-.73,1.25-1.65,2.21-3.28,1.98Z"/>
  <path class="cls-1" d="m990.55,810.15c.68-1.46,1.78-2.22,3.44-2.07-.58,1.63-1.7,2.36-3.44,2.07Z"/>
  <path class="cls-1" d="m456.26,832.12c-.23-1.56.24-2.67,1.93-2.98.11,1.48-.38,2.57-1.93,2.98Z"/>
  <path class="cls-1" d="m997.01,805.04c-.02-1.7.54-3.11,2.05-4.04.35,1.87.01,3.39-2.05,4.04Z"/>
  <path class="cls-1" d="m816.97,278.05c-1.66-.36-2.14-1.49-2-3.04,1.53.44,2.07,1.54,2,3.04Z"/>
  <path class="cls-1" d="m778,244.82c-1.06.38-2.13.77-3.19,1.15.79-1.13,1.27-3.15,3.19-1.15Z"/>
  <path class="cls-1" d="m396.07,894.99c-.31-1.59.6-2.38,1.91-2.91.51,1.73-.66,2.35-1.91,2.91Z"/>
  <path class="cls-1" d="m800.95,457.07c-.13-1.76.18-3.3,2.06-4.02-.22,1.58-.7,3.03-2.06,4.02Z"/>
  <path class="cls-1" d="m478.08,649.7c1.61-1.38,3.23-1.37,4.84,0-1.61.7-3.23.69-4.84,0Z"/>
  <path class="cls-1" d="m469.09,649.7c1.61-1.38,3.23-1.37,4.84,0-1.61.69-3.23.69-4.84,0Z"/>
  <path class="cls-1" d="m952.46,806.88c1.79-1.25,3.58-1.77,5.39-.03-1.79.81-3.59.44-5.39.03Z"/>
  <path class="cls-1" d="m574.85,716.81c.1,1.47-.25,2.67-1.83,3.17-.37-1.63.58-2.48,1.83-3.17Z"/>
  <path class="cls-1" d="m554.55,900.49c-1.79-.63-1.71-2.09-1.58-3.58,1.55.74,1.53,2.17,1.58,3.58Z"/>
  <path class="cls-1" d="m918.13,829.6c-.08-1.35.44-2.3,1.82-2.64.21,1.44-.34,2.36-1.82,2.64Z"/>
  <path class="cls-1" d="m619.94,821.86c-.32,1.74-1.63,1.99-3.07,2.01.5-1.48,1.52-2.15,3.07-2.01Z"/>
  <path class="cls-1" d="m95.16,901.92c1.1.28,1.89.85,1.88,2.11-1.57.14-2.22-.55-1.88-2.11Z"/>
  <path class="cls-1" d="m483.99,779.78c-1.04,1.17-2.17,1.48-3.45.38,1.09-.71,2.25-.7,3.45-.38Z"/>
  <path class="cls-1" d="m373.09,264.52c1.38.69,1.37,1.38,0,2.07-.52-.69-.52-1.38,0-2.07Z"/>
  <path class="cls-1" d="m554.82,904.33c-.97-1.15-1.16-2.35-.27-3.64,1.05,1.14.83,2.38.27,3.64Z"/>
  <path class="cls-1" d="m804.96,449.06c-.21-1.22-.14-2.33,1.18-2.93-.41.97.46,2.46-1.18,2.93Z"/>
  <path class="cls-1" d="m860.49,867.45c-.23-1.67.24-2.55,2.1-1.86-.28,1.1-.94,1.76-2.1,1.86Z"/>
  <path class="cls-1" d="m665.5,867.16c-1.15-.07-1.79-.63-1.75-1.84.99.23,1.61.8,1.75,1.84Z"/>
  <path class="cls-1" d="m373.09,320.51c1.37.69,1.38,1.37,0,2.05-.52-.69-.52-1.37,0-2.05Z"/>
  <path class="cls-1" d="m833,310.05c-1.13-.76-1.33-1.83-1.04-3.07,1.24.72,1,1.94,1.04,3.07Z"/>
  <path class="cls-1" d="m737.13,381.68c-.84,1.17-1.96,1.38-3.26.96.76-1.45,2.04-1.09,3.26-.96Z"/>
  <path class="cls-1" d="m373.09,246.52c1.38.69,1.37,1.38,0,2.07-.52-.69-.52-1.38,0-2.07Z"/>
  <path class="cls-1" d="m741.14,380.64c-1.03,1.23-2.25,1.66-3.74.85,1.08-1.04,2.38-1.09,3.74-.85Z"/>
  <path class="cls-1" d="m553.21,910.05c-.25-1.25-.03-2.27,1.35-2.72.09,1.18-.09,2.22-1.35,2.72Z"/>
  <path class="cls-1" d="m288.76,591.77c1.01-.03,1.54.43,1.49,1.48-.93-.06-1.41-.57-1.49-1.48Z"/>
  <path class="cls-1" d="m373.09,252.52c1.38.69,1.37,1.38,0,2.07-.52-.69-.52-1.38,0-2.07Z"/>
  <path class="cls-1" d="m291.73,594.96c.94-.06,1.4.41,1.47,1.32-.99.11-1.45-.36-1.47-1.32Z"/>
  <path class="cls-1" d="m373.09,276.52c1.38.69,1.37,1.38,0,2.07-.52-.69-.52-1.38,0-2.07Z"/>
  <path class="cls-1" d="m373.09,314.51c1.37.69,1.37,1.38,0,2.07-.52-.69-.52-1.38,0-2.07Z"/>
  <path class="cls-1" d="m832,307.05c-1.08-.78-1.31-1.84-1.03-3.07,1.25.72,1.01,1.94,1.03,3.07Z"/>
  <path class="cls-1" d="m463.12,888.58c-1.02-.12-1.63-.63-1.6-1.73.95.19,1.43.82,1.6,1.73Z"/>
  <path class="cls-1" d="m831,304.05c-1.13-.74-1.31-1.82-1.06-3.05,1.3.69,1.01,1.92,1.06,3.05Z"/>
  <path class="cls-1" d="m359.98,366.43c-.47-1.28-.48-2.49.52-3.56.65,1.31.3,2.47-.52,3.56Z"/>
  <path class="cls-1" d="m373.49,287.84c1.27.24,1.68,1.06,1.5,2.26-1.06-.38-1.8-.97-1.5-2.26Z"/>
  <path class="cls-1" d="m453.07,839.46c-.36-1.4.03-2.54,1.17-3.43.44,1.43.1,2.59-1.17,3.43Z"/>
  <path class="cls-1" d="m360.55,358.25c-1.05-1.13-1.05-2.26-.03-3.41.57,1.13.59,2.27.03,3.41Z"/>
  <path class="cls-1" d="m821.82,284.2c-1.18-.26-1.92-.89-1.87-2.19,1.09.33,1.92.89,1.87,2.19Z"/>
  <path class="cls-1" d="m373.09,282.52c1.39.69,1.35,1.39,0,2.08-.52-.7-.52-1.39,0-2.08Z"/>
  <path class="cls-1" d="m373.09,240.53c1.38.69,1.37,1.38,0,2.07-.52-.69-.52-1.38,0-2.07Z"/>
  <path class="cls-1" d="m375.07,227.09c.3,1.26-.17,2.01-1.47,2.2-.33-1.28.41-1.85,1.47-2.2Z"/>
  <path class="cls-1" d="m373.09,258.52c1.38.69,1.37,1.38,0,2.07-.52-.69-.52-1.38,0-2.07Z"/>
  <path class="cls-1" d="m603.67,832.34c-.21.8-.54,1.5-1.53,1.15-.15-.05-.09-.73-.13-1.11.54-.59,1.1-.46,1.66-.04Z"/>
  <path class="cls-1" d="m360.55,318.26c-1.06-1.1-1.08-2.23-.07-3.38.62,1.11.62,2.24.07,3.38Z"/>
  <path class="cls-1" d="m373.09,270.52c1.38.69,1.37,1.38,0,2.07-.52-.69-.52-1.38,0-2.07Z"/>
  <path class="cls-1" d="m887.63,929.8c1.01.09,1.68.54,1.73,1.64-1-.1-1.65-.57-1.73-1.64Z"/>
  <path class="cls-1" d="m819.98,282.04c-1.08-.39-1.35-1.2-1.15-2.25,1.06.4,1.13,1.31,1.15,2.25Z"/>
  <path class="cls-1" d="m445.1,229.04c-.89-.38-1.29-1.02-1.07-1.99,1.2.21,1.07,1.14,1.07,1.99Z"/>
  <path class="cls-1" d="m454.25,836.08c-.27-.96.13-1.61.97-2.04.3.98.11,1.72-.97,2.04Z"/>
  <path class="cls-1" d="m191.12,926.09c.36-.98,1.14-1.15,2.05-1.06-.32,1.05-1.06,1.29-2.05,1.06Z"/>
  <path class="cls-1" d="m193.12,925.08c.32-.98,1.07-1.21,1.99-1.12-.29,1.04-1,1.34-1.99,1.12Z"/>
  <path class="cls-1" d="m532.11,230.06c-.82-.45-1.21-1.12-1.07-2.06,1.15.28,1.1,1.17,1.07,2.06Z"/>
  <path class="cls-1" d="m455.21,834.07c-.22-.97.17-1.61,1.06-1.99.23.97,0,1.7-1.06,1.99Z"/>
  <path class="cls-1" d="m368.05,922.96c.37-1.11,1.18-1.35,2.23-1.15-.39,1.07-1.26,1.2-2.23,1.15Z"/>
  <path class="cls-1" d="m373.09,356.49c1.16.47,1.13.98.05,1.52-.4-.49-.45-1-.05-1.52Z"/>
  <path class="cls-1" d="m196.16,923.07c.14-.45.09-1.14.91-.74-.31.25-.61.49-.91.74Z"/>
  <path class="cls-1" d="m757.76,361.09c.95.38,1.24,1.08,1.01,2.04-1.18-.26-1.24-1.08-1.01-2.04Z"/>
  <path class="cls-1" d="m758.76,363.11c.79.48,1.1,1.09.47,1.91-.77-.49-.92-1.13-.47-1.91Z"/>
  <path class="cls-1" d="m759.66,365.88c1.12-.21,1.1.58,1.14,1.31-.84-.04-1.22-.47-1.14-1.31Z"/>
  <path class="cls-1" d="m760.74,367.12c1,.3,1.23,1.01,1.01,1.94-.94-.34-1.2-1.02-1.01-1.94Z"/>
  <path class="cls-1" d="m373.8,308.17c.34.74.19,1.3-.61,1.61-.36-.75-.21-1.31.61-1.61Z"/>
  <path class="cls-1" d="m892.07,392.24c.4-.95,1.21-1.14,2.12-1.17-.34,1.05-1.22,1.13-2.12,1.17Z"/>
  <path class="cls-1" d="m803.95,451.05c-.04-.87-.05-1.73,1.04-2.02-.08.81.26,1.83-1.04,2.02Z"/>
  <path class="cls-1" d="m802.98,453.08c-.02-.86-.07-1.73,1.01-2.05-.07.81.29,1.84-1.01,2.05Z"/>
  <path class="cls-1" d="m430.03,820.7c-.3.47-.59.95-.89,1.42-.62-1.04.17-1.21.89-1.42Z"/>
  <path class="cls-1" d="m799.95,459.07c-.1-.91.12-1.66,1.04-2.06.03.88-.02,1.71-1.04,2.06Z"/>
  <path class="cls-1" d="m798.91,461.01c-.1-.92.19-1.62,1.08-2,.02.87-.07,1.69-1.08,2Z"/>
  <path class="cls-1" d="m478.17,899.73c-.9.12-1.66-.05-2.1-.95,1-.36,1.74-.13,2.1.95Z"/>
  <path class="cls-1" d="m399.1,821.94c-.9-.47-1.02-1.28-.96-2.17,1.09.39,1.01,1.29.96,2.17Z"/>
  <path class="cls-1" d="m373.15,235.07c1.08.55,1.11,1.07-.05,1.54.02-.52.03-1.03.05-1.54Z"/>
  <path class="cls-1" d="m422.47,865.71c1.03.94,1.03,1.81-.21,2.57.07-.86.14-1.71.21-2.57Z"/>
  <path class="cls-1" d="m858.16,868.3c.27-1.5,1.17-1.19,2.12-.73-.53.76-1.14,1.26-2.12.73Z"/>
  <path class="cls-1" d="m797.97,463.26c-.2-.97-.12-1.82.95-2.26.05.91.15,1.84-.95,2.26Z"/>
  <path class="cls-1" d="m395.08,897.03c.09-.82.15-1.65,1.01-2.09.05.89.28,1.86-1.01,2.09Z"/>
  <path class="cls-1" d="m486.81,649.48c.78-.84,1.69-.92,2.69-.47-.8.72-1.69.92-2.69.47Z"/>
  <path class="cls-1" d="m829.98,301.06c-.91-.49-1.07-1.28-.84-2.2,1.05.44.87,1.35.84,2.2Z"/>
  <path class="cls-1" d="m629.35,870.07c.18.22.37.45.55.67-.73.22-.48-.36-.55-.67Z"/>
  <path class="cls-1" d="m698.99,779.94c-.96.13-1.67-.16-1.97-1.15.8.14,1.64.21,1.97,1.15Z"/>
  <path class="cls-1" d="m631.17,872.03l.43-.03s.11.38.11.37c-.26,0-.72.34-.54-.34Z"/>
  <path class="cls-1" d="m701.01,780.94c-.83-.04-1.63-.15-2.05-1.01.86-.02,1.84-.28,2.05,1.01Z"/>
  <path class="cls-1" d="m697.09,778.9c-.4-.28-.81-.56-1.21-.84.73-.18,1.1.15,1.21.84Z"/>
  <path class="cls-1" d="m902.37,932.36c.08-.7.39-1.21,1.1-1.4-.37.47-.73.93-1.1,1.4Z"/>
  <path class="cls-1" d="m993.96,808.09c.26-.59.69-.82,1.32-.64-.22.65-.66.87-1.32.64Z"/>
  <path class="cls-1" d="m642.94,807.02c-.37.28-.75.57-1.12.85.08-.67.41-1.01,1.12-.85Z"/>
  <path class="cls-1" d="m532.64,278.24c-.79-.43-.82-.88-.05-1.37.02.45.03.91.05,1.37Z"/>
  <path class="cls-1" d="m995.38,807.37c-.02-.64.3-.96.94-.95.02.65-.3.96-.94.95Z"/>
  <path class="cls-1" d="m996.4,806.32c-.18-.62.04-1.05.61-1.32.25.65.04,1.08-.61,1.32Z"/>
  <polygon class="cls-1" points="653.75 799.65 653.66 799.86 653.51 799.69 653.6 799.46 653.75 799.65"/>
  <path class="cls-1" d="m818.2,279.11c-.71-.03-1.12-.41-1.26-1.1.42.37.84.73,1.26,1.1Z"/>
  <path class="cls-1" d="m532.59,246.23c-.77-.48-.75-.93.04-1.37-.01.45-.03.91-.04,1.37Z"/>
  <polygon class="cls-1" points="674.29 876.83 674.03 876.88 674.09 876.62 674.39 876.53 674.29 876.83"/>
  <path class="cls-1" d="m228.03,889.68v-.46s.4-.23.4-.23c-.01.3-.14.53-.4.7Z"/>
  <path class="cls-1" d="m928.09,784.68c-.38.64-.9.89-1.61.56.54-.19,1.07-.38,1.61-.56Z"/>
  <path class="cls-1" d="m814.98,275.02c-.67-.01-.98-.39-1.02-1.02.34.34.68.68,1.02,1.02Z"/>
  <path class="cls-1" d="m554.85,812.61c-.13-.2-.1-.39.08-.54,0,0,.24.33.24.33l-.33.21Z"/>
  <path class="cls-1" d="m227.05,891.58l.02-.43s.39-.19.38-.19c0,.28-.14.49-.4.61Z"/>
  <path class="cls-1" d="m466.17,891.86c-.32-.36-.65-.73-.97-1.09.32.37.65.73.97,1.09Z"/>
  <path class="cls-1" d="m531.85,286.23c.23-.46.46-.91.69-1.37.19.67.21,1.25-.69,1.37Z"/>
  <path class="cls-1" d="m467.17,892.85c-.36-.36-.71-.71-1.07-1.07.36.36.71.71,1.07,1.07Z"/>
  <path class="cls-1" d="m373.28,287.45s.03.15.03.15c-.25,0-.49.01-.74.02.24-.05.48-.11.71-.16Z"/>
  <path class="cls-1" d="m468.19,893.82c-.36-.35-.73-.69-1.09-1.04.36.35.73.69,1.09,1.04Z"/>
  <path class="cls-1" d="m820.9,892.39c-.11.87-.6,1.38-1.46,1.52.49-.51.97-1.02,1.46-1.52Z"/>
  <path class="cls-1" d="m210.19,715.8c.04.7-.22,1.16-.97,1.23-.08-.73.42-1,.97-1.23Z"/>
  <path class="cls-1" d="m856.74,869.23c.46-.35.93-.69,1.39-1.04.02,1-.63,1.08-1.39,1.04Z"/>
  <path class="cls-1" d="m437.81,647.92c.4.19.81.38,1.21.57-.66.35-.92-.14-1.21-.57Z"/>
  <polygon class="cls-1" points="290.88 594.05 291.14 594.04 291.07 594.28 290.76 594.34 290.88 594.05"/>
  <path class="cls-1" d="m926.92,818.99c.34-.34.68-.68,1.02-1.02-.34.34-.68.68-1.02,1.02Z"/>
  <path class="cls-1" d="m818.9,894.41c-.25.77-.8,1.08-1.59,1,.28-.73.82-1.04,1.59-1Z"/>
  <path class="cls-1" d="m553.01,896.96c-.66-.15-.95-.57-.93-1.23.31.41.62.82.93,1.23Z"/>
  <path class="cls-1" d="m816.82,895.78c.04.69-.32,1.01-.98,1.06-.06-.71.3-1.03.98-1.06Z"/>
  <path class="cls-1" d="m532.64,238.25c-.8-.46-.8-.92,0-1.38,0,.46,0,.92,0,1.38Z"/>
  <path class="cls-1" d="m790.82,476.74c.17-.23.35-.45.52-.68-.03.34-.2.57-.52.68Z"/>
  <path class="cls-1" d="m815.89,896.83c-.35.59-.84.81-1.5.61.32-.64.81-.89,1.5-.61Z"/>
  <path class="cls-1" d="m925.92,819.99c.34-.34.68-.68,1.02-1.03-.34.34-.68.68-1.02,1.03Z"/>
  <polygon class="cls-1" points="666.27 867.85 666 867.89 666.06 867.63 666.36 867.55 666.27 867.85"/>
  <path class="cls-1" d="m476.11,898.82c-.51-.31-1.03-.62-1.54-.93.83-.21,1.38.03,1.54.93Z"/>
  <path class="cls-1" d="m813.78,897.8c.02.67-.35.97-.99.99-.06-.72.31-1,.99-.99Z"/>
  <path class="cls-1" d="m924.93,821c.34-.35.68-.69,1.02-1.04-.34.35-.68.69-1.02,1.04Z"/>
  <path class="cls-1" d="m863.3,864.49c-.13-.69.14-1.17.75-1.48.27.76-.01,1.23-.75,1.48Z"/>
  <path class="cls-1" d="m360.57,321.27c-.74-.5-.73-.99.02-1.46,0,.49-.02.97-.02,1.46Z"/>
  <path class="cls-1" d="m922.97,823.07c.34-.36.67-.73,1.01-1.09-.34.36-.67.73-1.01,1.09Z"/>
  <path class="cls-1" d="m806.05,446.2c.29-.36.57-.71.86-1.07.13.69-.26.96-.86,1.07Z"/>
  <path class="cls-1" d="m808.85,900.69c-.34.63-.84.8-1.51.56.34-.61.85-.79,1.51-.56Z"/>
  <path class="cls-1" d="m820.97,411.56c.04-.75.43-1.2,1.16-1.37.03.81-.42,1.22-1.16,1.37Z"/>
  <path class="cls-1" d="m843.92,409.54c.38-.2.76-.4,1.14-.6-.24.47-.48.94-1.14.6Z"/>
  <path class="cls-1" d="m373.22,232.23c.11.17.23.34.34.51-.12.03-.25.06-.37.09,0,0-.21-.31-.21-.31l.24-.29Z"/>
  <path class="cls-1" d="m889.93,394.07c.41-.33.83-.65,1.24-.98-.41.33-.83.65-1.24.98Z"/>
  <path class="cls-1" d="m97,903.98c.74.17,1.1.64,1.1,1.4-.71-.2-1.11-.64-1.1-1.4Z"/>
  <path class="cls-1" d="m440.57,905.93c.83.14,1.32.62,1.45,1.46-.79-.18-1.27-.67-1.45-1.46Z"/>
  <path class="cls-1" d="m554.55,907.22c-.41-.64-.31-1.19.26-1.68.36.63.32,1.19-.26,1.68Z"/>
  <path class="cls-1" d="m360.66,313.29c-.76-.49-.78-.99,0-1.5,0,.5,0,1,0,1.5Z"/>
  <path class="cls-1" d="m442.54,907.95c.74.14,1.11.61,1.18,1.34-.79-.09-1.15-.58-1.18-1.34Z"/>
  <path class="cls-1" d="m443.66,909.23c.73.1,1.2.48,1.32,1.23-.78-.04-1.24-.43-1.32-1.23Z"/>
  <path class="cls-1" d="m458.21,829.12c.26-.32.53-.63.79-.95.16.67-.22.89-.79.95Z"/>
  <path class="cls-1" d="m447.54,912.94c.75.05,1.18.45,1.32,1.19-.75-.05-1.17-.47-1.32-1.19Z"/>
  <path class="cls-1" d="m373.19,362.99c.86.33.89.7.07,1.13-.02-.38-.04-.75-.07-1.13Z"/>
  <path class="cls-1" d="m448.82,914.05c.38.34.75.69,1.13,1.03-.78.1-1.15-.25-1.13-1.03Z"/>
  <path class="cls-1" d="m373.1,360.37c.11.12.23.23.34.35-.11,0-.22.02-.34.02,0,0-.21-.19-.21-.19l.21-.19Z"/>
  <polygon class="cls-1" points="549.92 915.09 549.92 914.83 550.18 914.84 550.26 915.18 549.92 915.09"/>
  <path class="cls-1" d="m360.57,361.26c-.74-.5-.73-.99.02-1.46,0,.49-.02.97-.02,1.46Z"/>
  <path class="cls-1" d="m532.64,358.23c-.79-.43-.82-.88-.05-1.37.02.45.03.91.05,1.37Z"/>
  <path class="cls-1" d="m607.93,829.83c-.11.73-.58,1.09-1.28,1.21.08-.77.62-1.05,1.28-1.21Z"/>
  <path class="cls-1" d="m917.57,831.35c-.27-.72-.03-1.3.51-1.79-.17.59-.34,1.19-.51,1.79Z"/>
  <path class="cls-1" d="m195.09,923.98c.09-.65.48-.95,1.13-.93-.17.55-.44,1-1.13.93Z"/>
  <path class="cls-1" d="m916.56,833.36c-.29-.64-.12-1.13.48-1.49-.16.49-.32.99-.48,1.49Z"/>
  <path class="cls-1" d="m531.07,228.03c-.35-.34-.7-.68-1.05-1.03.65.03,1.01.37,1.05,1.03Z"/>
  <path class="cls-1" d="m452.55,841.28c-.33-.73-.06-1.29.51-1.77.32.73.17,1.32-.51,1.77Z"/>
  <path class="cls-1" d="m532.82,354.86c-.12-.17-.24-.34-.35-.52.13-.03.25-.07.38-.1,0,0,.21.32.21.32l-.23.3Z"/>
  <path class="cls-1" d="m360.6,353.28c-.72-.52-.71-1.02.06-1.49-.02.49-.04.99-.06,1.49Z"/>
  <path class="cls-1" d="m915.57,835.35c-.29-.64-.12-1.12.47-1.48-.16.49-.31.99-.47,1.48Z"/>
  <path class="cls-1" d="m751.87,346.11c.26.4.52.8.78,1.2-.74-.09-.95-.53-.78-1.2Z"/>
  <path class="cls-1" d="m532.64,318.24c-.79-.43-.82-.88-.04-1.37.02.45.03.91.04,1.37Z"/>
  <path class="cls-1" d="m923.94,822.02c.34-.35.68-.7,1.02-1.06-.05.63-.38.99-1.02,1.06Z"/>
  <path class="cls-1" d="m138.7,901.8c4.49-1.64,8.12,1.75,12.4,2.15,22.39,2.09,38.51-7.01,49.61-26.05.58-1,1.09-2.08,2.32-2.47-1.77,7.5-7.07,12.59-12.32,17.6-15.5,14.82-36.42,16.05-52.01,8.76Z"/>
  <path class="cls-1" d="m133.23,813.04c-5.53,5.16-11.69,9.63-15.87,16.2-3.16,4.96-4.56,10.66-7.43,15.7,1.61-13.8,10.13-23.1,20.46-31.18.7-.55,1.88-.5,2.84-.72Z"/>
  <path class="cls-1" d="m111.12,870.88c3.95,8.8,9.5,16.46,16.49,23.1-.66-.05-1.56.17-1.92-.18-6.71-6.45-13.11-13.12-14.57-22.92Z"/>
  <path class="cls-1" d="m205.14,868.9c-1.23-2.89.48-5.55.94-8.21,1.21-7.04-.97-13.75-1.25-20.62,4.56,6.45,4.74,23.24.31,28.83Z"/>
  <path class="cls-1" d="m143.66,808.06c-1.75,1.93-3.83,3.15-6.54,2.98,1.31-2.89,4.12-2.52,6.54-2.98Z"/>
  <path class="cls-1" d="m167.16,807.91c-2.68-.35-5.36-.71-8.04-1.06,2.9-1.35,5.76-2.36,8.04,1.06Z"/>
  <path class="cls-1" d="m156.03,806.85c-2.57.2-5.13.41-7.7.61,2.39-2.41,4.99-2.17,7.7-.61Z"/>
  <path class="cls-1" d="m110.13,867.87c1.24.73,1,1.94,1.03,3.08-1.12-.77-1.32-1.84-1.03-3.08Z"/>
  <path class="cls-1" d="m109.79,864.71c.12,1.08.25,2.15.37,3.23-1.19-.95-1.43-2.02-.37-3.23Z"/>
  <path class="cls-1" d="m128.1,894.49c.62.22,1.2.47,1.25,1.25-.42-.42-.84-.84-1.25-1.25Z"/>
  <path class="cls-1" d="m203.87,838.11c-1.14-.39-1.22-1.29-1.13-2.29,1.03.44,1.23,1.29,1.13,2.29Z"/>
  <path class="cls-1" d="m204.81,840.08c-1.17-.26-1.28-1.05-1-2.03.95.37,1.26,1.06,1,2.03Z"/>
  <path class="cls-1" d="m135.17,812.01c-.25,1.14-1.2,1.01-2.02,1.12.35-.96,1.14-1.12,2.02-1.12Z"/>
  <path class="cls-1" d="m137.16,811.01c-.28,1.14-1.22,1-2.05,1.06.38-.94,1.16-1.1,2.05-1.06Z"/>
  <path class="cls-1" d="m191.04,819.47c-.77.04-1.28-.3-1.51-1.04.77-.04,1.3.27,1.51,1.04Z"/>
  <path class="cls-1" d="m196.45,825.39c-.67-.24-.93-.73-.88-1.41.71.21,1,.68.88,1.41Z"/>
  <path class="cls-1" d="m197.96,827.06c-.81-.06-1.08-.57-1.11-1.3.67.18,1.05.6,1.11,1.3Z"/>
  <path class="cls-1" d="m198.57,828.48c-.65-.3-.9-.78-.64-1.47.59.33.83.81.64,1.47Z"/>
  <path class="cls-1" d="m199.98,830.05c-.7.04-1.04-.31-1.05-1,.69-.03,1.01.34,1.05,1Z"/>
  <path class="cls-1" d="m200.34,831.36c-.56-.34-.68-.79-.38-1.37.54.34.7.79.38,1.37Z"/>
  <path class="cls-1" d="m201.08,833.66c-.81-.03-.8-.53-.62-1.11.84.01,1,.41.62,1.11Z"/>
  <path class="cls-1" d="m202.24,835.61c-.85.08-.94-.4-.78-1.06.8-.04,1.02.34.78,1.06Z"/>
  <path class="cls-1" d="m759.31,816.03c-2,3.55-5.77,5.36-8.23,8.52-3.77,4.85-7.27,9.76-8.92,15.77-1.83-.89-.91-2.32-.45-3.37,3.79-8.71,8.5-16.67,17.6-20.92Z"/>
  <path class="cls-1" d="m827.85,827.14c-6.56-7.53-14.02-13.83-23.56-17.29,8.07-.15,22.16,10.19,23.56,17.29Z"/>
  <path class="cls-1" d="m795.92,807.52c-5.15-.17-10.29-.33-15.44-.5,5.2-1.6,10.39-2.58,15.44.5Z"/>
  <path class="cls-1" d="m742.68,840.9c1.98-.66,3.94-.44,5.88.13-2,1.41-3.96,1.72-5.88-.13Z"/>
  <path class="cls-1" d="m828.31,841.03c1.13-.62,2.25-.53,3.35.07-1.15,1.3-2.26,1.3-3.35-.07Z"/>
  <path class="cls-1" d="m376.75,867.85c.04-7.88.81-15.76-1.06-23.58-2.97-12.4-10.04-21.87-20.32-29.09-1.22-.85-2.41-1.64-3.32-2.81,1.94-1.58,3.14.32,4.31,1.14,17.3,12.02,24.53,28.67,22.45,49.5-.18,1.79-.25,3.71-2.06,4.85Z"/>
  <path class="cls-1" d="m346.93,809.9c-2.32.33-4.26-.33-6.5-1.22-6.45-2.56-13.33-1.3-20.05-.96-1.63.08-3.24.5-4.86.76.11-.9.57-1.64,1.44-1.82,9.56-1.99,19.06-2.27,28.3,1.54.68.28,1.12,1.12,1.68,1.7Z"/>
  <path class="cls-1" d="m279.99,861.07c2.14,7.49,4.45,14.92,8.15,21.83-6.12-6-8.78-13.3-8.15-21.83Z"/>
  <path class="cls-1" d="m313.16,901.99c8.91,2.36,17.94,2.59,27.05,1.6-.94,1.71-2.58,1.87-4.27,2.03-6.34.6-12.62.2-18.87-1.01-1.72-.33-3.24-.8-3.9-2.62Z"/>
  <path class="cls-1" d="m359.91,893.62c3.18-3.76,6.16-7.71,10.04-10.81-2.04,4.82-4.77,8.99-10.04,10.81Z"/>
  <path class="cls-1" d="m291.08,886.89c4.56,2.36,7.22,6.85,11.13,9.93-5.18-1.66-8.8-5.07-11.13-9.93Z"/>
  <path class="cls-1" d="m310.32,809.99c-3.99,3.39-8.59,5.76-13.26,8,3.12-4.83,7.9-6.89,13.26-8Z"/>
  <path class="cls-1" d="m288.11,882.85c1.63.89,3.12,1.88,2.99,4.07-2.2-.47-2.99-1.98-2.99-4.07Z"/>
  <path class="cls-1" d="m371.87,879.82c-.21-1.77.5-3.09,1.97-4.04.24,1.78.18,3.42-1.97,4.04Z"/>
  <path class="cls-1" d="m291.16,823.99c.11,1.53-.42,2.62-2.05,2.92.02-1.44.37-2.65,2.05-2.92Z"/>
  <path class="cls-1" d="m369.91,882.9c-.07-1.48.27-2.7,1.95-3.06.45,1.72-.63,2.47-1.95,3.06Z"/>
  <path class="cls-1" d="m281.13,843.94c-.23,1.71.62,3.65-1.03,5.08-.29-1.82-.5-3.62,1.03-5.08Z"/>
  <path class="cls-1" d="m375.78,870.87c-.26-1.22-.22-2.35,1-3.09.39,1.26.31,2.38-1,3.09Z"/>
  <path class="cls-1" d="m374.76,873.85c-.2-1.21-.19-2.35,1.07-3.05.36,1.27.23,2.36-1.07,3.05Z"/>
  <path class="cls-1" d="m340.48,903.39c1-1.02,2.17-1.2,3.48-.69-.98,1.11-2.11,1.48-3.48.69Z"/>
  <path class="cls-1" d="m348.92,900.69c.48-1.57,1.8-1.42,3.02-1.45-.57,1.39-1.65,1.72-3.02,1.45Z"/>
  <path class="cls-1" d="m357.51,895.82c.18-.63.35-1.29,1.24-1.15-.42.39-.83.77-1.24,1.15Z"/>
  <path class="cls-1" d="m282.12,840.94c-.03,1.13.21,2.35-1.03,3.08-.29-1.24-.09-2.31,1.03-3.08Z"/>
  <path class="cls-1" d="m282.99,837.94c.19,1.17.32,2.32-.9,3.07-.3-1.2-.09-2.25.9-3.07Z"/>
  <path class="cls-1" d="m280.13,848.95c-.07.7-.14,1.39-.21,2.09-.77-.78-.77-1.48.21-2.09Z"/>
  <path class="cls-1" d="m343.92,902.69c.32-1.23,1.23-1.29,2.26-1.13-.47.94-1.18,1.39-2.26,1.13Z"/>
  <path class="cls-1" d="m346.58,901.24c.66-.75,1.43-1,2.37-.55-.64.84-1.4,1.18-2.37.55Z"/>
  <path class="cls-1" d="m304.81,898.04c.7-.17,1.16.08,1.39.77-1.01.73-1.07-.25-1.39-.77Z"/>
  <path class="cls-1" d="m302.15,896.74c.88.07,1.83.01,2.16,1.14-.87-.09-1.77-.13-2.16-1.14Z"/>
  <path class="cls-1" d="m373.79,875.85c-.23-.98-.03-1.75,1.03-2.09.11.92-.05,1.71-1.03,2.09Z"/>
  <path class="cls-1" d="m315.34,808.5c-.62.94-1.52.96-2.49.78.62-.93,1.4-1.37,2.49-.78Z"/>
  <path class="cls-1" d="m297.09,817.96c-.34.34-.68.68-1.03,1.02.34-.34.68-.68,1.03-1.02Z"/>
  <path class="cls-1" d="m296.08,818.96c-.34.34-.68.68-1.02,1.02.34-.34.68-.68,1.02-1.02Z"/>
  <path class="cls-1" d="m295.08,819.96c-.34.34-.68.68-1.02,1.03.34-.34.68-.68,1.02-1.03Z"/>
  <path class="cls-1" d="m294.09,820.96c-.34.35-.67.7-1.01,1.05.34-.35.67-.7,1.01-1.05Z"/>
  <path class="cls-1" d="m293.11,821.97c-.05.64-.39.99-1.02,1.06.34-.35.68-.7,1.02-1.06Z"/>
  <path class="cls-1" d="m292.13,822.98c-.34.36-.69.71-1.03,1.07.34-.36.69-.71,1.03-1.07Z"/>
  <path class="cls-1" d="m312.62,809.48c-.41.61-.92.88-1.61.44.42-.59.96-.72,1.61-.44Z"/>
</svg>