<?xml version="1.0" encoding="UTF-8"?>
<svg id="Layer_1" data-name="Layer 1" xmlns="http://www.w3.org/2000/svg" viewBox="0 0 382.95 382.95">
  <defs>
    <style>
      .cls-1 {
        fill: #ec5031;
      }

      .cls-2 {
        fill: #060809;
      }

      .cls-3 {
        fill: #f05032;
      }
    </style>
  </defs>
  <path class="cls-3" d="m195.48,382.95h-7c-.89-.67-1.81-1.25-2.99-.76-3.35-.81-6.48-2.24-8.94-4.61-8.28-7.97-16.29-16.21-24.52-24.23-10.98-10.69-21.71-21.64-32.55-32.48-18.97-18.97-37.93-37.93-56.9-56.9-18.32-18.32-36.63-36.65-54.94-54.97-3.51-3.51-6.08-7.56-7.21-12.45-.04-.15-.02-.56-.42-.33v-1c.1.08.17.05.15-.07-.01-.07-.1-.12-.15-.18,0-2.67,0-5.33,0-8,.17.02.2-.08.17-.22,0-.02-.11-.02-.17-.03,0-.25,0-.5,0-.75.4-.31.38-.31.51-.8,1-3.84,2.52-7.46,5.29-10.36,3.5-3.67,7.14-7.22,10.73-10.82,18.16-18.16,36.32-36.32,54.48-54.48,16.59-16.59,33.19-33.18,49.74-49.81.87-.88,1.33-.76,2.09,0,5.78,5.82,11.57,11.64,17.39,17.41,8.27,8.21,16.38,16.58,24.79,24.65.32.31.41.68.21,1.11-1.28,2.86-1.76,5.87-2.11,8.97-.24,2.11.04,4.14.23,6.15.32,3.23,1.6,6.25,3.04,9.19,1.77,3.61,4.21,6.66,7.28,9.21,2.21,1.83,4.75,3.12,7.3,4.39.06.31.13.61.19.92.02.42.05.83.05,1.25,0,31.73,0,63.45,0,95.18,0,2.25.02,4.5.02,6.74,0,.66.04,1.34-.81,1.57-.05.02-.1.03-.14.06-1.34.65-2.72,1.19-3.96,2.04-3.68,2.52-6.85,5.58-9.22,9.32-2.08,3.27-3.37,6.98-3.78,10.85-.18,1.74-.68,3.54-.28,5.3.33,1.41,0,2.87.47,4.25.06.14.11.28.17.43.27,1.12.51,2.24.81,3.35.76,2.78,2.13,5.25,3.81,7.56,3.1,4.27,6.84,7.84,11.7,10.05,1.54.7,3.19,1.18,4.79,1.75.06.02.12.03.19.04.4.08.81.16,1.21.24,3.69.77,7.42.75,11.13.23,2.41-.33,4.71-1.15,6.91-2.22.08-.06.16-.12.24-.17.09-.03.17-.05.26-.08.16-.09.33-.18.49-.27.07-.27.32-.19.49-.24.08-.06.17-.12.25-.17.09-.02.17-.05.26-.07.08-.06.16-.12.24-.18.17-.11.33-.22.5-.33.09-.04.17-.09.26-.13.09-.03.17-.07.26-.1.16-.09.32-.17.48-.26.08-.08.16-.17.24-.25.09-.06.17-.11.26-.17.26-.19.52-.38.77-.57.07-.05.14-.09.22-.14.59-.54,1.19-1.07,1.78-1.61.34-.03.61-.17.73-.52.08-.08.16-.16.24-.24.43-.08.69-.33.77-.76.08-.08.16-.16.23-.24.43-.08.68-.33.76-.76h0c.09-.07.18-.15.27-.23.11-.18.11-.43.37-.49.13-.15.25-.3.38-.45,1.25-1.48,2.33-3.08,3.19-4.8,2.55-5.09,3.76-10.43,3.08-16.17-.37-3.14-.97-6.22-2.32-9.06-2.77-5.84-6.84-10.53-12.65-13.57-.71-.37-1.2-.82-1.15-1.72.08-1.58.1-3.16.14-4.74,0-.08,0-.16,0-.24,0-.59,0-1.17,0-1.76,0-.08,0-.16,0-.24,0-.25,0-.5,0-.76,0-.08,0-.16,0-.24,0-.25,0-.5,0-.76,0-.08,0-.16,0-.24v-.76c0-.08,0-.16,0-.24v-.76c0-.08,0-.16,0-.24v-.76c0-.08,0-.16,0-.24v-.76c0-.08,0-.16,0-.24v-.76c0-.08,0-.16,0-.24v-.76c0-.08,0-.16,0-.24v-.76c0-.08,0-.16,0-.24v-.76c0-.08,0-.16,0-.24v-.76c0-.08,0-.16,0-.24v-.76c0-.08,0-.16,0-.24v-.76c0-.08,0-.16,0-.24v-.76c0-.08,0-.16,0-.24v-.76c0-.08,0-.16,0-.24v-.76c0-.08,0-.16,0-.24v-.76c0-.08,0-.16,0-.24v-.76c0-.08,0-.16,0-.24v-.76c0-.08,0-.16,0-.24v-.76c0-.08,0-.16,0-.24v-.76c0-.08,0-.16,0-.24v-.76c0-.08,0-.16,0-.24v-.76c0-.08,0-.16,0-.24v-.76c0-.08,0-.16,0-.24v-.76c0-.08,0-.16,0-.24v-.76c0-.08,0-.16,0-.24v-.76c0-.08,0-.16,0-.24v-.76c0-.08,0-.16,0-.24v-.76c0-.08,0-.16,0-.24v-.76c0-.08,0-.16,0-.24v-.76c0-.08,0-.16,0-.24v-.76c0-.08,0-.16,0-.24v-.76c0-.08,0-.16,0-.24v-.76c0-.08,0-.16,0-.24v-.76c0-.08,0-.16,0-.24v-.76c0-.08,0-.16,0-.24v-.76c0-.08,0-.16,0-.24v-.76c0-.08,0-.16,0-.24v-.76c0-.08,0-.16,0-.24v-.76c0-.08,0-.16,0-.24v-.76c0-.08,0-.16,0-.24v-.76c0-.08,0-.16,0-.24v-.76c0-.08,0-.16,0-.24v-.76c0-.08,0-.16,0-.24v-.76c0-.08,0-.16,0-.24v-.76c0-.08,0-.16,0-.24v-.76c0-.08,0-.16,0-.24v-.76c0-.08,0-.16,0-.24v-.76c0-.08,0-.16,0-.24v-.76c0-.08,0-.16,0-.24v-.76c0-.08,0-.16,0-.24v-.76c0-.08,0-.16,0-.24v-.76c0-.08,0-.16,0-.24v-.76c0-.08,0-.16,0-.24v-.76c0-.08,0-.16,0-.24v-.76c0-.08,0-.16,0-.24v-.76c0-.08,0-.16,0-.24v-.76c0-.08,0-.16,0-.24v-.76c0-.08,0-.16,0-.24v-.76c0-.08,0-.16,0-.24v-.76c0-.08,0-.16,0-.24v-.76c0-.08,0-.16,0-.24v-.76c0-.08,0-.16,0-.24v-.76c0-.08,0-.16,0-.24v-.76c0-.08,0-.16,0-.24v-.76c0-.08,0-.16,0-.24v-.76c0-.08,0-.16,0-.24v-.76c0-.08,0-.16,0-.24v-.76c0-.08,0-.16,0-.24v-.76c0-.08,0-.16,0-.24v-.76c0-.08,0-.16,0-.24v-.76c0-.08,0-.16,0-.24v-.76c0-.08,0-.16,0-.24v-.76c0-.08,0-.16,0-.24v-.76c0-.08,0-.16,0-.24v-.76c0-.08,0-.16,0-.24v-.76c0-.08,0-.16,0-.24v-.76c0-.08,0-.16,0-.24v-.76c0-.08,0-.16,0-.24v-.76c0-.08,0-.16,0-.24v-.76c0-.08,0-.16,0-.24v-.76c0-.08,0-.16,0-.24v-.76c0-.08,0-.16,0-.24v-.76c0-.08,0-.16,0-.24,0-.25,0-.5,0-.76,0-.08,0-.16,0-.24,0-.25,0-.5,0-.76,0-.08,0-.16,0-.24,0-.25,0-.5,0-.76,0-.08,0-.16,0-.24,0-.59,0-1.17,0-1.76,0-.08,0-.16,0-.24,0-.25,0-.5,0-.76,0-.08,0-.16,0-.24,0-.25,0-.5,0-.76,0-.08,0-.16,0-.24,0-.25,0-.5,0-.76,0-.08,0-.16,0-.24-.14-1.38.13-2.78-.34-4.2.78.06,1.14.46,1.5.84,1.17,1.23,2.31,2.5,3.52,3.69,11.33,11.23,22.42,22.69,33.96,33.69.93.89,1.52,1.62.54,2.77,0,.04,0,.09,0,.13v.04c-.25.1-.39.24-.23.51-.67,1.25-.74,2.66-1.05,4,0,.08-.01.16-.02.24-.04.19-.08.38-.11.56-.03.06-.05.11-.07.17.14.97-.23,1.89-.24,2.84-.06,5.02,1,9.8,3.23,14.29.75,1.5,1.68,2.92,2.52,4.37.07.09.15.18.22.27l.02.03c.04.07.09.14.15.19,3.99,5.1,9.14,8.41,15.36,10.16,3.34.94,6.7,1.42,10.14,1.07,1.25-.13,2.59-.21,3.73-.6,2.67-.91,5.5-1.48,7.88-3.12.08-.06.16-.11.24-.17.09-.03.17-.05.26-.08.08-.08.17-.15.25-.23h.02c.07-.04.14-.09.2-.15.09-.04.19-.08.28-.12.08-.06.16-.13.23-.19.17-.11.33-.22.5-.32.14.05.21-.02.26-.15.16-.11.32-.23.48-.34.09-.06.17-.11.26-.17.24-.19.49-.38.73-.57.24-.06.42-.2.53-.43.4-.36.8-.72,1.21-1.07.26-.08.45-.25.53-.52.08-.08.16-.16.24-.24.43-.08.68-.33.76-.76.08-.08.16-.16.24-.24.42-.07.68-.31.77-.72.34-.27.3-.83.75-1.02.08-.09.16-.18.24-.27,1.68-2.22,3.16-4.57,4.06-7.23.07-.08.14-.15.21-.23.03-.17.06-.35.08-.52.05-.08.11-.16.16-.24-.09-.44.4-.61.47-.96.82-4.11,1.65-8.16.87-12.46-.73-3.99-1.89-7.72-3.92-11.21-2.1-3.63-4.99-6.5-8.42-8.88-1.89-1.31-4.01-2.14-6.01-3.21-.08-.04-.15-.08-.23-.12-.92-.3-1.85-.6-2.77-.91-.26-.08-.52-.15-.78-.23-.66-.12-1.32-.24-1.98-.36-.06-.05-.13-.06-.21-.04-.34.03-.69.06-1.03.09-.08-.07-.17-.13-.25-.2-.33-.03-.66-.07-.99-.1-.45-.56-.97-.44-1.5-.16-.5-.02-1-.04-1.51-.05-.08,0-.16,0-.24,0-.57.21-1.14.43-1.76.23-.07-.05-.15-.06-.23-.01-.34.03-.69.05-1.03.08-.06.01-.12.04-.18.06-1.52.32-3.03.63-4.55.95-.32-.23-.54-.07-.75.18-.69-.25-1.1-.85-1.59-1.34-3.86-3.86-7.67-7.76-11.55-11.58-2.87-2.83-5.79-5.61-8.59-8.49-4.55-4.68-9.22-9.23-13.79-13.89-2.01-2.05-4.01-4.1-6.17-5.99-.56-.49-1.03-1.17-.76-2.07,1.2-4.05,1.84-8.11,1-12.38-.58-2.96-1.22-5.85-2.5-8.6-1.37-2.94-3.06-5.65-5.34-7.93-4.25-4.25-9.35-6.98-15.22-8.25-.11-.04-.23-.09-.34-.13-.3-.03-.6-.06-.9-.1-.14-.05-.28-.1-.42-.15-3.52,0-7.17-.59-10.49.59-2.76.98-4.04-.36-5.62-1.95-8.68-8.74-17.4-17.44-26.11-26.14-4.94-4.93-9.9-9.84-14.85-14.75-.08-.32-.15-.64-.23-.96.15-.18.29-.36.44-.54.27-.08.45-.26.54-.53.22-.25.42-.51.66-.74,10.04-10.05,20.11-20.06,30.1-30.15,2.8-2.82,5.78-5.34,9.25-7.28.08,0,.16-.01.24-.02,1.67-.81,3.44-1.33,5.22-1.82.21-.06.73.11.53-.47C186.23,0,186.48,0,186.73,0c.01.06.01.16.04.17.13.03.23,0,.21-.17C189.56,0,192.14,0,194.73,0c.07.05.14.1.22.15.01-.05.02-.1.03-.15.17,0,.33,0,.5,0,.12.47.58.61.9.61,1.22-.01,2.29.42,3.35.92.17.16.35.31.52.47,1.21-.1,1.96.89,2.98,1.25.16.18.32.35.48.53.36.1.78.07,1.05.41.11.39.39.53.77.55.95.22.94,1.57,1.99,1.69.04.27.18.47.43.59.46.09.82.33,1.04.75.08.25.25.41.49.49.5.5,1.01,1,1.51,1.5.08.25.25.41.49.49.17.17.34.34.51.51.08.25.25.41.49.49.17.17.34.34.51.51.08.25.25.41.49.49.17.17.34.34.51.51.08.25.25.41.49.49.17.17.34.34.51.51.08.25.25.41.49.49.17.17.34.34.51.51.08.25.25.41.49.49.17.17.34.34.51.51.08.25.25.41.49.49.17.17.34.34.51.51.08.25.25.41.49.49.17.17.34.34.51.51.08.25.25.41.49.49.17.17.34.34.51.51.08.25.25.41.49.49.17.17.34.34.51.51.08.25.25.41.49.49.17.17.34.34.51.51.08.25.25.41.49.49.17.17.34.34.51.51.08.25.25.41.49.49.17.17.34.34.51.51.08.25.25.41.49.49.17.17.34.34.51.51.08.25.25.41.49.49.17.17.34.34.51.51.08.25.25.41.49.49.17.17.34.34.51.51.08.25.25.41.49.49.17.17.34.34.51.51.08.25.25.41.49.49.17.17.34.34.51.51.08.25.25.41.49.49.17.17.34.34.51.51.08.25.25.41.49.49.17.17.34.34.51.51.08.25.25.41.49.49.17.17.34.34.51.51.08.25.25.41.49.49.17.17.34.34.51.51.08.25.25.41.49.49.17.17.34.34.51.51.08.25.25.41.49.49.17.17.34.34.51.51.08.25.25.41.49.49.17.17.34.34.51.51.08.25.25.41.49.49.17.17.34.34.51.51.08.25.25.41.49.49.17.17.34.34.51.51.08.25.25.41.49.49.17.17.34.34.51.51.08.25.25.41.5.49.17.17.34.34.51.5.08.25.25.41.5.5.17.17.33.34.5.51.08.25.25.41.49.49.17.17.34.34.51.51.08.25.25.41.49.49.17.17.34.34.51.51.08.25.25.41.49.49l.51.51c.08.25.25.41.49.49.17.17.34.34.51.51.08.25.25.41.49.49.17.17.34.34.51.51.08.25.25.41.49.49l.51.51c.08.25.25.41.49.49.17.17.34.34.51.51.08.25.25.41.49.49.17.17.34.34.51.51.08.25.25.41.49.49.17.17.34.34.51.51.08.25.25.41.49.49.17.17.34.34.51.51.08.25.25.41.49.49.17.17.34.34.51.51.08.25.25.41.49.49.17.17.34.34.51.51.08.25.25.41.49.49.17.17.34.34.51.51.08.25.25.41.49.49.17.17.34.34.51.51.08.25.25.41.49.49.17.17.34.34.51.51.08.25.25.41.49.49.17.17.34.34.51.51.08.25.25.41.49.49.17.17.34.34.51.51.08.25.25.41.49.49.17.17.34.34.51.51.08.25.25.41.49.49.17.17.34.34.51.51.08.25.25.41.49.49.17.17.34.34.51.51.08.25.25.41.49.49.17.17.34.34.51.51.08.25.25.41.49.49.17.17.34.34.51.51.08.25.25.41.49.49.17.17.34.34.51.51.08.25.25.41.49.49.17.17.34.34.51.51.08.25.25.41.49.49.17.17.34.34.51.51.08.25.25.41.49.49.17.17.34.34.51.51.08.25.25.41.49.49.17.17.34.34.51.51.08.25.25.41.49.49.17.17.34.34.51.51.08.25.25.41.49.49.17.17.34.34.51.51.08.25.25.41.49.49.17.17.34.34.51.51.08.25.25.41.49.49.17.17.34.34.51.51.08.25.25.41.49.49.17.17.34.34.51.51.08.25.25.41.49.49.17.17.34.34.51.51.08.25.25.41.49.49.17.17.34.34.51.51.08.25.25.41.49.49.17.17.34.34.51.51.08.25.25.41.49.49.17.17.34.34.51.51.08.25.25.41.49.49.17.17.34.34.51.51.08.25.25.41.49.49.17.17.34.34.51.51.08.25.25.41.49.49.17.17.34.34.51.51.08.25.25.41.49.49.17.17.34.34.51.51.08.25.25.41.49.49.17.17.34.34.51.51.08.25.25.41.49.49.17.17.34.34.51.51.08.25.25.41.49.49.17.17.34.34.51.51.08.25.25.41.49.49.17.17.34.34.51.51.08.25.25.41.49.49.17.17.34.34.51.51.08.25.25.41.49.49.17.17.34.34.51.51.08.25.25.41.49.49.17.17.34.34.51.51.08.25.25.41.49.49.17.17.34.34.51.51.08.25.25.41.49.49.17.17.34.34.51.51.08.25.25.41.49.49.17.17.34.34.51.51.08.25.25.41.49.49.17.17.34.34.51.51.08.25.25.41.49.49.17.17.34.34.51.51.08.25.25.41.49.49.17.17.34.34.51.51.08.25.25.41.49.49.17.17.34.34.51.51.08.25.25.41.49.49.17.17.34.34.51.51.08.25.25.41.49.49.31.28.63.54.92.83,21.54,21.54,43.09,43.08,64.62,64.62,4,4,7.97,8.02,11.96,12.04.08.25.25.41.5.5,1.54,1.41,2.91,2.98,4.13,4.65,1.45,1.99,2.5,4.2,3.12,6.59-.17.25-.06.4.19.5.27,1.09.5,2.18.56,3.3.02.32-.13.8.5.7v4.75c-.25.46-.46.92-.52,1.48-.35,3.45-1.58,6.62-3.39,9.54-1.64,2.64-3.8,4.85-6,7.05-25.45,25.48-50.99,50.88-76.37,76.44-24.33,24.5-48.79,48.88-73.25,73.25-5.84,5.81-11.34,11.98-17.74,17.21-.15.06-.3.12-.46.18-2.46,1.5-4.95,2.9-7.86,3.34-.13.05-.26.1-.38.16-.48.27-1.21-.13-1.51.59Z"/>
  <path class="cls-1" d="m186.73,382.95c.24-.47-.16-.46-.41-.54-.27-.09-.65.21-.83-.23,1.19-.48,2.1.09,2.99.76h-1.75Z"/>
  <path class="cls-2" d="m186.98,0c.01.16-.09.2-.21.17-.02,0-.03-.11-.04-.17.08,0,.17,0,.25,0Z"/>
  <path class="cls-2" d="m0,186.73c.06.01.17.01.17.03.03.13,0,.23-.17.22,0-.08,0-.17,0-.25Z"/>
  <path class="cls-2" d="m0,194.98c.05.06.14.11.15.18.02.12-.05.15-.15.07,0-.08,0-.17,0-.25Z"/>
  <path class="cls-2" d="m194.98,0s-.02.1-.03.15c-.07-.05-.14-.1-.22-.15.08,0,.17,0,.25,0Z"/>
  <path class="cls-1" d="m274.22,164.38c-.51.08-1.04.29-1.5-.16.54-.29,1.05-.4,1.5.16Z"/>
  <path class="cls-1" d="m293.19,213.21c-.03-.55.47-.53.77-.72-.1.42-.36.65-.77.72Z"/>
  <path class="cls-1" d="m292.19,214.21c-.04-.55.5-.51.76-.76-.08.43-.34.68-.76.76Z"/>
  <path class="cls-1" d="m213.2,293.2c-.04-.55.5-.51.76-.76-.08.43-.34.68-.76.76Z"/>
  <path class="cls-1" d="m212.2,294.2c-.04-.55.5-.51.77-.76-.08.43-.34.68-.77.76Z"/>
  <path class="cls-1" d="m204.75,4.18c.32.09.57.28.77.55-.37-.02-.66-.16-.77-.55Z"/>
  <path class="cls-1" d="m263.22,165.49c-.19.32-.48.19-.75.18.2-.25.43-.41.75-.18Z"/>
  <path class="cls-1" d="m203.23,3.25c.33.02.42.26.48.53-.16-.18-.32-.35-.48-.53Z"/>
  <path class="cls-1" d="m139.23,42.5c-.3-.27-.61-.53-.23-.96.08.32.15.64.23.96Z"/>
  <path class="cls-1" d="m207.51,6.42c.31.08.32.37.43.59-.25-.12-.38-.33-.43-.59Z"/>
  <path class="cls-1" d="m244.44,183.96c.03.21.03.42-.22.51-.17-.27-.03-.41.22-.51Z"/>
  <path class="cls-1" d="m381.71,184.48c.15.13.23.3.19.5-.24-.1-.36-.25-.19-.5Z"/>
  <path class="cls-1" d="m211.23,294.97c.12-.34.52-.3.73-.52-.11.35-.38.49-.73.52Z"/>
  <path class="cls-1" d="m180.98,140.8c.33.25.23.59.19.92-.06-.31-.13-.61-.19-.92Z"/>
  <path class="cls-1" d="m235.97,34.76c.16.16.33.33.49.49-.25-.08-.41-.24-.49-.49Z"/>
  <path class="cls-1" d="m210.98,9.76c.16.16.33.33.49.49-.25-.08-.41-.25-.49-.49Z"/>
  <path class="cls-1" d="m222.97,21.76c.16.16.33.33.49.49-.25-.08-.41-.24-.49-.49Z"/>
  <path class="cls-1" d="m223.97,22.76c.16.16.33.33.49.49-.25-.08-.41-.24-.49-.49Z"/>
  <path class="cls-1" d="m224.97,23.76c.16.16.33.33.49.49-.25-.08-.41-.24-.49-.49Z"/>
  <path class="cls-1" d="m225.97,24.76c.16.16.33.33.49.49-.25-.08-.41-.24-.49-.49Z"/>
  <path class="cls-1" d="m226.97,25.76c.16.16.33.33.49.49-.25-.08-.41-.24-.49-.49Z"/>
  <path class="cls-1" d="m227.97,26.76c.16.16.33.33.49.49-.25-.08-.41-.24-.49-.49Z"/>
  <path class="cls-1" d="m228.97,27.76c.16.16.33.33.49.49-.25-.08-.41-.24-.49-.49Z"/>
  <path class="cls-1" d="m229.97,28.76c.16.16.33.33.49.49-.25-.08-.41-.24-.49-.49Z"/>
  <path class="cls-1" d="m230.97,29.76c.16.16.33.33.49.49-.25-.08-.41-.24-.49-.49Z"/>
  <path class="cls-1" d="m231.97,30.76c.16.16.33.33.49.49-.25-.08-.41-.24-.49-.49Z"/>
  <path class="cls-1" d="m232.97,31.76c.16.16.33.33.49.49-.25-.08-.41-.24-.49-.49Z"/>
  <path class="cls-1" d="m233.97,32.76c.16.16.33.33.49.49-.25-.08-.41-.24-.49-.49Z"/>
  <path class="cls-1" d="m234.97,33.76c.16.16.33.33.49.49-.25-.08-.41-.24-.49-.49Z"/>
  <path class="cls-1" d="m220.97,19.76c.16.16.33.33.49.49-.25-.08-.41-.24-.49-.49Z"/>
  <path class="cls-1" d="m236.97,35.76c.16.16.33.33.49.49-.25-.08-.41-.24-.49-.49Z"/>
  <path class="cls-1" d="m237.97,36.76c.16.16.33.33.49.49-.25-.08-.41-.24-.49-.49Z"/>
  <path class="cls-1" d="m238.97,37.75c.17.16.33.33.5.49-.25-.08-.41-.24-.5-.49Z"/>
  <path class="cls-1" d="m239.97,38.75c.17.17.33.33.5.5-.25-.08-.42-.25-.5-.5Z"/>
  <path class="cls-1" d="m240.97,39.75c.16.16.33.33.49.49-.25-.08-.41-.25-.49-.49Z"/>
  <path class="cls-1" d="m139.44,41c.18-.18.36-.35.54-.53-.09.27-.27.44-.54.53Z"/>
  <path class="cls-1" d="m241.97,40.76c.16.16.33.33.49.49-.25-.08-.41-.24-.49-.49Z"/>
  <path class="cls-1" d="m219.97,18.76c.16.16.33.33.49.49-.25-.08-.41-.24-.49-.49Z"/>
  <path class="cls-1" d="m242.97,41.76c.16.16.33.33.49.49-.25-.08-.41-.24-.49-.49Z"/>
  <path class="cls-1" d="m221.97,20.76c.16.16.33.33.49.49-.25-.08-.41-.24-.49-.49Z"/>
  <path class="cls-1" d="m244.97,43.76c.16.16.33.33.49.49-.25-.08-.41-.24-.49-.49Z"/>
  <path class="cls-1" d="m245.97,44.76c.16.16.33.33.49.49-.25-.08-.41-.24-.49-.49Z"/>
  <path class="cls-1" d="m246.97,45.75c.16.16.33.33.49.49-.25-.08-.41-.24-.49-.49Z"/>
  <path class="cls-1" d="m247.97,46.75c.16.16.33.33.49.49-.25-.08-.41-.24-.49-.49Z"/>
  <path class="cls-1" d="m248.97,47.75c.16.16.33.33.49.49-.25-.08-.41-.24-.49-.49Z"/>
  <path class="cls-1" d="m249.97,48.75c.16.16.33.33.49.49-.25-.08-.41-.24-.49-.49Z"/>
  <path class="cls-1" d="m250.97,49.75c.16.16.33.33.49.49-.25-.08-.41-.24-.49-.49Z"/>
  <path class="cls-1" d="m251.97,50.75c.16.16.33.33.49.49-.25-.08-.41-.24-.49-.49Z"/>
  <path class="cls-1" d="m252.97,51.75c.16.16.33.33.49.49-.25-.08-.41-.24-.49-.49Z"/>
  <path class="cls-1" d="m253.97,52.75c.16.16.33.33.49.49-.25-.08-.41-.24-.49-.49Z"/>
  <path class="cls-1" d="m254.97,53.75c.16.16.33.33.49.49-.25-.08-.41-.24-.49-.49Z"/>
  <path class="cls-1" d="m255.97,54.75c.16.16.33.33.49.49-.25-.08-.41-.24-.49-.49Z"/>
  <path class="cls-1" d="m256.97,55.75c.16.16.33.33.49.49-.25-.08-.41-.24-.49-.49Z"/>
  <path class="cls-1" d="m218.97,17.76c.16.16.33.33.49.49-.25-.08-.41-.24-.49-.49Z"/>
  <path class="cls-1" d="m258.97,57.75c.16.16.33.33.49.49-.25-.08-.41-.24-.49-.49Z"/>
  <path class="cls-1" d="m259.97,58.75c.16.16.33.33.49.49-.25-.08-.41-.24-.49-.49Z"/>
  <path class="cls-1" d="m260.97,59.75c.16.16.33.33.49.49-.25-.08-.41-.24-.49-.49Z"/>
  <path class="cls-1" d="m261.97,60.75c.16.16.33.33.49.49-.25-.08-.41-.24-.49-.49Z"/>
  <path class="cls-1" d="m262.97,61.75c.16.16.33.33.49.49-.25-.08-.41-.24-.49-.49Z"/>
  <path class="cls-1" d="m263.97,62.75c.16.16.33.33.49.49-.25-.08-.41-.24-.49-.49Z"/>
  <path class="cls-1" d="m264.97,63.75c.16.16.33.33.49.49-.25-.08-.41-.24-.49-.49Z"/>
  <path class="cls-1" d="m265.97,64.75c.16.16.33.33.49.49-.25-.08-.41-.24-.49-.49Z"/>
  <path class="cls-1" d="m266.97,65.75c.16.16.33.33.49.49-.25-.08-.41-.24-.49-.49Z"/>
  <path class="cls-1" d="m267.97,66.75c.16.16.33.33.49.49-.25-.08-.41-.24-.49-.49Z"/>
  <path class="cls-1" d="m268.97,67.75c.16.16.33.33.49.49-.25-.08-.41-.24-.49-.49Z"/>
  <path class="cls-1" d="m269.97,68.75c.16.16.33.33.49.49-.25-.08-.41-.24-.49-.49Z"/>
  <path class="cls-1" d="m270.97,69.75c.16.16.33.33.49.49-.25-.08-.41-.24-.49-.49Z"/>
  <path class="cls-1" d="m271.97,70.75c.16.16.33.33.49.49-.25-.08-.41-.24-.49-.49Z"/>
  <path class="cls-1" d="m272.97,71.75c.16.16.33.33.49.49-.25-.08-.41-.24-.49-.49Z"/>
  <path class="cls-1" d="m273.97,72.75c.16.16.33.33.49.49-.25-.08-.41-.24-.49-.49Z"/>
  <path class="cls-1" d="m274.97,73.75c.16.16.33.33.49.49-.25-.08-.41-.24-.49-.49Z"/>
  <path class="cls-1" d="m275.97,74.75c.16.16.33.33.49.49-.25-.08-.41-.24-.49-.49Z"/>
  <path class="cls-1" d="m276.97,75.75c.16.16.33.33.49.49-.25-.08-.41-.24-.49-.49Z"/>
  <path class="cls-1" d="m277.97,76.75c.16.16.33.33.49.49-.25-.08-.41-.24-.49-.49Z"/>
  <path class="cls-1" d="m278.97,77.75c.16.16.33.33.49.49-.25-.08-.41-.24-.49-.49Z"/>
  <path class="cls-1" d="m279.97,78.75c.16.16.33.33.49.49-.25-.08-.41-.24-.49-.49Z"/>
  <path class="cls-1" d="m280.97,79.75c.16.16.33.33.49.49-.25-.08-.41-.24-.49-.49Z"/>
  <path class="cls-1" d="m281.97,80.75c.16.16.33.33.49.49-.25-.08-.41-.24-.49-.49Z"/>
  <path class="cls-1" d="m282.97,81.75c.16.16.33.33.49.49-.25-.08-.41-.24-.49-.49Z"/>
  <path class="cls-1" d="m283.97,82.75c.16.16.33.33.49.49-.25-.08-.41-.24-.49-.49Z"/>
  <path class="cls-1" d="m284.97,83.75c.16.16.33.33.49.49-.25-.08-.41-.24-.49-.49Z"/>
  <path class="cls-1" d="m291.96,90.75c.16.16.33.33.49.49-.25-.08-.41-.24-.49-.49Z"/>
  <path class="cls-1" d="m285.97,84.75c.16.16.33.33.49.49-.25-.08-.41-.24-.49-.49Z"/>
  <path class="cls-1" d="m279.46,165.22c-.29.02-.56-.04-.78-.23.26.08.52.15.78.23Z"/>
  <path class="cls-1" d="m286.96,85.75c.16.16.33.33.49.49-.25-.08-.41-.24-.49-.49Z"/>
  <path class="cls-1" d="m257.97,56.75c.16.16.33.33.49.49-.25-.08-.41-.24-.49-.49Z"/>
  <path class="cls-1" d="m288.96,87.75c.16.16.33.33.49.49-.25-.08-.41-.24-.49-.49Z"/>
  <path class="cls-1" d="m289.96,88.75c.16.16.33.33.49.49-.25-.08-.41-.24-.49-.49Z"/>
  <path class="cls-1" d="m290.96,89.75c.16.16.33.33.49.49-.25-.08-.41-.24-.49-.49Z"/>
  <path class="cls-1" d="m287.96,86.75c.16.16.33.33.49.49-.25-.08-.41-.24-.49-.49Z"/>
  <path class="cls-1" d="m292.96,91.75c.16.16.33.33.49.49-.25-.08-.41-.24-.49-.49Z"/>
  <path class="cls-1" d="m293.96,92.75c.16.16.33.33.49.49-.25-.08-.41-.24-.49-.49Z"/>
  <path class="cls-1" d="m294.96,93.75c.16.16.33.33.49.49-.25-.08-.41-.24-.49-.49Z"/>
  <path class="cls-1" d="m295.96,94.75c.16.16.33.33.49.49-.25-.08-.41-.24-.49-.49Z"/>
  <path class="cls-1" d="m217.97,16.76c.16.16.33.33.49.49-.25-.08-.41-.24-.49-.49Z"/>
  <path class="cls-1" d="m216.97,15.76c.16.16.33.33.49.49-.25-.08-.41-.24-.49-.49Z"/>
  <path class="cls-1" d="m215.97,14.76c.16.16.33.33.49.49-.25-.08-.41-.24-.49-.49Z"/>
  <path class="cls-1" d="m214.97,13.76c.16.16.33.33.49.49-.25-.08-.41-.24-.49-.49Z"/>
  <path class="cls-1" d="m214.59,291.73c0-.26.13-.41.38-.45-.13.15-.25.3-.38.45Z"/>
  <path class="cls-1" d="m208.97,7.76c.16.16.33.33.49.49-.24-.08-.41-.25-.49-.49Z"/>
  <path class="cls-1" d="m289.69,216.48c.12-.21.23-.43.53-.43-.11.23-.29.36-.53.43Z"/>
  <path class="cls-1" d="m291.42,214.98c.18-.17.35-.35.53-.52-.09.27-.27.44-.53.52Z"/>
  <path class="cls-1" d="m213.97,12.76c.16.16.33.33.49.49-.25-.08-.41-.24-.49-.49Z"/>
  <path class="cls-1" d="m212.97,11.76c.16.16.33.33.49.49-.25-.08-.41-.24-.49-.49Z"/>
  <path class="cls-1" d="m373.96,172.73c.17.17.33.33.5.5-.25-.08-.41-.25-.5-.5Z"/>
  <path class="cls-1" d="m199.73,1.52c.35-.04.41.25.52.47-.17-.16-.35-.31-.52-.47Z"/>
  <path class="cls-1" d="m211.97,10.76c.16.16.33.33.49.49-.24-.08-.41-.24-.49-.49Z"/>
  <path class="cls-1" d="m243.97,42.76c.16.16.33.33.49.49-.25-.08-.41-.24-.49-.49Z"/>
  <path class="cls-1" d="m204.73,299.46c.05-.3.31-.2.49-.27-.16.09-.33.18-.49.27Z"/>
  <path class="cls-1" d="m287.96,217.71c.04-.13.09-.23.26-.15-.04.12-.11.2-.26.15Z"/>
  <path class="cls-1" d="m207.49,297.97c.04-.3.31-.19.48-.26-.16.09-.32.17-.48.26Z"/>
  <path class="cls-1" d="m205.69,378.7c-.09.22-.28.18-.46.18.15-.06.3-.12.46-.18Z"/>
  <path class="cls-1" d="m206.97,298.2c.04-.13.09-.24.26-.13-.09.04-.17.09-.26.13Z"/>
  <path class="cls-1" d="m197.37,382.21c-.13.05-.26.1-.38.16.13-.05.26-.1.38-.16Z"/>
  <path class="cls-1" d="m271.21,164.17l-.12.03-.12-.02c.08,0,.16,0,.24,0Z"/>
  <path class="cls-1" d="m267.95,164.48l-.08.09s-.1-.03-.1-.03c.06-.03.12-.05.18-.06Z"/>
  <path class="cls-1" d="m275.46,164.68c-.16.03-.22-.06-.25-.2.08.07.17.13.25.2Z"/>
  <path class="cls-1" d="m205.27,164.23c-.04-.08-.04-.16,0-.24,0,.08,0,.16,0,.24Z"/>
  <path class="cls-1" d="m205.27,163.23c-.04-.08-.04-.16,0-.24,0,.08,0,.16,0,.24Z"/>
  <path class="cls-1" d="m205.27,165.23c-.04-.08-.04-.16,0-.24,0,.08,0,.16,0,.24Z"/>
  <path class="cls-1" d="m205.27,162.23c-.04-.08-.04-.16,0-.24,0,.08,0,.16,0,.24Z"/>
  <path class="cls-1" d="m205.27,166.23c-.04-.08-.04-.16,0-.24,0,.08,0,.16,0,.24Z"/>
  <path class="cls-1" d="m282.46,166.25c-.08-.04-.15-.08-.23-.12.08.04.15.08.23.12Z"/>
  <path class="cls-1" d="m205.27,167.23c-.04-.08-.04-.16,0-.24,0,.08,0,.16,0,.24Z"/>
  <path class="cls-1" d="m205.27,168.23c-.04-.08-.04-.16,0-.24,0,.08,0,.16,0,.24Z"/>
  <path class="cls-1" d="m205.27,169.23c-.04-.08-.04-.16,0-.24,0,.08,0,.16,0,.24Z"/>
  <path class="cls-1" d="m205.27,170.23c-.04-.08-.04-.16,0-.24,0,.08,0,.16,0,.24Z"/>
  <path class="cls-1" d="m205.27,171.23c-.04-.08-.04-.16,0-.24,0,.08,0,.16,0,.24Z"/>
  <path class="cls-1" d="m205.27,172.23c-.04-.08-.04-.16,0-.24,0,.08,0,.16,0,.24Z"/>
  <path class="cls-1" d="m205.27,161.23c-.04-.08-.04-.16,0-.24,0,.08,0,.16,0,.24Z"/>
  <path class="cls-1" d="m205.27,173.23c-.04-.08-.04-.16,0-.24,0,.08,0,.16,0,.24Z"/>
  <path class="cls-1" d="m205.27,174.23c-.04-.08-.04-.16,0-.24,0,.08,0,.16,0,.24Z"/>
  <path class="cls-1" d="m205.27,175.23c-.04-.08-.04-.16,0-.24,0,.08,0,.16,0,.24Z"/>
  <path class="cls-1" d="m205.27,176.23c-.04-.08-.04-.16,0-.24,0,.08,0,.16,0,.24Z"/>
  <path class="cls-1" d="m205.27,177.22c-.04-.08-.04-.16,0-.24,0,.08,0,.16,0,.24Z"/>
  <path class="cls-1" d="m205.27,178.22c-.04-.08-.04-.16,0-.24,0,.08,0,.16,0,.24Z"/>
  <path class="cls-1" d="m205.27,179.22c-.04-.08-.04-.16,0-.24,0,.08,0,.16,0,.24Z"/>
  <path class="cls-1" d="m205.27,180.22c-.04-.08-.04-.16,0-.24,0,.08,0,.16,0,.24Z"/>
  <path class="cls-1" d="m205.27,181.22c-.04-.08-.04-.16,0-.24,0,.08,0,.16,0,.24Z"/>
  <path class="cls-1" d="m205.27,182.22c-.04-.08-.04-.16,0-.24,0,.08,0,.16,0,.24Z"/>
  <path class="cls-1" d="m205.27,183.22c-.04-.08-.04-.16,0-.24,0,.08,0,.16,0,.24Z"/>
  <path class="cls-1" d="m244.45,183.79c.05.02.11.04.16.07-.05.02-.11.04-.16.07,0-.04,0-.09,0-.13Z"/>
  <path class="cls-1" d="m205.27,184.22c-.04-.08-.04-.16,0-.24,0,.08,0,.16,0,.24Z"/>
  <path class="cls-1" d="m205.27,160.23c-.04-.08-.04-.16,0-.24,0,.08,0,.16,0,.24Z"/>
  <path class="cls-1" d="m205.27,159.23c-.04-.08-.04-.16,0-.24,0,.08,0,.16,0,.24Z"/>
  <path class="cls-1" d="m205.27,185.22c-.04-.08-.04-.16,0-.24,0,.08,0,.16,0,.24Z"/>
  <path class="cls-1" d="m205.27,186.22c-.04-.08-.04-.16,0-.24,0,.08,0,.16,0,.24Z"/>
  <path class="cls-1" d="m205.27,187.22c-.04-.08-.04-.16,0-.24,0,.08,0,.16,0,.24Z"/>
  <path class="cls-1" d="m205.27,188.22c-.04-.08-.04-.16,0-.24,0,.08,0,.16,0,.24Z"/>
  <path class="cls-1" d="m243.17,188.48c.03.08.03.16-.02.24,0-.08.01-.16.02-.24Z"/>
  <path class="cls-1" d="m205.27,189.22c-.04-.08-.04-.16,0-.24,0,.08,0,.16,0,.24Z"/>
  <path class="cls-1" d="m243.03,189.28c.04.08.02.13-.07.17.02-.06.04-.12.07-.17Z"/>
  <path class="cls-1" d="m205.27,190.22c-.04-.08-.04-.16,0-.24,0,.08,0,.16,0,.24Z"/>
  <path class="cls-1" d="m205.27,191.22c-.04-.08-.04-.16,0-.24,0,.08,0,.16,0,.24Z"/>
  <path class="cls-1" d="m205.27,192.22c-.04-.08-.04-.16,0-.24,0,.08,0,.16,0,.24Z"/>
  <path class="cls-1" d="m205.27,193.22c-.04-.08-.04-.16,0-.24,0,.08,0,.16,0,.24Z"/>
  <path class="cls-1" d="m205.27,158.23c-.04-.08-.04-.16,0-.24,0,.08,0,.16,0,.24Z"/>
  <path class="cls-1" d="m205.27,194.22c-.04-.08-.04-.16,0-.24,0,.08,0,.16,0,.24Z"/>
  <path class="cls-1" d="m205.27,195.22c-.04-.08-.04-.16,0-.24,0,.08,0,.16,0,.24Z"/>
  <path class="cls-1" d="m205.27,196.22c-.04-.08-.04-.16,0-.24,0,.08,0,.16,0,.24Z"/>
  <path class="cls-1" d="m205.27,157.23c-.04-.08-.04-.16,0-.24,0,.08,0,.16,0,.24Z"/>
  <path class="cls-1" d="m205.27,197.22c-.04-.08-.04-.16,0-.24,0,.08,0,.16,0,.24Z"/>
  <path class="cls-1" d="m205.27,198.22c-.04-.08-.04-.16,0-.24,0,.08,0,.16,0,.24Z"/>
  <path class="cls-1" d="m205.27,199.22c-.04-.08-.04-.16,0-.24,0,.08,0,.16,0,.24Z"/>
  <path class="cls-1" d="m205.27,200.22c-.04-.08-.04-.16,0-.24,0,.08,0,.16,0,.24Z"/>
  <path class="cls-1" d="m205.27,201.22c-.04-.08-.04-.16,0-.24,0,.08,0,.16,0,.24Z"/>
  <path class="cls-1" d="m205.27,202.22c-.04-.08-.04-.16,0-.24,0,.08,0,.16,0,.24Z"/>
  <path class="cls-1" d="m205.27,203.22c-.04-.08-.04-.16,0-.24,0,.08,0,.16,0,.24Z"/>
  <path class="cls-1" d="m299.3,203.22c-.08-.17.03-.21.16-.24-.05.08-.11.16-.16.24Z"/>
  <path class="cls-1" d="m299.01,203.97c-.02-.16.06-.22.21-.23-.07.08-.14.15-.21.23Z"/>
  <path class="cls-1" d="m205.27,204.22c-.04-.08-.04-.16,0-.24,0,.08,0,.16,0,.24Z"/>
  <path class="cls-1" d="m205.27,205.22c-.04-.08-.04-.16,0-.24,0,.08,0,.16,0,.24Z"/>
  <path class="cls-1" d="m205.27,206.22c-.04-.08-.04-.16,0-.24,0,.08,0,.16,0,.24Z"/>
  <path class="cls-1" d="m269.21,164.41h-.12s-.11-.01-.11-.01c.08-.04.16-.04.23.01Z"/>
  <path class="cls-1" d="m205.27,208.22c-.04-.08-.04-.16,0-.24,0,.08,0,.16,0,.24Z"/>
  <path class="cls-1" d="m205.27,209.22c-.04-.08-.04-.16,0-.24,0,.08,0,.16,0,.24Z"/>
  <path class="cls-1" d="m205.27,210.22c-.04-.08-.04-.16,0-.24,0,.08,0,.16,0,.24Z"/>
  <path class="cls-1" d="m205.27,211.22c-.04-.08-.04-.16,0-.24,0,.08,0,.16,0,.24Z"/>
  <path class="cls-1" d="m248.48,210.96c.07.09.15.18.22.27-.07-.09-.15-.18-.22-.27Z"/>
  <path class="cls-1" d="m248.71,211.26c.05.06.1.13.15.19-.06-.06-.11-.12-.15-.19Z"/>
  <path class="cls-1" d="m294.72,211.47c.08-.09.16-.18.24-.27l-.24.27Z"/>
  <path class="cls-1" d="m205.27,212.22c-.04-.08-.04-.16,0-.24,0,.08,0,.16,0,.24Z"/>
  <path class="cls-1" d="m205.27,156.23c-.04-.08-.04-.16,0-.24,0,.08,0,.16,0,.24Z"/>
  <path class="cls-1" d="m205.27,213.22c-.04-.08-.04-.16,0-.24,0,.08,0,.16,0,.24Z"/>
  <path class="cls-1" d="m205.27,155.23c-.04-.08-.04-.16,0-.24,0,.08,0,.16,0,.24Z"/>
  <path class="cls-1" d="m205.27,214.22c-.04-.08-.04-.16,0-.24,0,.08,0,.16,0,.24Z"/>
  <path class="cls-1" d="m205.27,154.23c-.04-.08-.04-.16,0-.24,0,.08,0,.16,0,.24Z"/>
  <path class="cls-1" d="m205.27,215.22c-.04-.08-.04-.16,0-.24,0,.08,0,.16,0,.24Z"/>
  <path class="cls-1" d="m205.27,216.22c-.04-.08-.04-.16,0-.24,0,.08,0,.16,0,.24Z"/>
  <path class="cls-1" d="m205.27,153.23c-.04-.08-.04-.16,0-.24,0,.08,0,.16,0,.24Z"/>
  <path class="cls-1" d="m205.27,217.22c-.04-.08-.04-.16,0-.24,0,.08,0,.16,0,.24Z"/>
  <path class="cls-1" d="m288.7,217.22c.04-.12.09-.24.26-.17-.09.06-.17.11-.26.17Z"/>
  <path class="cls-1" d="m205.27,152.23c-.04-.08-.04-.16,0-.24,0,.08,0,.16,0,.24Z"/>
  <path class="cls-1" d="m205.27,218.22c-.04-.08-.04-.16,0-.24,0,.08,0,.16,0,.24Z"/>
  <path class="cls-1" d="m287.23,218.23c0-.15.07-.24.23-.19-.08.06-.16.13-.23.19Z"/>
  <path class="cls-1" d="m286.74,218.48c.03-.11.05-.22.2-.13-.06.06-.13.1-.2.13Z"/>
  <path class="cls-1" d="m286.47,218.72c.01-.15.09-.24.25-.23-.08.08-.17.15-.25.23Z"/>
  <path class="cls-1" d="m285.97,218.97c.02-.14.06-.24.24-.17-.08.06-.16.11-.24.17Z"/>
  <path class="cls-1" d="m205.27,219.22c-.04-.08-.04-.16,0-.24,0,.08,0,.16,0,.24Z"/>
  <path class="cls-1" d="m205.27,220.22c-.04-.08-.04-.16,0-.24,0,.08,0,.16,0,.24Z"/>
  <path class="cls-1" d="m205.27,221.22c-.04-.08-.04-.16,0-.24,0,.08,0,.16,0,.24Z"/>
  <path class="cls-1" d="m205.27,222.22c-.04-.08-.04-.16,0-.24,0,.08,0,.16,0,.24Z"/>
  <path class="cls-1" d="m205.27,223.22c-.04-.08-.04-.16,0-.24,0,.08,0,.16,0,.24Z"/>
  <path class="cls-1" d="m205.27,224.22c-.04-.08-.04-.16,0-.24,0,.08,0,.16,0,.24Z"/>
  <path class="cls-1" d="m205.27,225.22c-.04-.08-.04-.16,0-.24,0,.08,0,.16,0,.24Z"/>
  <path class="cls-1" d="m205.27,226.22c-.04-.08-.04-.16,0-.24,0,.08,0,.16,0,.24Z"/>
  <path class="cls-1" d="m205.27,227.22c-.04-.08-.04-.16,0-.24,0,.08,0,.16,0,.24Z"/>
  <path class="cls-1" d="m205.27,228.22c-.04-.08-.04-.16,0-.24,0,.08,0,.16,0,.24Z"/>
  <path class="cls-1" d="m205.27,229.22c-.04-.08-.04-.16,0-.24,0,.08,0,.16,0,.24Z"/>
  <path class="cls-1" d="m205.27,230.22c-.04-.08-.04-.16,0-.24,0,.08,0,.16,0,.24Z"/>
  <path class="cls-1" d="m205.27,231.22c-.04-.08-.04-.16,0-.24,0,.08,0,.16,0,.24Z"/>
  <path class="cls-1" d="m205.27,232.22c-.04-.08-.04-.16,0-.24,0,.08,0,.16,0,.24Z"/>
  <path class="cls-1" d="m205.27,233.22c-.04-.08-.04-.16,0-.24,0,.08,0,.16,0,.24Z"/>
  <path class="cls-1" d="m205.27,234.22c-.04-.08-.04-.16,0-.24,0,.08,0,.16,0,.24Z"/>
  <path class="cls-1" d="m205.27,235.22c-.04-.08-.04-.16,0-.24,0,.08,0,.16,0,.24Z"/>
  <path class="cls-1" d="m205.27,236.22c-.04-.08-.04-.16,0-.24,0,.08,0,.16,0,.24Z"/>
  <path class="cls-1" d="m205.27,237.22c-.04-.08-.04-.16,0-.24,0,.08,0,.16,0,.24Z"/>
  <path class="cls-1" d="m205.27,238.22c-.04-.08-.04-.16,0-.24,0,.08,0,.16,0,.24Z"/>
  <path class="cls-1" d="m205.27,239.22c-.04-.08-.04-.16,0-.24,0,.08,0,.16,0,.24Z"/>
  <path class="cls-1" d="m205.27,241.22c-.04-.08-.04-.16,0-.24,0,.08,0,.16,0,.24Z"/>
  <path class="cls-1" d="m180.43,246.46l-.06.07s-.09-.01-.09-.01c.05-.02.09-.04.14-.06Z"/>
  <path class="cls-1" d="m163.51,278.28c.19.09.19.25.17.43-.06-.14-.11-.29-.17-.43Z"/>
  <path class="cls-1" d="m205.27,150.23c-.04-.08-.04-.16,0-.24,0,.08,0,.16,0,.24Z"/>
  <path class="cls-1" d="m213.95,292.46c.09-.08.18-.16.27-.23-.09.08-.18.16-.27.23Z"/>
  <path class="cls-1" d="m205.27,149.23c-.04-.08-.04-.16,0-.24,0,.08,0,.16,0,.24Z"/>
  <path class="cls-1" d="m205.27,148.23c-.04-.08-.04-.16,0-.24,0,.08,0,.16,0,.24Z"/>
  <path class="cls-1" d="m205.27,147.23c-.04-.08-.04-.16,0-.24,0,.08,0,.16,0,.24Z"/>
  <path class="cls-1" d="m209.24,296.71c.03-.11.06-.23.22-.14-.07.05-.14.09-.22.14Z"/>
  <path class="cls-1" d="m208.21,297.46c.04-.12.09-.24.26-.17-.09.06-.17.11-.26.17Z"/>
  <path class="cls-1" d="m197.96,85.14c-.11-.04-.23-.08-.34-.13.11.04.23.09.34.13Z"/>
  <path class="cls-1" d="m196.72,84.92c-.14-.05-.28-.1-.42-.15.14.05.28.1.42.15Z"/>
  <path class="cls-1" d="m206.23,298.71c.02-.14.07-.24.24-.18-.08.06-.16.12-.24.18Z"/>
  <path class="cls-1" d="m205.71,298.96c.03-.13.08-.24.25-.17-.08.06-.17.12-.25.17Z"/>
  <path class="cls-1" d="m179.98,2.3c.08-.03.16-.03.24-.02-.08,0-.16.01-.24.02Z"/>
  <path class="cls-1" d="m204.23,299.71c.02-.14.07-.24.24-.17-.08.06-.16.12-.24.17Z"/>
  <path class="cls-1" d="m184.79,301.42c.08-.04.14-.03.19.04-.06-.01-.13-.03-.19-.04Z"/>
  <path class="cls-1" d="m276.7,164.63l-.11.02s-.1-.06-.1-.06c.08-.02.15,0,.21.04Z"/>
  <path class="cls-1" d="m205.27,207.22c-.04-.08-.04-.16,0-.24,0,.08,0,.16,0,.24Z"/>
</svg>