<?xml version="1.0" encoding="UTF-8"?>
<svg id="Layer_2" data-name="Layer 2" xmlns="http://www.w3.org/2000/svg" viewBox="0 0 533.12 609.64">
  <defs>
    <style>
      .cls-1 {
        fill: #f04d23;
      }
    </style>
  </defs>
  <g id="Layer_1-2" data-name="Layer 1">
    <path class="cls-1" d="m267.69.02C348.33.02,428.97-.06,509.62.07c20.51.03,24.86,9.86,23.16,26.51-.65,6.36-1.06,12.78-1.5,19.11-1.11,16.07-2.61,32.09-4.19,48.12-.55,5.59-.71,11.21-1.07,16.82-1.09,16.73-2.17,33.45-3.91,50.13-.97,9.33-1.36,18.73-2.11,28.09-1.27,15.8-2.03,31.63-3.16,47.43-.81,11.28-2.1,22.53-2.98,33.83-1.4,18.04-2.75,36.09-3.98,54.14-.79,11.64-2.1,23.25-3.12,34.89-1.25,14.3-1.29,28.7-2.99,42.92-1.98,16.52-2.74,33.08-3.87,49.64-1.17,17.18-3.42,34.28-4.74,51.45-.65,8.39-1.13,16.78-2.05,25.15-.74,6.7-4.32,10.97-10.2,13.53-11.49,5.01-23.79,7.62-35.58,11.8-13.87,4.92-27.93,9.33-42.04,13.51-11.71,3.47-23.25,7.46-34.98,10.91-21.22,6.24-42.01,13.98-63.26,20.12-12.15,3.51-23.89,8.27-36.33,10.98-7.49,1.63-13.56-1.21-19.92-3.12-19.76-5.93-39.32-12.48-59-18.68-27.29-8.59-54.75-16.68-81.87-25.76-18.5-6.19-37.28-11.45-55.68-17.87-8.21-2.86-14.55-9.78-15.19-20.99-.87-15.3-1.68-30.62-3.11-45.88-1.25-13.27-2.09-26.55-2.96-39.85-1.08-16.39-3.07-32.7-4.1-49.1-.82-13.11-1.76-26.25-2.92-39.35-1.47-16.55-2.79-33.11-3.97-49.68-1.01-14.12-1.8-28.27-3.11-42.34-1.54-16.54-2.47-33.11-3.91-49.64-1.09-12.6-1.49-25.28-3.04-37.82-2.19-17.63-2.23-35.42-4.65-53.02-.81-5.87-.66-11.86-.98-17.77-1.06-19.59-3.94-39.02-4.51-58.66-.16-5.57-.4-11.39-1.48-17.09C-1.65,12.17,5.65,2.02,16.01.86,20.62.34,25.19.05,29.78.05c79.31-.03,158.62-.02,237.93-.02h-.02Zm-77.74,347.03h-.02c-1.15-1.43-2.76-.93-4.19-.93-21.64-.03-43.27-.02-64.91,0-1.3,0-2.69-.28-3.83.69-2.8.17-2.27,2.47-1.65,3.62.79,1.49.75,2.88.69,4.3-.53,11.93,1.23,23.76,2.32,35.55,1.78,19.18,2.25,38.44,4.46,57.59.53,4.61,1.97,6.67,6.1,8.01,20.61,6.69,41.39,12.84,61.94,19.73,23.93,8.02,48.14,15.21,72.21,22.8,1.97.62,3.98.83,5.87.27,5.74-1.68,11.29-3.89,17.11-5.45,10.74-2.89,21.2-6.76,31.8-10.17,16.41-5.28,32.74-10.84,49.29-15.65,12.64-3.68,24.79-8.85,37.69-11.72,1.84-.41,4.84-.6,5.25-4.09,1.92-16.48,2.8-33.05,3.84-49.59.36-5.75.83-11.52,1.27-17.25,1.25-16.07,2.97-32.1,3.98-48.2.33-5.25.51-10.53.92-15.78,1.25-15.89,2.99-31.74,4.14-47.64.41-5.66.04-11.45,1.64-17.11,1.58-5.59.2-6.93-5.66-6.93h-137.42c-31.98,0-63.96-.01-95.95.01-2.53,0-5.28.34-5.72-3.07-.8-6.33-1.35-12.69-2.01-19.04,1.08-1.02.94-2.03-.02-3.03-.1-1.61-.19-3.23-.29-4.84.35-2.14.62-4.27-.9-6.14-.17-1.89-.35-3.79-.52-5.68.66-1.48.85-2.82-1.07-3.51-.04-8.58-2.43-16.98-2-25.6,3.16-.06,6.32-.18,9.48-.18,80.69,0,161.38,0,242.07-.06,1.96,0,4.33,1.12,5.9-1.18.63-9,1.39-17.99,2.1-26.97.89-11.3,2.21-22.58,2.44-33.96.07-3.51-.58-4.21-3.72-4.17-8.47.11-16.94.03-25.42.02-1.1-.85-2.2-.85-3.29,0h-9.71c-2.09-.95-4.19-.95-6.29,0h-17.71c-2.09-.95-4.19-.95-6.28,0h-9.71c-2.09-.95-4.19-.95-6.28,0h-9.71c-2.09-.95-4.19-.95-6.28,0h-20.71c-1.1-.85-2.2-.85-3.29,0h-9.71c-2.09-.95-4.19-.95-6.29,0h-17.71c-2.09-.95-4.19-.95-6.28,0h-9.71c-2.09-.95-4.19-.95-6.28,0h-9.71c-2.09-.95-4.19-.95-6.28,0h-20.71c-1.1-.85-2.2-.85-3.29,0h-9.71c-2.09-.95-4.19-.95-6.29,0h-17.71c-2.09-.95-4.19-.95-6.28,0h-9.71c-2.09-.95-4.19-.95-6.28,0h-9.71c-2.09-.95-4.19-.95-6.28,0h-20.71c-1.1-.85-2.2-.85-3.29,0h-9.71c-1.1-.85-2.19-.85-3.29,0-4.67-.8-6.51.84-5.99,5.84.99,9.48,1.45,19.01,2.18,28.52,1.31,17.01,2.76,34.02,3.91,51.04.37,5.42.61,10.92,1.3,16.23,2.39,18.4,2.63,36.96,4.58,55.38,1.19,11.29,1.08,22.72,2.47,33.98.51,4.15-.38,8.56,1.56,12.53.55.94,1.34.94,2.23.57h193.44c13.16,0,26.33.01,39.49-.01,2.21,0,4.03-.35,4.08,3.14.14,9.79-.59,19.59-1.44,29.25-1.38,15.71-1.85,31.49-3.57,47.18-.39,3.58-1.78,5.18-4.82,5.58-11.62,1.53-22.59,5.75-33.82,8.68-10.61,2.76-21.45,5.11-31.9,8.77-2.9,1.02-6.13,2.97-10.14,1.84-21.8-6.17-43.73-11.88-65.59-17.86-3.38-.92-7.18-.68-10-3.31.08-16.52.17-33.04.23-49.55,0-.95.1-2.04-1.18-2.4l-.03-.05Z"/>
  </g>
</svg>