<?xml version="1.0" encoding="UTF-8"?>
<svg id="Layer_1" data-name="Layer 1" xmlns="http://www.w3.org/2000/svg" viewBox="0 0 800 800">
  <defs>
    <style>
      .cls-1 {
        fill: #333430;
      }

      .cls-2 {
        fill: #f0dc4e;
      }

      .cls-3 {
        fill: #e4d04c;
      }
    </style>
  </defs>
  <path class="cls-2" d="m400,799.91c-131.8,0-263.61-.02-395.41.09C.84,800,0,799.16,0,795.41.1,531.8.1,268.2,0,4.59,0,.84.84,0,4.59,0c263.61.1,527.21.1,790.82,0,3.75,0,4.59.84,4.59,4.59-.1,263.6-.1,527.21,0,790.81,0,3.75-.84,4.6-4.59,4.59-131.8-.11-263.61-.09-395.41-.09Zm125.92-407.12s-.16.16-.16.16c-.28.28-.56.55-.84.83,0,0-.17.17-.17.17-.28.28-.55.55-.83.83l-.17.17c-.27.28-.54.57-.82.85-4.89,4.76-9.24,9.93-12.11,16.21l-.78,1.17c.03.36-.1.64-.4.84-.22.25-.44.5-.67.75-3.65,6-5.95,12.54-7.58,19.33-.13.34-.25.68-.38,1.02-2.72,7.06-3.05,14.48-3.31,21.91-1.19,2.97-1.15,5.94-.05,8.92.01.69.03,1.37.04,2.06-.08.1-.23.22-.21.31.05.23.16.45.25.67-.27,8.49,1.46,16.71,3.25,24.93l.71,1.05c1.45,7.57,4.39,14.56,8.26,21.18.27.29.53.58.8.87l.12.26c.02.19.1.35.23.48l4.81,7.36c.2.27.4.53.61.8.8,1.06,1.6,2.12,2.4,3.18.26.31.52.61.78.92l.16.2c.2.54.4,1.07.6,1.61,4.62,3.71,8.87,7.78,12.46,12.52.6.23,1.19.47,1.79.7l.19.14c.31.26.62.53.93.79.38.31.77.63,1.15.94.3.35.6.7.9,1.05l.03.17c.66.61,1.31,1.22,1.97,1.83l3.12,1.43c.27.2.54.4.81.59,22.08,15.06,46.48,25.42,71.15,35.23.59.27,1.18.53,1.77.8,9.11,4.74,18.82,8.33,27.25,14.37.26.2.52.4.78.6.4.31.8.62,1.19.93.3.35.61.7.91,1.05l.04.17,1.74.92.22.19c.28.26.55.51.83.77l.18.16c.28.28.56.55.85.83l.16.16c.28.28.56.56.84.84l.16.17c.24.25.48.5.72.75,9.47,12.14,10.69,25.17,4.18,39.03-.26.38-.52.77-.78,1.15-.17.29-.33.59-.5.88-.2.27-.4.53-.6.8-.31.39-.62.78-.93,1.18-.35.3-.69.6-1.04.89l-3.07,3.08c-.3.36-.59.72-.89,1.09-2.16,3.25-6.07,3.69-9.14,5.34-6.76,3.63-13.97,6.43-21.9,6.36-.33-.02-.65-.04-.98-.05-4.67.53-9.35.45-14.02.02-.33.02-.66.04-.98.06-2.49.59-4.81.01-7.04-1.1-.67-.68-1.32-.64-1.95.04-1.79-1.39-4.38.16-6.06-1.62-.19-.49-.5-.61-.95-.3-7.7-2.03-14.69-5.49-21.05-10.27-.26-.2-.52-.4-.78-.6-5.62-4.09-11.14-8.3-15.14-14.13l-.76-.88-.21-.27c-.13-.29-.34-.5-.64-.63-3.11-4.24-6.34-8.4-9.27-12.76-1.49-2.21-2.97-3.01-5.28-1.48-2.7,1.79-5.26,3.81-8.06,5.42-15.76,9.06-31.54,18.08-47.38,26.99-2.89,1.62-2.59,3.34-.89,5.38,3.72,4.47,6.22,9.71,9.45,14.49.24.32.49.65.73.97l.17.27c.14.49.29.98.43,1.47.59.9,1.17,1.79,1.76,2.69l1.46.57c1.14,1.37,2.29,2.75,3.43,4.12.25.27.49.54.74.81.32.09.45.3.4.63.19.44.37.87.56,1.31,3.56,3.02,6.25,7.01,10.36,9.42.26.23.53.47.79.7,1.31.87,2.89,1.48,3.18,3.33.58.25,1.15.49,1.73.74l.22.16c.31.26.62.51.93.77,3.37,2.36,6.75,4.73,10.12,7.09.39.27.79.54,1.18.81.37-.02.65.13.85.43.31.21.63.43.94.64,1.32.67,2.74,1.2,3.95,2.04,12.7,8.78,27.28,12.66,42.04,15.82,8.55,1.83,17.28,2.77,25.93,4.11,8.71,0,17.43,0,26.14,0,5.3-.66,10.61-1.32,15.91-1.98.65-.19,1.3-.38,1.95-.58,1.29-.16,2.59-.33,3.88-.49.72-.21,1.44-.43,2.16-.64,5.95-.22,11.29-2.8,16.91-4.32.7-.24,1.4-.49,2.1-.73,13.03-4.99,25.57-10.85,36.17-20.18.3-.26.6-.52.89-.78l.24-.19c.31-.13.53-.35.67-.66l7.47-7.44c.29-.13.5-.34.64-.63l.23-.27c.25-.29.5-.57.75-.86.2-.39.39-.78.59-1.16.45-.36.89-.73,1.34-1.09.48-.66.96-1.33,1.44-1.99.21-.26.41-.52.62-.78,3.87-6.7,8.56-12.97,10.93-20.48,1.76-5.57,3.52-11.14,5.28-16.71.7-.66.68-1.31-.02-1.96.68-5.01,1.37-10.03,2.05-15.04,1.21-4.31,1.22-8.63-.02-12.94-.68-5.35-1.36-10.69-2.04-16.04.7-.65.72-1.3.02-1.96-.35-1.01-.7-2.02-1.05-3.03.08-.1.25-.2.24-.29-.02-.23-.12-.46-.18-.69-.76-2.65-1.52-5.29-2.29-7.94.04-1.09.06-2.17-.75-3.04-.08-.32-.16-.65-.25-.97-.16-.33-.33-.66-.49-.98-.17-.32-.35-.65-.52-.97-.27-.36-.54-.73-.81-1.09-1.39-3.33-2.77-6.66-4.16-9.98-.22-.33-.43-.66-.65-.99-.3-.21-.44-.49-.41-.86-.25-.39-.51-.78-.76-1.16-2.38-3.37-4.76-6.75-7.15-10.12-.26-.31-.53-.62-.79-.94l-.16-.22c-.22-.26-.43-.52-.65-.78-.26-.03-.38-.17-.36-.43-.13-.22-.31-.37-.54-.46-3.52-3.5-7.03-6.99-10.55-10.49-.13-.28-.33-.49-.61-.62l-.29-.24c-.28-.25-.56-.5-.83-.75l-.18-.14c-.32-.27-.65-.54-.97-.82-1.04-.82-2.09-1.64-3.13-2.47-.16-.28-.41-.47-.72-.57-2.11-1.54-4.23-3.09-6.34-4.63-.15-.2-.35-.33-.6-.39l-.24-.14c-.36-.26-.71-.52-1.07-.78-5.66-3.38-11.32-6.77-16.99-10.15-.61-.3-1.23-.61-1.84-.91-5.05-2.37-10.1-4.73-15.14-7.1-.35-.27-.7-.55-1.04-.82l.03.04-1.8-1.12c-9.41-3.96-18.91-7.71-28.2-11.94-9.54-4.34-19.27-8.34-28.21-13.91l-.36-.17-.33-.16c-.36-.24-.73-.49-1.09-.73-1.61-.49-2.92-1.43-4.06-2.64-.16-.22-.37-.37-.63-.45l-.22-.15c-.33-.26-.66-.53-.99-.79-3.31-2.01-6.02-4.63-8.08-7.92-.24-.37-.48-.75-.71-1.12l-.18-.32c-.02-.17-.1-.32-.23-.44-.99-.89-1.58-2-1.81-3.3-.03-.3-.15-.56-.38-.77-3.6-7.07-4.83-14.24-2.28-22.11,3.07-9.5,8.5-16.07,17.81-20.47,7.45-3.52,14.84-3.76,22.48-3.45,8.95.36,17.13,3.38,24.45,8.62.14.19.33.31.56.37l.26.19c.29.26.59.51.88.77,2.51,1.56,4.51,3.63,6.15,6.07.28.31.57.63.85.94l.12.15c.25.29.5.58.75.87l.23.31c.06.21.17.38.35.5.57.74,1.13,1.49,1.7,2.23.25.32.49.63.74.95l.21.34.23.41c.28.4.56.81.84,1.21.24.34.49.69.73,1.03l.2.34.2.39c1.2,1.16,2.16,2.42,1.87,4.24.3.33.6.65.9.98,2.94.36,4.55-2.39,7.07-3.02.36-.25.72-.5,1.08-.76l.28-.15c.2-.03.36-.13.5-.28.4-.26.81-.53,1.21-.79.31-.22.62-.44.93-.67,4.32-2.79,8.64-5.57,12.96-8.36.34-.21.69-.42,1.03-.62.72-.44,1.43-.88,2.15-1.33.28-.2.56-.39.84-.59.3-.16.61-.33.91-.49.38-.26.75-.53,1.13-.79.64-.4,1.29-.79,1.93-1.19.37-.26.74-.52,1.11-.78l.22-.12c.31-.11.54-.31.69-.61.31-.17.62-.33.93-.5.39-.24.77-.47,1.16-.71l.32-.17c.18-.02.32-.1.44-.24.42-.28.83-.55,1.25-.83.3-.21.61-.42.91-.64,2.32-1.47,4.65-2.94,6.97-4.4.37-.26.74-.51,1.11-.77l.24-.13c.23-.05.43-.17.58-.35.38-.24.76-.48,1.14-.73.35-.25.7-.5,1.05-.75l.3-.17c.18-.02.33-.1.45-.23.42-.28.84-.55,1.26-.83.3-.21.6-.42.9-.63,1.75-1.11,3.5-2.23,5.25-3.34l.82-.83c-1.01-2.07-2.02-4.14-3.03-6.22-.22-.32-.44-.64-.66-.96-.44-.71-.88-1.41-1.32-2.12l-.65-.88c-.45-.7-.9-1.4-1.36-2.1-.25-.33-.5-.66-.75-.99l-.19-.31c-.04-.2-.15-.37-.31-.49l-1.73-2.3c-.24-.3-.48-.6-.72-.9l-.23-.1v-.26c-.05-.17-.14-.32-.28-.42-.6-.74-1.19-1.47-1.79-2.21-.28-.33-.56-.66-.83-.99l-.12-.16c-.23-.25-.45-.51-.68-.76-2.5-3.02-6.25-4.77-8.34-8.21-.27-.27-.55-.54-.82-.82-2.61-2.52-4.73-5.61-8.19-7.16-.37-1.58-1.5-1.96-2.94-1.87l-.05-.03c-.32-1.66-1.48-2.05-2.96-1.97l-.04-.03c-.34-1.71-1.55-2.04-3.04-1.93-.32-.08-.64-.17-.96-.25-.4-2.31-2-2.85-4.04-2.75-5.28-2.17-10.02-5.74-15.96-6.19-.54-2.12-1.82-1.37-3.05-.78h.01c-.28-1.08-.52-2.24-1.99-1.01-1.99-.4-3.98-.8-5.97-1.2-1.15-2.47-2.94-1.86-4.78-1-1.04.31-1.47-.73-2.24-1.02-.66-.71-1.32-.7-1.98,0-6.87-.59-13.73-1.24-20.6-1.75-8.47-.63-16.86,1.14-25.33.98-.69.24-1.37.48-2.06.73-.9.12-1.8.24-2.69.37-1.18-.19-2.32-.15-3.31.65-.7.4-1.36,1.02-2.11,1.15-9.87,1.79-19.3,4.76-27.89,10.08-.67.32-1.34.65-2.01.97-7,3.84-12.83,9.29-19.21,13.98-.28.28-.56.55-.84.83Zm-233.58,267.08l-.26-.21c-.28-.26-.56-.52-.85-.77l-.17-.13c-.3-.28-.6-.56-.89-.84-.37-.37-.75-.75-1.12-1.12-.29-.3-.58-.59-.88-.89l-.11-.11c-.28-.3-.56-.6-.84-.9l-.14-.18c-.23-.25-.47-.49-.7-.74-3.87-4.72-7.8-9.39-10.36-15.01-.3-.34-.6-.69-.9-1.03l-.07-.04c-.28-.31-.57-.63-.85-.94-1.41-2.46-1.5-6.77-6.38-4.04-18.32,10.24-35.75,21.96-53.87,32.51-3.86,2.24-3.78,4.25-2.07,7.84,2.73,5.71,7.27,10.15,10.17,15.68.27.35.54.69.81,1.04,0,0,.1.16.1.16l.65,1.7c8.42,10.36,18.27,19.38,29.26,26.7,17.44,11.62,37.42,16.38,58.1,18.37,7.7,0,15.4,0,23.11,0,5.28-.67,10.57-1.34,15.85-2.01.69-.26,1.38-.52,2.07-.78,4.26-1.93,9-1.61,13.41-2.98,11.98-3.73,22.86-9.49,32.75-17.16,1.09-.16,1.65-.84,1.86-1.87,3.38-3.38,6.77-6.77,10.15-10.15,1.36-.25,1.92-1.15,1.98-2.45l-.03-.34s.28-.19.28-.19c.22-.29.43-.59.65-.88l.08-.11c1.47-.24,1.97-1.22,1.99-2.58.4-.81.79-1.62,1.19-2.43,2.17-.37,2.78-1.86,2.76-3.81.09-.41.17-.82.26-1.23.24-.26.49-.52.73-.78l.15-.14c1.13-.25,1.69-.98,1.78-2.11,1.73-4.98,3.47-9.95,5.2-14.93,1.77-.56,2.23-1.52.88-3,.05-.34.11-.68.16-1.02.27-.27.54-.53.81-.8l.32-.19c1.12-1.48,1.76-3.11,1.64-4.99.05-2,.11-4,.16-6,1.75-.51,2.16-1.49,1.05-3,.68-1.53.59-3.18.85-4.78,1.22-7.4.8-14.88,1.35-22.31,1.07-1.86.65-3.9.65-5.87.02-81.33.02-162.66,0-244,0-1.97.42-4.01-.63-5.87-1.55-1.43-3.48-.91-5.25-.89-23.08.39-46.17-.93-69.23.75-1.34,1.36-1.02,3.1-1.02,4.73,0,83.73.03,167.45.06,251.18.45,4.78.15,9.64-.95,14.18-1.92,7.97-3.03,16.3-10.31,22.16-6.37,5.12-13.21,7.93-21.21,9.14-10.81,1.64-20.55-.49-29.67-6.25-.14-.15-.31-.24-.51-.28,0,0-.27-.15-.27-.15-.33-.26-.67-.52-1-.78-.71-.52-1.41-1.05-2.12-1.57-.14-.24-.35-.4-.61-.49Z"/>
  <path class="cls-1" d="m736.21,637.91c-.68,5.01-1.37,10.03-2.05,15.04,0,.65.01,1.31.02,1.96-1.76,5.57-3.52,11.14-5.28,16.71-2.37,7.5-7.05,13.77-10.93,20.48-.21.26-.41.52-.62.78-.48.66-.96,1.33-1.44,1.99-.51.29-1.59-.13-1.34,1.09-.2.39-.39.78-.59,1.16-.25.29-.5.57-.75.86,0,0-.23.27-.23.27-.37.04-.58.25-.64.63-2.49,2.48-4.98,4.96-7.47,7.44-.22.22-.45.44-.67.66,0,0-.24.19-.24.19-.3.26-.6.52-.89.78-10.6,9.33-23.15,15.19-36.17,20.18-.84-.17-1.62-.16-2.1.73-5.61,1.52-10.96,4.11-16.91,4.32-.84-.18-1.64-.23-2.16.64-1.29.16-2.59.33-3.88.49-.78-.24-1.48-.22-1.95.58-5.3.66-10.61,1.32-15.91,1.98-5.97-1.57-12.02.09-18.04-.45-2.65-.24-5.5-1.3-8.1.44-8.65-1.34-17.39-2.28-25.93-4.11-14.77-3.16-29.35-7.04-42.04-15.82-1.21-.83-2.63-1.37-3.95-2.04-.31-.21-.63-.43-.94-.64-.2-.31-.48-.45-.85-.43-.39-.27-.79-.54-1.18-.81-3.37-2.36-6.75-4.73-10.12-7.09-.31-.26-.62-.51-.93-.77,0,0-.22-.16-.22-.16-.58-.25-1.15-.49-1.73-.74-.29-1.84-1.87-2.46-3.18-3.32-.26-.23-.53-.47-.79-.7-4.12-2.41-6.8-6.39-10.36-9.42-.19-.44-.37-.88-.56-1.31.05-.33-.09-.53-.4-.63-.25-.27-.49-.54-.74-.81-1.14-1.37-2.29-2.75-3.43-4.12-.49-.19-.97-.38-1.46-.57-.59-.9-1.17-1.79-1.76-2.69-.14-.49-.29-.98-.44-1.47,0,0-.17-.27-.17-.27-.24-.32-.49-.65-.73-.97-3.23-4.78-5.73-10.03-9.45-14.49-1.7-2.04-2-3.75.89-5.38,15.85-8.9,31.63-17.92,47.38-26.99,2.8-1.61,5.36-3.63,8.06-5.42,2.3-1.52,3.79-.73,5.28,1.48,2.93,4.36,6.16,8.52,9.27,12.76.05.38.26.59.64.64,0,0,.21.27.21.27.25.29.51.59.76.88,4,5.83,9.52,10.04,15.14,14.13.26.2.52.4.78.6,6.35,4.78,13.35,8.24,21.05,10.27.3.14.62.24.95.3,1.69,1.79,4.27.23,6.06,1.62l1.95-.04c2.23,1.11,4.54,1.69,7.04,1.1.33-.02.66-.04.98-.06,4.67.44,9.35.51,14.02-.02.33.02.65.04.98.05,7.93.07,15.13-2.73,21.9-6.36,3.07-1.65,6.98-2.09,9.14-5.34.59-.12,1-.39.89-1.09,1.02-1.03,2.05-2.05,3.07-3.08.68.09.94-.31,1.04-.89.31-.39.62-.78.93-1.18.2-.27.4-.53.6-.8.17-.29.33-.59.5-.88.26-.38.52-.77.78-1.15,6.51-13.85,5.29-26.88-4.18-39.03-.24-.25-.48-.5-.72-.75,0,0-.16-.17-.16-.17-.28-.28-.56-.56-.84-.84,0,0-.16-.16-.16-.16-.28-.28-.56-.55-.85-.83,0,0-.18-.16-.18-.16-.28-.26-.55-.51-.83-.77,0,0-.22-.19-.22-.19-.58-.31-1.16-.61-1.74-.92,0,0-.04-.17-.04-.17.1-.7-.32-.95-.91-1.05-.4-.31-.8-.62-1.19-.93-.26-.2-.52-.4-.78-.6-8.42-6.04-18.14-9.62-27.25-14.37-.59-.27-1.18-.53-1.77-.8-24.67-9.81-49.08-20.17-71.15-35.23-.27-.2-.54-.4-.81-.59-1.04-.48-2.08-.95-3.12-1.43-.66-.61-1.31-1.22-1.97-1.83,0,0-.03-.17-.03-.17.1-.7-.33-.94-.9-1.05-.38-.31-.77-.63-1.15-.94-.31-.26-.62-.53-.93-.79,0,0-.19-.14-.19-.14-.6-.23-1.19-.47-1.79-.7-3.59-4.74-7.84-8.81-12.46-12.52-.2-.54-.4-1.07-.6-1.61,0,0-.16-.2-.15-.2-.26-.31-.52-.61-.78-.92-.8-1.06-1.6-2.12-2.4-3.18-.2-.27-.4-.53-.61-.8-1.6-2.45-3.21-4.91-4.81-7.36,0,0,.06-.32.06-.32l-.29-.16s-.12-.26-.12-.26c0-.54-.14-.94-.8-.87-3.88-6.62-6.81-13.62-8.26-21.18-.24-.35-.48-.7-.71-1.05-1.79-8.22-3.52-16.45-3.25-24.93-.01-.32-.03-.65-.04-.97-.01-.69-.03-1.37-.04-2.06.02-2.97.03-5.95.05-8.92.26-7.43.59-14.85,3.31-21.91.13-.34.25-.68.38-1.02,1.63-6.79,3.93-13.33,7.58-19.33.56.05.71-.26.67-.75.29-.2.43-.49.4-.84.26-.39.52-.78.78-1.17,2.87-6.28,7.21-11.45,12.11-16.21.27-.28.54-.57.82-.85,0,0,.17-.17.17-.17.28-.28.55-.55.83-.83,0,0,.17-.17.17-.17.28-.28.56-.55.84-.83,0,0,.16-.16.16-.16.28-.27.56-.55.84-.83,6.38-4.69,12.21-10.14,19.21-13.98.74-.18,1.65-.01,2.01-.97,8.59-5.31,18.02-8.29,27.89-10.08.75-.14,1.41-.76,2.11-1.15,1.19.26,2.31.13,3.31-.65.9-.12,1.8-.24,2.69-.37.84.2,1.62.22,2.06-.73,8.46.16,16.85-1.61,25.33-.98,6.87.51,13.73,1.16,20.6,1.75.66,0,1.32,0,1.98,0,.77.29,1.2,1.33,2.24,1.02,1.39,1.32,3.07,1.21,4.78,1,1.99.4,3.98.8,5.97,1.2.32,1.01,1.19.94,1.99,1.02h-.01c.77,1.22,1.96.81,3.05.77,5.94.46,10.68,4.02,15.96,6.19.99,1.44,2.43,2.22,4.04,2.75.32.08.64.17.96.25.68,1.17,1.66,1.87,3.04,1.93,0,0,.04.03.04.03.62,1.2,1.6,1.86,2.96,1.97,0,0,.05.03.05.03.61,1.2,1.45,2.05,2.94,1.87,3.47,1.55,5.58,4.64,8.19,7.16-.07.62.24.86.82.82,2.09,3.44,5.84,5.19,8.34,8.21.23.25.45.51.68.76,0,0,.12.16.12.16.28.33.56.66.83.99.6.74,1.19,1.47,1.79,2.21,0,0-.03.31-.03.31l.3.11v.26s.25.1.25.1c.24.3.48.6.72.9.58.77,1.15,1.54,1.73,2.3,0,0,0,.35,0,.35l.32.15s.19.31.19.3c.25.33.5.66.75.99.45.7.9,1.4,1.36,2.1.22.29.43.59.65.88.44.71.88,1.41,1.32,2.12.22.32.44.64.66.96,1.01,2.07,2.02,4.14,3.03,6.21-.27.28-.55.56-.82.84-1.75,1.11-3.5,2.23-5.25,3.34-.3.21-.6.42-.9.63-.42.28-.84.55-1.26.83,0,0-.31-.05-.31-.05l-.14.29s-.3.17-.3.17c-.35.25-.7.5-1.05.75-.38.24-.76.48-1.14.73,0,0-.39,0-.39,0l-.19.35s-.24.13-.24.13c-.37.26-.74.51-1.11.77-2.32,1.47-4.65,2.94-6.97,4.4-.3.21-.61.42-.91.64-.42.28-.83.55-1.25.83,0,0-.31-.05-.31-.05l-.13.29s-.32.17-.32.17c-.39.24-.78.47-1.16.71-.31.17-.62.33-.93.5-.23.2-.46.41-.69.61,0,0-.22.12-.22.12-.37.26-.74.52-1.11.78-.64.4-1.29.79-1.93,1.19-.38.26-.75.53-1.13.79-.3.16-.61.33-.91.49-.28.2-.56.39-.84.59-.72.44-1.43.88-2.15,1.33-.34.21-.69.42-1.03.62-4.32,2.79-8.64,5.57-12.96,8.36-.31.22-.62.44-.93.67-.4.26-.81.53-1.21.79,0,0-.34-.04-.34-.04l-.15.31s-.28.15-.28.15c-.36.25-.72.5-1.08.76-2.51.64-4.13,3.38-7.07,3.02-.3-.33-.6-.65-.91-.98.3-1.82-.67-3.08-1.87-4.24,0,0,.08-.28.08-.28l-.28-.11s-.2-.34-.2-.34c-.24-.34-.49-.69-.73-1.03-.28-.4-.56-.81-.84-1.21,0,0,.05-.3.05-.3l-.29-.12s-.21-.34-.21-.34c-.25-.32-.49-.63-.74-.95-.57-.74-1.13-1.49-1.7-2.23,0,0-.02-.36-.02-.36l-.33-.15s-.23-.31-.23-.31c-.25-.29-.5-.58-.75-.87,0,0-.12-.15-.11-.15-.28-.31-.57-.63-.85-.94-1.64-2.44-3.65-4.51-6.15-6.07-.29-.26-.59-.51-.88-.77,0,0-.26-.19-.26-.19,0,0-.17-.35-.17-.35l-.38-.02c-7.32-5.23-15.51-8.26-24.45-8.62-7.64-.31-15.03-.07-22.48,3.45-9.31,4.4-14.74,10.98-17.81,20.47-2.54,7.87-1.32,15.03,2.28,22.11-.12.37,0,.63.38.77.23,1.31.82,2.41,1.81,3.3,0,0-.06.31-.06.31l.3.13s.18.32.18.31c.24.37.48.75.71,1.12,2.05,3.29,4.77,5.9,8.08,7.92.33.26.66.53.99.79,0,0,.22.15.22.15.06.36.27.51.63.45,1.14,1.21,2.45,2.15,4.06,2.64.36.24.73.49,1.09.73,0,0,.33.16.33.16,0,0,.11.26.11.26l.26-.09c8.95,5.56,18.67,9.57,28.21,13.91,9.29,4.23,18.79,7.98,28.2,11.94.6.37,1.2.75,1.8,1.12l-.03-.04c.09.6.38.94,1.04.82,5.05,2.37,10.1,4.73,15.14,7.1.61.3,1.23.61,1.84.91,5.66,3.38,11.32,6.77,16.99,10.15.36.26.71.52,1.07.78,0,0,.24.14.24.14.06.35.26.48.6.39,2.11,1.54,4.23,3.09,6.34,4.63.24.19.48.38.72.57,1.04.82,2.09,1.64,3.13,2.47.32.27.65.54.97.82,0,0,.18.14.18.14.28.25.56.5.83.75,0,0,.29.24.29.24.04.36.24.57.61.62,3.52,3.5,7.03,6.99,10.55,10.49.04.32.22.47.54.46-.02.26.1.41.36.43.22.26.43.52.65.78,0,0,.16.22.16.22.26.31.53.62.79.94,2.38,3.37,4.76,6.75,7.15,10.12.25.39.51.78.76,1.16-.03.37.1.65.41.86.22.33.43.66.65.99,1.39,3.33,2.77,6.66,4.16,9.98-.13.66.21.98.81,1.09.17.32.35.65.52.97.16.33.33.66.49.98.08.32.16.65.25.97.04,1.07-.73,2.33.75,3.04.76,2.65,1.52,5.29,2.29,7.94-.02.33-.04.65-.06.98.35,1.01.7,2.02,1.05,3.03,0,.65-.01,1.31-.02,1.96.68,5.35,1.36,10.69,2.04,16.04,0,4.31.02,8.63.02,12.94Z"/>
  <path class="cls-1" d="m427.18,669.95c-1.73,4.98-3.47,9.95-5.2,14.93-1.21.18-2.08.65-1.78,2.11,0,0-.15.14-.15.14-.57-.05-.91.12-.73.78-.09.41-.17.82-.26,1.23-1.55.81-2.15,2.32-2.76,3.81-.4.81-.79,1.62-1.19,2.43-1.16.47-2,1.2-1.99,2.58,0,0-.08.11-.08.11-.54.06-.88.25-.65.88l-.28.19s.03.34.03.34c-1.23.35-2.13.98-1.98,2.45-3.38,3.38-6.77,6.77-10.15,10.15-1.57-.32-1.51.98-1.86,1.87-9.9,7.67-20.77,13.43-32.75,17.16-4.41,1.37-9.15,1.05-13.41,2.98-.86-.19-1.64-.17-2.07.78-5.28.67-10.57,1.34-15.85,2.01-7.7-.84-15.41-.84-23.11,0-20.68-1.99-40.66-6.75-58.1-18.37-10.99-7.32-20.84-16.34-29.26-26.7-.22-.57-.43-1.13-.65-1.7,0,0-.1-.16-.1-.16-.27-.35-.54-.69-.81-1.04-2.9-5.54-7.45-9.98-10.17-15.68-1.71-3.59-1.78-5.59,2.07-7.84,18.12-10.55,35.55-22.27,53.87-32.51,4.88-2.73,4.97,1.58,6.38,4.04-.1.66.24.92.85.94,0,0,.07.04.07.04.3.34.6.69.9,1.03,2.56,5.62,6.5,10.29,10.36,15.01.23.25.47.49.71.74,0,0,.14.18.14.18.28.3.56.6.84.9,0,0,.11.11.11.11.29.3.58.59.88.89.37.37.75.75,1.12,1.12.3.28.6.56.89.84,0,0,.17.13.17.13.28.26.56.52.85.77,0,0,.26.21.26.21.04.36.25.53.61.49.71.52,1.41,1.05,2.12,1.57.33.26.67.52,1,.78,0,0,.27.15.27.15s.17.31.17.31l.35-.03c9.12,5.75,18.86,7.89,29.67,6.25,8-1.21,14.84-4.02,21.21-9.14,7.29-5.86,8.39-14.19,10.31-22.16,1.09-4.54,1.4-9.4.95-14.18,1.19-2.02.59-4.23.59-6.34.04-81.04.03-162.08.05-243.12,0-2.15.21-4.3.33-6.45,23.06-1.68,46.16-.37,69.23-.75,1.77-.03,3.69-.54,5.25.88,0,85.24-.01,170.49-.02,255.74-.56,7.43-.13,14.91-1.35,22.31-.26,1.59-.17,3.25-.85,4.78-.39.98-1.57,1.69-1.05,3-.05,2-.11,4-.16,6-2.26,1.1-1.85,3.08-1.64,4.99,0,0-.32.19-.32.19-.61-.08-.93.14-.81.8-.05.34-.11.68-.16,1.02-1.38.68-.88,1.91-.88,3Z"/>
  <path class="cls-3" d="m434.41,623.87c0-85.25.01-170.49.02-255.74,1.05,1.87.63,3.91.63,5.87.02,81.33.02,162.66,0,244,0,1.97.42,4.01-.65,5.87Z"/>
  <path class="cls-3" d="m359.95,368c-.11,2.15-.33,4.3-.33,6.45-.02,81.04,0,162.08-.05,243.12,0,2.11.6,4.32-.59,6.34-.02-83.73-.05-167.45-.06-251.18,0-1.63-.33-3.37,1.02-4.73Z"/>
  <path class="cls-3" d="m597.87,736.89c2.6-1.74,5.44-.68,8.1-.44,6.02.54,12.07-1.12,18.04.45-8.71,0-17.43,0-26.14,0Z"/>
  <path class="cls-3" d="m310.97,736.9c7.7-.85,15.4-.84,23.11,0-7.7,0-15.4,0-23.11,0Z"/>
  <path class="cls-3" d="m736.21,637.91c0-4.31-.02-8.63-.02-12.94,1.24,4.31,1.23,8.62.02,12.94Z"/>
  <path class="cls-3" d="m497.71,457.02c-.02,2.97-.03,5.95-.05,8.92-1.1-2.98-1.14-5.95.05-8.92Z"/>
  <path class="cls-3" d="m640.96,366.83c-1.71.21-3.39.32-4.78-1,1.84-.86,3.63-1.47,4.78,1Z"/>
  <path class="cls-3" d="m416.3,692.96c.61-1.5,1.2-3,2.76-3.81.02,1.95-.59,3.44-2.76,3.81Z"/>
  <path class="cls-3" d="m429.35,664.94c-.2-1.91-.62-3.89,1.64-4.99.11,1.88-.52,3.52-1.64,4.99Z"/>
  <path class="cls-3" d="m671.96,378.76c-1.61-.54-3.05-1.32-4.04-2.75,2.04-.1,3.64.44,4.04,2.75Z"/>
  <path class="cls-3" d="m427.18,669.95c0-1.09-.5-2.32.88-3,1.35,1.48.89,2.43-.88,3Z"/>
  <path class="cls-3" d="m651.96,369.82c-1.09.04-2.28.45-3.05-.78,1.24-.6,2.51-1.35,3.05.78Z"/>
  <path class="cls-3" d="m675.96,380.94c-1.39-.06-2.36-.76-3.04-1.93,1.49-.11,2.7.22,3.04,1.93Z"/>
  <path class="cls-3" d="m678.96,382.94c-1.35-.1-2.33-.76-2.96-1.97,1.48-.09,2.64.3,2.96,1.97Z"/>
  <path class="cls-3" d="m681.95,384.85c-1.49.17-2.33-.67-2.94-1.87,1.44-.09,2.57.3,2.94,1.87Z"/>
  <path class="cls-3" d="m431.16,653.95c-.52-1.3.66-2.01,1.05-3,1.11,1.51.7,2.49-1.05,3Z"/>
  <path class="cls-3" d="m410.16,701.94c-.15-1.47.75-2.1,1.98-2.45-.06,1.3-.62,2.2-1.98,2.45Z"/>
  <path class="cls-3" d="m413.12,697.97c0-1.38.83-2.1,1.99-2.58-.03,1.35-.53,2.34-1.99,2.58Z"/>
  <path class="cls-3" d="m648.92,369.05c-.8-.08-1.67,0-1.99-1.02,1.47-1.23,1.71-.07,1.99,1.02Z"/>
  <path class="cls-3" d="m398.16,713.97c.34-.9.28-2.19,1.86-1.87-.21,1.03-.76,1.72-1.86,1.87Z"/>
  <path class="cls-3" d="m420.2,687c-.3-1.46.56-1.93,1.78-2.11-.08,1.13-.65,1.86-1.78,2.11Z"/>
  <path class="cls-3" d="m581.28,365.13c-.99.78-2.11.91-3.31.65.99-.8,2.12-.84,3.31-.65Z"/>
  <path class="cls-3" d="m730.89,595.02c-1.48-.71-.7-1.98-.75-3.04.81.88.79,1.96.75,3.04Z"/>
  <path class="cls-3" d="m537.93,548.15c.66.61,1.31,1.22,1.97,1.83-.66-.61-1.31-1.22-1.97-1.83Z"/>
  <path class="cls-3" d="m222.96,690.14c.22.57.43,1.13.65,1.7-.22-.57-.43-1.13-.65-1.7Z"/>
  <path class="cls-3" d="m489.06,683.41c.49.19.97.38,1.46.57-.49-.19-.97-.38-1.46-.57Z"/>
  <path class="cls-3" d="m714.56,695.97c-.25-1.22.84-.8,1.34-1.09-.45.36-.89.73-1.34,1.09Z"/>
  <path class="cls-3" d="m594.92,668.65l-1.95.04c.63-.69,1.28-.72,1.95-.04Z"/>
  <path class="cls-3" d="m509.97,704.29c.58.25,1.15.49,1.73.74-.58-.25-1.15-.49-1.73-.74Z"/>
  <path class="cls-3" d="m734.17,654.92c0-.65-.01-1.31-.02-1.96.7.65.72,1.3.02,1.96Z"/>
  <path class="cls-3" d="m664.82,728.87c.47-.89,1.26-.9,2.1-.73-.7.24-1.4.49-2.1.73Z"/>
  <path class="cls-3" d="m645.75,733.84c.52-.88,1.32-.83,2.16-.64-.72.21-1.44.43-2.16.64Z"/>
  <path class="cls-3" d="m734.15,608.94c0-.65.01-1.31.02-1.96.7.66.68,1.31-.02,1.96Z"/>
  <path class="cls-3" d="m646.92,605.14c.58.31,1.16.61,1.74.92-.58-.31-1.16-.61-1.74-.92Z"/>
  <path class="cls-3" d="m614.97,587.23c.59.27,1.18.53,1.77.8-.59-.27-1.18-.53-1.77-.8Z"/>
  <path class="cls-3" d="m639.92,734.91c.47-.79,1.18-.81,1.95-.58-.65.19-1.3.38-1.95.58Z"/>
  <path class="cls-3" d="m586.03,364.04c-.44.94-1.21.93-2.06.73.69-.24,1.37-.48,2.06-.73Z"/>
  <path class="cls-3" d="m633.93,364.81c-.66,0-1.32,0-1.98,0,.66-.7,1.32-.71,1.98,0Z"/>
  <path class="cls-3" d="m532.94,544.35c.6.23,1.19.47,1.79.7-.6-.23-1.19-.47-1.79-.7Z"/>
  <path class="cls-3" d="m519.88,530.23c.2.54.4,1.08.6,1.61-.2-.54-.4-1.08-.6-1.61Z"/>
  <path class="cls-3" d="m669.93,529.83c-.62-.3-1.23-.61-1.84-.91.62.3,1.23.61,1.84.91Z"/>
  <path class="cls-3" d="m651.92,521.03c-.6-.37-1.2-.75-1.8-1.12.6.37,1.2.75,1.8,1.12Z"/>
  <path class="cls-3" d="m547.98,377.01c-.36.96-1.27.79-2.01.97.67-.32,1.34-.65,2.01-.97Z"/>
  <path class="cls-3" d="m349.93,734.89c.43-.95,1.21-.97,2.07-.78-.69.26-1.38.52-2.07.78Z"/>
  <path class="cls-3" d="m486.87,679.26c.15.49.29.98.44,1.47-.15-.49-.29-.98-.44-1.47Z"/>
  <path class="cls-3" d="m700.99,550.65c-.28-.25-.56-.5-.83-.75.28.25.56.5.83.75Z"/>
  <path class="cls-3" d="m296.07,662.71c-.33-.26-.67-.52-1-.78.33.26.67.52,1,.78Z"/>
  <path class="cls-3" d="m646.87,447.36l.33.15s.02.36.02.36c-.18-.13-.29-.29-.35-.5Z"/>
  <path class="cls-3" d="m648.92,450.09c.25.32.49.64.74.95-.25-.32-.49-.64-.74-.95Z"/>
  <polygon class="cls-3" points="649.87 451.38 650.16 451.5 650.1 451.8 649.87 451.38"/>
  <path class="cls-3" d="m650.94,453.01c.24.34.49.69.73,1.03-.24-.34-.49-.69-.73-1.03Z"/>
  <polygon class="cls-3" points="651.87 454.38 652.15 454.49 652.07 454.77 651.87 454.38"/>
  <path class="cls-3" d="m664.97,454.99c.31-.22.62-.44.93-.67-.31.22-.62.44-.93.67Z"/>
  <path class="cls-3" d="m663.27,456.06l.15-.31s.34.04.34.04c-.13.15-.3.24-.5.28Z"/>
  <path class="cls-3" d="m661.91,456.97c.36-.25.72-.5,1.08-.76-.36.25-.72.5-1.08.76Z"/>
  <path class="cls-3" d="m683.79,442.93c.38-.26.75-.53,1.13-.79-.38.26-.75.53-1.13.79Z"/>
  <path class="cls-3" d="m653.94,459.01c.3.33.6.65.91.98-.3-.33-.6-.65-.91-.98Z"/>
  <path class="cls-3" d="m497.71,468c.01.32.03.65.04.97-.09-.22-.21-.44-.25-.67-.02-.08.14-.2.21-.31Z"/>
  <path class="cls-3" d="m574.99,475.88c-.37-.15-.5-.4-.38-.77.22.21.35.47.38.77Z"/>
  <path class="cls-3" d="m577.03,479.62l-.3-.13s.06-.31.06-.31c.13.12.21.26.23.44Z"/>
  <path class="cls-3" d="m577.93,481.05c-.24-.37-.48-.75-.71-1.12.24.37.48.75.71,1.12Z"/>
  <path class="cls-3" d="m587,489.76c-.33-.26-.66-.53-.99-.79.33.27.66.53.99.79Z"/>
  <path class="cls-3" d="m587.86,490.36c-.36.07-.57-.08-.63-.45.26.07.48.22.63.45Z"/>
  <path class="cls-3" d="m593.01,493.73c-.36-.24-.73-.49-1.09-.73.36.24.73.49,1.09.73Z"/>
  <path class="cls-3" d="m501,493.91c.24.35.48.7.71,1.05l-.71-1.05Z"/>
  <polygon class="cls-3" points="593.7 494.06 593.44 494.16 593.34 493.89 593.7 494.06"/>
  <path class="cls-3" d="m509.98,516.15c.66-.07.8.34.8.87-.27-.29-.53-.58-.8-.87Z"/>
  <path class="cls-3" d="m510.9,517.28l.29.16s-.06.32-.06.32c-.13-.13-.21-.3-.23-.48Z"/>
  <path class="cls-3" d="m686.86,440.96c.37-.26.74-.52,1.11-.78-.37.26-.74.52-1.11.78Z"/>
  <path class="cls-3" d="m652.94,521.82c-.66.12-.95-.22-1.04-.82.35.27.7.55,1.04.82Z"/>
  <path class="cls-3" d="m515.94,525.12c.2.27.41.53.61.8-.2-.27-.41-.53-.61-.8Z"/>
  <path class="cls-3" d="m518.95,529.11c.26.31.52.61.78.92-.26-.31-.52-.61-.78-.92Z"/>
  <path class="cls-3" d="m688.19,440.06c.23-.2.46-.41.69-.61-.15.29-.38.5-.69.61Z"/>
  <path class="cls-3" d="m689.82,438.95c.39-.24.78-.47,1.16-.71-.39.24-.78.47-1.16.71Z"/>
  <path class="cls-3" d="m687.98,540.76c-.36-.26-.71-.52-1.07-.78.36.26.71.52,1.07.78Z"/>
  <path class="cls-3" d="m688.81,541.28c-.34.09-.54-.04-.6-.39.24.06.44.19.6.39Z"/>
  <path class="cls-3" d="m637.89,438.26c.29.26.59.51.88.77-.29-.26-.59-.51-.88-.77Z"/>
  <path class="cls-3" d="m691.3,438.07l.13-.29s.31.05.31.05c-.12.13-.26.21-.44.24Z"/>
  <path class="cls-3" d="m637.07,437.69l.38.02s.17.35.17.35c-.23-.06-.41-.19-.56-.37Z"/>
  <path class="cls-3" d="m692.99,437c.3-.21.61-.42.91-.64-.3.21-.61.42-.91.64Z"/>
  <path class="cls-3" d="m501.41,434.1c-.13.34-.25.68-.38,1.02.13-.34.25-.68.38-1.02Z"/>
  <path class="cls-3" d="m644.93,445.09c.28.31.57.63.85.94-.28-.31-.57-.63-.85-.94Z"/>
  <path class="cls-3" d="m682.04,444.02c.28-.2.56-.39.84-.59-.28.2-.56.39-.84.59Z"/>
  <path class="cls-3" d="m543.01,551.41c.27.2.54.4.81.59-.27-.2-.54-.4-.81-.59Z"/>
  <path class="cls-3" d="m701.89,551.52c-.37-.05-.57-.26-.61-.62.28.13.48.34.61.62Z"/>
  <path class="cls-3" d="m712.98,562.47c-.32.01-.5-.14-.54-.46.24.09.42.25.54.46Z"/>
  <path class="cls-3" d="m713.99,563.69c-.22-.26-.44-.52-.65-.78.22.26.44.52.65.78Z"/>
  <path class="cls-3" d="m714.95,564.85c-.26-.31-.53-.62-.79-.94.26.31.53.62.79.94Z"/>
  <path class="cls-3" d="m722.85,576.13c-.25-.39-.51-.78-.76-1.16.25.39.51.78.76,1.16Z"/>
  <path class="cls-3" d="m723.91,577.98c-.22-.33-.43-.66-.65-.99.22.33.43.66.65.99Z"/>
  <path class="cls-3" d="m700.86,431.96c.37-.26.74-.51,1.11-.77-.37.26-.74.51-1.11.77Z"/>
  <path class="cls-3" d="m728.89,589.05c-.6-.12-.94-.43-.81-1.09.27.36.54.73.81,1.09Z"/>
  <path class="cls-3" d="m729.9,591.01c-.16-.33-.33-.66-.49-.98.16.33.33.66.49.98Z"/>
  <path class="cls-3" d="m702.21,431.06l.19-.35s.39,0,.39,0c-.15.18-.35.3-.58.35Z"/>
  <path class="cls-3" d="m643.99,602.39c.26.2.52.4.78.6-.26-.2-.52-.4-.78-.6Z"/>
  <path class="cls-3" d="m733.13,603.95c.02-.33.04-.65.06-.98.07.23.16.46.18.69,0,.09-.15.19-.24.29Z"/>
  <path class="cls-3" d="m645.97,603.92c.59.1,1.01.35.91,1.05-.3-.35-.61-.7-.91-1.05Z"/>
  <path class="cls-3" d="m703.93,429.99c.35-.25.7-.5,1.05-.75-.35.25-.7.5-1.05.75Z"/>
  <path class="cls-3" d="m648.88,606.24c.28.26.55.51.83.77-.28-.26-.55-.51-.83-.77Z"/>
  <path class="cls-3" d="m649.89,607.17c.28.28.56.55.85.83-.28-.28-.56-.55-.85-.83Z"/>
  <path class="cls-3" d="m705.28,429.07l.14-.29s.31.05.31.05c-.12.13-.27.21-.45.23Z"/>
  <path class="cls-3" d="m650.89,608.16c.28.28.56.56.84.84-.28-.28-.56-.56-.84-.84Z"/>
  <path class="cls-3" d="m651.89,609.17c.24.25.48.5.72.75-.24-.25-.48-.5-.72-.75Z"/>
  <path class="cls-3" d="m706.99,428.01c.3-.21.6-.42.9-.63-.3.21-.6.42-.9.63Z"/>
  <path class="cls-3" d="m275.04,637.89c-.61-.01-.95-.28-.85-.94.28.31.57.63.85.94Z"/>
  <path class="cls-3" d="m276.02,638.96c-.3-.35-.6-.69-.9-1.03.3.35.6.69.9,1.03Z"/>
  <path class="cls-3" d="m548.03,640.62c-.37-.05-.59-.26-.64-.64.29.13.5.34.64.64Z"/>
  <path class="cls-3" d="m549,641.77c-.25-.29-.51-.59-.76-.88.25.29.51.59.76.88Z"/>
  <path class="cls-3" d="m656.79,648.95c-.26.38-.52.77-.78,1.15.26-.38.52-.77.78-1.15Z"/>
  <path class="cls-3" d="m713.14,424.03c.27-.28.55-.56.82-.84-.27.28-.55.56-.82.84Z"/>
  <path class="cls-3" d="m655.51,650.98c-.2.27-.4.53-.6.8.2-.27.4-.53.6-.8Z"/>
  <path class="cls-3" d="m653.98,652.96c-.1.58-.36.98-1.04.89.35-.3.69-.6,1.04-.89Z"/>
  <path class="cls-3" d="m710.93,416.98c-.22-.32-.44-.64-.66-.96.22.32.44.64.66.96Z"/>
  <path class="cls-3" d="m287.08,654.71c-.24-.25-.47-.49-.71-.74.24.25.47.49.71.74Z"/>
  <path class="cls-3" d="m288.07,655.79c-.28-.3-.56-.6-.84-.9.28.3.56.6.84.9Z"/>
  <path class="cls-3" d="m289.05,656.79c-.29-.3-.58-.59-.88-.89.29.3.58.59.88.89Z"/>
  <path class="cls-3" d="m564.92,656.5c-.26-.2-.52-.4-.78-.6.26.2.52.4.78.6Z"/>
  <path class="cls-3" d="m649.87,656.94c.11.69-.3.96-.89,1.09.3-.36.59-.72.89-1.09Z"/>
  <path class="cls-3" d="m291.07,658.75c-.3-.28-.6-.56-.89-.84.3.28.6.56.89.84Z"/>
  <path class="cls-3" d="m292.08,659.66c-.28-.26-.57-.52-.85-.77.28.26.57.52.85.77Z"/>
  <path class="cls-3" d="m536.99,546.93c.58.11,1.01.35.9,1.05-.3-.35-.6-.7-.9-1.05Z"/>
  <path class="cls-3" d="m534.92,545.2c.31.26.62.53.93.79-.31-.26-.62-.53-.93-.79Z"/>
  <path class="cls-3" d="m695.88,546.48c-.24-.19-.48-.38-.72-.57.32.09.56.28.72.57Z"/>
  <path class="cls-3" d="m296.85,663.14l-.35.03s-.17-.31-.17-.31c.2.04.37.13.51.28Z"/>
  <path class="cls-3" d="m428.22,665.93c-.12-.66.2-.88.81-.8-.27.27-.54.53-.81.8Z"/>
  <path class="cls-3" d="m586.91,667.07c-.33-.06-.64-.16-.95-.3.45-.31.76-.19.95.3Z"/>
  <path class="cls-3" d="m509.65,414.02c.05.49-.11.8-.67.75.22-.25.44-.5.67-.75Z"/>
  <path class="cls-3" d="m708.95,413.91c-.22-.29-.43-.59-.65-.88.22.29.43.59.65.88Z"/>
  <path class="cls-3" d="m602.94,669.69c-.33.02-.66.04-.98.06.33-.02.66-.04.98-.06Z"/>
  <path class="cls-3" d="m617.94,669.73c-.33-.02-.65-.04-.98-.05.33.02.65.04.98.05Z"/>
  <path class="cls-3" d="m485.96,678.02c.24.32.49.65.73.97-.24-.32-.49-.65-.73-.97Z"/>
  <path class="cls-3" d="m510.82,412c-.26.39-.52.78-.78,1.17.26-.39.52-.78.78-1.17Z"/>
  <path class="cls-3" d="m706.94,410.93c-.25-.33-.5-.66-.75-.99.25.33.5.66.75.99Z"/>
  <path class="cls-3" d="m706,409.64l-.32-.15s0-.35,0-.35c.16.13.27.29.31.49Z"/>
  <path class="cls-3" d="m419.32,687.92c-.18-.66.16-.82.73-.78-.24.26-.49.52-.73.78Z"/>
  <path class="cls-3" d="m493.95,688.1c.25.27.49.54.74.81-.25-.27-.49-.54-.74-.81Z"/>
  <path class="cls-3" d="m222.05,688.94c.27.35.54.69.81,1.04-.27-.35-.54-.69-.81-1.04Z"/>
  <path class="cls-3" d="m703.96,406.84c-.24-.3-.48-.6-.72-.9.24.3.48.6.72.9Z"/>
  <path class="cls-3" d="m703,405.58l-.3-.11s.03-.31.03-.31c.14.11.24.25.27.42Z"/>
  <path class="cls-3" d="m495.08,689.53c.19.44.37.88.56,1.31-.19-.44-.37-.88-.56-1.31Z"/>
  <path class="cls-3" d="m717.34,692.89c.21-.26.41-.52.62-.78-.21.26-.41.52-.62.78Z"/>
  <path class="cls-3" d="m700.94,402.95c-.28-.33-.56-.66-.83-.99.28.33.56.66.83.99Z"/>
  <path class="cls-3" d="m699.98,401.8c-.23-.25-.45-.51-.68-.76.23.25.45.51.68.76Z"/>
  <path class="cls-3" d="m713.22,697.99c.25-.29.5-.57.75-.86-.25.29-.5.57-.75.86Z"/>
  <path class="cls-3" d="m412.39,698.96c-.23-.63.12-.82.65-.88-.22.29-.43.59-.65.88Z"/>
  <path class="cls-3" d="m712.36,698.89c.05-.37.27-.58.64-.63-.13.29-.35.5-.64.63Z"/>
  <path class="cls-3" d="m523.75,394.95c-.27.28-.54.57-.82.85.27-.28.54-.57.82-.85Z"/>
  <path class="cls-3" d="m506,700.26c.26.23.53.47.79.7-.26-.23-.53-.47-.79-.7Z"/>
  <path class="cls-3" d="m524.75,393.95c-.28.28-.55.56-.83.83.28-.28.55-.55.83-.83Z"/>
  <path class="cls-3" d="m511.92,705.18c.31.26.62.51.93.77-.31-.26-.62-.51-.93-.77Z"/>
  <path class="cls-3" d="m704.22,706.99c.22-.22.45-.44.67-.66-.14.31-.36.53-.67.66Z"/>
  <path class="cls-3" d="m703.09,707.96c.3-.26.6-.52.89-.78-.3.26-.6.52-.89.78Z"/>
  <path class="cls-3" d="m525.75,392.95c-.28.28-.56.55-.84.83.28-.28.56-.55.84-.83Z"/>
  <path class="cls-3" d="m522.98,713.04c.39.27.79.54,1.18.81-.39-.27-.79-.54-1.18-.81Z"/>
  <path class="cls-3" d="m525,714.29c.31.21.63.43.94.64-.31-.21-.63-.43-.94-.64Z"/>
  <path class="cls-3" d="m690.96,392.82c-.59.05-.89-.2-.82-.82.27.27.55.54.82.82Z"/>
  <path class="cls-3" d="m526.75,391.96c-.28.28-.56.55-.84.83.28-.28.56-.55.84-.83Z"/>
  <path class="cls-3" d="m678.87,445.96c.34-.21.69-.42,1.03-.62-.34.21-.69.42-1.03.62Z"/>
  <path class="cls-3" d="m292.95,660.36c-.36.03-.57-.13-.61-.49.26.09.46.26.61.49Z"/>
  <path class="cls-3" d="m699.97,549.77c-.32-.27-.65-.55-.97-.82.32.27.65.55.97.82Z"/>
  <path class="cls-3" d="m645.89,446.18c.25.29.5.58.75.87-.25-.29-.5-.58-.75-.87Z"/>
</svg>