<?xml version="1.0" encoding="UTF-8"?>
<svg id="Layer_2" data-name="Layer 2" xmlns="http://www.w3.org/2000/svg" viewBox="0 0 1011.96 310.99">
  <defs>
    <style>
      .cls-1 {
        fill: #3b6bb4;
      }

      .cls-2 {
        fill: #f8a01c;
      }
    </style>
  </defs>
  <g id="Layer_1-2" data-name="Layer 1">
    <path class="cls-1" d="m41.05,303.32c-12.16,0-24.33-.17-36.48.1-3.85.08-5.02-1.02-4.43-4.73,2.58-16.19,5.14-32.38,7.54-48.6,2.9-19.58,5.54-39.19,8.46-58.77,2.32-15.51,4.97-30.97,7.33-46.47,2.66-17.49,5.1-35.02,7.75-52.51,2.37-15.69,4.9-31.35,7.34-47.03,1.81-11.61,3.72-23.21,5.3-34.86.36-2.68,1.35-3.19,3.72-3.19,24.82.06,49.65.11,74.47-.06,3.31-.02,4.11,1.67,5.16,4.09,14.22,33.03,28.51,66.02,42.78,99.02,7.63,17.64,15.25,35.29,22.83,52.95.52,1.2.55,2.83,2.2,2.89,1.43.05,1.56-1.65,1.94-2.52,12.09-27.63,24.08-55.31,36.09-82.98,10.21-23.53,20.46-47.04,30.61-70.6.97-2.24,2.34-2.79,4.59-2.79,24.82.06,49.65.08,74.47-.02,3.28,0,4.06,1.31,4.48,4.37,2.33,17.03,4.97,34.01,7.46,51.01,1.87,12.8,3.59,25.61,5.49,38.4,2.13,14.25,4.45,28.48,6.57,42.73,1.59,10.74,2.92,21.52,4.5,32.27,1.48,10.01,3.17,19.99,4.7,29.99,1.48,9.72,2.86,19.45,4.31,29.17,2.05,13.74,4.12,27.48,6.2,41.21,1.2,7.91,1.56,15.95,3.57,23.74.57,2.22-.22,3.22-2.78,3.21-25.16-.08-50.31-.09-75.47,0-2.93.01-3.43-1.25-3.78-3.83-2.51-18.45-5.44-36.85-7.74-55.33-.72-5.77-.77-11.83-1.65-17.46-.89-5.7-2.58-11.49-2.8-17.27-.33-8.91-3.25-17.37-3.24-26.44,0-5.46-1.99-11.43-2.81-17.23-1.16-8.18-2.47-16.33-3.65-24.51-.19-1.29.26-3.12-1.26-3.43-1.78-.36-2.78,1.25-3.46,2.78-6.43,14.37-12.78,28.78-19.3,43.12-10.94,24.03-21.99,48.01-32.98,72.01-6.79,14.84-13.59,29.68-20.31,44.55-.91,2.02-1.97,3.13-4.43,3.05-5.66-.19-11.34-.26-16.99.02-3.15.16-4.7-.95-5.98-3.78-8.46-18.69-17.07-37.31-25.69-55.92-15.83-34.2-31.69-68.38-47.58-102.54-.66-1.41-.92-4.02-2.73-3.66-2,.4-2.02,3.01-2.27,4.88-.99,7.66-1.67,15.38-2.96,22.99-.52,3.08-.06,6.58-2.61,9.2-1.15,1.19.72,2,.74,3.08.07,3.78.08,7.64-2.01,10.93-.83,1.3-1.3,2.08-.27,3.4.77.99.52,2.26.23,3.39-3.37,13.33-3.08,27.16-5.7,40.64-1.64,8.44-2.19,17.21-3.32,25.82-1.7,12.96-3.51,25.91-4.97,38.9-.37,3.3-2.35,2.58-4.18,2.58-12.33.04-24.66.02-36.98.02l-.02.02Z"/>
    <path class="cls-1" d="m692.35,303.31c-28.7,0-56.33-.03-83.96.05-2.22,0-3.31-1.23-4.47-2.62-3.41-4.09-6.9-8.12-10.11-12.36-1.42-1.87-2.49-2.01-4.44-.84-18.9,11.29-39.36,18.68-61.09,21.42-21.4,2.7-43.07,2.99-64.4-.9-14.84-2.71-29.51-6.58-43.09-13.64-2.92-1.52-4.4-3.23-4.89-6.68-3.11-21.81-6.58-43.57-9.83-65.37-2.75-18.44-5.35-36.9-8.07-55.34-5.25-35.69-10.56-71.36-15.8-107.05-.55-3.76-.81-7.53-2.01-11.2-.71-2.17.13-4.03,1.93-5.74,23.25-21.93,50.82-35.13,82.16-40.52,16.56-2.85,33.35-2.9,50.04-2.01,19.11,1.02,37.82,5.19,55.37,12.72,33.14,14.21,58.68,36.97,75.52,69.34,8.52,16.37,12.74,33.65,14.85,51.75.92,7.87,2.28,15.71,1.81,23.61-1.63,27.49-5.95,54.35-21.05,78.2-1.98,3.12-.19,4.58,1.3,6.39,15.28,18.46,30.6,36.88,45.9,55.32,1.25,1.51,2.44,3.07,4.32,5.45v.02Zm-187.49-122.1c1.77-.08,2.77-.17,3.76-.17,20.16,0,40.32-.05,60.48.03,3.05.01,4.47-.46,5.17-4.13,2.01-10.57,2.95-20.94,1.91-31.81-2.15-22.43-11.84-40.58-29.61-53.86-23.62-17.64-50.25-19.68-77.25-9.99-37.2,13.35-58.03,57.96-46.17,95.81,3.58,11.42,7.63,22.63,15.81,31.52,16.3,17.71,36.63,26.97,60.87,26.56,5.2-.09,10.36-2.63,15.54-2.65,7.58-.03,13.79-3.42,20.39-6.11,3.91-1.6,4.51-2.9,1.5-6.4-10.82-12.57-21.29-25.44-32.4-38.8h0Z"/>
    <path class="cls-2" d="m902.86,7.32c27.49,0,54.98.12,82.47-.11,4.79-.04,4.9,1.85,4.33,5.56-1.1,7.12-1.92,14.29-2.69,21.46-1.4,13.07-2.72,26.15-3.96,39.24-.22,2.36-1.73,2.02-3.16,2.02-5.5.03-11,0-16.49,0-27.32,0-54.65.09-81.97-.1-4.02-.03-5.15,1.7-5.46,5.08-.7,7.71-1.15,15.46-2.34,23.09-.62,3.97.72,4.39,4.04,4.39,11.49-.02,23.02-.33,34.47.45,35.78,2.44,65.76,16,86.18,46.82,6.73,10.16,10.83,21.47,12.26,33.49,2.07,17.43,2.57,34.93-3.39,51.83-11.79,33.44-35.64,54.34-69.07,64.51-11.93,3.63-24.47,5.07-36.97,5.12-10.7.04-21.25-2.04-31.77-3.92-1.72-.31-2.86-1.24-2.52-3.02.66-3.47-.84-7.08,1.63-10.54,2.01-2.83-.48-6.38.1-9.96,1.82-11.17,2.3-22.55,3.42-33.84.53-5.38,1.32-10.74,2.02-16.1.1-.76.08-1.87.55-2.19,1.04-.7,1.82.31,2.49,1.01,7.28,7.64,16.46,10.09,26.65,9.7,18.17-.7,31.04-14.23,31.27-32.45.12-9.33-1.2-17.92-7.38-25.55-6.71-8.3-15.6-11.8-25.58-11.92-32.82-.39-65.64-.27-98.46-.23-4.05,0-5.98.19-4.92-5.47,1.97-10.46,2.21-21.24,3.35-31.86,1.19-11.09,2.72-22.14,3.88-33.23,1.18-11.27,1.96-22.59,3.15-33.86,1.12-10.59,2.63-21.13,3.82-31.72.86-7.68,1.86-15.37,2.07-23.08.11-4,1.53-4.71,5-4.69,27.66.09,55.31.05,82.97.05h0Z"/>
    <path class="cls-1" d="m743.08,118.36c0,34.82.11,69.63-.12,104.45-.03,4.77,1.47,5.64,5.84,5.62,30.82-.18,61.65-.03,92.47-.18,3.64-.02,5.13.79,4.76,4.6-.74,7.68-1.91,15.31-2.68,22.96-.74,7.35-1.79,14.68-2.29,22.04-.45,6.57-1.02,13.1-2.08,19.58-.62,3.81-2.58,5.97-6.98,5.96-33.99-.12-67.98-.08-101.97-.04-2.27,0-3.92-.4-5.53-2.37-16.8-20.44-33.69-40.81-50.71-61.07-1.9-2.26-2.24-3.87-.97-6.55,8.48-17.9,13.21-36.75,15.31-56.48,3.59-33.61-.28-65.97-14.13-96.93-2.69-6.01-5.71-11.96-9.32-17.45-2.91-4.42-3.92-8.8-3.81-13.96.26-12.32.17-24.65.03-36.98-.03-3.04.5-4.34,4-4.32,24.66.16,49.32.23,73.98-.04,5.1-.06,4.17,2.97,4.17,5.73.04,35.15.03,70.3.03,105.45v-.02Z"/>
  </g>
</svg>