<?xml version="1.0" encoding="UTF-8"?>
<svg id="Layer_2" data-name="Layer 2" xmlns="http://www.w3.org/2000/svg" viewBox="0 0 1280.12 258.31">
  <defs>
    <style>
      .cls-1 {
        fill: #818182;
      }
    </style>
  </defs>
  <g id="Layer_1-2" data-name="Layer 1">
    <path d="m484.08,217.13c0,13.32-.02,26.63-.02,39.95-90.19.01-180.37.03-270.56.04-2.16,0-4.32.08-6.48.12-7.38-7.2-13.01-15.85-19.68-23.66-7.91-9.27-15.23-19.04-22.84-28.57-10.55-13.23-21.09-26.47-31.71-39.64-8.9-11.04-17.98-21.93-26.88-32.98-10.4-12.92-20.64-25.98-31.04-38.9-8.89-11.05-17.91-21.99-26.86-33-1.07-1.31-2.01-2.72-3.77-5.12v196.2c0,1.83-.09,3.66-.15,5.49-14.62-.02-29.23-.04-43.85-.07-.04-20.32-.11-40.65-.12-60.97C.1,132.38.16,68.73,0,5.09,0,.85,1.1-.05,5.17.02,20.16.29,35.16.32,50.15,0c4.1-.09,6.49,1.71,8.7,4.47,9.16,11.42,18.29,22.87,27.42,34.32,10.35,12.97,20.65,25.98,31.04,38.92,8.78,10.93,17.82,21.65,26.48,32.67,9,11.45,18.57,22.42,27.43,34,8.62,11.27,18.1,21.87,27.01,32.93,9.11,11.3,17.62,23.1,27.05,34.12,7.78,9.09,14.83,18.75,22.67,27.77,3.59,4.13,6.92,8.51,10.22,12.89.75,1,1.38,1.71,3.06,1.72v-5.37c0-80.97.03-161.94-.09-242.91,0-4.16.65-5.54,5.29-5.53,70.98.18,141.96.16,212.93.05,3.76,0,5.07.71,4.95,4.78-.33,10.65-.32,21.33,0,31.98.12,3.95-1.19,4.52-4.74,4.51-56.15-.11-112.3-.09-168.45-.04-1.73,0-3.66-.79-5.22.71-1.01.68-.81,1.74-.81,2.71-.01,19.8-.02,39.59.01,59.39,0,1.05-.51,2.4,1,3,31.14.05,62.27.11,93.41.15,16.15.02,32.31,0,48.46,0,.38.27.77.54,1.15.81-.03,13.34-.06,26.67-.09,40.01-45.43.01-90.86.02-136.29.06-1.96,0-3.99-.48-5.89.48l-1.29,1.29c-.17.8-.48,1.59-.48,2.39-.03,20.27-.03,40.53,0,60.8,0,1.05-.51,2.4,1,3,18.32.05,36.63.14,54.95.15,40.64.02,81.28,0,121.92,0,.36.29.73.58,1.09.86l.04.04Z"/>
    <path d="m802.15,1.22c-14.93,18.67-29.82,37.38-44.81,56.01-12.95,16.1-25.99,32.11-39.02,48.14-6.09,7.49-12.21,14.96-18.41,22.37-1,1.2-.79,1.79.11,2.89,10.23,12.47,20.45,24.95,30.55,37.53,11.71,14.59,23.23,29.33,34.96,43.9,10.32,12.83,20.82,25.51,31.22,38.26,1.84,2.26,3.6,4.58,5.43,6.92-1.02,1.39-2.46.69-3.64.7-16.99.06-33.98.01-50.97.08-1.88,0-3.01-.39-4.31-2.02-15.22-19.1-30.56-38.11-45.93-57.09-14.45-17.86-29-35.64-43.46-53.49-15.38-18.98-30.72-37.99-46.03-57.03-14.9-18.51-29.75-37.06-44.62-55.61-8.42-10.51-16.82-21.03-25.98-32.49h12.76c13.66,0,27.32.18,40.98-.13,3.44-.08,5.4,1.33,7.26,3.63,10.92,13.57,21.82,27.15,32.73,40.73,12.1,15.07,24.23,30.12,36.27,45.25,2.08,2.61,3.68,2.69,5.72.07,10.8-13.86,21.79-27.57,33.02-41.1,8.92-10.75,17.29-21.96,26-32.89,3.96-4.97,8.15-9.75,12.23-14.61,8.78-.04,17.56.04,26.34-.16,3.56-.08,7.22.9,10.69-.71h20.67c-.09.33,0,.61.26.83l-.02.02Z"/>
    <path d="m941.17,257.02c-.04-34.64-.1-69.29-.12-103.93-.02-35.65-.06-71.29.08-106.94.01-3.75-.72-5.01-4.8-4.98-26.82.21-53.64,0-80.46.22-4.31.04-5.15-1.21-5.04-5.23.29-10.82.2-21.65.04-32.48-.04-2.82.74-3.59,3.57-3.59,71.96.08,143.92.08,215.88-.01,3.27,0,3.81,1.14,3.77,4.03-.15,10.99-.23,21.99.04,32.98.09,3.64-1.09,4.27-4.45,4.26-27.82-.11-55.63-.02-83.45,0-2.3,1.34-1.12,3.55-1.12,5.29-.07,70.16-.06,140.31-.06,210.47h0c-14.62-.04-29.25-.07-43.87-.11v.02Z"/>
    <path d="m536.89,258.12c10.63-13.13,20.86-25.7,31-38.34,11.6-14.45,23.1-28.97,34.68-43.43,7.01-8.76,14.1-17.46,21.14-26.19,1.5-1.87,2.93-1.22,4.1.25,6.79,8.57,13.52,17.19,20.26,25.8.09.12.06.34.16.45,2.25,2.71,6.42,4.99,5.49,8.68-.76,3-4.17,5.3-6.31,7.98-10.22,12.75-20.36,25.57-30.62,38.29-6.8,8.44-13.82,16.71-20.56,25.2-.91,1.15-1.7,1.31-2.83,1.31h-56.51Z"/>
    <path d="m1206.29,223.13c1.17,0,2.34.09,3.5-.02,3.64-.33,5.77-.18,6.84,4.78,1.77,8.22,15.39,14.13,24.78,12.12,5.56-1.19,11-2.33,15.11-6.81,6.26-6.83,3.56-14.79-3.07-18.27-8.02-4.21-16.89-5.41-25.4-7.84-9.72-2.77-19.1-6.26-24.98-15.1-8.81-13.26-3.8-31.86,11.1-39.69,17.03-8.95,34.47-8.79,51.03,1.16,7.16,4.3,11.88,11.21,12.84,20.04.29,2.64-.29,4.08-3.37,3.69-1.97-.25-3.99-.07-5.99-.04-5.07.06-9.86,1.02-11.96-6.27-1.22-4.23-6.39-6.46-11.45-7.1-6.55-.84-12.97-1.65-19.16,1.63-4.66,2.48-6.88,6.49-7.01,11.49-.12,4.81,2.66,8.08,6.84,10.31,7.29,3.87,15.36,5.06,23.21,7.04,9.79,2.47,19.41,5.9,25.46,14.44,11.52,16.27,4.25,37-15.01,44.33-14.29,5.44-28.81,5.36-43.3.13-10.67-3.85-19.98-16.27-20.33-27.32-.07-2.26.7-2.87,2.82-2.73,2.49.16,4.99.04,7.49.04h.01Z"/>
    <path d="m1178.91,148.24c.04,25.3.58,50.62-.04,75.9-.49,19.67-13.24,31.2-33.43,31.99-7.89.31-15.63-.02-22.5-4.59-7.91-5.26-12.81-12.27-12.94-22.13-.03-2.27.44-3.38,3-3.18,2.81.21,5.66.06,8.49.05,4.32-.02,8.25-1.03,9.38,5.87.83,5.07,5.66,8.63,14.6,8.15,5.84-.31,10.59-4.03,12.64-10.36.8-2.47,1.12-5.02,1.12-7.68-.06-24.64,0-49.27.03-73.91,6.55-.03,13.1-.06,19.66-.08v-.03Z"/>
    <path d="m1072.04,244.28c.07-6.66,4.74-11.21,11.46-11.15,6.97.06,11.59,4.8,11.53,11.84-.05,6.65-5.11,11.25-12.25,11.15-6.52-.1-10.81-4.83-10.74-11.84Z"/>
    <path class="cls-1" d="m207.01,257.25c2.16-.04,4.32-.12,6.48-.12,90.19-.02,180.37-.03,270.56-.04-1.13,1.93-3,.99-4.49.99-89.29.05-178.58.05-267.87.01-1.56,0-3.35.72-4.68-.84Z"/>
    <path class="cls-1" d="m985.04,257.12c0-70.16,0-140.31.06-210.47,0-1.74-1.17-3.95,1.12-5.29-.06,2.16-.18,4.32-.18,6.48,0,67.91,0,135.82-.06,203.73,0,1.84.95,3.98-.95,5.55h.01Z"/>
    <path class="cls-1" d="m306.88,148.64c1.89-.96,3.93-.47,5.89-.48,45.43-.04,90.86-.05,136.29-.06-.94,1.83-2.65,1-3.99,1-44.76.05-89.52.04-134.28.02-1.3,0-2.61-.31-3.91-.48h0Z"/>
    <path class="cls-1" d="m306.12,216.11c-1.51-.6-1-1.94-1-3-.03-20.27-.03-40.53,0-60.8,0-.8.31-1.59.48-2.39,1.01,2.74.46,5.59.47,8.39.07,19.27.05,38.53.06,57.8h0Z"/>
    <path class="cls-1" d="m306.12,107.13c-1.51-.6-1-1.95-1-3-.03-19.8-.03-39.59-.01-59.39,0-.96-.2-2.03.81-2.71.07,21.7.14,43.4.21,65.1h-.01Z"/>
    <path class="cls-1" d="m.24,257.02c14.62.02,29.23.04,43.85.07-.44,1.29-1.56,1.02-2.49,1.02-12.98.02-25.96.02-38.94,0-.92,0-2.07.29-2.41-1.09h-.01Z"/>
    <path class="cls-1" d="m941.17,257.02c14.62.03,29.25.07,43.87.1-.5,1.22-1.6.98-2.55.98-12.97.02-25.94.02-38.91,0-.92,0-2.07.29-2.41-1.09h0Z"/>
    <path class="cls-1" d="m781.21.39c-3.46,1.62-7.13.63-10.69.71-8.78.2-17.56.12-26.34.16.22-1.07,1.08-1.09,1.89-1.08,11.71.06,23.42.14,35.13.21h0Z"/>
    <path class="cls-1" d="m1178.91,148.24c-6.55.03-13.1.06-19.66.08,1.5-2.43,3.91-1.2,5.76-1.08,4.63.29,9.42-1.4,13.89,1h.01Z"/>
    <path class="cls-1" d="m802.15,1.22c-.27-.22-.36-.5-.26-.84.3.05.59.11.89.16-.21.23-.41.46-.62.68h-.01Z"/>
    <path class="cls-1" d="m449.14,108.09c-.38-.27-.77-.54-1.15-.81.75-.26,1.2-.08,1.15.81Z"/>
    <path class="cls-1" d="m484.08,217.13c-.36-.29-.73-.58-1.09-.86.82-.28,1.12.08,1.09.86Z"/>
  </g>
</svg>