<?xml version="1.0" encoding="UTF-8"?>
<svg id="Layer_1" data-name="Layer 1" xmlns="http://www.w3.org/2000/svg" viewBox="0 0 2560 689">
  <defs>
    <style>
      .cls-1 {
        fill: #030302;
      }

      .cls-2 {
        fill: #414137;
      }

      .cls-3 {
        fill: #3a5829;
      }

      .cls-4 {
        fill: #82be40;
      }

      .cls-5 {
        fill: #040c01;
      }

      .cls-6 {
        fill: #52823b;
      }

      .cls-7 {
        fill: #68a343;
      }

      .cls-8 {
        fill: #4d7837;
      }

      .cls-9 {
        fill: #404036;
      }

      .cls-10 {
        fill: #0c1a05;
      }

      .cls-11 {
        fill: #071203;
      }

      .cls-12 {
        fill: #83c040;
      }

      .cls-13 {
        fill: #81bd40;
      }

      .cls-14 {
        fill: #2d401b;
      }

      .cls-15 {
        fill: #80bc40;
      }

      .cls-16 {
        fill: #86c440;
      }

      .cls-17 {
        fill: #83bf40;
      }

      .cls-18 {
        fill: #040403;
      }

      .cls-19 {
        fill: #3f4036;
      }

      .cls-20 {
        fill: #050803;
      }

      .cls-21 {
        fill: #010101;
      }

      .cls-22 {
        fill: #050f02;
      }
    </style>
  </defs>
  <path class="cls-2" d="m1282.21,272.97c.26-1.79.75-3.59.75-5.38.03-84.37.02-168.74.01-253.11,0-.83-.07-1.66-.1-2.49,0-.66,0-1.32,0-1.97,1.38-3.34,2.75-6.67,4.13-10.01,4,0,8,0,12,0,2.14,1.71,4.09,3.76,6.45,5.08,28.14,15.84,56.34,31.57,84.52,47.34,2.76,1.54,5.45,3.22,8.28,4.63,7.87,3.93,11.96,10.29,12.58,18.98-.61,2.44-1.75,4.88-1.75,7.33-.09,116.61-.08,233.23-.08,349.84,0,43.31-.03,86.63.08,129.94,0,2.28,1.13,4.56,1.74,6.84-.54,8.38-4.85,14.3-11.97,18.41-38.09,21.96-76.2,43.88-114.26,65.89-18.59,10.75-37.1,21.66-55.64,32.49-.98.75-1.96,1.49-2.94,2.24h-15c-.64-.74-1.28-1.47-1.91-2.21-12.19-7.17-24.34-14.42-36.58-21.51-44.7-25.87-89.42-51.7-134.15-77.51-6.55-3.78-10.18-9.39-11.16-16.81.6-1.78,1.73-3.55,1.74-5.33.09-63.1.09-126.2,0-189.3,0-1.77-1.15-3.54-1.77-5.32.61-8.55,5.08-14.5,12.36-18.69,33.16-19.09,66.3-38.22,99.44-57.35,22.48-12.97,44.91-26.03,67.48-38.84,3.53-2,7.7-2.88,11.58-4.28.66,0,1.32,0,1.98,0,4,1.47,8.27,2.47,11.97,4.51,13.06,7.2,25.88,14.81,38.86,22.15,5.34,3.02,8.43,1.94,10.51-3.3.29-.76.58-1.51.88-2.26Zm-128.17,230.16l-.28.37s.28.37.28.37c1.78,2.08,3.16,4.82,5.39,6.14,17.91,10.6,36.02,20.88,53.99,31.39,3.79,2.21,7.12,1.94,10.76-.2,17.38-10.19,34.76-20.39,52.27-30.34,4.58-2.6,6.63-5.77,6.56-11.16-.25-19.49-.24-38.98,0-58.47.07-5.55-2.1-8.99-6.77-11.66-17.49-10-34.94-20.08-52.27-30.36-3.97-2.35-7.13-2.25-11.06.08-17.34,10.27-34.75,20.42-52.32,30.28-4.66,2.62-6.65,5.76-6.6,11.1.19,20.82.06,41.64.05,62.47Z"/>
  <path class="cls-2" d="m248,275.9c.96.42,1.93.84,2.89,1.26,1.04.62,2.07,1.24,3.11,1.85.64.36,1.29.73,1.93,1.09,6.02,3.59,12.05,7.18,18.07,10.78.53.09,1.06.17,1.6.26,5.8,3.55,11.6,7.1,17.4,10.65.97.45,1.93.9,2.9,1.36,1.04.62,2.07,1.23,3.1,1.85,1.29.72,2.59,1.45,3.88,2.17,1.04.62,2.08,1.23,3.11,1.85,1.29.72,2.58,1.44,3.88,2.16,3.04,1.87,6.08,3.75,9.12,5.62.97.45,1.93.9,2.9,1.35,1.04.62,2.07,1.23,3.1,1.85.86.38,1.73.76,2.59,1.15,1.46.98,2.92,1.96,4.38,2.94.65.34,1.3.68,1.95,1.02,3.69,2.26,7.38,4.52,11.07,6.78.53.09,1.06.17,1.6.26,5.8,3.55,11.6,7.1,17.4,10.65.97.45,1.94.9,2.9,1.35,1.03.62,2.07,1.23,3.1,1.85,3.32,2.69,6.64,5.38,9.96,8.06.68.98,1.36,1.96,2.04,2.94.3.66.61,1.32.91,1.98.09.66.18,1.33.27,1.99.26,7.48.74,14.95.75,22.43.04,49.97.07,99.94-.08,149.91-.09,32.3-.47,64.6-.75,96.9-.09,10.43-7.4,14.62-16.56,9.38-24.71-14.15-49.36-28.39-74.04-42.6-8.51-4.9-17.06-9.76-25.54-14.71-6.26-3.66-10.14-9-11.07-16.31.04-14.66.13-29.32.11-43.99-.03-27.66-.11-55.32-.18-82.98-.41-6.79-3.43-12.34-9.13-15.78-14.83-8.94-29.79-17.69-44.92-26.12-6.49-3.61-13.62-3.4-20.13.27-14.5,8.19-28.82,16.72-43.26,25.01-6.1,3.51-9.43,8.69-10.2,15.61-.01,41.99-.02,83.97-.03,125.96-1.39,4.3-2.78,8.59-4.17,12.89-1.36,1.36-2.72,2.72-4.08,4.07-20.39,11.64-40.8,23.27-61.18,34.94-13.88,7.95-27.73,15.94-41.58,23.95-4.04,2.33-8.04,3.25-12.1.12-.97-.98-1.94-1.97-2.91-2.96-.7-.33-1.39-.67-2.09-1,0-69,0-138,0-207,.65-1.05,1.81-2.08,1.86-3.15.2-4.89.2-9.81,0-14.7-.04-1.07-1.21-2.1-1.86-3.15,0-16,0-32,0-48v-2C0,357.33,0,356.67,0,356c1.03-.66,2.05-1.31,3.08-1.97,3.31-2.65,6.63-5.3,9.94-7.95,1.02-.69,2.04-1.37,3.06-2.06,1.32-.65,2.63-1.29,3.95-1.94,1.35-.65,2.7-1.31,4.06-1.96.98-.68,1.96-1.36,2.94-2.04.69-.31,1.39-.62,2.08-.93.97-.44,1.93-.89,2.9-1.33,2.35-1.6,4.69-3.2,7.04-4.8,0,0-.02.02-.02.02,1.35-.64,2.71-1.29,4.06-1.93.98-.68,1.96-1.36,2.94-2.04.7-.3,1.4-.6,2.1-.91,1.29-.77,2.59-1.53,3.88-2.3,4.35-2.62,8.69-5.23,13.04-7.85,0,0-.02.02-.02.02,1.35-.64,2.7-1.29,4.06-1.93.98-.68,1.96-1.36,2.94-2.04,1.67-1.02,3.35-2.04,5.02-3.06,0,0-.02.02-.02.02,2.34-1.34,4.68-2.68,7.02-4.02,0,0-.02.02-.02.02,3.69-1.98,7.37-3.95,11.06-5.93.98-.68,1.96-1.36,2.94-2.04.69-.31,1.39-.62,2.08-.93.97-.44,1.93-.89,2.9-1.33,2.35-1.6,4.69-3.2,7.04-4.8,0,0-.02.02-.02.02,1.67-.99,3.35-1.99,5.02-2.98.66-.33,1.32-.66,1.98-.99,1.35-.65,2.7-1.31,4.06-1.96.64-.37,1.28-.74,1.92-1.11,2.01-1.33,4.03-2.66,6.04-3.99,0,0-.02.02-.02.02,2.34-1.34,4.68-2.68,7.02-4.02,0,0-.02.02-.02.02,1.35-.65,2.7-1.29,4.05-1.94.98-.68,1.97-1.35,2.95-2.03,4.01-2.35,8.01-4.7,12.02-7.06,0,0-.02.02-.02.02,4.67-2.67,9.35-5.35,14.02-8.02,0,0-.02.02-.02.02.7-.29,1.39-.59,2.09-.88,1.3-.77,2.59-1.53,3.89-2.3,1.03-.58,2.07-1.15,3.1-1.73,1.97-1.04,3.94-2.08,5.91-3.12,1-.34,2-.68,3-1.02,2.97.01,5.94.03,8.91.04,1.35.36,2.7.73,4.04,1.09,1.97,1.01,3.95,2.02,5.92,3.03,1.04.62,2.08,1.23,3.11,1.85.64.37,1.28.73,1.93,1.1,3.69,2.22,7.38,4.45,11.08,6.67.97.45,1.93.9,2.9,1.36,1.04.62,2.07,1.23,3.1,1.85.86.38,1.73.76,2.59,1.15,1.46.98,2.92,1.96,4.38,2.94.65.34,1.3.68,1.95,1.03,3.69,2.26,7.38,4.53,11.07,6.79Z"/>
  <path class="cls-4" d="m2521.42,287.82c0-12.21,0-24.42,0-36.63.21-.37.42-.75.62-1.12,5.86-1.38,8.41,1.35,9.92,6.86,2.32,8.46,5.4,16.71,8.63,26.45,2.51-7.29,4.58-13.31,6.66-19.32.76-2.19,1.56-4.37,2.32-6.56q2.62-7.53,10.42-7.5v40h-5.23v-26.97c.08-1.64.17-3.28.25-4.92-.28-.03-.56-.06-.83-.09l-.99,3.05c-2.84,8.26-5.52,16.57-8.66,24.72-.67,1.73-2.98,2.82-4.54,4.2-1.08-1.39-2.62-2.62-3.17-4.19-3.11-8.86-5.98-17.8-8.94-26.71-.41-.62-.81-1.24-1.22-1.87l-.61.33c.14.59.28,1.19.42,1.78,0,9.48,0,18.96,0,28.43-.18.38-.36.75-.54,1.13-1.4.09-2.8.18-4.2.27-.1-.45-.21-.91-.31-1.36Z"/>
  <path class="cls-19" d="m0,408c.65,1.05,1.81,2.08,1.86,3.15.2,4.89.2,9.81,0,14.7-.04,1.07-1.21,2.1-1.86,3.15,0-7,0-14,0-21Z"/>
  <path class="cls-1" d="m0,636c.7.33,1.39.67,2.09,1,.66.99,1.33,1.98,1.99,2.96-1.36.01-2.72.02-4.08.03,0-1.33,0-2.67,0-4Z"/>
  <path class="cls-18" d="m1226,689c.98-.74,1.96-1.49,2.94-2.24-.31.74-.63,1.49-.94,2.24h-2Z"/>
  <path class="cls-21" d="m3.08,354.03c-1.03.66-2.05,1.31-3.08,1.97,0-.67,0-1.33,0-2,1.03.01,2.05.02,3.08.03Z"/>
  <path class="cls-1" d="m1209.09,686.79c.64.74,1.28,1.47,1.91,2.21h-2l.09-2.21Z"/>
  <path class="cls-2" d="m1538.95,467.24c0-32.16.14-64.32-.09-96.47-.07-9.38,3.82-15.91,11.7-20.46,45.87-26.48,91.75-52.95,137.62-79.44,9.81-5.66,19.63-11.3,29.37-17.09,8.68-5.16,17.11-5.22,25.93-.08,55.11,32.13,110.29,64.16,165.48,96.16,8.19,4.75,12.52,11.26,12.24,21.14-.43,14.98-.18,29.99-.09,44.98.05,8.45-3.48,14.69-10.76,18.92-33.41,19.42-66.79,38.9-100.21,58.3-8.95,5.19-16.97.56-17.06-9.89-.12-14.83-.21-29.66.04-44.49.1-5.92-2.34-9.7-7.29-12.53-16.34-9.34-32.65-18.73-48.86-28.3-5.26-3.11-9.81-3.38-15.3-.07-16.13,9.7-32.51,18.98-48.9,28.24-5.51,3.11-8,7.18-7.88,13.72.34,18.32.37,36.66-.01,54.98-.15,6.94,2.54,11.3,8.31,14.58,23.6,13.43,47.13,26.97,70.68,40.48,32.22,18.48,64.46,36.93,96.64,55.49,10.15,5.85,10.15,14.45-.04,20.16-32.99,18.48-66.08,36.77-99.08,55.23-8.48,4.74-16.43,3.85-24.59-.83-27.16-15.59-54.4-31.03-81.61-46.53-27.79-15.83-55.5-31.8-83.4-47.42-8.78-4.92-12.96-11.72-12.9-21.8.19-32.32.07-64.65.07-96.97Z"/>
  <path class="cls-16" d="m2245.99,656.14c49.32-28.42,98.64-56.84,147.97-85.25,3.58-2.06,7.25-3.97,10.88-5.95.38-.24.75-.47,1.13-.71.24-.22.52-.32.85-.31.39-.3.78-.61,1.18-.91.88-2.91,2.52-5.82,2.53-8.74.15-59.83.08-119.66.17-179.49,0-4.38-1.7-6.97-5.46-9.13-52.02-29.9-103.99-59.88-155.89-89.98-3.92-2.27-6.88-2.2-10.76.06-51.49,29.84-103.08,59.51-154.6,89.3-2.22,1.28-4.03,3.26-6.03,4.91-.15.39-.3.77-.45,1.16-.09,1.83-.25,3.65-.25,5.48-.01,58.99.04,117.99-.1,176.98-.01,5.08,1.54,8.17,6.1,10.71,13.22,7.35,26.11,15.28,39.23,22.82,7.09,4.07,14.62,6.49,23,4.99,8.78-1.57,14.1-6.87,16.81-15.12.2-.45.39-.91.59-1.36.03-61.29.06-122.57.1-183.86,0-8.12.62-8.73,8.8-8.74,4.83,0,9.68-.28,14.48.13,1.99.17,3.85,1.82,5.78,2.8.01,62.06.02,124.12.03,186.18.49,13.09-1.94,25.33-10.85,35.51-7.32,8.37-16.68,12.77-27.77,13.49-1.15.23-2.29.46-3.44.69-.67.12-1.34.24-2.01.36-2.67,0-5.33,0-8,0-.68-.11-1.35-.23-2.03-.34-1.39-.25-2.78-.5-4.17-.75-6.91-2.12-14.34-3.23-20.61-6.54-16.88-8.89-33.42-18.48-49.8-28.28-8.9-5.32-13.2-14.05-14.39-24.21-.41-3.5-.25-7.08-.25-10.62-.01-58.63.16-117.27-.12-175.9-.08-16.31,6.44-27.57,20.65-35.68,51.93-29.65,103.6-59.76,155.37-89.7,12.83-7.42,25.83-7.26,38.47,0,52.59,30.21,105.06,60.61,157.56,90.95,9.18,5.31,15.81,12.57,17.43,23.51-.03,1.17-.05,2.35-.08,3.52.31.63.63,1.25.94,1.88.06,14.99.16,29.97.16,44.96-.01,48.3.06,96.6-.19,144.89-.07,12.67-6.56,22.06-17.43,28.34-31.06,17.96-62.15,35.87-93.25,53.77-21.59,12.44-43.27,24.73-64.79,37.29-13.28,7.75-26.15,7.81-39.38-.23-16.47-10.01-33.21-19.56-49.79-29.37-2.23-1.32-4.24-3-6.69-4.75,1.09-1.02,1.57-1.73,2.24-2.04,8.59-3.92,17.14-7.94,25.86-11.51,1.65-.67,4.37-.11,6.03.85,13.5,7.85,26.86,15.94,40.27,23.95.31.05.63.11.94.16.7,0,1.4,0,2.1-.01.31-.06.62-.11.94-.17Z"/>
  <path class="cls-16" d="m2279.03,556.31c-4.66-.44-9.32-.89-13.99-1.33-.22-.32-.49-.39-.81-.19-1.44-.26-2.89-.51-4.33-.77,0,0-.26-.25-.26-.25l-.33.11c-12.7-3.5-25.27-7.47-35.06-16.81-7.11-6.79-12.89-14.61-13.44-25.06-.42-.61-.85-1.22-1.27-1.82-.51-3.64-1.35-7.26-1.46-10.91-.16-5.55,2.22-7.02,7.9-6.44,4.58.46,9.26.38,13.86.11,7.01-.4,7.49-.19,9.33,7.07l.08,2.97c-.03.34-.06.67-.09,1.01.04,1.01.07,2.01.11,3.02,1.82,2.48,3.67,4.94,5.47,7.43,5.9,8.17,14.78,11.14,23.99,12.33,11.04,1.43,22.28,2.38,33.37,1.95,8.57-.33,17.25-2.44,25.52-4.95,8.83-2.67,13.82-9.35,14.55-18.81,0-1.32.01-2.64.02-3.96-.43-6-3.87-10.13-9.2-11.81-9.2-2.9-18.66-4.97-28.02-7.39-.85-.23-1.71-.46-2.56-.69-2.49-.03-4.97-.06-7.46-.1-.65-.2-1.31-.41-1.96-.61-.64-.14-1.29-.29-1.93-.43-.35-.27-.7-.54-1.05-.8-3.85-.06-7.74.18-11.55-.23-13.31-1.44-26.37-4.05-38.82-9.17-12.75-5.24-21.41-14.18-24.82-27.79-.03-.32-.06-.64-.09-.97.91-3.46.61-6.8-.98-10.02,0-.34,0-.67,0-1.01.15-2.01.3-4.02.46-6.03.23-.86.45-1.73.68-2.59,1.15-11.07,6.44-19.95,14.93-26.84,11.67-9.47,25.13-14.37,40.2-14.73l.99-.81c1.44-.06,2.88-.12,4.32-.17,1.23-.21,2.45-.43,3.67-.64,5.35,0,10.69-.01,16.04-.02,1.34.27,2.69.54,4.03.81,1.67-.06,3.34-.12,5.01-.19.96.44,1.93.88,2.89,1.32,31.42-2.13,57.58,20.3,60.52,51.92.13,1.4.18,2.81.26,4.22-.22.26-.44.52-.67.78-3.55,3.54-8.05,3.01-12.47,3-14.35-.04-14.44.02-19.54-12.81-4.68-11.76-13.97-17.08-25.77-19.23-2.01-.37-3.91-1.34-5.88-2-1.04-.35-2.33-1.16-3.14-.84-8.78,3.5-17.51,2.36-26.26.05-1.63.95-3.27,1.91-4.9,2.86-10.16,1.02-19.62,5.51-22.09,15.06-.33.16-.4.39-.22.69-2.45,9.55.16,15.23,8.34,18.17.95.29,1.89.58,2.84.87,9.15,2.01,18.28,4.07,27.44,6,2.5.53,5.1.64,7.65.94.98.36,1.95.72,2.93,1.08,2.66-.88,5.32-1.75,7.98-2.63.83,1.22,1.66,2.43,2.48,3.65,2.85.29,5.7.58,8.55.88.32.03.65.05.97.08,11.24,3.09,22.64,5.7,33.67,9.43,8.41,2.84,14.99,8.71,19.59,16.49.82,1.39,1.47,2.88,2.2,4.33.2.61.39,1.22.59,1.83.7,6.71,1.39,13.43,2.09,20.14-.65.99-1.3,1.98-1.95,2.97.3.66.59,1.32.89,1.97.24.25.49.49.73.74-.17.76-.34,1.53-.51,2.29-.04.33-.07.65-.11.98-5.24,19.92-19.35,30.75-37.91,37.02-1.1.37-2.19.76-3.28,1.15-.93.3-1.87.6-2.8.9-1.16.27-2.32.55-3.48.82,0,0-.34-.11-.34-.11l-.27.25c-1.48.3-2.96.6-4.44.9,0,0-.3-.13-.3-.13l-.24.23c-2.16.31-4.32.61-6.48.92,0,0-.29-.14-.29-.14l-.25.22c-11.01.32-22.03.64-33.04.96-.34-.22-.68-.45-1.03-.67Z"/>
  <path class="cls-16" d="m1728.02,508.12c-9.89-5.74-19.8-11.44-29.65-17.26-1.64-.97-3-2.43-4.49-3.66-.03-13.53-.07-27.07-.1-40.6.47-.65.79-1.54,1.42-1.91,10.72-6.32,21.43-12.68,32.31-18.71,1.5-.83,4.32-.6,5.9.28,10.15,5.65,20.21,11.49,30.07,17.62,1.72,1.07,3.31,3.83,3.37,5.85.32,11.47.3,22.96.01,34.44-.05,1.9-1.53,4.54-3.14,5.51-10.82,6.48-21.85,12.59-32.82,18.82-.96-.12-1.92-.25-2.88-.37Z"/>
  <path class="cls-9" d="m1410.82,569.97c-.61-2.28-1.74-4.56-1.74-6.84-.11-43.31-.08-86.63-.08-129.94,0-116.61-.01-233.23.08-349.84,0-2.44,1.15-4.88,1.75-7.33.05,2.33.16,4.66.16,6.99,0,159.99,0,319.97,0,479.96,0,2.33-.11,4.66-.17,6.99Z"/>
  <path class="cls-12" d="m2497.39,287.86c-.02-10.92-.04-21.83-.07-32.75-.16-.31-.33-.62-.49-.93-4.09,0-8.18,0-12.72,0,0-1.64,0-2.87,0-4.1.36-.22.72-.44,1.08-.67,9.87,0,19.74,0,29.62,0,.4.19.8.38,1.2.57v3.93h-13.07c0,8.83,0,17.21,0,25.6,0,2.16-.02,4.31,0,6.47.04,3.95-1.67,5.04-5.2,3.24-.12-.45-.24-.9-.36-1.36Z"/>
  <path class="cls-7" d="m2192.07,572.12c-.01-62.06-.02-124.12-.03-186.18.32,1.56.92,3.13.92,4.69.05,58.95.05,117.9,0,176.85,0,1.55-.58,3.1-.89,4.65Z"/>
  <path class="cls-7" d="m1693.78,446.59c.03,13.53.07,27.07.1,40.6-.3-1.4-.84-2.79-.85-4.19-.07-10.72-.07-21.44,0-32.16,0-1.42.49-2.83.76-4.25Z"/>
  <path class="cls-21" d="m2140,622.17c2.67,0,5.33,0,8,0-2.91,3.74-4.47,3.74-8,0Z"/>
  <path class="cls-11" d="m2269.11,408.03c1.63-.95,3.27-1.91,4.9-2.86-1.63.95-3.27,1.91-4.9,2.86Z"/>
  <path class="cls-15" d="m2306.47,451.86c-.83-1.22-1.66-2.44-2.48-3.65.83,1.22,1.66,2.44,2.48,3.65Z"/>
  <path class="cls-14" d="m2553.19,261.08l.99-3.05c.28.03.56.06.83.09-.08,1.64-.17,3.28-.25,4.92-.53-.65-1.05-1.3-1.58-1.95Z"/>
  <path class="cls-10" d="m2372.17,508.01c.65-.99,1.3-1.98,1.95-2.97-.65.99-1.3,1.98-1.95,2.97Z"/>
  <path class="cls-11" d="m2296.01,450.84c-.98-.36-1.95-.72-2.93-1.08.98.36,1.95.72,2.93,1.08Z"/>
  <path class="cls-10" d="m2239.27,507.01c-.04-1.01-.07-2.01-.11-3.02.04,1.01.07,2.01.11,3.02Z"/>
  <path class="cls-11" d="m2306.96,380.11c-.96-.44-1.93-.88-2.89-1.32.96.44,1.93.88,2.89,1.32Z"/>
  <path class="cls-12" d="m2299.06,378.98c-1.34-.27-2.69-.54-4.03-.81,1.34.27,2.69.54,4.03.81Z"/>
  <path class="cls-22" d="m2438.99,370c-.31-.63-.63-1.25-.94-1.88.28-.07.57-.13.86-.16.03.68.06,1.36.09,2.04Z"/>
  <path class="cls-13" d="m2133.81,621.07c1.39.25,2.78.5,4.17.75-1.39-.25-2.78-.5-4.17-.75Z"/>
  <path class="cls-10" d="m2209.53,510.19c.42.61.85,1.22,1.27,1.82-.42-.61-.85-1.22-1.27-1.82Z"/>
  <path class="cls-4" d="m2342.19,501.02c0,1.32-.02,2.64-.02,3.96,0-1.32.01-2.64.02-3.96Z"/>
  <path class="cls-8" d="m2526.48,259.35c-.14-.59-.28-1.19-.42-1.78l.61-.33c.41.62.81,1.24,1.22,1.87-.47.08-.94.16-1.4.25Z"/>
  <path class="cls-17" d="m2438.9,367.97c-.29.03-.57.09-.86.16.03-1.17.05-2.35.08-3.52.26,1.12.52,2.24.78,3.36Z"/>
  <path class="cls-5" d="m1728.02,508.12c.96.12,1.92.25,2.88.37-.96-.12-1.92-.25-2.88-.37Z"/>
  <path class="cls-17" d="m2150.02,621.8c1.15-.23,2.29-.46,3.44-.69-1.15.23-2.29.46-3.44.69Z"/>
  <path class="cls-22" d="m2292.99,480.41c.65.2,1.31.41,1.96.61-.65-.2-1.31-.41-1.96-.61Z"/>
  <path class="cls-11" d="m2329.19,553.06c.93-.3,1.87-.6,2.8-.9-.93.3-1.87.6-2.8.9Z"/>
  <path class="cls-10" d="m2239.25,502.98l-.08-2.97c.03.99.05,1.98.08,2.97Z"/>
  <path class="cls-11" d="m2257.99,442.83c-.95-.29-1.89-.58-2.84-.87.95.29,1.89.58,2.84.87Z"/>
  <path class="cls-15" d="m2278.99,378.18c-1.22.21-2.45.43-3.67.64,1.22-.21,2.45-.43,3.67-.64Z"/>
  <path class="cls-4" d="m2214.88,421.37c-.23.86-.45,1.73-.68,2.59.23-.86.45-1.73.68-2.59Z"/>
  <path class="cls-22" d="m2213.74,429.99c0,.34,0,.67,0,1.01,0-.34,0-.67,0-1.01Z"/>
  <path class="cls-13" d="m2302.41,481.12c.85.23,1.71.46,2.56.69-.85-.23-1.71-.46-2.56-.69Z"/>
  <path class="cls-10" d="m2372.04,484.9c-.2-.61-.39-1.22-.59-1.83.2.61.39,1.22.59,1.83Z"/>
  <path class="cls-6" d="m2497.39,287.86c.12.45.24.9.36,1.36-.12-.45-.24-.9-.36-1.36Z"/>
  <path class="cls-6" d="m2496.84,254.18c.16.31.33.62.49.93-.16-.31-.33-.62-.49-.93Z"/>
  <path class="cls-22" d="m2367.07,437.02c.22-.26.44-.52.67-.78-.22.26-.44.52-.67.78Z"/>
  <path class="cls-10" d="m2373.8,510.73c-.24-.25-.49-.49-.73-.74.24.25.49.49.73.74Z"/>
  <path class="cls-10" d="m2373.18,513.99c.04-.33.07-.65.11-.98-.04.33-.07.65-.11.98Z"/>
  <path class="cls-8" d="m2525.93,288.91c.18-.38.36-.75.54-1.13-.18.38-.36.75-.54,1.13Z"/>
  <path class="cls-22" d="m2259.3,553.88l.33-.11s.26.25.26.25c-.2-.03-.4-.08-.59-.14Z"/>
  <path class="cls-11" d="m2325.1,554.02l.27-.25s.34.11.34.11c-.2.07-.4.12-.61.14Z"/>
  <path class="cls-22" d="m2264.23,554.79c.33-.19.6-.13.81.19-.28-.02-.55-.09-.81-.19Z"/>
  <path class="cls-11" d="m2320.12,555.03l.24-.23s.3.13.3.13c-.18.05-.36.09-.54.1Z"/>
  <path class="cls-11" d="m2313.09,556.02l.25-.22s.29.14.29.14c-.18.05-.36.07-.54.08Z"/>
  <path class="cls-22" d="m2279.03,556.31c.34.22.68.45,1.03.67-.34-.22-.68-.45-1.03-.67Z"/>
  <path class="cls-4" d="m2408,563.02c-.39.3-.78.61-1.18.91.39-.3.78-.61,1.18-.91Z"/>
  <path class="cls-4" d="m2405.97,564.24c-.38.24-.75.47-1.13.71.38-.24.75-.47,1.13-.71Z"/>
  <path class="cls-4" d="m2162.89,575.6c-.2.45-.39.91-.59,1.36.2-.45.39-.91.59-1.36Z"/>
  <path class="cls-8" d="m2522.05,250.07c-.21.37-.42.75-.62,1.12.21-.37.42-.75.62-1.12Z"/>
  <path class="cls-22" d="m2290.01,479.17c.35.27.7.54,1.05.8-.35-.27-.7-.54-1.05-.8Z"/>
  <path class="cls-11" d="m2315.99,452.82c-.32-.03-.65-.05-.97-.08.32.03.65.05.97.08Z"/>
  <path class="cls-11" d="m2246.8,423.78c-.18-.3-.11-.53.22-.69-.04.24-.11.47-.22.69Z"/>
  <path class="cls-8" d="m2516.02,249.98c-.4-.19-.8-.38-1.2-.57.4.19.8.38,1.2.57Z"/>
  <path class="cls-8" d="m2485.2,249.41c-.36.22-.72.44-1.08.67.36-.22.72-.44,1.08-.67Z"/>
  <path class="cls-4" d="m2242.96,656.32c-.31-.05-.63-.11-.94-.16.34-.13.66-.07.94.16Z"/>
  <path class="cls-4" d="m2245.99,656.14c-.31.06-.62.11-.94.17.28-.23.59-.29.94-.17Z"/>
  <path class="cls-8" d="m2521.42,287.82c.1.45.21.91.31,1.36-.1-.45-.21-.91-.31-1.36Z"/>
  <path class="cls-11" d="m2271,379l-.99.81.99-.81Z"/>
  <path class="cls-3" d="m2077.51,371.1c.15-.39.3-.77.45-1.16-.15.39-.3.77-.45,1.16Z"/>
  <path class="cls-22" d="m2214.73,441.02c.03.32.06.64.09.97-.07-.21-.16-.42-.2-.64-.02-.1.07-.22.1-.33Z"/>
  <path class="cls-16" d="m711.06,684.16c-6.31,2.22-11.96.52-17.51-2.69-44.01-25.47-88.04-50.89-132.08-76.31-12.23-7.06-24.51-14.05-36.72-21.15-8.3-4.83-12.14-11.99-10.9-21.68.15-1.15.02-2.33.02-3.5,0-62.49.1-124.97-.1-187.46-.03-10.92,3.97-18.24,13.68-23.77,55.41-31.53,110.59-63.47,165.83-95.3,8.19-4.72,16.35-4.84,24.52-.11,37.12,21.46,74.2,42.97,111.34,64.38,18.11,10.44,36.24,20.85,54.49,31.04,9.44,5.27,13.96,12.92,13.95,23.73-.09,64.49-.05,128.97-.05,193.46-.14.43-.27.86-.41,1.3.29,8.21-3.79,13.93-10.56,17.86-56.29,32.57-112.61,65.09-168.95,97.59-1.39.8-3.06,1.1-4.6,1.63-.65.33-1.3.66-1.95.99Z"/>
  <path class="cls-9" d="m1027.15,371.02c.61,1.77,1.76,3.54,1.77,5.32.09,63.1.09,126.2,0,189.3,0,1.78-1.13,3.56-1.74,5.33-.06-2.16-.18-4.33-.18-6.49,0-62.32,0-124.64,0-186.96,0-2.16.1-4.33.15-6.49Z"/>
  <path class="cls-1" d="m255.81,439.02c.06,27.66.15,55.32.18,82.98.02,14.66-.07,29.33-.11,43.99-.95-1.95-2.73-3.9-2.74-5.85-.16-38.4-.16-76.81,0-115.21,0-1.97,1.74-3.93,2.67-5.9Z"/>
  <path class="cls-1" d="m128.12,563.98c.01-41.99.02-83.97.03-125.96.61,1.77,1.76,3.54,1.76,5.32.1,38.45.1,76.9,0,115.35,0,1.77-1.17,3.53-1.79,5.3Z"/>
  <path class="cls-21" d="m274,290.89c-6.02-3.59-12.05-7.18-18.07-10.78,3.62,1.41,7.51,2.38,10.78,4.36,2.7,1.64,7.22,1.67,7.29,6.42Z"/>
  <path class="cls-21" d="m292.99,301.8c-5.8-3.55-11.6-7.1-17.4-10.65,7.1,1.42,13.07,4.7,17.4,10.65Z"/>
  <path class="cls-21" d="m115.05,287.07c-1.67.99-3.35,1.99-5.02,2.98.79-2.48,2.03-4.21,5.02-2.98Z"/>
  <path class="cls-21" d="m363.99,342.8c-5.8-3.55-11.6-7.1-17.4-10.65,7.1,1.42,13.07,4.7,17.4,10.65Z"/>
  <path class="cls-21" d="m169.05,256.03c-4.67,2.67-9.35,5.35-14.02,8.02,3.2-5.25,8.46-6.89,14.02-8.02Z"/>
  <path class="cls-21" d="m65.05,316.03c-4.35,2.62-8.69,5.23-13.04,7.85,2.82-5.15,7.59-7.07,13.04-7.85Z"/>
  <path class="cls-21" d="m248,275.9c-3.69-2.26-7.38-4.53-11.07-6.79,4.75-.3,9.75,2.77,11.07,6.79Z"/>
  <path class="cls-21" d="m221.99,260.8c-3.69-2.22-7.38-4.45-11.08-6.67,3.79-.65,9.67,2.89,11.08,6.67Z"/>
  <path class="cls-21" d="m345,331.89c-3.69-2.26-7.38-4.52-11.07-6.78,4.84-.22,9.68,2.74,11.07,6.78Z"/>
  <path class="cls-21" d="m95.08,299.12c-3.69,1.98-7.37,3.95-11.06,5.93,2.48-4.21,6.01-6.5,11.06-5.93Z"/>
  <path class="cls-21" d="m155.05,264.03c-4.01,2.35-8.01,4.7-12.02,7.06,2.95-4.15,6.95-6.51,12.02-7.06Z"/>
  <path class="cls-21" d="m318.99,316.81c-3.04-1.88-6.08-3.75-9.12-5.62,4.29-.15,7.92.76,9.12,5.62Z"/>
  <path class="cls-21" d="m39.05,331.03c-2.35,1.6-4.69,3.2-7.04,4.8.42-4.43,3.96-4.27,7.04-4.8Z"/>
  <path class="cls-21" d="m136.05,275.03c-2.34,1.34-4.68,2.68-7.02,4.02.98-3.72,3.96-3.94,7.02-4.02Z"/>
  <path class="cls-21" d="m110.05,290.03c-2.35,1.6-4.69,3.2-7.04,4.8.42-4.43,3.96-4.27,7.04-4.8Z"/>
  <path class="cls-21" d="m84.05,305.03c-2.34,1.34-4.68,2.68-7.02,4.02,2.34-1.34,4.68-2.68,7.02-4.02Z"/>
  <path class="cls-21" d="m129.05,279.03c-2.01,1.33-4.03,2.66-6.04,3.99,2.01-1.33,4.03-2.66,6.04-3.99Z"/>
  <path class="cls-21" d="m121.08,284.12c-1.35.65-2.7,1.31-4.06,1.96.59-2.23,1.6-3.59,4.06-1.96Z"/>
  <path class="cls-1" d="m119.87,580.95c1.36-1.36,2.72-2.72,4.08-4.07-1.36,1.36-2.72,2.72-4.08,4.07Z"/>
  <path class="cls-21" d="m24.08,340.12c-1.35.65-2.7,1.31-4.06,1.96.59-2.23,1.6-3.59,4.06-1.96Z"/>
  <path class="cls-21" d="m77.05,309.03c-1.67,1.02-3.35,2.04-5.02,3.06,1.67-1.02,3.35-2.04,5.02-3.06Z"/>
  <path class="cls-21" d="m331.97,324.09c-1.46-.98-2.92-1.96-4.38-2.94,1.46.98,2.92,1.96,4.38,2.94Z"/>
  <path class="cls-21" d="m381.99,357.01c-.68-.98-1.36-1.96-2.04-2.94,2.98-.61,2.64,1.07,2.04,2.94Z"/>
  <path class="cls-21" d="m43.08,329.13c-1.35.64-2.71,1.29-4.06,1.93,1.35-.64,2.71-1.29,4.06-1.93Z"/>
  <path class="cls-21" d="m69.08,314.12c-1.35.64-2.7,1.29-4.06,1.93,1.35-.64,2.7-1.29,4.06-1.93Z"/>
  <path class="cls-21" d="m140.08,273.12c-1.35.65-2.7,1.29-4.05,1.94,1.35-.65,2.7-1.29,4.05-1.94Z"/>
  <path class="cls-21" d="m234.97,268.09c-1.46-.98-2.92-1.96-4.38-2.94,1.46.98,2.92,1.96,4.38,2.94Z"/>
  <path class="cls-21" d="m325,320c-1.03-.62-2.07-1.23-3.1-1.85,1.03.62,2.07,1.23,3.1,1.85Z"/>
  <path class="cls-21" d="m228,264c-1.03-.62-2.07-1.23-3.1-1.85,1.03.62,2.07,1.23,3.1,1.85Z"/>
  <path class="cls-21" d="m305.99,309.02c-1.04-.62-2.07-1.23-3.11-1.85,1.04.62,2.07,1.23,3.11,1.85Z"/>
  <path class="cls-21" d="m370,346c-1.03-.62-2.07-1.24-3.1-1.85,1.03.62,2.07,1.23,3.1,1.85Z"/>
  <path class="cls-21" d="m253.99,279.02c-1.04-.62-2.07-1.24-3.11-1.85,1.04.62,2.07,1.24,3.11,1.85Z"/>
  <path class="cls-21" d="m299,305c-1.03-.62-2.07-1.23-3.1-1.85,1.03.62,2.07,1.23,3.1,1.85Z"/>
  <path class="cls-21" d="m208.99,253.03c-1.04-.62-2.07-1.24-3.11-1.85,1.04.62,2.07,1.23,3.11,1.85Z"/>
  <path class="cls-21" d="m178.1,251.15c-1.03.58-2.07,1.15-3.1,1.73,1.03-.58,2.07-1.15,3.1-1.73Z"/>
  <path class="cls-21" d="m199.96,248.14c-1.35-.36-2.69-.73-4.04-1.09,1.35.36,2.69.73,4.04,1.09Z"/>
  <path class="cls-9" d="m4.08,639.97c-.66-.99-1.33-1.98-1.99-2.96.97.99,1.94,1.97,2.91,2.96,0,0-.46.01-.46.01,0,0-.46,0-.46,0Z"/>
  <path class="cls-21" d="m187.01,247.01c-1,.34-2,.68-3,1.02,1-.34,2-.68,3-1.02Z"/>
  <path class="cls-21" d="m16.08,344.03c-1.02.69-2.04,1.37-3.06,2.06,1.02-.69,2.04-1.37,3.06-2.06Z"/>
  <path class="cls-21" d="m1282.21,272.97c-.29.75-.59,1.51-.88,2.26.29-.75.59-1.51.88-2.26Z"/>
  <path class="cls-1" d="m1282.87,10.01c0,.66,0,1.32,0,1.97,0-.66,0-1.32,0-1.97Z"/>
  <path class="cls-21" d="m383.17,360.98c-.09-.66-.18-1.33-.27-1.99.09.66.18,1.33.27,1.99Z"/>
  <path class="cls-22" d="m711.06,684.16c.65-.33,1.3-.66,1.95-.99-.65.33-1.3.66-1.95.99Z"/>
  <path class="cls-18" d="m1219.99,251.87c-.66,0-1.32,0-1.98,0,.66,0,1.32,0,1.98,0Z"/>
  <path class="cls-21" d="m29.11,337.16c-.69.31-1.39.62-2.08.93.69-.31,1.39-.62,2.08-.93Z"/>
  <path class="cls-21" d="m48.12,326.18c-.7.3-1.4.6-2.1.91.7-.3,1.4-.6,2.1-.91Z"/>
  <path class="cls-21" d="m100.11,296.16c-.69.31-1.39.62-2.08.93.69-.31,1.39-.62,2.08-.93Z"/>
  <path class="cls-21" d="m171.12,255.18c-.7.29-1.39.59-2.09.88.7-.29,1.39-.59,2.09-.88Z"/>
  <path class="cls-8" d="m897.12,566.1c.14-.43.27-.86.41-1.3-.14.43-.27.86-.41,1.3Z"/>
  <path class="cls-20" d="m1154.04,503.13c0,.25,0,.5,0,.74,0,0-.28-.37-.28-.37l.28-.37Z"/>
</svg>