<?xml version="1.0" encoding="UTF-8"?>
<svg id="Layer_2" data-name="Layer 2" xmlns="http://www.w3.org/2000/svg" viewBox="0 0 1994.1 2096.69">
  <defs>
    <style>
      .cls-1 {
        fill: #fff;
      }

      .cls-2 {
        fill: #3673a5;
      }

      .cls-3 {
        fill: #ffd342;
      }
    </style>
  </defs>
  <g id="Layer_1-2" data-name="Layer 1">
    <path class="cls-3" d="m1145.43,999.79h-232c-2.7,0-5.3.1-8,0-3.8-.2-5.3,1.5-5.3,5.3.1,12,.1,24,0,36,0,3.4,1.7,4.7,4.9,4.7,2.7-.1,5.3,0,8,0h303c2.3,0,4.7.2,7,0,5.4-.6,6.7,2.1,6.7,7,.1,52.3.6,104.5.3,156.8-.1,20.3-9.2,37.7-21.1,53.7-13,17.4-30.2,29.7-48.8,40.1-36.9,20.6-77.3,30.9-118.6,37.9-22.6,3.8-45.5,5.3-68.3,7.2-33.6,2.8-67.2,3.1-100.7,2.1-33.8-1-67.5-4-100.9-10-26.8-4.8-53.1-11.6-78.7-20.9-22.3-8.1-43.1-19-61.9-33.2-10.1-7.6-19.8-15.8-27.7-26.5-9.1-12.3-17.2-24.8-23.1-38.7-3.1-7.3-5.1-14.8-5.8-22.7-1.1-12.5-.8-25.1-.8-37.6.3-98.9.1-197.8.2-296.7,0-21.9,2.7-43.6,10.8-64,6.3-15.8,15.2-30.3,26.2-43.9,16.4-20.2,37.3-33.8,60.5-43.8,19.5-8.4,40.1-13.5,61.3-16.2,12.3-1.6,24.5-1.7,36.8-1.7h314c23.4,0,46.4-2.5,68.8-9.7,17.1-5.5,32.9-13.3,47.3-23.6,22.7-16.2,39.9-37.2,51.6-62.5,8.3-17.9,13.1-36.8,17.5-56.1,4.2-18.4,5.1-36.6,5.1-55.2v-132.9c0-2-.1-4,0-6,.2-7.5.2-7.7,8-7.7,37.3-.1,74.7-.8,112,0,27.5.6,52.4,10.6,75.3,25.5,28.6,18.6,49.4,44.1,65.3,73.7,19.7,36.5,30.9,75.8,37.7,116.5,4.7,28.2,7.1,56.5,8.6,85,.9,18.3,1.6,36.6.9,54.8-2.3,56.1-8.7,111.5-29.3,164.4-16.8,43-41.3,80.4-79.9,106.7-29.6,20.1-62.4,32-98.8,32-76.2.2-152.1.2-228.1.2h0Zm-57.8,128.2c-30.1,1-58.5,22-58.7,59.3-.2,32.9,23.7,59.4,59.8,59,34.8-.4,58.8-25.6,58.2-59.6-.5-39.4-30.7-58-59.3-58.7Z"/>
    <path class="cls-2" d="m869.43,655.69h-160c-14.6,0-28.7,2.5-43.1,5.7-16.3,3.6-31.7,8.8-46.4,16.3-20.7,10.6-36.6,26-50.9,44.3-17.8,22.7-27.5,48.4-34.1,75.7-3.4,14.2-5.3,28.7-5.3,43.3v155.8c0,2.3-.1,4.7,0,7,.2,3.8-1.3,5.6-5.2,5.4-2.3-.1-4.7,0-7,0-35,0-70-.1-105,.1-8.7,0-17.6-.5-25.7-2.2-18.3-3.9-35.8-10.8-51.7-21.3-26.1-17.3-45.9-40-62-66.7-17.9-29.5-28.2-61.7-36.7-94.8-5.4-20.7-7.2-41.8-9.8-62.9-3.8-30-5.2-60.2-4.9-90.5.3-29.6,1.9-59,5.9-88.4,2.7-19.7,5.2-39.5,10.8-58.6,5.2-17.6,10.1-35.5,19.1-51.8,6.8-12.3,12.2-25.4,20.2-37.2,20.4-30.1,46.7-53.2,79.6-68.4,23.1-10.6,47.6-16.1,73.2-16.1h461c11.9-.1,10.7,1.3,10.8-10.6.1-9.7-.2-19.3.1-29,.1-4.9-1.1-7.6-6.6-7-2.6.3-5.3,0-8,0h-302c-13.5,0-12.1,1.6-12.1-12.4,0-44-.1-87.9.1-131.9,0-8.5-1.5-16.8-.5-25.5,1.9-17.7,9.3-32.6,19.3-46.4,13.7-19,32.3-31.8,53.2-42.2,13.4-6.6,26.6-13.5,40.8-18.2,19.1-6.2,38.5-11.4,58.4-14.9,14.3-2.5,28.5-4.8,42.9-6.4,12.2-1.4,24.4-2.6,36.6-3.7C857.03-.61,889.63,0,922.23.19c34.2.3,68.5,2.5,102.1,9,25.5,4.9,51,10.6,75.6,19.2,28.2,9.9,55.2,22.5,78.1,41.7,28.2,23.6,46.7,53.6,51.4,90.8.3,2.6.1,5.3.1,8,0,103.9.3,207.8-.2,311.7-.2,33.2-6.8,65.2-24.6,94.1-14.1,22.9-33.1,40.6-56.6,53.5-16.7,9.2-34.4,15.6-52.9,20.3-18.8,4.8-37.8,6.5-56.9,6.7-56.3.8-112.6.4-168.9.5h0Zm-154.9-433.2c32.8,0,59.7-26.6,59.7-59.4-.1-33.2-27.3-59.6-59.8-59-32.6.6-58.4,26.4-58.8,59.1-.5,34.9,28.3,58.7,58.9,59.3h0Z"/>
    <path class="cls-2" d="m53.8,1909.89v186.8c-7.3-1.6-13.3-3.4-19.3-6.1-8-3.6-16.9-5.4-25.3-8.2-8.3-2.8-9.1-4-9.1-12.6,0-135.2,0-270.3-.1-405.5,0-5.7,1.8-9.9,5.7-14.2,16.2-17.6,37.1-27.5,59-35.5,24.5-8.9,50-13,76-13.7,22-.6,43.6,1.9,63.7,12.1,18.9,9.6,32.8,24.4,43.9,42,20.2,31.8,27.9,67.2,29.9,104.4,1.4,25.1-.2,49.8-6.7,73.9-9.5,35.8-27.7,66.1-59.8,86.3-25.2,15.9-53.4,19.9-82.5,16.2-11.9-1.5-24.4-2-35.2-7.5-11.3-5.7-24.5-7.7-33.9-17.1-1.1-1-2.7-2-6.3-1.3h0Zm71.5-11.4c38.2,3.7,65.8-15.4,78.8-46.5,9.2-22.1,12.2-45.4,13.2-69,.6-15.6.5-31.2-1.3-46.8-2.3-19.8-5.7-39.3-14.1-57.7-10.6-23.1-27.2-38.6-53.1-41.4-30.7-3.3-59.3,4.1-86.4,18.6-6.3,3.4-8.6,7.8-8.5,15.1.3,50.2.2,100.5.2,150.7,0,14.3.1,28.6-.1,42.9,0,3.9.5,7,4.3,9.2,18.7,11.1,37.9,20.7,59.8,23.8,2.1,2.1,4.7,1.3,7.2,1.1Z"/>
    <path class="cls-2" d="m487.4,1897.49c19.7-2.6,36.9-11.6,53.9-21.1,11.1-6.2,10.8-6.7,10.8-19.8v-236.7c0-11.1-1.4-11,10.6-11s24.7.2,37-.1c4.7-.1,6.9,1.4,6.4,6.2-.2,2,0,4,0,6,0,95.6.2,191.1-.1,286.7-.1,30.5-2.1,60.9-8.9,90.9-6.8,29.8-24.7,51-50.3,66.4-15.2,9.1-31.8,15.1-48.5,20.8-20.5,7-41.8,7.9-62.9,10.7-3.8.5-5.9-1.4-6.6-4.3-2.1-8.6-3.6-17.3-5.4-26-.7-3.4,1.6-4,3.8-4.4,5.6-1,11.2-1.4,16.7-2.6,17.9-3.8,36-6,53.2-13.3,18.9-7.9,34.9-18.9,45.3-36.6,2.6-4.5,4.2-9.9,5.7-15.2,5.7-19.8,7.4-40,7.4-60.5v-21.5c-6.6.2-11.7,3.5-17,5.6-16.5,6.5-33.4,12.6-50.7,14.8-27.5,3.4-55.6,6.3-83.1-1.9-4.9-1.5-9.7-4-14.1-6.7-8.7-5.3-17.9-10.3-25.6-17-9.3-8-15.6-18.8-21-29.8-5.6-11.3-6.6-23.2-6.6-35.5.1-70.2.1-140.5.1-210.8,0-2,.2-4,0-6-.5-4.6,1.1-7,5.8-8.4,13.3-4,26.4-8.7,39.6-13.1,6.9-2.3,7-2.2,7.2,5,.1,2.3,0,4.7,0,7,0,68.9-.1,137.8.1,206.8.1,12.5,1.6,24.9,6.9,36.8,5.1,11.4,13.2,19.9,23.1,26.5,16.8,11.3,35.8,15.1,55.9,13.5,3.7-.4,7.7,1,11.3-1.4h0Z"/>
    <path class="cls-2" d="m927.43,1419.09v221.4c7.1-.6,11.3-5.6,16.5-8.4,20-10.5,40.4-19.4,62.9-22.8,11.9-1.8,23.7-2.9,35.8-2.7,40.3.7,73,24.2,85.6,61.9,4.6,13.7,7.4,27.8,7.4,42.4v205.8c0,2.3-.1,4.7,0,7,.2,3.8-1.3,5.4-5.2,5.4-14.7-.1-29.3-.1-44,0-3.3,0-4.9-1.2-4.8-4.6.1-2.7,0-5.3,0-8,0-66.3.6-132.5-.4-198.8-.3-22.2-6.9-43.3-23.7-59.9-8.7-8.6-19.3-12.7-30.9-14.3-6.6-.9-14-2-19.8.2-10.6,4-21.9,5.3-32,10.9-12.1,6.7-25.3,11.3-36.9,19.3-6.9,4.8-10.6,9.8-10.6,18.8.4,74.3.2,148.5.2,222.8,0,2.3-.2,4.7,0,7,.7,5.6-2.2,6.7-7,6.6-13.3-.2-26.7-.2-40,0-4.6.1-6.9-1.2-6.4-6.2.2-2.3,0-4.7,0-7v-471.5c.1-8.9,0-9,8.5-11.6,14.5-4.5,28.8-8.8,44.8-13.7h0Z"/>
    <path class="cls-2" d="m1482.2,1758.09c-.5,41.5-7.1,74.5-24.1,105-16.4,29.5-39.8,51.7-70.9,64.9-10.7,4.5-22.7,5.4-34.3,7.2-16.7,2.7-33.1-.1-49.6-.8-6.4-.3-12.8-3.3-19.2-5.5-27.6-9.6-49.2-26.9-64.7-51.1-5.4-8.4-10-17.7-14.1-27.1-4.7-10.7-8.9-21.4-11.8-32.7-1.9-7.1-1.9-14.3-2.9-21.4-3.2-22.7-2.7-45.4.6-68.3,2.5-17.4,7.2-33.8,15.2-49,15.2-29,36.1-52.9,67-66.4,21.3-9.3,43.7-12.7,66.8-12.1,28.2.8,54.2,8.5,77.1,25.1,27.9,20.3,46.4,47.6,56.6,80.4,5.6,19.1,8.8,38.6,8.3,51.8h0Zm-160.1,143.4c8.4,2.1,16.9,2.1,25.3,0,14.2-1.6,27-6.6,38.1-15.9,16.3-13.6,24.9-31.7,30.1-51.6,8-31.1,9.7-62.8,6.7-94.8-2.3-24.2-8.8-46.9-22.6-67.2-14.7-21.5-35.5-33.4-61.1-34.4-35.1-1.4-64.3,15.7-79.1,49.5-9.1,20.8-12,42.7-13.1,64.9-.7,13.9-.1,27.9,1.4,41.8,2.9,25.3,8.8,49.7,22.3,71.6,11.8,19.6,28.2,33.2,52,36.1h0Z"/>
    <path class="cls-2" d="m1530,1790.09c0-41.9.1-83.9-.1-125.8-.1-8,2-13,9.2-17.7,16-10.3,31.9-20.4,49.6-27.6,18.7-7.6,38.2-12.2,58-15.5,16.5-2.7,33.1-3.8,49.7-2,26.2,2.9,50.4,10.5,69.8,29.6,15.4,15.2,23,33.8,23,55.1.3,78.2.1,156.5.1,234.7,0,8-.1,8.1-8.3,8.1-12.7.1-25.3.1-38,0-7.4-.1-7.6-.2-7.6-7.8-.1-38.9,0-77.9,0-116.9,0-32.3.4-64.6-.2-96.9-.3-17.7-6.6-33.9-17.4-48-5.7-7.4-13.2-12.8-22.3-15.9-12.4-4.2-24.5-9-38.1-8.4-24.2,1.1-46.1,9-67,20.6-4.8,2.6-7,6.8-7.1,12.2v248.7c0,2.3-.2,4.7,0,7,.3,3.7-1.1,5.4-5,5.4-14.3-.1-28.7-.1-43,0-3.7,0-5.6-1.2-5.4-5.2.2-2.3,0-4.7,0-7,.1-42.1.1-84.4.1-126.7h0Z"/>
    <path class="cls-2" d="m755.3,1502.49v44.4c0,17.3.1,34.5,0,51.8-.1,10.4-.6,10.1,10.5,10.1,13.7,0,27.3-.1,41,0,8.5.1,8.6.1,8.6,8.9.1,5.3.1,10.7,0,16-.1,8.8-.1,8.9-8.6,9-14,.1-28,0-42,0-9.5,0-9.6.1-9.6,9,0,69.4,0,138.8.2,208.2.1,23,12.1,37.4,34.5,43.2,6.7,1.7,13.7,1.6,20.4,3.6,3.4,1,4.9,1.7,5.2,5.5,1.4,22.3.8,22.8-21.5,22.5-9.7-.1-19.1-1.9-28.8-2.4-5.6-.3-11.2-3.6-16.4-6.1-7.7-3.8-15.5-7.7-22.7-12.4-4.3-2.8-6.9-7.7-10.1-12-11.1-15-14.9-31.5-14.8-50,.4-65.6.2-131.2.1-196.8,0-13.5,1.7-12.4-12.1-12.5-6.3,0-12.7-.1-19,0-3.8.1-5.4-1.4-5.4-5.3.1-7.7.2-15.3,0-23-.1-4.4,1.9-5.8,6-5.7,6.3.2,12.7,0,19,0,12.6,0,11.5.9,11.5-11.1v-69.9c0-9.1,0-9.2,8.2-12.1,12.1-4.3,24.6-7.2,36.1-13,2.8-1.1,5.9-1.4,9.7.1h0Z"/>
    <path class="cls-2" d="m1985.5,1510.19c-6.6,13.5-9.5,25.9-13.8,37.8-1,2.8-1.7,5.7-2.8,8.4-1.2,3.2-3.4,4.8-6.9,4.3-3-.4-4.8-1.1-5.9-5-3.8-13.2-8.6-26.1-13.1-39.1-2.7,1.1-1.5,3.6-1.5,5.4-.1,10.7,0,21.3-.1,31.9,0,2.8.9,6.4-3.8,6.6-4.8.2-4.1-3.3-4.1-6.2,0-17.6-.1-35.3,0-52.9,0-2.8-.7-6,4-6.4,6.4-.5,8.6.3,10,5.4,3.6,13,7.2,25.9,11.8,38.6.9,2.4-.4,5.5,2.8,7.5,4.5-2.5,4.3-7.8,5.9-11.8,4.4-11.1,8.1-22.4,12.1-33.6,1.9-5.4,6.4-7.4,11.5-5.7,3.2,1,2.4,3.6,2.4,5.8.1,14.6.1,29.3.1,43.9v10c0,2.8-.3,5.3-4.2,5.3s-4.3-2.2-4.3-5.2c-.2-14.2-.2-28.5-.1-45h0Z"/>
    <path class="cls-2" d="m1893.4,1531.19c0-8-.1-15.9,0-23.9.1-4.3-1.8-6-6-5.8-4,.2-8,0-11.9,0-2.1,0-4.1-.4-3.9-3.2.1-2.7,2.1-3.1,4.2-3.1,6.3-.1,12.6-.1,18.9-.1,8.3,0,16.6,0,24.9.1,2.1,0,4,.3,4,3.1.1,2.8-1.7,3.2-3.9,3.2-3.6,0-7.3.3-10.9,0-5.3-.4-6.9,2.1-6.8,7.1.2,13.6.1,27.2.1,40.8,0,2.3,0,4.6-.1,7,0,2.8-1.4,4.1-4.3,4.1s-4.1-1.6-4.1-4.3c-.1-8.5-.1-16.7-.2-25h0Z"/>
    <path class="cls-3" d="m487.4,1897.49c-3.6,2.4-7.6,1-11.4,1.2,3.6-2,7.6-.5,11.4-1.2Z"/>
    <path class="cls-1" d="m1091.4,1127.99c28.5.7,58.7,19.3,59.3,58.6.5,34-23.4,59.2-58.2,59.6-36.1.4-60-26.1-59.8-59,.2-37.2,28.6-58.2,58.7-59.2Z"/>
    <path class="cls-1" d="m718.3,222.49c-30.6-.6-59.4-24.4-59-59.3.4-32.7,26.2-58.5,58.8-59.1,32.6-.6,59.8,25.8,59.8,59,.1,32.8-26.8,59.4-59.6,59.4h0Z"/>
    <path class="cls-1" d="m118,1897.49c-21.8-3.1-41.1-12.7-59.8-23.8-3.8-2.2-4.4-5.3-4.3-9.2.2-14.3.1-28.6.1-42.9,0-50.2.2-100.5-.2-150.7-.1-7.3,2.2-11.7,8.5-15.1,27.1-14.5,55.7-21.9,86.4-18.6,25.9,2.8,42.6,18.3,53.1,41.4,8.4,18.4,11.8,37.9,14.1,57.7,1.8,15.6,1.9,31.2,1.3,46.8-.9,23.6-3.9,46.9-13.2,69-12.9,31.1-40.6,50.2-78.8,46.5-2.2-1.5-4.7-.7-7.2-1.1h0Z"/>
    <path class="cls-3" d="m118,1897.49c2.4.4,5-.3,7.3,1.1-2.5.1-5.1.9-7.3-1.1Z"/>
    <path class="cls-1" d="m1322.1,1901.49c-23.7-2.8-40.1-16.4-52.2-36-13.6-21.9-19.4-46.3-22.3-71.6-1.6-13.9-2.1-27.8-1.4-41.8,1.1-22.2,4-44.2,13.1-64.9,14.9-33.8,44.1-50.9,79.1-49.5,25.6,1,46.4,12.9,61.1,34.4,13.9,20.2,20.3,42.9,22.6,67.2,3,32,1.3,63.7-6.7,94.8-5.1,19.9-13.8,38-30.1,51.6-11.1,9.3-23.8,14.3-38,15.9-8.4-.1-16.8-.1-25.2-.1h0Z"/>
    <path class="cls-3" d="m1322.1,1901.49h25.3c-8.5,2.1-16.9,2.1-25.3,0Z"/>
  </g>
</svg>