<?xml version="1.0" encoding="UTF-8"?>
<svg id="Layer_1" data-name="Layer 1" xmlns="http://www.w3.org/2000/svg" viewBox="0 0 1123.68 999.81">
  <defs>
    <style>
      .cls-1 {
        fill: #6fcfef;
      }

      .cls-2 {
        fill: #6bc6e6;
      }
    </style>
  </defs>
  <path class="cls-1" d="m315.77,0h43.99c.67.81,1.33,1.66,2,0h4c-1.15,1-.07,1.23.55,1.65,2.77,1.88,6.08,1.1,9.09,1.87,16.25,4.11,31.9,9.89,47.03,17.06,34.47,16.34,65.29,38.22,94.71,62.27,14.2,11.61,27.28,24.45,40.88,36.71,1.63,1.47,2.85,3.68,5.68,1.07,10.78-9.93,21.57-19.86,32.71-29.37,32.72-27.95,67.2-53.35,106.5-71.51,16.04-7.41,32.36-14.04,49.96-17.05,1.24-.21,4.82.87,4.81-2.7h4c-.01,1.53,1.26.51,1.82.91,1.18.11,2.34.15,3.18-.91h40.99c-.64,2.1.98,1.91,2.12,1.97,9.72.52,18.61,4.02,27.06,8.32,22.17,11.27,38.24,28.53,49.67,50.62,5.98,11.57,10.1,23.73,13.51,36.08,2.4,8.7,3.85,17.75,4.95,26.86,1.1,9.1,2.08,18.19,2.6,27.33.01,9.9.03,19.8.04,29.7.67,8.41-1.09,16.71-1.14,25.09-.88.86-.86,1.95-.81,3.06.38,6.13-1.4,12.03-1.87,18.03-1.06,13.79-4.2,27.22-6.33,40.81-2.11,13.44-5.36,26.75-9.04,39.85-1.3,4.6,1.12,5.64,3.6,6.06,10.99,1.83,21.46,5.58,31.92,9.04,12.4,4.09,24.82,8.32,36.81,13.64,9.5,4.21,19.31,7.74,28.67,12.22,14.69,7.01,28.88,14.94,42.73,23.58,19.97,12.46,38.85,26.26,54.76,43.59,7.54,8.21,13.64,17.75,19.8,27.21,9.99,15.35,14.64,31.91,15.92,49.79.13,2.04-.59,4.19.8,6.06v2.02c-1.4,1.87-.67,4.02-.8,6.05-.09,2.99.18,6.04-.32,8.96-3.21,18.9-10.64,36.04-21.79,51.63-18.03,25.21-41.64,44.17-67.71,60.31-43.43,26.88-90.74,44.7-139.54,58.86-4.71,1.37-5.31,3.21-4.01,7.56,2.15,7.18,3.8,14.53,5.28,21.89,2.41,12,4.83,24.01,6.67,36.1,1.95,12.77,4.19,25.53,4.44,38.5-.05,1.1-.08,2.2.81,3.06.06,3.31.13,6.63.19,9.94,0,1.41-.29,2.87.81,4.06.05,4.03.09,8.05.14,12.08,0,7.62,0,15.24,0,22.85.36,14-1.71,27.75-3.89,41.52-2.84,17.96-8.03,35.08-15.75,51.57-7.22,15.4-17.2,28.58-29.91,39.69-12.74,11.14-27.71,18.13-44.06,22.24-1.19.3-3.03-.37-2.34,2.01h-4c-.02-.25-.04-.49-.06-.74-.31.25-.62.49-.94.74h-43.99c-.31-.23-.62-.46-.93-.69-.02.23-.05.46-.07.69h-5c.83-2.16-.97-1.77-2.01-2-4.77-1.07-9.7-1.66-14.31-3.19-21.23-7.06-41.78-15.63-61.31-26.72-42.07-23.88-78.63-54.89-114.03-87.42-2.81-2.58-4.15-2.78-7.22-.27-7.28,5.95-13.77,12.75-20.63,19.1-17.72,16.43-36.5,31.47-56.26,45.25-34.97,24.39-71.69,45.27-114.32,53.37-.66.13-2.22.52-.84,1.87h-4c-.67-1.6-1.33-.97-2,0h-43.99c-.31-.25-.63-.5-.94-.75-.02.25-.04.5-.06.75h-4c.81-1.6-.35-1.73-1.44-1.99-3.01-.71-6.13-1.14-9.01-2.23-20.9-7.92-38.62-20.18-52.12-38.28-10.07-13.5-17.25-28.48-22.24-44.39-4.18-13.33-7.97-26.88-8.19-41.07-.01-1.71.45-3.5-.81-5.01.11-2.72-1.87-5.2-.96-8.02.97-1,.94-1.99-.03-2.98-.04-2.09-.07-4.18-.11-6.26-.02-10.22-.04-20.45-.06-30.67-.93-1.43-1.41-3.04-.98-4.65,1.85-7.03.32-14.4,2.15-21.42.97-.98,1.01-1.97.04-2.97-.83-2.5,1.27-4.6.95-7.02.97-.98,1.02-1.97.05-2.98,1.66-4.19.96-8.73,1.95-13.02.97-.97,1.03-1.96.06-2.97-.83-1.61,1.11-2.57.94-4.02.97-.97,1.04-1.96.07-2.97,1.58-11.17,4.29-22.13,5.99-33.3,1.63-10.71,4.5-21.27,7.38-31.74.93-3.39-.37-3.94-2.8-4.65-5.48-1.6-10.94-3.25-16.4-4.93-34.61-10.65-68.31-23.57-100.38-40.51-13.45-7.11-26.56-14.81-39.03-23.56-24.8-17.39-46.77-37.49-61.55-64.42-8.18-14.91-13.34-30.76-14.23-47.86,1.16-1.67,1.14-3.33-.03-4.98v-2.02c1.17-1.65,1.19-3.31.03-4.98.14-5.91,1.12-11.71,2.52-17.43,6.76-27.71,22.07-50.02,42.54-69.51,12.9-12.29,26.68-23.28,41.73-32.62,33.3-20.68,68.5-37.14,106.02-48.94,11.74-3.7,23.37-8.07,35.24-11.56,2.49-.73,5.81-.89,7.21-2.58,2.08-2.51-2.03-4.67-2.15-7.4-.03-.65-.21-1.29-.36-1.93-1.53-6.69-3.26-13.33-4.55-20.06-1.66-8.6-3.69-17.15-4.45-25.91.09-1.09.09-2.16-.78-3.01-.38-1.92-.9-3.82-1.13-5.75-.87-7.52-2.03-14.99-2.67-22.55-.4-4.7-.85-9.91-2.19-14.72.97-1,.93-1.99-.04-2.97-1.05-8.66-1.79-17.34-1.79-26.07,1.48-8.25.26-16.57.63-24.86-2.68-4.06.79-8.05.16-12.08.97-.98,1-1.97.03-2.98-1-2.39.61-4.49.79-6.75,1.35-16.83,4.47-33.3,9.93-49.31,14.21-41.67,39.14-72.47,84.06-83.07.68-.16,2.17-.45.98-1.86,1,0,2,0,3,0,.02.25.04.49.06.74.31-.25.63-.49.94-.74Zm220.15,729.29c-1.85,1.15-4.02.88-5.81.48-9.54-2.1-19.16-.59-28.73-.87-1.16-.03-2.68-.68-3.56,1.03,14.24,19.2,29.72,37.42,44.95,55.82.03,1.24.62,1.98,1.89,2.11,4.7,5.19,9.8,10.08,13.96,15.67,2.51,3.37,3.93,2.12,6.01.27.8-.46,1.04-1.2,1.06-2.05,21.6-22.84,41.3-47.24,60.73-72.86-10.1,0-19.09.29-28.06-.08-8.6-.36-17.08,2.19-25.67.71-12.25-1.3-24.51-.93-36.77-.24Zm38.38-458.41c1.92-.85,3.93-.31,5.91-.38,11.57-.36,23.02,1.96,34.59,1.47,3.85-.16,7.71-.03,12.18-.03-5.75-7.86-10.41-15.28-16.11-21.79-7.21-8.22-13.78-16.95-21.03-25.12-8.61-9.71-17.15-19.48-25.77-29.18-1.21-1.36-2.25-3.14-4.52-.61-11.62,12.94-23.01,26.07-34,39.54-8.83,10.82-17.37,21.87-26.02,32.84-.66.84-1.76,1.43-1.16,2.95.7,1.78,2.06,1.35,3.3,1.36,3,.03,5.99,0,8.99-.02,2.7-.15,5.57,1.33,8.07-.81,10.14-.13,20.28-.99,30.43-.23,8.38,0,16.76,0,25.14,0Zm-237.48,67.08c-1.11-.11-2.19-.09-3.04.79-10.21,1.68-20.17,4.61-30.58,5.34-5.57.39-7.53,2.91-6.35,6.33,7.98,23.09,15.87,46.21,25.02,68.88,3.03,7.51,6,15.05,9.36,23.5,20.4-38.83,41.7-75.9,64.79-112.34-2.21-.4-4.13-2.32-5.72-1.36-6.34,3.81-14-.49-20.33,3.72-2.29,1.52-5.93-.53-8.35.44-8.02,3.23-16.54,3.18-24.81,4.71Zm30.12,328.83c9.45,1.88,18.92,3.47,29.24,2.91-1.25-2.07-2.07-3.46-2.93-4.84-10.81-17.44-21.88-34.73-31.54-52.85.1-1.47.03-2.85-1.86-3.14-10.09-16.59-18.93-33.88-28.66-51.86-5.75,14.55-11.15,28.21-16.55,41.88-2.09,1.05-1.91,2.99-1.9,4.85.21,1.24-.54,2.16-1.07,3.14-.59.52-1.91.62-1.1,1.93-.15.79-.19,1.61-.45,2.35-4.24,12.23-8.52,24.45-12.77,36.67-.98,2.81-2.97,6.04,2.03,6.98,6.45,1.21,12.95,2.2,19.43,3.29.71.23,1.42.47,2.12.7,7.95,1.41,15.91,2.81,23.86,4.22.97.93,2.14.89,3.34.72,5.16,1.17,10.36,2.05,15.66,2.31.91.89,2.02.88,3.17.74Zm489.97,122.04c.97-1.01.91-2-.05-2.97-.74-3.95-1.62-7.88-1.21-11.95.07-1.41.31-2.86-.79-4.05-1.72-9.8-3.21-19.64-5.21-29.38-2.54-12.44-5.46-24.81-8.27-37.2-.46-2.01-1.64-2.92-3.92-2.39-7.1,1.64-14.23,3.18-21.37,4.65-10.48,2.15-20.91,4.84-31.5,6.15-12.92,1.6-25.71,3.95-38.63,5.53-16.63,2.04-33.19,4.76-49.95,5.6-3.27.17-5.52,1.25-7.41,3.92-28.12,39.57-58.26,77.52-91.31,113.11-1.84,1.98-1.46,2.79.17,4.23,6.89,6.12,13.71,12.31,20.58,18.44,24.71,22.09,50.75,42.4,79.25,59.46,15.67,9.38,32.09,17.29,49.17,23.48,13.67,4.96,28.05,7.13,42.87,6.5,12.31-.52,23.44-3.69,33.42-10.76,12.97-9.19,20.57-22.31,25.89-36.85,8.11-22.19,10.32-45.42,10.9-68.81.38-15.62-.9-31.21-2.61-46.75Zm-389.14-18.1c.08-1.53-.3-2.73-2.12-2.84-7.72-9.38-15.14-18.99-21.89-29.11.08-1.53-.24-2.76-2.09-2.9-2.27-3.03-4.85-5.89-6.7-9.16-1.04-1.84-2.28-2.91-4.03-2.77-2.58.2-4.76-1.14-7.21-1.28-.98-.97-1.97-1.01-2.98-.04-3.62-.66-7-2.99-10.98-1.19-.71.32-2.08-.63-3.07-1.15-1.11-.59-2.47-.81-3.29-.23-2.3,1.63-3.94.26-5.75-.76-.6-.34-1.08-1.81-1.78-.91-2.38,3.08-4.79.12-7.15.28-1.17-1.09-2.61-.85-4.01-.8-8.39-.63-16.77-1.27-24.98-3.23-.86-.87-1.94-.86-3.04-.75-5.5.53-10.63-1.61-15.96-2.26-.72-.23-1.44-.46-2.16-.69-7,.34-13.6-2.01-20.36-3.2-11.23-1.98-22.44-4.1-33.46-7.11-1.11-1-2.11-.97-2.94.35-2.73,12.96-5.46,25.92-8.2,38.88-.9.87-.92,1.97-.79,3.11-.09,4.74-2.56,9.09-2.23,13.89-.89.89-.89,2-.76,3.14,0,2.59-.89,5.03-1.11,7.63-.55,6.48-1.5,12.95-2.34,19.41-1.18,9.08-2.15,18.2-2.43,27.28-.49,15.81-.37,31.66.83,47.46-.05,1.1-.07,2.19.81,3.04.05,1.02.1,2.04.16,3.06-.03,1.37-.27,2.79.81,3.94.07,1,.14,2,.21,3-.09,1.09-.09,2.16.77,3,2.73,17.26,8.17,33.5,18.13,48.03,9.29,13.54,21.94,22,38.08,25.18.85.87,1.91.87,3.01.78,11.87.08,23.84.8,35.44-2.27,14.78-3.91,29.12-9.16,42.8-16.07,44.34-22.4,82.46-53.2,118.01-87.47,4.69-4.52,4.5-4.47.16-9.22-19.41-21.23-38.03-43.13-55.43-66.05ZM263.81,187.9c0,1.4-.29,2.87.81,4.05.09,11.65,2.04,23.12,3.28,34.66-.17,1.19-.22,2.36.7,3.33l1.25,9.86c-.13,1.14-.13,2.25.76,3.14,1.12,4.83.73,9.78,2,14.71,3.52,13.61,6.2,27.43,9.22,41.17.83,1.33,1.83,1.35,2.94.35,6.18-1.41,12.33-2.96,18.54-4.19,8.6-1.71,17.24-3.24,25.87-4.76,8.54-1.5,17.1-2.93,25.66-4.3,11.15-1.79,22.4-2.81,33.59-4.18,11.16-1.37,22.25-3.2,33.5-3.83,6.29-.35,11.66-1.74,15.45-8.14,4.96-8.38,11.29-15.96,17.19-23.77,22.08-29.23,45.14-57.65,70.1-84.48,2.43-2.61,2.19-4.07-.22-6.45-14.37-14.14-29.45-27.47-45.19-40.06-26.26-21-53.87-39.85-84.76-53.57-13.12-5.82-26.85-9.4-40.73-12.63-1.17-1.1-2.62-.86-4.02-.8-7.66,0-15.32-.01-22.99-.02-1.08-.09-2.14-.08-2.97.78-23.17,4.46-37.36,19.62-46.59,40.06-4.74,10.5-8.15,21.6-9.63,33.16-.87.84-.87,1.91-.77,3-.07,1-.14,2-.21,3-1.08,1.14-.84,2.56-.81,3.93l-.16,3.06c-.88.85-.86,1.94-.81,3.03-1.19,16.61-.92,33.25-.99,49.89Zm595.1-37.95c1.08-1.34,1.04-2.67-.06-3.98-.71-5.35-1.51-10.68-2.12-16.04-1.55-13.73-4.81-27.06-10.18-39.75-7.03-16.63-17.39-30.47-34.7-37.68-3.9-1.62-8.11-2.51-12.17-3.73-.83-.86-1.89-.87-2.97-.78-1.8-.01-3.64-.26-5.4,0-5.87.89-11.73-1.68-17.59,0-1.4-.05-2.84-.29-4.02.8l-2.94.21c-.68.25-1.37.49-2.05.74-5.42,2.1-11.26,2.33-16.83,4.22-22.06,7.46-42.57,18.13-61.97,30.63-23.27,14.99-45.13,32.01-65.67,50.66-7.55,6.86-15.16,13.66-22.78,20.45-1.59,1.42-2.08,2.21-.19,4.23,8.21,8.8,16.2,17.82,24.09,26.91,24.07,27.75,46.42,56.84,67.35,87.01,1.69,2.43,3.31,3.04,5.98,3.16,6.83.3,13.56,1.57,20.4,2.1,9.66.74,19.24,2.56,28.87,3.82,8.34,1.1,16.87,1.36,25,3.29,8.9,2.11,17.94,3.15,26.89,4.53,13.56,2.08,26.73,5.85,40.2,8.27,3.89.7,4.86-.76,5.47-3.03,1.95-7.23,3.67-14.53,5.11-21.88,2.87-14.69,5.5-29.44,8.23-44.16,1.1-1.19.86-2.63.79-4.05.35-5.25.47-10.54,1.1-15.76,2.05-17.07,3.17-34.17,2.81-51.37-.06-2.96-1.6-5.8-.65-8.82Zm-398.15,527.09c.86.88,1.96.85,3.06.8,11.69-.35,23.2,2.57,34.88,1.99,12.76-.64,25.42,1.24,38.21.94,21.73-.51,43.48-.06,65.23-.7,17.55-.51,35.08-1.29,52.59-2.42,3.87-.25,8.44.66,11.7-4.18,36.55-54.38,69.11-111.04,97.95-169.86,1.31-2.66,1.45-4.82-.06-7.39-5.34-9.12-9.57-18.82-14.31-28.25-4.94-9.82-10.45-19.37-15.69-29.02-4.36-8.02-8.5-16.31-12.85-24.36-7.29-13.48-15.84-26.27-23.78-39.4-3.08-5.1-5.59-10.58-9.01-15.43-7.66-10.85-14.99-21.89-21.75-33.33-.91-1.54-2.32-3.55-4.89-3.51-4.12.06-8.2-.47-12.29-.83-12.3-1.07-24.66-1.74-37.01-2.06-20.83-.53-41.67-.83-62.5-.89-13.46-.04-26.92.55-40.39.83-2.16.05-4.42-.42-6.48.04-12.59,2.81-25.64-.7-38.15,2.89-.43.12-.97-.12-1.47-.2-1.01-.97-2-.91-2.98.06-2.13.39-2.65,2.39-3.68,3.81-7.72,10.63-14.64,21.77-21.56,32.93-11.42,18.42-23.32,36.54-33.61,55.66-6.91,12.83-14,25.57-21.12,38.29-8.2,14.66-15.58,29.73-22.94,44.81-.48.99-1.2,1.39-.41,2.88,4.49,8.5,8.56,17.23,12.98,25.76,12.91,24.9,26.46,49.45,40.72,73.6,14.59,24.7,29.77,49.03,45.94,72.72.99,1.45,1.56,3.41,3.67,3.82Zm614.05-176.81c-.64-19.82-9.39-35.75-22.22-49.86-17.31-19.05-38.15-33.4-60.52-45.82-22.51-12.49-46.05-22.84-70.28-31.14-13.97-4.78-27.78-10.4-42.32-13.7-4.16-.94-5.7-.19-6.72,3.44-1.51,5.36-2.72,10.84-4.71,16.02-4.33,11.27-9.13,22.49-12.66,33.89-4.53,14.63-10.99,28.35-16.53,42.47-3.05,7.78-6.37,15.54-10.46,23.03-2.95,5.4-5.06,11.91-6.98,18.14-.75,2.43-.86,4.29.19,6.59,19.95,43.72,37.56,88.34,51.96,134.2.98,3.13,1.93,3.68,5.18,2.75,34.2-9.88,67.64-21.78,99.49-37.78,27.76-13.94,54.05-30.08,74.97-53.61,12.4-13.94,20.91-29.66,21.61-48.63Zm-1026.18-.15c.24,3.61.04,7.32.78,10.83,3.62,17.16,13.62,30.81,25.29,43.15,11.26,11.91,24.58,21.47,38.41,30.28,9.77,6.23,19.73,12.17,30.08,17.33,12.19,6.07,24.6,11.69,37.3,16.7,21.15,8.33,42.44,16.12,64.43,21.95,3.01.8,4.25.44,4.87-2.59.59-2.88,1.32-5.76,2.31-8.52,8.69-24.21,16.85-48.63,26.74-72.39,6.68-16.04,13-32.28,20.76-47.8,3.28-6.55,3.4-12.14.47-17.77-9.46-18.14-16.71-37.21-24.3-56.13-9.7-24.16-18.48-48.65-26.19-73.53-.42-1.34-.93-3.32-3.36-2.55-5.47,1.73-11.36,2.51-16.57,4.45-6.45,2.39-12.97,4.96-19.47,7.07-20.55,6.67-40.53,14.81-60,23.96-17.54,8.24-34.53,17.81-50.01,29.69-11.39,8.75-22.89,17.29-31.9,28.8-10.92,13.96-20.07,28.44-19.64,47.07Zm743.24-56.83c3.37-9.72,7.68-17.41,10.42-25.8,2.39-7.31,6.67-14.04,8.71-21.31,1.84-6.53,4.7-12.65,6.39-19.25,2.32-9.11,6.29-17.79,8.74-26.93.39-1.45,1.3-3.63-.45-3.7-2.66-.11-4.47-2.17-6.8-2.26-12.75-.49-24.68-5.49-37.43-6.4-9.98-.71-19.73-3.9-29.82-4.77-6.17-.54-12.31-1.79-18.36-3.17-2.15-.49-4.49-1.72-5.77.3-.93,1.47.9,3.5,1.91,5,9.95,14.69,18.86,30.02,28.14,45.12,6.92,11.26,12.23,23.43,19.2,34.71,5.37,8.7,10.44,17.63,15.11,28.46Zm.2,114.12c-1.12,2.07-1.83,3.35-2.51,4.65-18.16,34.52-37.58,68.32-58.37,101.33-1.35,2.14-2.66,4.29-3.99,6.44,3-.02,6.05.31,8.99-.13,11.88-1.8,23.7-3.93,35.57-5.75,17.31-2.66,34.46-6.05,51.57-9.76,4.2-.91,3.6-2.25,2.66-5.23-9.69-30.82-21.15-60.97-33.92-91.54Z"/>
  <path class="cls-2" d="m766.7,0c-.84,1.07-2,1.03-3.18.91.1-.3.16-.6.18-.91h3Z"/>
  <path class="cls-2" d="m572.69,729.53c-12.26-.08-24.52-.15-36.77-.24,12.26-.69,24.52-1.07,36.77.24Z"/>
  <path class="cls-2" d="m215.87,849.58c-.95-10.22-1.66-20.44-.06-30.67.02,10.22.04,20.45.06,30.67Z"/>
  <path class="cls-2" d="m907.6,151.18c.96,9.9,1.55,19.8.04,29.7-.01-9.9-.03-19.8-.04-29.7Z"/>
  <path class="cls-2" d="m215.19,180.9c.16-8.29-1.12-16.61.63-24.86-.37,8.28.85,16.6-.63,24.86Z"/>
  <path class="cls-2" d="m549.16,270.88c8.38-1.12,16.76-1.12,25.14,0-8.38,0-16.76,0-25.14,0Z"/>
  <path class="cls-2" d="m907.65,819.91c1.25,7.62,1.29,15.24,0,22.85,0-7.62,0-15.24,0-22.85Z"/>
  <path class="cls-2" d="m510.66,271.92c2.54-1.75,5.36-.72,8.07-.81-2.5,2.14-5.37.66-8.07.81Z"/>
  <path class="cls-2" d="m314.63,598.89c-.63,1.62-1.27,3.24-1.9,4.85,0-1.87-.18-3.8,1.9-4.85Z"/>
  <path class="cls-2" d="m1123.46,500.91c-.02,2.05.86,4.22-.8,6.05.13-2.04-.59-4.19.8-6.05Z"/>
  <path class="cls-2" d="m1122.66,492.84c1.67,1.83.78,4,.8,6.06-1.4-1.87-.67-4.02-.8-6.06Z"/>
  <path class="cls-2" d="m217.78,871.85c-.89-1.57-1.02-3.26-.81-5.01,1.26,1.51.8,3.3.81,5.01Z"/>
  <path class="cls-2" d="m.03,505.89L0,500.91c1.17,1.65,1.19,3.31.03,4.98Z"/>
  <path class="cls-2" d="m0,498.9c0-1.66.02-3.32.03-4.98,1.16,1.67,1.14,3.33-.03,4.98Z"/>
  <path class="cls-2" d="m353.76,48.81c-1.44.23-2.78-.02-4.02-.8,1.4-.06,2.85-.29,4.02.8Z"/>
  <path class="cls-2" d="m443.77,738.79c-.7-.97-1.39-1.93-2.09-2.9,1.84.14,2.17,1.37,2.09,2.9Z"/>
  <path class="cls-2" d="m467.78,770.73c-.71-.95-1.41-1.89-2.12-2.84,1.82.11,2.2,1.31,2.12,2.84Z"/>
  <path class="cls-2" d="m266.58,127.99c.21,1.41-.15,2.7-.81,3.93-.03-1.37-.27-2.79.81-3.93Z"/>
  <path class="cls-2" d="m388.75,718.68c-1.43.22-2.78-.03-4.01-.8,1.4-.05,2.84-.29,4.01.8Z"/>
  <path class="cls-2" d="m858.9,149.96c-.02-1.33-.04-2.65-.06-3.98,1.09,1.31,1.14,2.63.06,3.98Z"/>
  <path class="cls-2" d="m361.71,612.02c-.62-1.05-1.24-2.09-1.86-3.14,1.89.29,1.96,1.67,1.86,3.14Z"/>
  <path class="cls-2" d="m855.65,773.91c-.8-1.24-1.01-2.6-.79-4.05,1.1,1.18.86,2.63.79,4.05Z"/>
  <path class="cls-2" d="m906.7,803.78c1.55,1.09.82,2.65.81,4.06-1.11-1.18-.81-2.65-.81-4.06Z"/>
  <path class="cls-2" d="m854.86,229.95c-.22-1.44-.01-2.8.79-4.05.07,1.41.3,2.86-.79,4.05Z"/>
  <path class="cls-2" d="m265.77,867.88c.66,1.23,1.02,2.53.81,3.94-1.08-1.15-.84-2.56-.81-3.94Z"/>
  <path class="cls-2" d="m263.81,187.9c1.55,1.1.83,2.65.81,4.05-1.11-1.18-.81-2.65-.81-4.05Z"/>
  <path class="cls-2" d="m773.72,48.01c-1.24.78-2.58,1.03-4.02.8,1.17-1.1,2.61-.86,4.02-.8Z"/>
  <path class="cls-2" d="m217.02,209.95c-.01-.99-.02-1.98-.04-2.97.96.98,1,1.97.04,2.97Z"/>
  <path class="cls-2" d="m326.75,47.99c-.9.59-1.85.99-2.97.78.83-.86,1.89-.87,2.97-.78Z"/>
  <path class="cls-2" d="m311.65,606.89c.15.94-.19,1.6-1.1,1.93-.81-1.31.51-1.42,1.1-1.93Z"/>
  <path class="cls-2" d="m799.68,48.77c-1.11.21-2.07-.18-2.97-.78,1.08-.09,2.14-.08,2.97.78Z"/>
  <path class="cls-2" d="m323.78,951.03c1.13-.21,2.1.15,3.01.78-1.1.1-2.16.09-3.01-.78Z"/>
  <path class="cls-2" d="m344.78,663.03c1.2-.18,2.37-.18,3.34.72-1.2.17-2.38.21-3.34-.72Z"/>
  <path class="cls-2" d="m363.77,666.06c1.16-.19,2.25-.1,3.17.74-1.15.14-2.26.15-3.17-.74Z"/>
  <path class="cls-2" d="m460.76,677.04c1.11-.09,2.32-.56,3.06.8-1.1.05-2.2.08-3.06-.8Z"/>
  <path class="cls-2" d="m266.79,874.82c.66.9.97,1.88.77,3-.87-.84-.87-1.91-.77-3Z"/>
  <path class="cls-2" d="m284.76,700.64l-2.94.35c.84-1.33,1.83-1.35,2.94-.35Z"/>
  <path class="cls-2" d="m215.98,143.96c.01-.99.02-1.98.03-2.98.97,1,.94,1.99-.03,2.98Z"/>
  <path class="cls-2" d="m906.5,205.97c.1,1.12.54,2.32-.81,3.06-.05-1.1-.08-2.2.81-3.06Z"/>
  <path class="cls-2" d="m359.75,714.65c-1.12.2-2.14-.04-3.04-.75,1.1-.1,2.18-.11,3.04.75Z"/>
  <path class="cls-2" d="m267.57,121.99c.2,1.12-.13,2.1-.77,3-.09-1.09-.09-2.16.77-3Z"/>
  <path class="cls-2" d="m264.8,861.79c1.28.74.92,1.92.81,3.04-.88-.85-.87-1.94-.81-3.04Z"/>
  <path class="cls-2" d="m423.75,722.68l-2.98-.04c1.01-.97,2-.92,2.98.04Z"/>
  <path class="cls-2" d="m336.82,337.96c-.9.72-1.9,1.03-3.04.79.86-.88,1.93-.89,3.04-.79Z"/>
  <path class="cls-2" d="m265.61,134.98c.11,1.11.46,2.29-.81,3.03-.05-1.1-.07-2.19.81-3.03Z"/>
  <path class="cls-2" d="m463.73,322.71c-.99.02-1.98.04-2.98.06.97-.96,1.97-1.02,2.98-.06Z"/>
  <path class="cls-2" d="m273.63,739.87c.2,1.16.02,2.21-.79,3.11-.12-1.13-.1-2.23.79-3.11Z"/>
  <path class="cls-2" d="m220.96,759.85c.02-.99.04-1.98.07-2.97.97,1.01.9,2-.07,2.97Z"/>
  <path class="cls-2" d="m270.6,756.86c.2,1.16.04,2.22-.76,3.14-.13-1.14-.13-2.25.76-3.14Z"/>
  <path class="cls-2" d="m219.96,766.84c.02-.99.04-1.98.06-2.97.97,1.01.91,2-.06,2.97Z"/>
  <path class="cls-2" d="m281.82,298.82c.98.12,1.96.24,2.94.35-1.11,1-2.11.97-2.94-.35Z"/>
  <path class="cls-2" d="m223.78,255.97c-.67-.89-.99-1.88-.78-3.01.87.84.88,1.91.78,3.01Z"/>
  <path class="cls-2" d="m217.97,782.84l.05-2.98c.97,1.01.92,2-.05,2.98Z"/>
  <path class="cls-2" d="m542.77,785.76c.63.7,1.26,1.4,1.89,2.11-1.27-.13-1.86-.87-1.89-2.11Z"/>
  <path class="cls-2" d="m856.92,788.83c-.02-.99-.04-1.98-.05-2.97.97.97,1.02,1.96.05,2.97Z"/>
  <path class="cls-2" d="m216.98,792.84c.01-.99.03-1.98.04-2.97.97,1,.93,2-.04,2.97Z"/>
  <path class="cls-2" d="m905.7,790.78c1.34.73.91,1.94.81,3.06-.88-.86-.86-1.95-.81-3.06Z"/>
  <path class="cls-2" d="m216.01,858.82c0-.99-.02-1.98-.03-2.98.96.98,1,1.97.03,2.98Z"/>
  <path class="cls-2" d="m269.85,239.81c.8.92.96,1.98.76,3.14-.89-.89-.89-2-.76-3.14Z"/>
  <path class="cls-2" d="m267.9,226.62c.84.98.87,2.14.7,3.33-.92-.97-.86-2.14-.7-3.33Z"/>
  <path class="cls-2" d="m564.63,803.81c.15-.79-.08-1.78,1.06-2.05-.02.85-.26,1.6-1.06,2.05Z"/>
  <path class="cls-2" d="m340.75,711.63c-.84.15-1.57-.07-2.16-.69.72.23,1.44.46,2.16.69Z"/>
  <path class="cls-2" d="m766.77,49.02c-.41,1-1.22.89-2.05.74.68-.25,1.37-.49,2.05-.74Z"/>
  <path class="cls-2" d="m318.79,658.11c.84-.16,1.55.07,2.12.7-.71-.23-1.42-.47-2.12-.7Z"/>
  <path class="cls-1" d="m462.96,515.91c-3.7-20.99-.56-41.16,8.72-60.11,8.52-17.39,21.23-31.35,37.96-41.48,17.57-10.64,36.65-15.69,57.04-14.28,19.02,1.31,36.54,6.81,52.54,18.29,19.37,13.89,32.14,31.76,38.65,54.3,1.87,6.47,4.82,13.1,1.92,20.18-.61,1.48,1,2.27,1.56,3.4.48.96.71,2.43.33,3.38-3.05,7.65-.02,15.82-2.63,23.77-2.57,7.86-4.67,15.9-8.79,23.03-4.93,8.53-9.17,17.67-18.62,22.91-2.18,1.21-3.35,5.39-5.78,7.43-15.67,13.12-33.85,21.16-54.07,22.74-8.47.66-17.52,2.45-26.09-.8-.81-.86-1.86-.87-2.92-.8-9.52-.88-18.14-4.6-26.51-8.83-10.48-5.3-19.76-12.28-27.85-20.88-12.21-12.96-19.64-28.46-24.57-45.32-.36-1.23-.08-2.65-.09-3.98.08-1.08.06-2.13-.8-2.95Z"/>
  <path class="cls-2" d="m462.96,515.91c.86.82.87,1.87.8,2.95-.63-.88-1.01-1.84-.8-2.95Z"/>
  <path class="cls-2" d="m542.78,597.87c1.07-.07,2.11-.07,2.92.8-1.1.21-2.04-.18-2.92-.8Z"/>
</svg>