<?xml version="1.0" standalone="no"?>
<!DOCTYPE svg PUBLIC "-//W3C//DTD SVG 20010904//EN"
 "http://www.w3.org/TR/2001/REC-SVG-20010904/DTD/svg10.dtd">
<svg version="1.0" xmlns="http://www.w3.org/2000/svg"
 width="259.000000pt" height="264.000000pt" viewBox="0 0 259.000000 264.000000"
 preserveAspectRatio="xMidYMid meet">

<g transform="translate(0.000000,264.000000) scale(0.100000,-0.100000)"
fill="#000000" stroke="none">
<path d="M715 2485 c-11 -2 -69 -9 -130 -15 -202 -22 -401 -84 -455 -142 -65
-70 18 -141 225 -193 179 -46 310 -59 590 -59 339 -1 550 25 728 91 74 28 137
78 137 110 0 77 -159 146 -430 188 -96 15 -607 30 -665 20z"/>
<path d="M112 1918 l3 -223 48 -32 c63 -42 200 -85 362 -114 117 -22 159 -24
435 -24 275 0 318 2 434 23 207 38 379 102 406 152 12 22 14 444 3 438 -163
-83 -332 -124 -613 -148 -379 -32 -827 22 -1033 126 l-47 25 2 -223z"/>
<path d="M110 1370 l0 -216 28 -27 c52 -50 200 -102 377 -131 74 -13 294 -35
343 -36 8 0 12 22 12 79 0 65 4 84 23 112 46 69 45 69 505 69 l412 0 0 184 0
184 -57 -28 c-192 -95 -478 -136 -875 -127 -321 7 -545 46 -699 120 l-69 33 0
-216z"/>
<path d="M976 1114 c-14 -14 -16 -73 -16 -498 0 -396 2 -486 14 -495 9 -8 217
-10 762 -9 l749 3 3 495 c2 456 1 496 -15 508 -13 9 -179 12 -749 12 -653 0
-734 -2 -748 -16z m373 -204 c64 -18 121 -90 121 -153 0 -54 -35 -74 -72 -40
-10 9 -18 26 -18 38 0 13 -9 33 -19 46 -27 33 -95 33 -122 0 -19 -23 -25 -65
-13 -96 8 -21 56 -45 91 -45 76 -1 153 -85 153 -168 0 -164 -208 -235 -306
-106 -30 39 -43 107 -24 129 28 34 80 8 80 -41 0 -31 40 -64 79 -64 49 0 81
32 81 81 0 43 -35 79 -79 79 -61 1 -138 55 -160 113 -26 68 -9 138 46 188 47
44 101 57 162 39z m438 -5 c95 -40 112 -84 113 -287 0 -86 -5 -169 -11 -184
-7 -21 -7 -34 2 -52 23 -41 -29 -82 -66 -52 -10 8 -19 8 -34 1 -28 -16 -107
-13 -140 4 -41 21 -79 69 -92 118 -7 25 -10 100 -7 192 3 135 5 154 26 186 47
76 132 106 209 74z m267 -1 c14 -13 16 -51 16 -255 l0 -239 106 0 c58 0 113
-4 123 -10 25 -13 33 -37 21 -61 -10 -17 -23 -19 -163 -19 -106 0 -157 4 -165
12 -9 9 -12 86 -12 284 0 234 2 275 16 288 8 9 22 16 29 16 7 0 21 -7 29 -16z"/>
<path d="M1673 806 c-28 -24 -28 -25 -31 -166 -2 -78 -1 -153 2 -166 9 -34 41
-64 69 -64 18 0 22 5 22 31 0 40 26 59 55 41 20 -12 20 -10 20 132 0 155 -7
187 -47 205 -36 17 -59 13 -90 -13z"/>
<path d="M110 835 c0 -181 1 -196 20 -215 44 -44 179 -96 325 -125 80 -16 323
-45 383 -45 l32 0 0 209 0 209 -57 6 c-32 3 -94 8 -138 11 -190 15 -409 66
-517 121 l-48 24 0 -195z"/>
</g>
</svg>
