<?xml version="1.0" encoding="UTF-8"?>
<svg id="Layer_2" data-name="Layer 2" xmlns="http://www.w3.org/2000/svg" viewBox="0 0 378.48 230.35">
  <defs>
    <style>
      .cls-1 {
        fill: #4bbaea;
      }
    </style>
  </defs>
  <g id="Layer_1-2" data-name="Layer 1">
    <path class="cls-1" d="m94.14,74.8c.03-1.88.05-3.76.08-5.63.52-1.02,1.19-2,1.56-3.07,3.97-11.79,9.04-22.88,17.02-32.7,5.25-6.47,10.38-12.95,17.42-17.4C145.82,6.15,162.97.91,181.4.13c11.81-.5,23.55.42,35.12,2.89,14.97,3.2,28.76,9.52,40.38,19.26,10.66,8.93,19.83,19.61,29.99,29.16,8.78,8.24,18.76,14.68,30.88,16.93,6.59,1.22,13.43,1.46,19.85.1,6.44-1.36,13.7-1.92,18.19-8.1.68-.36,1.36-.72,2.04-1.09,8.11-4.19,13.43-11.75,20.56-17.98.51,4.54-1.78,7.48-2.8,10.71-4.77,15.07-12.67,28.54-24.09,39.38-16.65,15.8-37.08,23.02-59.93,23.55-10.29.24-20.58.1-30.83-1.01-.65,0-1.31-.02-1.96-.03-.09-1.52-1.21-1.63-2.39-1.96-12.56-3.48-24.68-7.79-35.37-15.68-7.18-5.3-13.56-11.43-20.24-17.26h0c-2.11-2.96-4.46-5.67-7.77-7.39-.29-.27-.58-.54-.87-.81-6.76-9.72-15.1-17.38-26.77-20.8-4.24-1.24-7.98-3.92-12.66-3.93-9.26-.02-18.51-.75-27.18,3.94-7.87,4.26-16,7.86-22.59,14.3-3.34,3.26-4.83,7.9-8.81,10.49h-.01Z"/>
    <path class="cls-1" d="m176.69,230.34c-.66-.07-1.32-.13-1.99-.2-4.48-1.98-9.35-1.21-13.99-2-.64-.1-1.27-.2-1.91-.3-6.73-2.66-14.08-4.36-20.05-8.19-11.36-7.29-22.42-15.19-31.94-24.97-8.21-8.44-16.54-16.73-26.26-23.56-13.37-9.4-28.03-12.61-43.77-8.82-12.1,2.92-22.52,9.27-30.79,18.88-1.21,1.4-2.36,4.56-4.82,3.07-2.48-1.5-.25-4.23-.16-6.41.03-.78.56-1.54.85-2.31,6.15-16.22,15.71-30.06,29.12-41.11,6.49-5.34,12.92-10.89,21.64-12.4,1.05-.18,1.75-.9,2.22-1.83.64-.08,1.28-.17,1.91-.25,1.49.15,2.87.03,4.35-.5,14.34-5.18,29.16-4.8,44.06-3.82,7.95.52,15.49,3.43,23.47,3.57v-.02c1.69,3.82,5.72,3.38,8.75,4.68,13.29,5.7,24.59,14.22,34.94,24.15,1.29,1.24,2.28,2.95,4.37,3.08h0c3.54,6.76,9.69,11.31,14.79,16.63,17.37,18.14,49.46,22.34,69.04,8.44,8.25-5.86,16.45-11.78,21.68-20.8,4.07,1.11.09,3.76,1.04,5.47-.88.21-1.34.73-1.61,1.64-6.41,22.21-18.78,40.14-37.85,53.46-2.74,1.91-6.63,2.42-8.17,5.97h0c-1.68-.06-3.23.29-4.81.96-8.89,3.78-18.35,4.99-27.82,6.42-8.78,1.33-17.57.06-26.31,1.08h.02Z"/>
  </g>
</svg>