<?xml version="1.0" encoding="UTF-8"?>
<svg id="Layer_1" data-name="Layer 1" xmlns="http://www.w3.org/2000/svg" viewBox="0 0 512 512">
  <defs>
    <style>
      .cls-1 {
        fill: #2279be;
      }

      .cls-2 {
        fill: #feffff;
      }
    </style>
  </defs>
  <path d="m.09,255.53C.09,171.76.11,87.98,0,4.2,0,.98.38,0,3.99,0c168.06.12,336.12.12,504.18.02,3.2,0,3.79.82,3.79,3.86-.08,168.06-.09,336.12.04,504.18,0,3.74-1.18,3.91-4.27,3.91-167.89-.08-335.79-.08-503.68.03-3.49,0-4.06-.78-4.06-4.13.12-84.11.09-168.23.09-252.34Zm255.39,250.1c81.46,0,162.93-.04,244.39.1,4.57,0,6.15-.74,6.15-5.83-.16-162.76-.15-325.52-.04-488.28,0-4.38-.86-5.79-5.59-5.79-162.93.14-325.86.14-488.78,0-4.68,0-5.62,1.34-5.62,5.76.11,162.76.12,325.52-.03,488.28,0,5.05,1.52,5.86,6.12,5.85,81.13-.14,162.26-.1,243.39-.1Z"/>
  <path class="cls-1" d="m255.48,505.64c-81.13,0-162.26-.04-243.39.1-4.61,0-6.13-.8-6.12-5.85.15-162.76.14-325.52.03-488.28,0-4.43.94-5.77,5.62-5.76,162.93.13,325.86.13,488.78,0,4.73,0,5.59,1.41,5.59,5.79-.11,162.76-.12,325.52.04,488.28,0,5.09-1.58,5.84-6.15,5.83-81.46-.14-162.93-.1-244.39-.1Zm129.42-271.81c-25.96.17-47.18,9.71-60.32,33.63-1.03,1.88-3.32,2.45-3.6,4.97-1.17,10.51-3.36,20.75-2.21,31.65,1.71,16.2,8.6,29.46,20.13,39.98,10.88,9.92,24.31,16.22,37.84,22.1,10.83,4.71,21.72,9.42,31.82,15.6,12.95,7.92,15.4,27.39.49,36.67-9.24,5.75-19.29,6.43-29.49,5.19-15.88-1.93-26.52-12.04-35.31-24.46-1.2-1.69-2.17-2.9-4.33-1.72-10.64,5.82-21.25,11.68-31.93,17.4-3.1,1.66-3.44,3.47-1.43,6.24,5.94,8.19,11.84,16.09,19.85,22.81,10.96,9.19,23.52,13.86,36.59,18.01,5.43,1.72,11.22,1.06,16.73,1.74,8.73,1.07,17.46.61,25.86-.33,11.74-1.31,23.15-5.28,33.09-12.3,9.79-6.91,18.08-14.89,22.54-26.55,5.48-14.33,5.68-28.81,2.58-43.45-2.42-11.4-8.16-21.22-16.76-29.09-13.5-12.36-30.17-19.4-46.52-26.91-9.12-4.19-18.58-7.68-26.87-13.56-6.76-4.79-10.73-13.85-9.07-20.81,2.9-12.12,7.85-15.39,21.21-16.51,12.79-1.08,22,5.49,28.51,16.11,1.3,2.12,2.33,3.45,4.98,1.65,10.1-6.86,20.25-13.64,30.48-20.31,2.16-1.41,1.83-2.82.77-4.42-6.75-10.16-15.01-18.88-25.58-25.06-12.23-7.14-25.94-7.72-40.06-8.27Zm-204.2,137.16c0,28.48.08,56.95-.09,85.43-.02,4.13.67,5.79,5.36,5.64,11.81-.39,23.65-.37,35.46,0,4.61.14,5.41-1.4,5.4-5.62-.14-57.28-.09-114.57-.09-171.85,0-.99.28-2.12-.09-2.96-1.83-4.2.28-4.65,3.8-4.63,18.98.1,37.97-.03,56.95.12,3.28.03,4.34-.92,4.26-4.2-.27-10.99-.43-21.98-.33-32.97.03-3.54-1.46-3.98-4.44-3.97-55.12.1-110.24.19-165.36.05-5.23-.01-6.62,2.16-6.51,6.72.25,9.97.53,19.95.46,29.93-.02,3.53,1.1,4.47,4.54,4.44,17.15-.16,34.3-.07,51.46-.07q9.2,0,9.21,9.53c0,28.14,0,56.29,0,84.43Z"/>
  <path class="cls-2" d="m384.89,233.83c14.12.54,27.83,1.12,40.06,8.27,10.57,6.18,18.83,14.9,25.58,25.06,1.06,1.6,1.39,3.01-.77,4.42-10.23,6.66-20.38,13.45-30.48,20.31-2.65,1.8-3.68.46-4.98-1.65-6.51-10.62-15.72-17.19-28.51-16.11-13.37,1.12-18.32,4.39-21.21,16.51-1.66,6.96,2.31,16.02,9.07,20.81,8.29,5.88,17.75,9.36,26.87,13.56,16.35,7.51,33.02,14.55,46.52,26.91,8.59,7.87,14.34,17.69,16.76,29.09,3.1,14.64,2.91,29.12-2.58,43.45-4.46,11.65-12.74,19.64-22.54,26.55-9.95,7.01-21.36,10.99-33.09,12.3-8.4.94-17.13,1.4-25.86.33-5.51-.68-11.31-.02-16.73-1.74-13.08-4.15-25.63-8.82-36.59-18.01-8.01-6.72-13.91-14.62-19.85-22.81-2.01-2.77-1.67-4.58,1.43-6.24,10.69-5.72,21.3-11.58,31.93-17.4,2.16-1.18,3.13.03,4.33,1.72,8.8,12.42,19.44,22.53,35.31,24.46,10.19,1.24,20.25.57,29.49-5.19,14.91-9.28,12.46-28.75-.49-36.67-10.1-6.18-20.99-10.89-31.82-15.6-13.53-5.88-26.96-12.18-37.84-22.1-11.54-10.52-18.42-23.78-20.13-39.98-1.15-10.91,1.04-21.14,2.21-31.65.28-2.52,2.57-3.09,3.6-4.97,13.14-23.91,34.36-33.45,60.32-33.63Z"/>
  <path class="cls-2" d="m180.7,370.99c0-28.14,0-56.29,0-84.43q0-9.53-9.21-9.53c-17.15,0-34.3-.09-51.46.07-3.44.03-4.57-.91-4.54-4.44.06-9.97-.22-19.95-.46-29.93-.11-4.56,1.28-6.73,6.51-6.72,55.12.13,110.24.05,165.36-.05,2.98,0,4.48.44,4.44,3.97-.1,10.99.06,21.98.33,32.97.08,3.27-.98,4.22-4.26,4.2-18.98-.15-37.97-.02-56.95-.12-3.52-.02-5.64.44-3.8,4.63.37.84.09,1.97.09,2.96,0,57.28-.04,114.57.09,171.85,0,4.22-.78,5.76-5.4,5.62-11.81-.37-23.65-.38-35.46,0-4.69.16-5.38-1.5-5.36-5.64.16-28.47.09-56.95.09-85.43Z"/>
</svg>