<?xml version="1.0" encoding="UTF-8"?>
<svg id="Layer_1" data-name="Layer 1" xmlns="http://www.w3.org/2000/svg" viewBox="0 0 1274.38 535">
  <defs>
    <style>
      .cls-1 {
        fill: #991b1e;
      }

      .cls-2 {
        fill: #961a1d;
      }
    </style>
  </defs>
  <path class="cls-1" d="m604.5,60.07c-22.62-.54-45.22-2.22-67.86-1.88-74.14,1.11-146.91,10.87-217.34,34.94-34.79,11.89-67.99,27.11-98.68,47.6-4.6,3.07-5.95,5.6-4.52,11.53,10.15,42.02,19.66,84.19,29.37,126.31,3.1,13.45,6.16,26.9,9.26,40.35.21.93.67,1.8,1.07,2.87,2-1.79,1.98-4.12,2.54-6.12,16.05-57.33,32.08-114.67,47.91-172.07,1.2-4.35,2.97-5.85,7.46-5.68,9.32.35,18.66.34,27.98,0,4.2-.15,5.7,1.45,6.76,5.29,15.88,57.38,31.91,114.71,47.91,172.05.57,2.05,1.22,4.07,2.13,7.11,2.38-4.5,2.7-8.6,3.59-12.44,12.85-55.38,25.63-110.77,38.28-166.2.98-4.3,2.59-5.99,7.23-5.83,10.65.38,21.33.3,31.98.03,4.23-.1,4.63,1.38,3.66,4.94-13.48,49.24-26.88,98.5-40.28,147.76-7.56,27.76-15.22,55.49-22.51,83.32-1.27,4.86-3.42,6.29-8.21,6.09-8.82-.36-17.66-.28-26.48-.03-3.83.11-5.43-1.16-6.47-4.94-14.16-51.47-28.5-102.89-42.8-154.32-2.71-9.73-5.43-19.46-9.21-29.23-1.28,4.4-2.58,8.8-3.82,13.22-15.93,56.5-31.9,112.99-47.67,169.53-1.19,4.25-2.81,5.97-7.36,5.77-8.31-.37-16.67-.44-24.98.01-5.44.3-7.72-1.41-9.11-6.87-8.68-34.17-17.79-68.22-26.74-102.32-8.06-30.71-16.1-61.42-24.2-92.12-.43-1.64-.15-4.25-2.24-4.49-1.69-.2-2.85,1.8-4.09,3.21-9.05,10.28-17.31,21.1-23.98,33.1-7.94,14.29-12.88,29.54-14.53,45.77-3.61,35.47,9.38,65.51,31.21,92.35,20.48,25.18,46.21,44.04,74.28,59.84,39.88,22.44,82.66,37.35,126.93,48.31,32.47,8.04,65.42,13.17,98.71,16.18,1.48.13,2.93.57,4.4.87,0,0,.19.02.19.02,16.94.81,33.89,1.53,50.82,2.47,20.48,1.13,40.92-.66,61.39-.47.37-.02.74-.04,1.11-.07,9.31-1.21,18.67-1.71,28.05-1.91,0,0,.11,0,.11,0,12.25-1.38,24.47-3.07,36.76-3.98,4.79-.35,9.22-2.73,14.09-2.03,0,0,.18-.02.18-.02,13.7-2.65,27.45-5.06,41.09-7.98,45.76-9.78,89.92-24.15,131.24-46.5,1.12-.6,2.16-1.64,3.99-1.03.09,2.09-1.69,2.96-2.94,4-23.94,19.83-49.8,36.66-77.62,50.61-20.08,10.06-40.41,19.44-61.54,27.03-45.18,16.24-91.53,27.64-139.14,33.9-23.61,3.1-47.27,5.48-71.09,6.1-1.81.05-3.69-.17-5.35.87h-51.99c-1.27-1.06-2.83-.87-4.3-.9-22.48-.41-44.87-2.44-67.12-5.31-25.38-3.27-50.58-7.77-75.51-13.75-40.9-9.81-80.63-22.98-118.58-41.19-38.95-18.69-75-41.67-105.83-72.3-12.56-12.48-23.78-26.02-33.28-40.93C2.27,318.94-7.11,274.21,5.62,225.97c9.97-37.8,31.74-68.55,59.43-95.44,24.07-23.37,51.45-42.22,80.89-58.14,45.83-24.8,94.57-41.77,145.25-53.39,15.71-3.6,31.44-7.11,47.49-8.89h.13c19.47-3.58,39.07-6.09,58.86-6.99h.12c3.19-1,6.5-.77,9.76-1.12,7.62-.82,15.35-.12,22.88-1.91h54.99c6.44,2.02,13.23,1.44,19.73,1.68,17,.64,33.89,2.22,50.69,4.5,24,3.26,47.93,7.05,71.53,12.74,38.06,9.18,75.39,20.55,110.92,37.1,21.06,9.81,42.04,19.92,61.49,32.81,16.49,10.93,32.73,22.2,47.32,35.65-.34.27-.68.54-1.02.81-22.85-12.37-46.39-23.18-71.01-31.62-36.58-12.53-74-21.48-112.3-26.76-11.68-1.61-23.35-3.28-35.02-4.92,0,0-.21-.02-.21-.02-3.65.13-7.29.06-10.82-1.01,0,0-.08,0-.08,0-4,.1-7.99.18-11.89-.96,0,0-.24-.02-.24-.02Z"/>
  <path class="cls-1" d="m896.66,381.94c-13.93-.6-26.95-4.15-39.57-10.3-8.95-4.37-17.11-9.72-24.39-16.2-7.46-6.63-13.25-14.88-18.24-23.59-7.68-13.39-12.58-27.76-14.56-43.04-4.69-36.32.6-70.52,23.45-100.27,17.21-22.4,40.58-34.33,68.52-37.63,27.73-3.28,53.43,1.89,76.03,18.86,17.43,13.09,27.53,30.83,31.27,52.23.96,5.48.31,6.23-5.08,6.25-11.99.05-23.99-.04-35.98.05-2.87.02-4.36-.85-5.4-3.79-12.06-34-53.3-44.94-81.59-21.71-13.64,11.2-19.23,26.63-22.64,43.26-4.34,21.15-1.97,41.84,5.51,61.7,3.65,9.68,10.6,17.67,18.98,24.45,18.09,14.63,56,12.09,70.25-1.13,9.57-8.88,14.16-19.86,16.11-32.36.54-3.44-.73-4.75-4.3-4.71-12.99.14-25.99-.05-38.98.1-3.64.04-5.04-1.14-4.96-4.85.18-8.99.14-17.99.03-26.98-.04-3.15,1.07-4.46,4.34-4.46,27.99.08,55.97.07,83.96.01,3.05,0,4.05,1.25,4.04,4.18-.05,37.14-.06,74.28.01,111.42,0,3.29-1.27,4.4-4.43,4.35-7.33-.12-14.66-.1-21.99,0-2.92.04-4.47-.75-4.99-4.03-1.04-6.66-2.64-13.24-4.27-21.11-18.91,23.25-42.51,32.65-71.15,29.29,0,0,.02.01.02.01Z"/>
  <path class="cls-1" d="m628.58,379c0-65.96,0-131.92.01-197.88,0-5.66.13-11.33-.02-16.99-.09-3.44,1.6-4.18,4.61-4.12,7.33.13,14.67.25,21.99-.04,3.98-.16,4.8,1.66,4.78,5.04-.08,11.16-.02,22.32-.02,33.48,0,9.99-.01,19.99.05,29.98,0,1.23-.51,2.95,1.1,3.5,1.3.45,1.9-1.06,2.7-1.83,23.88-23.01,60.47-19.74,82.16-1.41,14.95,12.64,22.59,29.48,25.22,48.45,3.39,24.56.36,48.43-10.86,70.8-15.05,30-45.52,41.25-76.01,34.14-10.05-2.35-18.01-8.27-25.25-16.3-1.24,4.73-.2,9.04-.83,13.2-.26.24-.51.49-.77.73-9.36,0-18.73,0-28.09,0-.25-.25-.5-.49-.75-.74Zm111.55-79.1c-.31-5.81-.41-11.65-1.01-17.44-.41-3.94-1.34-7.86-2.33-11.71-3.76-14.67-14.5-28.61-36.69-27.87-19.36.65-29.82,7.41-36.1,25.8-4.85,14.2-5.78,28.92-5.03,43.82.34,6.71,1.96,13.04,4.18,19.35,5.21,14.79,21.57,26.53,38.35,25.13,11.06-.92,20.32-4.97,26.8-14.19,9.03-12.85,11.96-27.45,11.84-42.88Z"/>
  <path class="cls-1" d="m1034.26,266.54c0-34.97.13-69.94-.13-104.9-.04-5.37,1.91-6.41,6.64-6.31,11.65.24,23.31.06,34.97.09,6.63.01,6.66.04,6.66,6.58,0,55.61,0,111.23,0,166.84q0,7.73,7.64,7.75c31.14,0,62.29,0,93.43.01,6.87,0,6.88.04,6.89,6.87.01,9.32-.25,18.66.11,27.97.18,4.85-1.45,6.25-6.21,6.22-29.64-.18-59.29-.09-88.93-.09-18.32,0-36.64-.14-54.96.09-4.78.06-6.23-1.4-6.2-6.23.19-34.97.1-69.93.1-104.9Z"/>
  <path class="cls-1" d="m551.46,310.05c-17.16,0-34.33.13-51.49-.09-4.36-.06-6.08,1.12-5.5,5.63,1.95,15.05,6.14,28.75,20.74,36.59,16.8,9.02,39.37,5.71,52.21-7.71,3.97-4.15,7.13-8.83,8.09-14.63.47-2.85,1.97-3.83,4.79-3.78,7.5.13,15,.17,22.49-.01,3.7-.09,4.39,1.14,3.78,4.74-4.33,25.65-28.49,48.81-54.73,52.16-13.13,1.68-26.27,2.22-39.16-1.4-25.59-7.18-41.08-24.65-47.81-49.64-6.67-24.77-5.26-49.54,4.3-73.48,13.62-34.11,44.49-46.78,76.84-43.9,30,2.67,47.56,20.53,56.69,48.16,4.07,12.3,6.25,24.81,5.7,37.77-.03.66-.02,1.33.02,2q.51,7.59-7.47,7.6c-16.5,0-32.99,0-49.49,0Zm-16.35-25.76c10.81,0,21.62,0,32.43,0,9.5,0,9.66-.04,7.71-9.19-2.19-10.29-6.31-19.42-15.15-26.08-9.75-7.34-21.66-8.01-31.91-6.15-18.38,3.34-30.42,18.05-33.68,37.05-.66,3.87,1.57,4.39,4.67,4.38,11.97-.07,23.95-.03,35.93-.01Z"/>
  <path class="cls-2" d="m1254.86,365.57c1.13-4.46,2.25-8.93,3.38-13.39,1.43-5.61,5.94-2.71,9.13-3.15,3.26-.45,3.09,2.25,3.1,4.42.03,6.49.03,12.98,0,19.47,0,2.34.24,4.88-3.38,4.77-3.65-.11-3.12-2.8-3.16-5.03-.08-4.62-.02-9.25-1.07-14.07-1.37,4.98-2.73,9.96-4.1,14.94-.58,2.09-.93,4.22-3.96,4.24-2.97.02-3.48-2.07-4.16-4.12-1.64-4.94-3.24-9.89-4.86-14.83-.44.06-.88.13-1.32.19,0,4.57.03,9.13-.01,13.7-.02,2.33.21,4.94-3.36,4.86-3.16-.07-3.16-2.41-3.18-4.6-.05-6.49-.05-12.98,0-19.47.01-2.17-.08-4.87,3.13-4.45,3.19.41,7.71-2.46,9.17,3.1,1.17,4.47,2.26,8.97,3.39,13.45.42,0,.83-.01,1.25-.02Z"/>
  <path class="cls-1" d="m1222.29,348.95c3.33,0,6.66.02,9.99,0,2.07-.02,2.98.88,2.98,3.01,0,2.1-.86,3.31-2.93,2.99-6.38-.99-7.09,2.65-6.75,7.66.26,3.81.03,7.65,0,11.48-.01,2.05-.57,3.54-3.06,3.62-2.72.09-3.44-1.38-3.43-3.73.02-4.66-.15-9.33.01-13.98.12-3.51-.95-5.3-4.81-5.05-2.08.14-4.96.94-4.95-2.97,0-3.88,2.84-2.92,4.96-3.03,2.66-.13,5.33-.03,7.99-.03v.04Z"/>
  <path class="cls-2" d="m846.21,409.82c.71-.86,1.6-.75,2.52-.47v-.08c-.62.43-1.25.85-1.88,1.28-.21-.24-.42-.48-.64-.72Z"/>
  <path class="cls-2" d="m847.09,124.57c.08.3.32.73.21.89-.38.51-.84.28-1.23-.08.34-.27.68-.54,1.02-.81Z"/>
  <path class="cls-2" d="m627.53,62.07s.21.02.21.02c0,0-.21-.02-.21-.02Z"/>
  <path class="cls-2" d="m616.63,61.05s.08,0,.08,0c0,0-.08,0-.08,0Z"/>
  <path class="cls-2" d="m604.5,60.07s.24.02.24.02c0,0-.24-.02-.24-.02Z"/>
  <path class="cls-2" d="m628.58,379c.25.25.5.49.75.74-.25-.25-.5-.49-.75-.74Z"/>
  <path class="cls-2" d="m657.43,379.74c.26-.24.51-.49.77-.73-.26.24-.51.49-.77.73Z"/>
  <path class="cls-2" d="m896.66,381.94s-.02-.01-.02-.01.02.01.02.01Z"/>
  <path class="cls-2" d="m848.72,409.35l-.17-.34s.15.24.16.24c.01,0,.01.09.01.09Z"/>
  <path class="cls-2" d="m846.84,410.54c-.4-.02-.8-.03-1.2-.05.19-.22.37-.45.56-.67.21.24.43.48.64.72Z"/>
  <path class="cls-2" d="m666.77,467.92s-.18.02-.18.02c0,0,.18-.02.18-.02Z"/>
  <path class="cls-2" d="m474.26,473.94s-.19-.02-.19-.02c0,0,.19.02.19.02Z"/>
  <path class="cls-2" d="m615.74,473.95s-.11,0-.11,0c0,0,.11,0,.11,0Z"/>
  <path class="cls-2" d="m587.58,475.87c-.37.02-.74.04-1.11.07.37-.02.74-.04,1.11-.07Z"/>
  <path class="cls-2" d="m338.68,10.11s.13-.01.13-.01-.13.01-.13.01Z"/>
  <path class="cls-2" d="m397.66,3.12s.12,0,.12,0-.12,0-.12,0Z"/>
</svg>